<?xml version="1.0" standalone="no"?>
<!DOCTYPE svg PUBLIC "-//W3C//DTD SVG 1.1//EN"
  "http://www.w3.org/Graphics/SVG/1.1/DTD/svg11.dtd">
<svg width="413.38px" height="413.38px" version="1.1"
    xmlns="http://www.w3.org/2000/svg"
    xmlns:xlink="http://www.w3.org/1999/xlink">
<desc>Veusz output document</desc>
<defs>
<clipPath id="c0">
<path d="m0,0l413.38,0l0,413.38l-413.38,0l0,-413.38"/>
</clipPath>
<clipPath id="c1">
<path d="m274.3,191.63l27.55,0l0,14.3l-27.55,0l0,-14.3"/>
</clipPath>
<clipPath id="c2">
<path d="m274.3,205.93l27.55,0l0,14.3l-27.55,0l0,-14.3"/>
</clipPath>
<clipPath id="c3">
<path d="m274.3,220.23l27.55,0l0,14.3l-27.55,0l0,-14.3"/>
</clipPath>
<clipPath id="c4">
<path d="m274.3,234.53l27.55,0l0,14.3l-27.55,0l0,-14.3"/>
</clipPath>
<clipPath id="c5">
<path d="m274.3,248.83l27.55,0l0,14.3l-27.55,0l0,-14.3"/>
</clipPath>
<clipPath id="c6">
<path d="m46.85,5.51l361.02,0l0,361.02l-361.02,0l0,-361.02"/>
</clipPath>
</defs>
<g stroke-linejoin="bevel" stroke-linecap="square" stroke="#000000" fill-rule="evenodd">
<g clip-path="url(#c0)">
<g fill="#ffffff" stroke-width="0.48">
<path d="m46.85,5.51l361.02,0l0,361.02l-361.02,0l0,-361.02"/>
</g>
<g fill="#ffffff" stroke="none" stroke-width="0.1">
<path d="m260,184.48l130.05,0l0,85.8l-130.05,0l0,-85.8" id="p0"/>
</g>
<g fill="none" stroke-width="0.48">
<use xlink:href="#p0"/>
</g>
</g>
<g clip-path="url(#c1)">
<g fill="none" stroke="#e41a1c" stroke-width="0.48">
<path d="M288.08,198.78l0,0"/>
</g>
<g fill="none" stroke="#e41a1c" stroke-width="1.94">
<path d="M274.3,198.78l27.55,0"/>
</g>
</g>
<g clip-path="url(#c0)">
<g fill="none" stroke-width="0.1">
<path d="m320.04,202.7l0,0.22l-3.57,0l0,-0.22l0.29,0c0.34,0,0.59,-0.1,0.75,-0.3c0.09,-0.13,0.14,-0.44,0.14,-0.94l0,-5.38c0,-0.42,-0.02,-0.7,-0.08,-0.83c-0.04,-0.1,-0.12,-0.19,-0.25,-0.26c-0.18,-0.09,-0.36,-0.14,-0.56,-0.14l-0.29,0l0,-0.22l3.57,0l0,0.22l-0.3,0c-0.34,0,-0.58,0.1,-0.74,0.3c-0.1,0.13,-0.15,0.44,-0.15,0.94l0,5.38c0,0.42,0.02,0.7,0.08,0.83c0.04,0.1,0.12,0.19,0.25,0.26c0.17,0.09,0.36,0.14,0.55,0.14l0.3,0m2.35,-5.57l0,1.26c0.47,-0.84,0.95,-1.26,1.45,-1.26c0.22,0,0.41,0.06,0.55,0.2c0.14,0.13,0.22,0.29,0.22,0.47c0,0.16,-0.05,0.29,-0.16,0.4c-0.1,0.11,-0.23,0.16,-0.38,0.16c-0.14,0,-0.3,-0.07,-0.48,-0.21c-0.17,-0.14,-0.31,-0.21,-0.39,-0.21c-0.07,0,-0.15,0.04,-0.23,0.12c-0.18,0.16,-0.37,0.44,-0.57,0.83l0,2.7c0,0.31,0.03,0.54,0.11,0.7c0.05,0.11,0.14,0.2,0.28,0.27c0.13,0.07,0.33,0.11,0.58,0.11l0,0.22l-2.88,0l0,-0.22c0.28,0,0.5,-0.04,0.63,-0.13c0.1,-0.06,0.17,-0.17,0.21,-0.31c0.02,-0.06,0.03,-0.26,0.03,-0.59l0,-2.18c0,-0.65,-0.01,-1.04,-0.04,-1.17c-0.02,-0.12,-0.07,-0.21,-0.14,-0.27c-0.07,-0.05,-0.16,-0.08,-0.26,-0.08c-0.12,0,-0.27,0.03,-0.43,0.09l-0.06,-0.22l1.7,-0.68l0.25,0m5.3,0c0.85,0,1.53,0.32,2.05,0.97c0.43,0.55,0.65,1.18,0.65,1.9c0,0.5,-0.12,1.01,-0.36,1.53c-0.24,0.51,-0.57,0.9,-0.99,1.16c-0.42,0.26,-0.89,0.39,-1.41,0.39c-0.84,0,-1.52,-0.33,-2.02,-1.01c-0.42,-0.57,-0.63,-1.21,-0.63,-1.91c0,-0.51,0.12,-1.03,0.38,-1.54c0.25,-0.51,0.59,-0.88,1.01,-1.13c0.41,-0.24,0.86,-0.36,1.32,-0.36m-0.19,0.39c-0.21,0,-0.43,0.06,-0.65,0.19c-0.21,0.12,-0.39,0.35,-0.53,0.67c-0.13,0.32,-0.2,0.74,-0.2,1.24c0,0.82,0.16,1.52,0.48,2.12c0.32,0.59,0.75,0.89,1.28,0.89c0.39,0,0.72,-0.16,0.98,-0.49c0.25,-0.32,0.38,-0.89,0.38,-1.69c0,-1,-0.21,-1.78,-0.64,-2.36c-0.29,-0.39,-0.66,-0.59,-1.11,-0.59m5.37,0.79c0.66,-0.79,1.28,-1.19,1.88,-1.19c0.3,0,0.57,0.07,0.79,0.23c0.22,0.15,0.39,0.4,0.52,0.75c0.09,0.24,0.13,0.62,0.13,1.13l0,2.4c0,0.35,0.02,0.59,0.08,0.72c0.04,0.1,0.11,0.18,0.21,0.23c0.1,0.05,0.28,0.08,0.55,0.08l0,0.22l-2.78,0l0,-0.22l0.11,0c0.26,0,0.44,-0.04,0.55,-0.12c0.1,-0.08,0.17,-0.19,0.21,-0.35c0.01,-0.06,0.02,-0.25,0.02,-0.57l0,-2.3c0,-0.51,-0.06,-0.88,-0.2,-1.11c-0.13,-0.23,-0.35,-0.34,-0.67,-0.34c-0.48,0,-0.97,0.26,-1.45,0.79l0,2.97c0,0.38,0.02,0.61,0.06,0.7c0.05,0.11,0.13,0.2,0.23,0.26c0.1,0.05,0.3,0.08,0.61,0.08l0,0.22l-2.78,0l0,-0.22l0.12,0c0.28,0,0.48,-0.07,0.58,-0.21c0.1,-0.14,0.15,-0.42,0.15,-0.83l0,-2.09c0,-0.67,-0.01,-1.08,-0.04,-1.23c-0.03,-0.14,-0.07,-0.24,-0.14,-0.3c-0.06,-0.05,-0.14,-0.08,-0.25,-0.08c-0.11,0,-0.25,0.03,-0.41,0.09l-0.09,-0.22l1.69,-0.68l0.26,0l0,1.19" fill="#000000" stroke="none" fill-opacity="1"/>
</g>
</g>
<g clip-path="url(#c2)">
<g fill="none" stroke="#377eb8" stroke-width="0.48">
<path d="M288.08,213.08l0,0"/>
</g>
<g fill="none" stroke="#377eb8" stroke-width="1.94">
<path d="M274.3,213.08l27.55,0"/>
</g>
</g>
<g clip-path="url(#c0)">
<g fill="none" stroke-width="0.1">
<path d="m323.89,208.7l0.21,2.63l-0.21,0c-0.21,-0.65,-0.49,-1.15,-0.84,-1.48c-0.49,-0.47,-1.13,-0.71,-1.91,-0.71c-1.06,0,-1.87,0.42,-2.42,1.26c-0.46,0.7,-0.69,1.55,-0.69,2.53c0,0.79,0.15,1.52,0.46,2.17c0.3,0.65,0.71,1.13,1.2,1.44c0.49,0.3,1.01,0.45,1.53,0.45c0.3,0,0.6,-0.03,0.89,-0.11c0.28,-0.07,0.56,-0.19,0.83,-0.34l0,-2.41c0,-0.41,-0.03,-0.69,-0.09,-0.82c-0.06,-0.12,-0.16,-0.22,-0.29,-0.29c-0.13,-0.06,-0.36,-0.1,-0.7,-0.1l0,-0.23l3.23,0l0,0.23l-0.15,0c-0.31,0,-0.53,0.1,-0.65,0.31c-0.08,0.15,-0.12,0.45,-0.12,0.89l0,2.55c-0.47,0.25,-0.93,0.44,-1.39,0.55c-0.45,0.11,-0.97,0.17,-1.53,0.17c-1.61,0,-2.83,-0.51,-3.67,-1.55c-0.62,-0.77,-0.94,-1.66,-0.94,-2.68c0,-0.73,0.17,-1.43,0.52,-2.11c0.41,-0.79,0.99,-1.41,1.72,-1.84c0.61,-0.35,1.33,-0.53,2.16,-0.53c0.3,0,0.57,0.02,0.82,0.07c0.24,0.04,0.59,0.15,1.05,0.32c0.22,0.08,0.38,0.12,0.46,0.12c0.07,0,0.14,-0.03,0.2,-0.1c0.05,-0.07,0.08,-0.21,0.1,-0.42l0.22,0m4.51,2.73c0.85,0,1.53,0.32,2.05,0.97c0.43,0.55,0.65,1.18,0.65,1.9c0,0.5,-0.12,1.01,-0.36,1.53c-0.24,0.51,-0.57,0.9,-0.99,1.16c-0.42,0.26,-0.89,0.39,-1.41,0.39c-0.84,0,-1.52,-0.33,-2.02,-1.01c-0.42,-0.57,-0.63,-1.21,-0.63,-1.91c0,-0.51,0.12,-1.03,0.38,-1.54c0.25,-0.51,0.59,-0.88,1.01,-1.13c0.41,-0.24,0.86,-0.36,1.32,-0.36m-0.19,0.39c-0.21,0,-0.43,0.06,-0.65,0.19c-0.21,0.12,-0.39,0.35,-0.53,0.67c-0.13,0.32,-0.2,0.74,-0.2,1.24c0,0.82,0.16,1.52,0.48,2.12c0.32,0.59,0.75,0.89,1.28,0.89c0.39,0,0.72,-0.16,0.98,-0.49c0.25,-0.32,0.38,-0.89,0.38,-1.69c0,-1,-0.21,-1.78,-0.64,-2.36c-0.29,-0.39,-0.66,-0.59,-1.11,-0.59m5.67,-3.34l0,7.47c0,0.35,0.02,0.58,0.07,0.7c0.05,0.11,0.13,0.2,0.23,0.26c0.1,0.05,0.3,0.08,0.59,0.08l0,0.22l-2.76,0l0,-0.22c0.25,0,0.43,-0.02,0.52,-0.08c0.09,-0.05,0.16,-0.14,0.22,-0.26c0.05,-0.12,0.08,-0.35,0.08,-0.7l0,-5.11c0,-0.63,-0.01,-1.02,-0.04,-1.17c-0.02,-0.14,-0.07,-0.24,-0.13,-0.29c-0.06,-0.05,-0.14,-0.08,-0.24,-0.08c-0.1,0,-0.24,0.03,-0.4,0.09l-0.1,-0.21l1.67,-0.68l0.27,0m5.54,8.11c-0.27,0.28,-0.54,0.49,-0.8,0.61c-0.26,0.12,-0.54,0.18,-0.84,0.18c-0.61,0,-1.15,-0.25,-1.61,-0.77c-0.45,-0.51,-0.68,-1.17,-0.68,-1.98c0,-0.8,0.25,-1.54,0.76,-2.21c0.5,-0.67,1.16,-1,1.96,-1c0.49,0,0.9,0.15,1.23,0.47l0,-1.03c0,-0.64,-0.01,-1.03,-0.04,-1.18c-0.03,-0.14,-0.07,-0.24,-0.14,-0.3c-0.06,-0.05,-0.14,-0.08,-0.24,-0.08c-0.1,0,-0.24,0.03,-0.42,0.09l-0.08,-0.21l1.67,-0.68l0.27,0l0,6.51c0,0.66,0.01,1.06,0.04,1.2c0.03,0.14,0.08,0.24,0.14,0.3c0.06,0.05,0.14,0.08,0.23,0.08c0.11,0,0.25,-0.03,0.44,-0.1l0.06,0.21l-1.67,0.69l-0.28,0l0,-0.8m0,-0.43l0,-2.9c-0.02,-0.27,-0.09,-0.53,-0.22,-0.76c-0.12,-0.22,-0.28,-0.4,-0.48,-0.51c-0.2,-0.11,-0.4,-0.17,-0.59,-0.17c-0.36,0,-0.68,0.16,-0.96,0.48c-0.37,0.42,-0.55,1.05,-0.55,1.87c0,0.82,0.18,1.46,0.54,1.9c0.36,0.44,0.76,0.66,1.2,0.66c0.37,0,0.73,-0.18,1.08,-0.55" fill="#000000" stroke="none" fill-opacity="1"/>
</g>
</g>
<g clip-path="url(#c3)">
<g fill="none" stroke="#4daf4a" stroke-width="0.48">
<path d="M288.08,227.38l0,0"/>
</g>
<g fill="none" stroke="#4daf4a" stroke-width="1.94">
<path d="M274.3,227.38l27.55,0"/>
</g>
</g>
<g clip-path="url(#c0)">
<g fill="none" stroke-width="0.1">
<path d="m323.45,223.19l0.09,1.95l-0.23,0c-0.04,-0.34,-0.1,-0.59,-0.18,-0.73c-0.12,-0.23,-0.29,-0.41,-0.5,-0.52c-0.21,-0.11,-0.48,-0.16,-0.83,-0.16l-1.17,0l0,6.37c0,0.51,0.05,0.83,0.16,0.95c0.15,0.17,0.39,0.25,0.71,0.25l0.28,0l0,0.22l-3.53,0l0,-0.22l0.29,0c0.35,0,0.6,-0.1,0.75,-0.31c0.09,-0.13,0.13,-0.43,0.13,-0.89l0,-6.37l-1,0c-0.38,0,-0.66,0.02,-0.83,0.08c-0.21,0.07,-0.39,0.22,-0.54,0.44c-0.15,0.22,-0.24,0.52,-0.27,0.89l-0.23,0l0.09,-1.95l6.81,0m1.83,-0.4c0.17,0,0.31,0.06,0.43,0.18c0.12,0.12,0.18,0.26,0.18,0.43c0,0.17,-0.06,0.31,-0.18,0.44c-0.12,0.12,-0.26,0.18,-0.43,0.18c-0.17,0,-0.31,-0.06,-0.44,-0.18c-0.12,-0.12,-0.18,-0.27,-0.18,-0.44c0,-0.17,0.06,-0.31,0.18,-0.43c0.12,-0.12,0.26,-0.18,0.44,-0.18m0.51,2.94l0,4.52c0,0.35,0.02,0.58,0.07,0.7c0.05,0.11,0.12,0.2,0.22,0.26c0.1,0.05,0.28,0.08,0.55,0.08l0,0.22l-2.73,0l0,-0.22c0.27,0,0.45,-0.02,0.55,-0.08c0.09,-0.05,0.16,-0.14,0.22,-0.26c0.05,-0.12,0.08,-0.35,0.08,-0.7l0,-2.17c0,-0.61,-0.01,-1,-0.05,-1.18c-0.02,-0.13,-0.07,-0.22,-0.13,-0.27c-0.06,-0.05,-0.14,-0.07,-0.25,-0.07c-0.11,0,-0.25,0.03,-0.41,0.09l-0.08,-0.22l1.69,-0.68l0.27,0m3.19,-1.68l0,1.85l1.31,0l0,0.43l-1.31,0l0,3.65c0,0.36,0.05,0.61,0.15,0.73c0.1,0.12,0.23,0.19,0.4,0.19c0.13,0,0.26,-0.04,0.39,-0.12c0.12,-0.08,0.22,-0.2,0.29,-0.37l0.23,0c-0.14,0.4,-0.34,0.7,-0.6,0.9c-0.26,0.2,-0.53,0.3,-0.81,0.3c-0.18,0,-0.37,-0.05,-0.55,-0.15c-0.18,-0.1,-0.31,-0.25,-0.39,-0.44c-0.08,-0.19,-0.12,-0.49,-0.12,-0.9l0,-3.78l-0.89,0l0,-0.2c0.22,-0.09,0.45,-0.24,0.69,-0.45c0.23,-0.21,0.44,-0.47,0.63,-0.76c0.09,-0.15,0.22,-0.44,0.39,-0.85l0.19,0m5.05,6.67c-0.57,0.44,-0.94,0.7,-1.08,0.77c-0.22,0.1,-0.45,0.15,-0.7,0.15c-0.38,0,-0.71,-0.13,-0.96,-0.39c-0.25,-0.26,-0.37,-0.61,-0.37,-1.05c0,-0.27,0.06,-0.51,0.18,-0.71c0.16,-0.27,0.46,-0.54,0.87,-0.78c0.41,-0.24,1.1,-0.54,2.07,-0.89l0,-0.22c0,-0.56,-0.08,-0.94,-0.26,-1.15c-0.17,-0.2,-0.43,-0.31,-0.77,-0.31c-0.25,0,-0.46,0.06,-0.61,0.2c-0.15,0.13,-0.23,0.29,-0.23,0.47l0.01,0.35c0,0.18,-0.04,0.33,-0.14,0.43c-0.09,0.1,-0.22,0.15,-0.37,0.15c-0.15,0,-0.27,-0.05,-0.37,-0.16c-0.09,-0.1,-0.14,-0.25,-0.14,-0.43c0,-0.35,0.18,-0.67,0.54,-0.97c0.36,-0.29,0.86,-0.44,1.51,-0.44c0.5,0,0.91,0.08,1.23,0.25c0.24,0.12,0.42,0.32,0.53,0.59c0.07,0.17,0.11,0.53,0.11,1.08l0,1.91c0,0.53,0.01,0.86,0.03,0.98c0.02,0.12,0.05,0.2,0.1,0.24c0.04,0.04,0.1,0.06,0.16,0.06c0.06,0,0.12,-0.01,0.17,-0.04c0.08,-0.05,0.25,-0.2,0.49,-0.44l0,0.34c-0.45,0.61,-0.89,0.92,-1.31,0.92c-0.2,0,-0.36,-0.06,-0.47,-0.2c-0.11,-0.13,-0.18,-0.37,-0.18,-0.71m0,-0.39l0,-2.14c-0.61,0.24,-1.01,0.42,-1.19,0.52c-0.32,0.18,-0.55,0.36,-0.69,0.56c-0.13,0.19,-0.2,0.41,-0.2,0.64c0,0.29,0.08,0.54,0.26,0.73c0.17,0.19,0.37,0.29,0.6,0.29c0.31,0,0.72,-0.2,1.23,-0.61m4.04,-3.39c0.66,-0.79,1.28,-1.19,1.88,-1.19c0.3,0,0.57,0.07,0.79,0.23c0.22,0.15,0.39,0.4,0.52,0.75c0.09,0.24,0.13,0.62,0.13,1.13l0,2.4c0,0.35,0.02,0.59,0.08,0.72c0.04,0.1,0.11,0.18,0.21,0.23c0.1,0.05,0.28,0.08,0.55,0.08l0,0.22l-2.78,0l0,-0.22l0.11,0c0.26,0,0.44,-0.04,0.55,-0.12c0.1,-0.08,0.17,-0.19,0.21,-0.35c0.01,-0.06,0.02,-0.25,0.02,-0.57l0,-2.3c0,-0.51,-0.06,-0.88,-0.2,-1.11c-0.13,-0.23,-0.35,-0.34,-0.67,-0.34c-0.48,0,-0.97,0.26,-1.45,0.79l0,2.97c0,0.38,0.02,0.61,0.06,0.7c0.05,0.11,0.13,0.2,0.23,0.26c0.1,0.05,0.3,0.08,0.61,0.08l0,0.22l-2.78,0l0,-0.22l0.12,0c0.28,0,0.48,-0.07,0.58,-0.21c0.1,-0.14,0.15,-0.42,0.15,-0.83l0,-2.09c0,-0.67,-0.01,-1.08,-0.04,-1.23c-0.03,-0.14,-0.07,-0.24,-0.14,-0.3c-0.06,-0.05,-0.14,-0.08,-0.25,-0.08c-0.11,0,-0.25,0.03,-0.41,0.09l-0.09,-0.22l1.69,-0.68l0.26,0l0,1.19m6.09,-4.14c0.17,0,0.31,0.06,0.43,0.18c0.12,0.12,0.18,0.26,0.18,0.43c0,0.17,-0.06,0.31,-0.18,0.44c-0.12,0.12,-0.26,0.18,-0.43,0.18c-0.17,0,-0.31,-0.06,-0.44,-0.18c-0.12,-0.12,-0.18,-0.27,-0.18,-0.44c0,-0.17,0.06,-0.31,0.18,-0.43c0.12,-0.12,0.26,-0.18,0.44,-0.18m0.51,2.94l0,4.52c0,0.35,0.02,0.58,0.07,0.7c0.05,0.11,0.12,0.2,0.22,0.26c0.1,0.05,0.28,0.08,0.55,0.08l0,0.22l-2.73,0l0,-0.22c0.27,0,0.45,-0.02,0.55,-0.08c0.09,-0.05,0.16,-0.14,0.22,-0.26c0.05,-0.12,0.08,-0.35,0.08,-0.7l0,-2.17c0,-0.61,-0.01,-1,-0.05,-1.18c-0.02,-0.13,-0.07,-0.22,-0.13,-0.27c-0.06,-0.05,-0.14,-0.07,-0.25,-0.07c-0.11,0,-0.25,0.03,-0.41,0.09l-0.08,-0.22l1.69,-0.68l0.27,0m6.49,0.16l0,3.41c0,0.65,0.01,1.05,0.04,1.19c0.03,0.14,0.08,0.24,0.14,0.3c0.06,0.05,0.14,0.08,0.23,0.08c0.12,0,0.27,-0.03,0.43,-0.1l0.08,0.21l-1.68,0.69l-0.27,0l0,-1.19c-0.48,0.52,-0.85,0.85,-1.1,0.99c-0.25,0.13,-0.52,0.2,-0.8,0.2c-0.31,0,-0.58,-0.09,-0.82,-0.27c-0.23,-0.18,-0.39,-0.41,-0.48,-0.7c-0.09,-0.28,-0.13,-0.69,-0.13,-1.21l0,-2.51c0,-0.26,-0.02,-0.45,-0.08,-0.55c-0.05,-0.1,-0.14,-0.18,-0.25,-0.23c-0.11,-0.05,-0.31,-0.08,-0.61,-0.07l0,-0.22l1.97,0l0,3.77c0,0.52,0.09,0.86,0.27,1.03c0.18,0.16,0.4,0.24,0.66,0.24c0.17,0,0.37,-0.05,0.59,-0.16c0.22,-0.11,0.48,-0.32,0.79,-0.63l0,-3.19c0,-0.31,-0.05,-0.53,-0.17,-0.64c-0.11,-0.11,-0.35,-0.17,-0.72,-0.18l0,-0.22l1.91,0m3.03,1.03c0.41,-0.41,0.65,-0.64,0.72,-0.7c0.18,-0.15,0.38,-0.27,0.59,-0.36c0.21,-0.08,0.42,-0.12,0.63,-0.12c0.35,0,0.65,0.1,0.91,0.3c0.25,0.2,0.42,0.5,0.51,0.89c0.42,-0.49,0.77,-0.81,1.07,-0.96c0.29,-0.15,0.59,-0.23,0.89,-0.23c0.29,0,0.56,0.07,0.79,0.23c0.23,0.15,0.41,0.4,0.55,0.75c0.09,0.23,0.13,0.61,0.13,1.11l0,2.42c0,0.35,0.02,0.59,0.08,0.72c0.04,0.09,0.11,0.16,0.22,0.23c0.11,0.06,0.29,0.09,0.54,0.09l0,0.22l-2.78,0l0,-0.22l0.11,0c0.24,0,0.43,-0.04,0.56,-0.14c0.09,-0.06,0.16,-0.17,0.2,-0.31c0.01,-0.06,0.02,-0.26,0.02,-0.59l0,-2.42c0,-0.45,-0.05,-0.78,-0.16,-0.97c-0.16,-0.26,-0.41,-0.39,-0.76,-0.39c-0.21,0,-0.43,0.05,-0.65,0.16c-0.21,0.1,-0.48,0.31,-0.79,0.6l-0.01,0.06l0.01,0.26l0,2.68c0,0.38,0.02,0.62,0.06,0.71c0.04,0.09,0.12,0.17,0.24,0.23c0.11,0.06,0.32,0.09,0.6,0.09l0,0.22l-2.84,0l0,-0.22c0.31,0,0.52,-0.03,0.64,-0.11c0.11,-0.07,0.19,-0.18,0.24,-0.33c0.02,-0.06,0.03,-0.27,0.03,-0.6l0,-2.42c0,-0.45,-0.06,-0.78,-0.2,-0.99c-0.18,-0.26,-0.43,-0.39,-0.75,-0.39c-0.22,0,-0.44,0.05,-0.65,0.17c-0.34,0.18,-0.6,0.38,-0.78,0.6l0,3.02c0,0.36,0.02,0.6,0.07,0.71c0.05,0.11,0.12,0.19,0.22,0.24c0.1,0.05,0.3,0.08,0.61,0.08l0,0.22l-2.78,0l0,-0.22c0.25,0,0.43,-0.02,0.54,-0.08c0.1,-0.05,0.18,-0.14,0.23,-0.26c0.05,-0.12,0.08,-0.35,0.08,-0.7l0,-2.15c0,-0.61,-0.01,-1.01,-0.05,-1.19c-0.02,-0.13,-0.07,-0.22,-0.13,-0.27c-0.06,-0.05,-0.14,-0.07,-0.25,-0.07c-0.11,0,-0.25,0.03,-0.41,0.09l-0.09,-0.22l1.69,-0.68l0.26,0l0,1.19" fill="#000000" stroke="none" fill-opacity="1"/>
</g>
</g>
<g clip-path="url(#c4)">
<g fill="none" stroke="#984ea3" stroke-width="0.48">
<path d="M288.08,241.68l0,0"/>
</g>
<g fill="none" stroke="#984ea3" stroke-width="1.94">
<path d="M274.3,241.68l27.55,0"/>
</g>
</g>
<g clip-path="url(#c0)">
<g fill="none" stroke-width="0.1">
<path d="m321.92,243.04l-3.23,0l-0.56,1.31c-0.13,0.32,-0.2,0.56,-0.2,0.72c0,0.12,0.06,0.23,0.18,0.33c0.12,0.09,0.38,0.15,0.78,0.18l0,0.22l-2.62,0l0,-0.22c0.34,-0.06,0.57,-0.14,0.67,-0.23c0.2,-0.19,0.44,-0.59,0.69,-1.19l2.93,-6.86l0.21,0l2.9,6.93c0.23,0.55,0.44,0.91,0.63,1.08c0.19,0.16,0.45,0.25,0.79,0.27l0,0.22l-3.29,0l0,-0.22c0.33,-0.01,0.55,-0.07,0.67,-0.16c0.11,-0.09,0.17,-0.2,0.17,-0.34c0,-0.18,-0.08,-0.46,-0.24,-0.85l-0.5,-1.19m-0.17,-0.45l-1.41,-3.37l-1.45,3.37l2.86,0m5.83,-5.5l0,7.47c0,0.35,0.02,0.58,0.07,0.7c0.05,0.11,0.13,0.2,0.23,0.26c0.1,0.05,0.3,0.08,0.59,0.08l0,0.22l-2.76,0l0,-0.22c0.25,0,0.43,-0.02,0.52,-0.08c0.09,-0.05,0.16,-0.14,0.22,-0.26c0.05,-0.12,0.08,-0.35,0.08,-0.7l0,-5.11c0,-0.63,-0.01,-1.02,-0.04,-1.17c-0.02,-0.14,-0.07,-0.24,-0.13,-0.29c-0.06,-0.05,-0.14,-0.08,-0.24,-0.08c-0.1,0,-0.24,0.03,-0.4,0.09l-0.1,-0.21l1.67,-0.68l0.27,0m6.5,3.11l0,3.41c0,0.65,0.01,1.05,0.04,1.19c0.03,0.14,0.08,0.24,0.14,0.3c0.06,0.05,0.14,0.08,0.23,0.08c0.12,0,0.27,-0.03,0.43,-0.1l0.08,0.21l-1.68,0.69l-0.27,0l0,-1.19c-0.48,0.52,-0.85,0.85,-1.1,0.99c-0.25,0.13,-0.52,0.2,-0.8,0.2c-0.31,0,-0.58,-0.09,-0.82,-0.27c-0.23,-0.18,-0.39,-0.41,-0.48,-0.7c-0.09,-0.28,-0.13,-0.69,-0.13,-1.21l0,-2.51c0,-0.26,-0.02,-0.45,-0.08,-0.55c-0.05,-0.1,-0.14,-0.18,-0.25,-0.23c-0.11,-0.05,-0.31,-0.08,-0.61,-0.07l0,-0.22l1.97,0l0,3.77c0,0.52,0.09,0.86,0.27,1.03c0.18,0.16,0.4,0.24,0.66,0.24c0.17,0,0.37,-0.05,0.59,-0.16c0.22,-0.11,0.48,-0.32,0.79,-0.63l0,-3.19c0,-0.31,-0.05,-0.53,-0.17,-0.64c-0.11,-0.11,-0.35,-0.17,-0.72,-0.18l0,-0.22l1.91,0m3.03,1.03c0.41,-0.41,0.65,-0.64,0.72,-0.7c0.18,-0.15,0.38,-0.27,0.59,-0.36c0.21,-0.08,0.42,-0.12,0.63,-0.12c0.35,0,0.65,0.1,0.91,0.3c0.25,0.2,0.42,0.5,0.51,0.89c0.42,-0.49,0.77,-0.81,1.07,-0.96c0.29,-0.15,0.59,-0.23,0.89,-0.23c0.29,0,0.56,0.07,0.79,0.23c0.23,0.15,0.41,0.4,0.55,0.75c0.09,0.23,0.13,0.61,0.13,1.11l0,2.42c0,0.35,0.02,0.59,0.08,0.72c0.04,0.09,0.11,0.16,0.22,0.23c0.11,0.06,0.29,0.09,0.54,0.09l0,0.22l-2.78,0l0,-0.22l0.11,0c0.24,0,0.43,-0.04,0.56,-0.14c0.09,-0.06,0.16,-0.17,0.2,-0.31c0.01,-0.06,0.02,-0.26,0.02,-0.59l0,-2.42c0,-0.45,-0.05,-0.78,-0.16,-0.97c-0.16,-0.26,-0.41,-0.39,-0.76,-0.39c-0.21,0,-0.43,0.05,-0.65,0.16c-0.21,0.1,-0.48,0.31,-0.79,0.6l-0.01,0.06l0.01,0.26l0,2.68c0,0.38,0.02,0.62,0.06,0.71c0.04,0.09,0.12,0.17,0.24,0.23c0.11,0.06,0.32,0.09,0.6,0.09l0,0.22l-2.84,0l0,-0.22c0.31,0,0.52,-0.03,0.64,-0.11c0.11,-0.07,0.19,-0.18,0.24,-0.33c0.02,-0.06,0.03,-0.27,0.03,-0.6l0,-2.42c0,-0.45,-0.06,-0.78,-0.2,-0.99c-0.18,-0.26,-0.43,-0.39,-0.75,-0.39c-0.22,0,-0.44,0.05,-0.65,0.17c-0.34,0.18,-0.6,0.38,-0.78,0.6l0,3.02c0,0.36,0.02,0.6,0.07,0.71c0.05,0.11,0.12,0.19,0.22,0.24c0.1,0.05,0.3,0.08,0.61,0.08l0,0.22l-2.78,0l0,-0.22c0.25,0,0.43,-0.02,0.54,-0.08c0.1,-0.05,0.18,-0.14,0.23,-0.26c0.05,-0.12,0.08,-0.35,0.08,-0.7l0,-2.15c0,-0.61,-0.01,-1.01,-0.05,-1.19c-0.02,-0.13,-0.07,-0.22,-0.13,-0.27c-0.06,-0.05,-0.14,-0.07,-0.25,-0.07c-0.11,0,-0.25,0.03,-0.41,0.09l-0.09,-0.22l1.69,-0.68l0.26,0l0,1.19m9.56,-4.14c0.17,0,0.31,0.06,0.43,0.18c0.12,0.12,0.18,0.26,0.18,0.43c0,0.17,-0.06,0.31,-0.18,0.44c-0.12,0.12,-0.26,0.18,-0.43,0.18c-0.17,0,-0.31,-0.06,-0.44,-0.18c-0.12,-0.12,-0.18,-0.27,-0.18,-0.44c0,-0.17,0.06,-0.31,0.18,-0.43c0.12,-0.12,0.26,-0.18,0.44,-0.18m0.51,2.94l0,4.52c0,0.35,0.02,0.58,0.07,0.7c0.05,0.11,0.12,0.2,0.22,0.26c0.1,0.05,0.28,0.08,0.55,0.08l0,0.22l-2.73,0l0,-0.22c0.27,0,0.45,-0.02,0.55,-0.08c0.09,-0.05,0.16,-0.14,0.22,-0.26c0.05,-0.12,0.08,-0.35,0.08,-0.7l0,-2.17c0,-0.61,-0.01,-1,-0.05,-1.18c-0.02,-0.13,-0.07,-0.22,-0.13,-0.27c-0.06,-0.05,-0.14,-0.07,-0.25,-0.07c-0.11,0,-0.25,0.03,-0.41,0.09l-0.08,-0.22l1.69,-0.68l0.27,0m3.19,1.19c0.66,-0.79,1.28,-1.19,1.88,-1.19c0.3,0,0.57,0.07,0.79,0.23c0.22,0.15,0.39,0.4,0.52,0.75c0.09,0.24,0.13,0.62,0.13,1.13l0,2.4c0,0.35,0.02,0.59,0.08,0.72c0.04,0.1,0.11,0.18,0.21,0.23c0.1,0.05,0.28,0.08,0.55,0.08l0,0.22l-2.78,0l0,-0.22l0.11,0c0.26,0,0.44,-0.04,0.55,-0.12c0.1,-0.08,0.17,-0.19,0.21,-0.35c0.01,-0.06,0.02,-0.25,0.02,-0.57l0,-2.3c0,-0.51,-0.06,-0.88,-0.2,-1.11c-0.13,-0.23,-0.35,-0.34,-0.67,-0.34c-0.48,0,-0.97,0.26,-1.45,0.79l0,2.97c0,0.38,0.02,0.61,0.06,0.7c0.05,0.11,0.13,0.2,0.23,0.26c0.1,0.05,0.3,0.08,0.61,0.08l0,0.22l-2.78,0l0,-0.22l0.12,0c0.28,0,0.48,-0.07,0.58,-0.21c0.1,-0.14,0.15,-0.42,0.15,-0.83l0,-2.09c0,-0.67,-0.01,-1.08,-0.04,-1.23c-0.03,-0.14,-0.07,-0.24,-0.14,-0.3c-0.06,-0.05,-0.14,-0.08,-0.25,-0.08c-0.11,0,-0.25,0.03,-0.41,0.09l-0.09,-0.22l1.69,-0.68l0.26,0l0,1.19m6.09,-4.14c0.17,0,0.31,0.06,0.43,0.18c0.12,0.12,0.18,0.26,0.18,0.43c0,0.17,-0.06,0.31,-0.18,0.44c-0.12,0.12,-0.26,0.18,-0.43,0.18c-0.17,0,-0.31,-0.06,-0.44,-0.18c-0.12,-0.12,-0.18,-0.27,-0.18,-0.44c0,-0.17,0.06,-0.31,0.18,-0.43c0.12,-0.12,0.26,-0.18,0.44,-0.18m0.51,2.94l0,4.52c0,0.35,0.02,0.58,0.07,0.7c0.05,0.11,0.12,0.2,0.22,0.26c0.1,0.05,0.28,0.08,0.55,0.08l0,0.22l-2.73,0l0,-0.22c0.27,0,0.45,-0.02,0.55,-0.08c0.09,-0.05,0.16,-0.14,0.22,-0.26c0.05,-0.12,0.08,-0.35,0.08,-0.7l0,-2.17c0,-0.61,-0.01,-1,-0.05,-1.18c-0.02,-0.13,-0.07,-0.22,-0.13,-0.27c-0.06,-0.05,-0.14,-0.07,-0.25,-0.07c-0.11,0,-0.25,0.03,-0.41,0.09l-0.08,-0.22l1.69,-0.68l0.27,0m6.49,0.16l0,3.41c0,0.65,0.01,1.05,0.04,1.19c0.03,0.14,0.08,0.24,0.14,0.3c0.06,0.05,0.14,0.08,0.23,0.08c0.12,0,0.27,-0.03,0.43,-0.1l0.08,0.21l-1.68,0.69l-0.27,0l0,-1.19c-0.48,0.52,-0.85,0.85,-1.1,0.99c-0.25,0.13,-0.52,0.2,-0.8,0.2c-0.31,0,-0.58,-0.09,-0.82,-0.27c-0.23,-0.18,-0.39,-0.41,-0.48,-0.7c-0.09,-0.28,-0.13,-0.69,-0.13,-1.21l0,-2.51c0,-0.26,-0.02,-0.45,-0.08,-0.55c-0.05,-0.1,-0.14,-0.18,-0.25,-0.23c-0.11,-0.05,-0.31,-0.08,-0.61,-0.07l0,-0.22l1.97,0l0,3.77c0,0.52,0.09,0.86,0.27,1.03c0.18,0.16,0.4,0.24,0.66,0.24c0.17,0,0.37,-0.05,0.59,-0.16c0.22,-0.11,0.48,-0.32,0.79,-0.63l0,-3.19c0,-0.31,-0.05,-0.53,-0.17,-0.64c-0.11,-0.11,-0.35,-0.17,-0.72,-0.18l0,-0.22l1.91,0m3.03,1.03c0.41,-0.41,0.65,-0.64,0.72,-0.7c0.18,-0.15,0.38,-0.27,0.59,-0.36c0.21,-0.08,0.42,-0.12,0.63,-0.12c0.35,0,0.65,0.1,0.91,0.3c0.25,0.2,0.42,0.5,0.51,0.89c0.42,-0.49,0.77,-0.81,1.07,-0.96c0.29,-0.15,0.59,-0.23,0.89,-0.23c0.29,0,0.56,0.07,0.79,0.23c0.23,0.15,0.41,0.4,0.55,0.75c0.09,0.23,0.13,0.61,0.13,1.11l0,2.42c0,0.35,0.02,0.59,0.08,0.72c0.04,0.09,0.11,0.16,0.22,0.23c0.11,0.06,0.29,0.09,0.54,0.09l0,0.22l-2.78,0l0,-0.22l0.11,0c0.24,0,0.43,-0.04,0.56,-0.14c0.09,-0.06,0.16,-0.17,0.2,-0.31c0.01,-0.06,0.02,-0.26,0.02,-0.59l0,-2.42c0,-0.45,-0.05,-0.78,-0.16,-0.97c-0.16,-0.26,-0.41,-0.39,-0.76,-0.39c-0.21,0,-0.43,0.05,-0.65,0.16c-0.21,0.1,-0.48,0.31,-0.79,0.6l-0.01,0.06l0.01,0.26l0,2.68c0,0.38,0.02,0.62,0.06,0.71c0.04,0.09,0.12,0.17,0.24,0.23c0.11,0.06,0.32,0.09,0.6,0.09l0,0.22l-2.84,0l0,-0.22c0.31,0,0.52,-0.03,0.64,-0.11c0.11,-0.07,0.19,-0.18,0.24,-0.33c0.02,-0.06,0.03,-0.27,0.03,-0.6l0,-2.42c0,-0.45,-0.06,-0.78,-0.2,-0.99c-0.18,-0.26,-0.43,-0.39,-0.75,-0.39c-0.22,0,-0.44,0.05,-0.65,0.17c-0.34,0.18,-0.6,0.38,-0.78,0.6l0,3.02c0,0.36,0.02,0.6,0.07,0.71c0.05,0.11,0.12,0.19,0.22,0.24c0.1,0.05,0.3,0.08,0.61,0.08l0,0.22l-2.78,0l0,-0.22c0.25,0,0.43,-0.02,0.54,-0.08c0.1,-0.05,0.18,-0.14,0.23,-0.26c0.05,-0.12,0.08,-0.35,0.08,-0.7l0,-2.15c0,-0.61,-0.01,-1.01,-0.05,-1.19c-0.02,-0.13,-0.07,-0.22,-0.13,-0.27c-0.06,-0.05,-0.14,-0.07,-0.25,-0.07c-0.11,0,-0.25,0.03,-0.41,0.09l-0.09,-0.22l1.69,-0.68l0.26,0l0,1.19" fill="#000000" stroke="none" fill-opacity="1"/>
</g>
</g>
<g clip-path="url(#c5)">
<g fill="none" stroke="#ff7f00" stroke-width="0.48">
<path d="M288.08,255.98l0,0"/>
</g>
<g fill="none" stroke="#ff7f00" stroke-width="1.94">
<path d="M274.3,255.98l27.55,0"/>
</g>
</g>
<g clip-path="url(#c0)">
<g fill="none" stroke-width="0.1">
<path d="m321.31,260.13l-3.22,-7.01l0,5.57c0,0.51,0.05,0.83,0.16,0.95c0.15,0.17,0.39,0.25,0.71,0.25l0.29,0l0,0.22l-2.9,0l0,-0.22l0.29,0c0.35,0,0.6,-0.1,0.75,-0.31c0.09,-0.13,0.13,-0.43,0.13,-0.89l0,-5.45c0,-0.36,-0.04,-0.63,-0.12,-0.79c-0.05,-0.11,-0.16,-0.21,-0.31,-0.29c-0.15,-0.08,-0.4,-0.12,-0.74,-0.12l0,-0.22l2.36,0l3.02,6.52l2.97,-6.52l2.36,0l0,0.22l-0.28,0c-0.35,0,-0.6,0.1,-0.75,0.31c-0.09,0.13,-0.13,0.43,-0.13,0.89l0,5.45c0,0.51,0.05,0.83,0.17,0.95c0.15,0.17,0.39,0.25,0.71,0.25l0.28,0l0,0.22l-3.54,0l0,-0.22l0.29,0c0.35,0,0.6,-0.1,0.75,-0.31c0.09,-0.13,0.13,-0.43,0.13,-0.89l0,-5.57l-3.21,7.01l-0.2,0m9.63,-0.81c-0.57,0.44,-0.94,0.7,-1.08,0.77c-0.22,0.1,-0.45,0.15,-0.7,0.15c-0.38,0,-0.71,-0.13,-0.96,-0.39c-0.25,-0.26,-0.37,-0.61,-0.37,-1.05c0,-0.27,0.06,-0.51,0.18,-0.71c0.16,-0.27,0.46,-0.54,0.87,-0.78c0.41,-0.24,1.1,-0.54,2.07,-0.89l0,-0.22c0,-0.56,-0.08,-0.94,-0.26,-1.15c-0.17,-0.2,-0.43,-0.31,-0.77,-0.31c-0.25,0,-0.46,0.06,-0.61,0.2c-0.15,0.13,-0.23,0.29,-0.23,0.47l0.01,0.35c0,0.18,-0.04,0.33,-0.14,0.43c-0.09,0.1,-0.22,0.15,-0.37,0.15c-0.15,0,-0.27,-0.05,-0.37,-0.16c-0.09,-0.1,-0.14,-0.25,-0.14,-0.43c0,-0.35,0.18,-0.67,0.54,-0.97c0.36,-0.29,0.86,-0.44,1.51,-0.44c0.5,0,0.91,0.08,1.23,0.25c0.24,0.12,0.42,0.32,0.53,0.59c0.07,0.17,0.11,0.53,0.11,1.08l0,1.91c0,0.53,0.01,0.86,0.03,0.98c0.02,0.12,0.05,0.2,0.1,0.24c0.04,0.04,0.1,0.06,0.16,0.06c0.06,0,0.12,-0.01,0.17,-0.04c0.08,-0.05,0.25,-0.2,0.49,-0.44l0,0.34c-0.45,0.61,-0.89,0.92,-1.31,0.92c-0.2,0,-0.36,-0.06,-0.47,-0.2c-0.11,-0.13,-0.18,-0.37,-0.18,-0.71m0,-0.39l0,-2.14c-0.61,0.24,-1.01,0.42,-1.19,0.52c-0.32,0.18,-0.55,0.36,-0.69,0.56c-0.13,0.19,-0.2,0.41,-0.2,0.64c0,0.29,0.08,0.54,0.26,0.73c0.17,0.19,0.37,0.29,0.6,0.29c0.31,0,0.72,-0.2,1.23,-0.61m3.91,-0.84c-0.34,-0.16,-0.6,-0.4,-0.79,-0.7c-0.18,-0.3,-0.27,-0.63,-0.27,-0.99c0,-0.55,0.21,-1.03,0.63,-1.43c0.42,-0.4,0.95,-0.6,1.61,-0.6c0.53,0,1,0.13,1.39,0.39l1.19,0c0.17,0,0.27,0,0.3,0.01c0.02,0.01,0.04,0.02,0.06,0.05c0.02,0.03,0.03,0.1,0.03,0.19c0,0.1,-0.01,0.18,-0.03,0.22c-0.01,0.02,-0.03,0.03,-0.06,0.04c-0.03,0.01,-0.13,0.01,-0.31,0.01l-0.73,0c0.22,0.29,0.34,0.67,0.34,1.13c0,0.52,-0.2,0.97,-0.6,1.34c-0.4,0.37,-0.94,0.55,-1.61,0.55c-0.27,0,-0.56,-0.04,-0.85,-0.12c-0.18,0.15,-0.3,0.29,-0.36,0.4c-0.06,0.11,-0.09,0.21,-0.09,0.29c0,0.06,0.03,0.13,0.1,0.2c0.06,0.06,0.2,0.11,0.39,0.14c0.11,0.01,0.4,0.03,0.86,0.04c0.84,0.02,1.39,0.04,1.64,0.08c0.38,0.05,0.68,0.19,0.91,0.42c0.22,0.22,0.34,0.51,0.34,0.84c0,0.46,-0.21,0.89,-0.65,1.3c-0.63,0.59,-1.47,0.89,-2.5,0.89c-0.79,0,-1.46,-0.17,-2,-0.53c-0.3,-0.2,-0.46,-0.41,-0.46,-0.63c0,-0.09,0.02,-0.19,0.06,-0.29c0.06,-0.15,0.21,-0.36,0.43,-0.63c0.02,-0.03,0.23,-0.25,0.62,-0.66c-0.21,-0.12,-0.36,-0.24,-0.45,-0.34c-0.08,-0.1,-0.13,-0.21,-0.13,-0.34c0,-0.14,0.05,-0.31,0.17,-0.5c0.11,-0.19,0.38,-0.46,0.8,-0.81m1.07,-3.45c-0.3,0,-0.55,0.12,-0.76,0.36c-0.2,0.24,-0.3,0.61,-0.3,1.11c0,0.64,0.13,1.15,0.41,1.5c0.21,0.27,0.48,0.4,0.81,0.4c0.31,0,0.56,-0.11,0.76,-0.35c0.2,-0.23,0.3,-0.6,0.3,-1.1c0,-0.65,-0.14,-1.16,-0.42,-1.53c-0.2,-0.27,-0.47,-0.4,-0.8,-0.4m-1.13,5.5c-0.19,0.2,-0.33,0.4,-0.43,0.58c-0.09,0.18,-0.14,0.34,-0.14,0.49c0,0.19,0.11,0.36,0.35,0.51c0.41,0.25,1,0.38,1.77,0.38c0.73,0,1.28,-0.13,1.63,-0.39c0.35,-0.26,0.52,-0.53,0.52,-0.83c0,-0.21,-0.1,-0.36,-0.31,-0.45c-0.21,-0.09,-0.63,-0.14,-1.26,-0.16c-0.92,-0.02,-1.63,-0.07,-2.12,-0.14m6.49,-4.6c0.66,-0.79,1.28,-1.19,1.88,-1.19c0.3,0,0.57,0.07,0.79,0.23c0.22,0.15,0.39,0.4,0.52,0.75c0.09,0.24,0.13,0.62,0.13,1.13l0,2.4c0,0.35,0.02,0.59,0.08,0.72c0.04,0.1,0.11,0.18,0.21,0.23c0.1,0.05,0.28,0.08,0.55,0.08l0,0.22l-2.78,0l0,-0.22l0.11,0c0.26,0,0.44,-0.04,0.55,-0.12c0.1,-0.08,0.17,-0.19,0.21,-0.35c0.01,-0.06,0.02,-0.25,0.02,-0.57l0,-2.3c0,-0.51,-0.06,-0.88,-0.2,-1.11c-0.13,-0.23,-0.35,-0.34,-0.67,-0.34c-0.48,0,-0.97,0.26,-1.45,0.79l0,2.97c0,0.38,0.02,0.61,0.06,0.7c0.05,0.11,0.13,0.2,0.23,0.26c0.1,0.05,0.3,0.08,0.61,0.08l0,0.22l-2.78,0l0,-0.22l0.12,0c0.28,0,0.48,-0.07,0.58,-0.21c0.1,-0.14,0.15,-0.42,0.15,-0.83l0,-2.09c0,-0.67,-0.01,-1.08,-0.04,-1.23c-0.03,-0.14,-0.07,-0.24,-0.14,-0.3c-0.06,-0.05,-0.14,-0.08,-0.25,-0.08c-0.11,0,-0.25,0.03,-0.41,0.09l-0.09,-0.22l1.69,-0.68l0.26,0l0,1.19m5.6,1.09c0,0.83,0.19,1.49,0.6,1.96c0.41,0.47,0.89,0.71,1.44,0.71c0.36,0,0.69,-0.1,0.96,-0.3c0.27,-0.2,0.5,-0.55,0.68,-1.04l0.19,0.12c-0.08,0.56,-0.33,1.07,-0.75,1.53c-0.41,0.46,-0.93,0.69,-1.55,0.69c-0.67,0,-1.25,-0.26,-1.73,-0.79c-0.48,-0.52,-0.72,-1.23,-0.72,-2.12c0,-0.96,0.24,-1.71,0.74,-2.25c0.49,-0.53,1.11,-0.8,1.86,-0.8c0.63,0,1.15,0.2,1.55,0.62c0.4,0.41,0.6,0.97,0.6,1.67l-3.89,0m0,-0.35l2.6,0c-0.02,-0.36,-0.06,-0.61,-0.12,-0.76c-0.1,-0.22,-0.25,-0.41,-0.45,-0.54c-0.2,-0.13,-0.41,-0.19,-0.63,-0.19c-0.34,0,-0.64,0.13,-0.91,0.39c-0.26,0.26,-0.42,0.63,-0.47,1.1m8.29,-1.93l0,1.91l-0.2,0c-0.15,-0.6,-0.35,-1.01,-0.59,-1.23c-0.24,-0.21,-0.55,-0.32,-0.93,-0.32c-0.28,0,-0.51,0.07,-0.69,0.22c-0.17,0.15,-0.26,0.31,-0.26,0.5c0,0.22,0.06,0.42,0.19,0.59c0.12,0.16,0.38,0.34,0.77,0.53l0.89,0.43c0.83,0.4,1.24,0.94,1.24,1.6c0,0.51,-0.19,0.92,-0.58,1.23c-0.38,0.31,-0.82,0.47,-1.3,0.47c-0.34,0,-0.73,-0.06,-1.18,-0.18c-0.13,-0.04,-0.24,-0.06,-0.33,-0.06c-0.09,0,-0.16,0.05,-0.22,0.16l-0.2,0l0,-2.01l0.2,0c0.11,0.57,0.33,1,0.65,1.29c0.32,0.29,0.68,0.43,1.08,0.43c0.28,0,0.51,-0.08,0.69,-0.24c0.17,-0.16,0.26,-0.36,0.26,-0.59c0,-0.28,-0.09,-0.52,-0.29,-0.71c-0.19,-0.19,-0.59,-0.43,-1.19,-0.73c-0.59,-0.29,-0.98,-0.56,-1.16,-0.79c-0.18,-0.23,-0.27,-0.52,-0.27,-0.88c0,-0.46,0.15,-0.85,0.47,-1.16c0.31,-0.31,0.72,-0.46,1.23,-0.46c0.22,0,0.49,0.04,0.8,0.14c0.2,0.06,0.34,0.09,0.41,0.09c0.06,0,0.11,-0.01,0.15,-0.04c0.03,-0.02,0.08,-0.09,0.12,-0.19l0.2,0m2.69,-2.94c0.17,0,0.31,0.06,0.43,0.18c0.12,0.12,0.18,0.26,0.18,0.43c0,0.17,-0.06,0.31,-0.18,0.44c-0.12,0.12,-0.26,0.18,-0.43,0.18c-0.17,0,-0.31,-0.06,-0.44,-0.18c-0.12,-0.12,-0.18,-0.27,-0.18,-0.44c0,-0.17,0.06,-0.31,0.18,-0.43c0.12,-0.12,0.26,-0.18,0.44,-0.18m0.51,2.94l0,4.52c0,0.35,0.02,0.58,0.07,0.7c0.05,0.11,0.12,0.2,0.22,0.26c0.1,0.05,0.28,0.08,0.55,0.08l0,0.22l-2.73,0l0,-0.22c0.27,0,0.45,-0.02,0.55,-0.08c0.09,-0.05,0.16,-0.14,0.22,-0.26c0.05,-0.12,0.08,-0.35,0.08,-0.7l0,-2.17c0,-0.61,-0.01,-1,-0.05,-1.18c-0.02,-0.13,-0.07,-0.22,-0.13,-0.27c-0.06,-0.05,-0.14,-0.07,-0.25,-0.07c-0.11,0,-0.25,0.03,-0.41,0.09l-0.08,-0.22l1.69,-0.68l0.27,0m6.49,0.16l0,3.41c0,0.65,0.01,1.05,0.04,1.19c0.03,0.14,0.08,0.24,0.14,0.3c0.06,0.05,0.14,0.08,0.23,0.08c0.12,0,0.27,-0.03,0.43,-0.1l0.08,0.21l-1.68,0.69l-0.27,0l0,-1.19c-0.48,0.52,-0.85,0.85,-1.1,0.99c-0.25,0.13,-0.52,0.2,-0.8,0.2c-0.31,0,-0.58,-0.09,-0.82,-0.27c-0.23,-0.18,-0.39,-0.41,-0.48,-0.7c-0.09,-0.28,-0.13,-0.69,-0.13,-1.21l0,-2.51c0,-0.26,-0.02,-0.45,-0.08,-0.55c-0.05,-0.1,-0.14,-0.18,-0.25,-0.23c-0.11,-0.05,-0.31,-0.08,-0.61,-0.07l0,-0.22l1.97,0l0,3.77c0,0.52,0.09,0.86,0.27,1.03c0.18,0.16,0.4,0.24,0.66,0.24c0.17,0,0.37,-0.05,0.59,-0.16c0.22,-0.11,0.48,-0.32,0.79,-0.63l0,-3.19c0,-0.31,-0.05,-0.53,-0.17,-0.64c-0.11,-0.11,-0.35,-0.17,-0.72,-0.18l0,-0.22l1.91,0m3.03,1.03c0.41,-0.41,0.65,-0.64,0.72,-0.7c0.18,-0.15,0.38,-0.27,0.59,-0.36c0.21,-0.08,0.42,-0.12,0.63,-0.12c0.35,0,0.65,0.1,0.91,0.3c0.25,0.2,0.42,0.5,0.51,0.89c0.42,-0.49,0.77,-0.81,1.07,-0.96c0.29,-0.15,0.59,-0.23,0.89,-0.23c0.29,0,0.56,0.07,0.79,0.23c0.23,0.15,0.41,0.4,0.55,0.75c0.09,0.23,0.13,0.61,0.13,1.11l0,2.42c0,0.35,0.02,0.59,0.08,0.72c0.04,0.09,0.11,0.16,0.22,0.23c0.11,0.06,0.29,0.09,0.54,0.09l0,0.22l-2.78,0l0,-0.22l0.11,0c0.24,0,0.43,-0.04,0.56,-0.14c0.09,-0.06,0.16,-0.17,0.2,-0.31c0.01,-0.06,0.02,-0.26,0.02,-0.59l0,-2.42c0,-0.45,-0.05,-0.78,-0.16,-0.97c-0.16,-0.26,-0.41,-0.39,-0.76,-0.39c-0.21,0,-0.43,0.05,-0.65,0.16c-0.21,0.1,-0.48,0.31,-0.79,0.6l-0.01,0.06l0.01,0.26l0,2.68c0,0.38,0.02,0.62,0.06,0.71c0.04,0.09,0.12,0.17,0.24,0.23c0.11,0.06,0.32,0.09,0.6,0.09l0,0.22l-2.84,0l0,-0.22c0.31,0,0.52,-0.03,0.64,-0.11c0.11,-0.07,0.19,-0.18,0.24,-0.33c0.02,-0.06,0.03,-0.27,0.03,-0.6l0,-2.42c0,-0.45,-0.06,-0.78,-0.2,-0.99c-0.18,-0.26,-0.43,-0.39,-0.75,-0.39c-0.22,0,-0.44,0.05,-0.65,0.17c-0.34,0.18,-0.6,0.38,-0.78,0.6l0,3.02c0,0.36,0.02,0.6,0.07,0.71c0.05,0.11,0.12,0.19,0.22,0.24c0.1,0.05,0.3,0.08,0.61,0.08l0,0.22l-2.78,0l0,-0.22c0.25,0,0.43,-0.02,0.54,-0.08c0.1,-0.05,0.18,-0.14,0.23,-0.26c0.05,-0.12,0.08,-0.35,0.08,-0.7l0,-2.15c0,-0.61,-0.01,-1.01,-0.05,-1.19c-0.02,-0.13,-0.07,-0.22,-0.13,-0.27c-0.06,-0.05,-0.14,-0.07,-0.25,-0.07c-0.11,0,-0.25,0.03,-0.41,0.09l-0.09,-0.22l1.69,-0.68l0.26,0l0,1.19" fill="#000000" stroke="none" fill-opacity="1"/>
</g>
</g>
<g clip-path="url(#c6)">
<g fill="none" stroke="#ff7f00" stroke-width="1.94">
<path d="m107.55,206.03c17.82,1.68,35.65,3.36,53.48,5.05c17.82,1.71,35.65,3.43,53.48,5.15"/>
</g>
<g fill="none" stroke="#984ea3" stroke-width="1.94">
<path d="m107.55,123.2c17.82,0.41,35.65,0.82,53.48,1.23c17.82,3.54,35.65,7.08,53.48,10.62"/>
</g>
<g fill="none" stroke="#4daf4a" stroke-width="1.94">
<path d="m107.55,343.53c17.82,0.89,35.63,2.25,53.48,2.68c17.82,0.42,35.65,-0.09,53.48,-0.1c35.65,0,71.31,0,106.97,0c17.82,-1.06,35.65,-2.13,53.48,-3.19"/>
</g>
<g fill="none" stroke="#377eb8" stroke-width="1.94">
<path d="m107.55,38.82c17.82,5.08,35.6,10.35,53.48,15.26c17.78,4.88,35.77,9,53.48,14.13c17.95,5.19,35.36,12.25,53.48,16.81c17.59,4.42,35.65,6.73,53.48,10.1"/>
</g>
<g fill="none" stroke="#e41a1c" stroke-width="1.94">
<path d="m107.55,284.11c17.82,6.22,35.4,13.22,53.48,18.67c17.6,5.29,35.59,9.26,53.48,13.51c35.47,8.41,70.42,16.65,106.97,19.08c17.78,1.18,35.65,-0.06,53.48,-0.1"/>
</g>
</g>
<g clip-path="url(#c0)">
<g fill="none" stroke-linecap="butt" stroke-width="0.48">
<path d="M46.85,366.53l0,-361.02"/>
<path d="M46.85,366.53l2.91,0M46.85,340.74l2.91,0M46.85,314.96l2.91,0M46.85,289.17l2.91,0M46.85,263.38l2.91,0M46.85,237.59l2.91,0M46.85,211.81l2.91,0M46.85,186.02l2.91,0M46.85,160.23l2.91,0M46.85,134.44l2.91,0M46.85,108.66l2.91,0M46.85,82.87l2.91,0M46.85,57.08l2.91,0M46.85,31.29l2.91,0M46.85,5.51l2.91,0"/>
<path d="M46.85,366.53l5.83,0M46.85,314.96l5.83,0M46.85,263.38l5.83,0M46.85,211.81l5.83,0M46.85,160.23l5.83,0M46.85,108.66l5.83,0M46.85,57.08l5.83,0M46.85,5.51l5.83,0"/>
</g>
<g fill="none" stroke-width="0.1">
<g transform="matrix(0 -1 1 0 14 290.47)">
<path d="m9.02,-10.32l0.11,2.42l-0.28,0c-0.05,-0.42,-0.13,-0.73,-0.22,-0.91c-0.15,-0.29,-0.36,-0.51,-0.62,-0.65c-0.26,-0.13,-0.6,-0.2,-1.03,-0.2l-1.45,0l0,7.89c0,0.63,0.06,1.03,0.2,1.18c0.19,0.21,0.49,0.31,0.89,0.31l0.35,0l0,0.28l-4.37,0l0,-0.28l0.36,0c0.43,0,0.74,-0.13,0.92,-0.39c0.11,-0.16,0.16,-0.53,0.16,-1.11l0,-7.89l-1.24,0c-0.48,0,-0.82,0.03,-1.02,0.1c-0.26,0.09,-0.49,0.28,-0.67,0.55c-0.18,0.27,-0.29,0.64,-0.33,1.11l-0.28,0l0.12,-2.42l8.43,0m3.01,-0.5l0,5.1c0.56,-0.61,1.01,-1.01,1.34,-1.19c0.33,-0.17,0.66,-0.26,0.99,-0.26c0.39,0,0.73,0.1,1.02,0.32c0.28,0.21,0.49,0.56,0.63,1.02c0.09,0.32,0.14,0.91,0.14,1.78l0,2.46c0,0.44,0.03,0.74,0.1,0.9c0.05,0.12,0.13,0.21,0.25,0.28c0.12,0.07,0.34,0.1,0.67,0.1l0,0.27l-3.42,0l0,-0.27l0.16,0c0.32,0,0.55,-0.04,0.67,-0.14c0.12,-0.09,0.21,-0.24,0.26,-0.43c0.01,-0.08,0.02,-0.31,0.02,-0.71l0,-2.46c0,-0.76,-0.03,-1.26,-0.11,-1.5c-0.07,-0.23,-0.2,-0.41,-0.37,-0.53c-0.17,-0.11,-0.38,-0.17,-0.62,-0.17c-0.24,0,-0.5,0.06,-0.77,0.19c-0.26,0.13,-0.59,0.39,-0.96,0.79l0,3.68c0,0.47,0.02,0.77,0.08,0.89c0.05,0.11,0.15,0.21,0.29,0.29c0.14,0.07,0.39,0.11,0.75,0.11l0,0.27l-3.45,0l0,-0.27c0.3,0,0.55,-0.04,0.73,-0.14c0.1,-0.05,0.18,-0.14,0.24,-0.28c0.06,-0.14,0.09,-0.43,0.09,-0.86l0,-6.31c0,-0.79,-0.01,-1.28,-0.05,-1.47c-0.03,-0.18,-0.09,-0.3,-0.17,-0.37c-0.07,-0.06,-0.18,-0.09,-0.31,-0.09c-0.1,0,-0.27,0.04,-0.51,0.12l-0.1,-0.26l2.08,-0.85l0.35,0m6.92,6.48c0,1.03,0.24,1.84,0.75,2.43c0.5,0.58,1.1,0.88,1.79,0.88c0.45,0,0.85,-0.12,1.19,-0.37c0.33,-0.25,0.62,-0.68,0.84,-1.29l0.23,0.15c-0.1,0.69,-0.41,1.32,-0.92,1.9c-0.51,0.57,-1.15,0.85,-1.92,0.85c-0.83,0,-1.55,-0.32,-2.15,-0.97c-0.59,-0.65,-0.89,-1.52,-0.89,-2.63c0,-1.19,0.3,-2.12,0.91,-2.79c0.61,-0.66,1.38,-1,2.3,-1c0.78,0,1.42,0.25,1.92,0.77c0.5,0.51,0.75,1.2,0.75,2.06l-4.82,0m0,-0.44l3.22,0c-0.02,-0.44,-0.07,-0.76,-0.16,-0.94c-0.12,-0.28,-0.31,-0.5,-0.56,-0.67c-0.25,-0.16,-0.51,-0.24,-0.78,-0.24c-0.42,0,-0.79,0.16,-1.13,0.49c-0.33,0.32,-0.52,0.78,-0.58,1.36m7.76,-2.39l0,1.56c0.58,-1.04,1.18,-1.56,1.79,-1.56c0.27,0,0.51,0.08,0.69,0.25c0.18,0.17,0.27,0.36,0.27,0.59c0,0.19,-0.06,0.36,-0.19,0.5c-0.13,0.13,-0.28,0.2,-0.47,0.2c-0.17,0,-0.37,-0.08,-0.59,-0.26c-0.22,-0.17,-0.38,-0.26,-0.49,-0.26c-0.09,0,-0.19,0.05,-0.29,0.15c-0.22,0.2,-0.46,0.55,-0.7,1.02l0,3.34c0,0.38,0.04,0.67,0.14,0.87c0.06,0.13,0.18,0.25,0.35,0.34c0.16,0.09,0.4,0.13,0.72,0.13l0,0.27l-3.57,0l0,-0.27c0.35,0,0.61,-0.05,0.79,-0.16c0.12,-0.08,0.21,-0.21,0.26,-0.38c0.02,-0.08,0.03,-0.33,0.03,-0.73l0,-2.7c0,-0.81,-0.01,-1.29,-0.04,-1.45c-0.03,-0.15,-0.09,-0.26,-0.18,-0.33c-0.08,-0.07,-0.19,-0.1,-0.33,-0.1c-0.15,0,-0.33,0.03,-0.53,0.11l-0.07,-0.27l2.11,-0.85l0.31,0m5.23,1.48c0.5,-0.5,0.8,-0.79,0.89,-0.87c0.22,-0.19,0.47,-0.34,0.73,-0.44c0.26,-0.1,0.52,-0.16,0.78,-0.16c0.43,0,0.81,0.12,1.12,0.38c0.31,0.25,0.52,0.62,0.63,1.1c0.52,-0.6,0.96,-1,1.32,-1.19c0.36,-0.19,0.73,-0.28,1.11,-0.28c0.37,0,0.69,0.09,0.98,0.28c0.28,0.19,0.51,0.5,0.68,0.93c0.11,0.29,0.16,0.75,0.16,1.38l0,3c0,0.43,0.03,0.73,0.09,0.89c0.05,0.11,0.14,0.2,0.28,0.28c0.13,0.07,0.36,0.11,0.67,0.11l0,0.27l-3.44,0l0,-0.27l0.14,0c0.29,0,0.53,-0.05,0.7,-0.17c0.11,-0.08,0.2,-0.21,0.25,-0.38c0.02,-0.08,0.03,-0.33,0.03,-0.73l0,-3c0,-0.56,-0.06,-0.96,-0.2,-1.2c-0.19,-0.32,-0.51,-0.48,-0.95,-0.48c-0.26,0,-0.53,0.06,-0.81,0.2c-0.27,0.13,-0.6,0.38,-0.98,0.75l-0.01,0.08l0.01,0.32l0,3.32c0,0.47,0.02,0.77,0.08,0.89c0.05,0.11,0.15,0.21,0.3,0.29c0.14,0.07,0.39,0.11,0.75,0.11l0,0.27l-3.52,0l0,-0.27c0.38,0,0.65,-0.04,0.79,-0.13c0.14,-0.09,0.24,-0.22,0.3,-0.41c0.02,-0.08,0.03,-0.33,0.03,-0.75l0,-3c0,-0.56,-0.08,-0.97,-0.25,-1.22c-0.22,-0.32,-0.53,-0.48,-0.93,-0.48c-0.27,0,-0.54,0.07,-0.81,0.22c-0.42,0.22,-0.74,0.47,-0.97,0.75l0,3.74c0,0.45,0.03,0.75,0.09,0.89c0.06,0.13,0.15,0.23,0.28,0.3c0.12,0.06,0.37,0.1,0.75,0.1l0,0.27l-3.45,0l0,-0.27c0.31,0,0.54,-0.03,0.67,-0.1c0.12,-0.06,0.22,-0.17,0.28,-0.32c0.06,-0.14,0.09,-0.44,0.09,-0.87l0,-2.66c0,-0.76,-0.02,-1.26,-0.06,-1.48c-0.03,-0.16,-0.09,-0.28,-0.16,-0.34c-0.07,-0.06,-0.18,-0.09,-0.31,-0.09c-0.14,0,-0.31,0.03,-0.51,0.11l-0.11,-0.27l2.1,-0.85l0.32,0l0,1.48m13.98,4.69c-0.71,0.55,-1.16,0.87,-1.34,0.95c-0.27,0.12,-0.56,0.19,-0.87,0.19c-0.48,0,-0.87,-0.16,-1.19,-0.49c-0.31,-0.33,-0.46,-0.76,-0.46,-1.3c0,-0.34,0.07,-0.63,0.22,-0.88c0.2,-0.34,0.57,-0.67,1.08,-0.97c0.51,-0.3,1.37,-0.67,2.57,-1.11l0,-0.27c0,-0.69,-0.11,-1.17,-0.33,-1.43c-0.22,-0.25,-0.54,-0.38,-0.96,-0.38c-0.31,0,-0.57,0.08,-0.76,0.25c-0.19,0.17,-0.28,0.37,-0.28,0.59l0.01,0.44c0,0.23,-0.05,0.41,-0.17,0.54c-0.11,0.12,-0.27,0.19,-0.46,0.19c-0.18,0,-0.34,-0.06,-0.46,-0.19c-0.11,-0.13,-0.17,-0.31,-0.17,-0.54c0,-0.43,0.22,-0.83,0.67,-1.2c0.44,-0.36,1.07,-0.54,1.88,-0.54c0.61,0,1.12,0.1,1.52,0.31c0.29,0.15,0.52,0.4,0.66,0.73c0.09,0.21,0.13,0.66,0.13,1.34l0,2.36c0,0.66,0.01,1.07,0.03,1.22c0.02,0.14,0.06,0.25,0.12,0.3c0.05,0.05,0.12,0.07,0.2,0.07c0.08,0,0.15,-0.01,0.21,-0.05c0.1,-0.06,0.31,-0.25,0.61,-0.55l0,0.42c-0.56,0.76,-1.11,1.14,-1.63,1.14c-0.24,0,-0.44,-0.08,-0.59,-0.25c-0.14,-0.17,-0.22,-0.46,-0.22,-0.88m0,-0.49l0,-2.65c-0.76,0.3,-1.26,0.52,-1.48,0.64c-0.4,0.22,-0.68,0.45,-0.86,0.7c-0.17,0.24,-0.25,0.51,-0.25,0.79c0,0.36,0.1,0.66,0.32,0.91c0.21,0.24,0.46,0.36,0.75,0.36c0.38,0,0.89,-0.25,1.52,-0.76m5.34,-9.33l0,9.25c0,0.43,0.03,0.72,0.09,0.86c0.06,0.14,0.16,0.25,0.29,0.32c0.13,0.07,0.37,0.11,0.73,0.11l0,0.27l-3.42,0l0,-0.27c0.31,0,0.53,-0.03,0.65,-0.09c0.11,-0.06,0.2,-0.17,0.27,-0.32c0.06,-0.15,0.09,-0.44,0.09,-0.87l0,-6.33c0,-0.78,-0.01,-1.27,-0.05,-1.45c-0.03,-0.18,-0.09,-0.3,-0.17,-0.36c-0.07,-0.06,-0.17,-0.09,-0.3,-0.09c-0.13,0,-0.29,0.04,-0.5,0.12l-0.12,-0.26l2.07,-0.85l0.34,0m11.72,8.18c-0.18,0.91,-0.55,1.62,-1.1,2.12c-0.54,0.49,-1.15,0.74,-1.82,0.74c-0.79,0,-1.48,-0.33,-2.07,-0.99c-0.58,-0.66,-0.88,-1.56,-0.88,-2.69c0,-1.09,0.32,-1.98,0.97,-2.67c0.65,-0.68,1.43,-1.02,2.34,-1.02c0.68,0,1.24,0.18,1.69,0.54c0.44,0.36,0.66,0.74,0.66,1.13c0,0.19,-0.06,0.34,-0.18,0.46c-0.12,0.11,-0.29,0.17,-0.52,0.17c-0.29,0,-0.52,-0.09,-0.67,-0.28c-0.08,-0.1,-0.14,-0.3,-0.17,-0.6c-0.02,-0.29,-0.13,-0.52,-0.3,-0.68c-0.17,-0.15,-0.42,-0.22,-0.73,-0.22c-0.5,0,-0.91,0.18,-1.22,0.56c-0.41,0.49,-0.61,1.15,-0.61,1.97c0,0.83,0.2,1.56,0.61,2.2c0.4,0.63,0.96,0.95,1.65,0.95c0.49,0,0.94,-0.17,1.34,-0.51c0.27,-0.23,0.55,-0.65,0.81,-1.27l0.22,0.1m4.38,-4.53c1.05,0,1.9,0.4,2.54,1.2c0.54,0.68,0.81,1.47,0.81,2.36c0,0.62,-0.14,1.25,-0.44,1.89c-0.29,0.63,-0.71,1.12,-1.23,1.44c-0.52,0.32,-1.11,0.48,-1.75,0.48c-1.05,0,-1.88,-0.41,-2.5,-1.25c-0.52,-0.7,-0.78,-1.49,-0.78,-2.37c0,-0.63,0.15,-1.27,0.47,-1.9c0.31,-0.63,0.73,-1.09,1.25,-1.4c0.51,-0.3,1.06,-0.45,1.64,-0.45m-0.23,0.49c-0.26,0,-0.53,0.08,-0.81,0.23c-0.27,0.16,-0.49,0.44,-0.65,0.84c-0.16,0.4,-0.25,0.91,-0.25,1.54c0,1.01,0.2,1.89,0.6,2.62c0.4,0.73,0.93,1.1,1.59,1.1c0.49,0,0.89,-0.2,1.21,-0.6c0.31,-0.4,0.47,-1.1,0.47,-2.09c0,-1.23,-0.26,-2.21,-0.79,-2.92c-0.36,-0.48,-0.82,-0.73,-1.37,-0.73m6.65,0.98c0.81,-0.98,1.59,-1.47,2.33,-1.47c0.38,0,0.7,0.09,0.98,0.28c0.27,0.19,0.49,0.5,0.65,0.94c0.11,0.3,0.16,0.77,0.16,1.4l0,2.97c0,0.44,0.03,0.74,0.1,0.89c0.05,0.12,0.14,0.22,0.27,0.29c0.12,0.07,0.35,0.1,0.68,0.1l0,0.27l-3.45,0l0,-0.27l0.14,0c0.32,0,0.55,-0.04,0.68,-0.14c0.12,-0.09,0.21,-0.24,0.27,-0.43c0.02,-0.07,0.03,-0.31,0.03,-0.71l0,-2.85c0,-0.63,-0.08,-1.09,-0.24,-1.38c-0.16,-0.28,-0.44,-0.43,-0.83,-0.43c-0.6,0,-1.2,0.33,-1.8,0.99l0,3.67c0,0.47,0.02,0.76,0.08,0.87c0.07,0.14,0.16,0.25,0.29,0.32c0.12,0.06,0.37,0.1,0.75,0.1l0,0.27l-3.45,0l0,-0.27l0.15,0c0.35,0,0.59,-0.09,0.71,-0.27c0.12,-0.18,0.18,-0.52,0.18,-1.03l0,-2.58c0,-0.83,-0.01,-1.34,-0.05,-1.53c-0.03,-0.18,-0.09,-0.3,-0.17,-0.37c-0.07,-0.06,-0.18,-0.09,-0.31,-0.09c-0.14,0,-0.31,0.03,-0.51,0.11l-0.11,-0.27l2.1,-0.85l0.32,0l0,1.47m10.69,4.92c-0.34,0.35,-0.67,0.61,-0.99,0.76c-0.32,0.15,-0.67,0.23,-1.05,0.23c-0.76,0,-1.42,-0.31,-1.99,-0.95c-0.56,-0.63,-0.85,-1.45,-0.85,-2.45c0,-1,0.31,-1.91,0.94,-2.74c0.62,-0.83,1.43,-1.24,2.42,-1.24c0.61,0,1.12,0.19,1.52,0.58l0,-1.28c0,-0.79,-0.01,-1.28,-0.05,-1.47c-0.03,-0.18,-0.09,-0.3,-0.17,-0.37c-0.08,-0.06,-0.18,-0.09,-0.3,-0.09c-0.13,0,-0.3,0.04,-0.52,0.12l-0.09,-0.26l2.07,-0.85l0.34,0l0,8.06c0,0.81,0.01,1.31,0.05,1.49c0.03,0.18,0.09,0.3,0.18,0.37c0.08,0.07,0.18,0.1,0.29,0.1c0.13,0,0.31,-0.04,0.54,-0.12l0.08,0.26l-2.07,0.86l-0.35,0l0,-0.99m0,-0.53l0,-3.59c-0.03,-0.34,-0.12,-0.66,-0.27,-0.94c-0.15,-0.28,-0.35,-0.49,-0.6,-0.64c-0.25,-0.14,-0.49,-0.21,-0.73,-0.21c-0.44,0,-0.84,0.2,-1.19,0.6c-0.46,0.52,-0.69,1.3,-0.69,2.31c0,1.02,0.22,1.81,0.67,2.35c0.44,0.54,0.94,0.81,1.49,0.81c0.46,0,0.9,-0.23,1.34,-0.69m8.98,-5.65l0,4.22c0,0.8,0.01,1.3,0.05,1.48c0.03,0.18,0.09,0.3,0.18,0.37c0.08,0.07,0.18,0.1,0.29,0.1c0.15,0,0.33,-0.04,0.53,-0.12l0.1,0.26l-2.08,0.86l-0.34,0l0,-1.47c-0.59,0.65,-1.05,1.05,-1.37,1.22c-0.31,0.16,-0.64,0.25,-0.99,0.25c-0.39,0,-0.73,-0.11,-1.01,-0.33c-0.28,-0.22,-0.48,-0.51,-0.59,-0.87c-0.11,-0.35,-0.16,-0.85,-0.16,-1.5l0,-3.11c0,-0.33,-0.03,-0.55,-0.1,-0.68c-0.07,-0.12,-0.17,-0.22,-0.31,-0.29c-0.13,-0.06,-0.39,-0.1,-0.75,-0.09l0,-0.28l2.44,0l0,4.66c0,0.65,0.11,1.07,0.33,1.27c0.22,0.2,0.49,0.3,0.81,0.3c0.21,0,0.46,-0.06,0.74,-0.2c0.27,-0.13,0.6,-0.39,0.98,-0.78l0,-3.95c0,-0.39,-0.07,-0.66,-0.21,-0.8c-0.14,-0.13,-0.44,-0.21,-0.9,-0.22l0,-0.28l2.37,0m7.6,4.32c-0.18,0.91,-0.55,1.62,-1.1,2.12c-0.54,0.49,-1.15,0.74,-1.82,0.74c-0.79,0,-1.48,-0.33,-2.07,-0.99c-0.58,-0.66,-0.88,-1.56,-0.88,-2.69c0,-1.09,0.32,-1.98,0.97,-2.67c0.65,-0.68,1.43,-1.02,2.34,-1.02c0.68,0,1.24,0.18,1.69,0.54c0.44,0.36,0.66,0.74,0.66,1.13c0,0.19,-0.06,0.34,-0.18,0.46c-0.12,0.11,-0.29,0.17,-0.52,0.17c-0.29,0,-0.52,-0.09,-0.67,-0.28c-0.08,-0.1,-0.14,-0.3,-0.17,-0.6c-0.02,-0.29,-0.13,-0.52,-0.3,-0.68c-0.17,-0.15,-0.42,-0.22,-0.73,-0.22c-0.5,0,-0.91,0.18,-1.22,0.56c-0.41,0.49,-0.61,1.15,-0.61,1.97c0,0.83,0.2,1.56,0.61,2.2c0.4,0.63,0.96,0.95,1.65,0.95c0.49,0,0.94,-0.17,1.34,-0.51c0.27,-0.23,0.55,-0.65,0.81,-1.27l0.22,0.1m3,-6.61l0,2.29l1.63,0l0,0.53l-1.63,0l0,4.52c0,0.45,0.06,0.75,0.19,0.91c0.12,0.15,0.29,0.23,0.49,0.23c0.16,0,0.33,-0.05,0.48,-0.15c0.15,-0.1,0.27,-0.25,0.36,-0.46l0.29,0c-0.17,0.49,-0.42,0.87,-0.75,1.12c-0.32,0.25,-0.66,0.37,-1,0.37c-0.23,0,-0.46,-0.06,-0.68,-0.19c-0.22,-0.12,-0.38,-0.31,-0.49,-0.55c-0.1,-0.24,-0.16,-0.61,-0.16,-1.11l0,-4.69l-1.1,0l0,-0.25c0.27,-0.11,0.56,-0.3,0.85,-0.56c0.29,-0.26,0.55,-0.58,0.78,-0.94c0.11,-0.19,0.27,-0.54,0.48,-1.05l0.23,0m4.04,-1.56c0.21,0,0.39,0.07,0.54,0.22c0.14,0.14,0.22,0.33,0.22,0.54c0,0.21,-0.07,0.39,-0.22,0.54c-0.14,0.15,-0.33,0.22,-0.54,0.22c-0.21,0,-0.39,-0.07,-0.54,-0.22c-0.15,-0.15,-0.22,-0.33,-0.22,-0.54c0,-0.21,0.07,-0.39,0.22,-0.54c0.14,-0.14,0.33,-0.22,0.55,-0.22m0.63,3.64l0,5.6c0,0.43,0.03,0.72,0.09,0.87c0.06,0.14,0.15,0.25,0.28,0.32c0.12,0.07,0.35,0.1,0.68,0.1l0,0.27l-3.38,0l0,-0.27c0.34,0,0.56,-0.03,0.68,-0.09c0.11,-0.06,0.2,-0.17,0.27,-0.32c0.06,-0.15,0.1,-0.44,0.1,-0.87l0,-2.68c0,-0.75,-0.02,-1.24,-0.06,-1.47c-0.03,-0.16,-0.09,-0.27,-0.16,-0.33c-0.07,-0.06,-0.18,-0.09,-0.31,-0.09c-0.14,0,-0.31,0.03,-0.51,0.11l-0.1,-0.27l2.1,-0.85l0.33,0m1.53,0.2l3.28,0l0,0.28l-0.21,0c-0.19,0,-0.34,0.04,-0.45,0.14c-0.1,0.09,-0.15,0.22,-0.15,0.38c0,0.17,0.05,0.38,0.16,0.63l1.62,3.85l1.63,-3.99c0.11,-0.28,0.17,-0.5,0.17,-0.64c0,-0.07,-0.02,-0.12,-0.06,-0.17c-0.05,-0.07,-0.12,-0.12,-0.21,-0.15c-0.08,-0.02,-0.26,-0.04,-0.52,-0.04l0,-0.28l2.27,0l0,0.28c-0.26,0.02,-0.44,0.07,-0.54,0.16c-0.17,0.15,-0.33,0.4,-0.47,0.76l-2.47,5.98l-0.31,0l-2.49,-5.88c-0.11,-0.27,-0.21,-0.47,-0.31,-0.59c-0.1,-0.11,-0.23,-0.21,-0.38,-0.3c-0.08,-0.04,-0.25,-0.08,-0.51,-0.12l0,-0.28m9.93,-3.85c0.21,0,0.39,0.07,0.54,0.22c0.14,0.14,0.22,0.33,0.22,0.54c0,0.21,-0.07,0.39,-0.22,0.54c-0.14,0.15,-0.33,0.22,-0.54,0.22c-0.21,0,-0.39,-0.07,-0.54,-0.22c-0.15,-0.15,-0.22,-0.33,-0.22,-0.54c0,-0.21,0.07,-0.39,0.22,-0.54c0.14,-0.14,0.33,-0.22,0.55,-0.22m0.63,3.64l0,5.6c0,0.43,0.03,0.72,0.09,0.87c0.06,0.14,0.15,0.25,0.28,0.32c0.12,0.07,0.35,0.1,0.68,0.1l0,0.27l-3.38,0l0,-0.27c0.34,0,0.56,-0.03,0.68,-0.09c0.11,-0.06,0.2,-0.17,0.27,-0.32c0.06,-0.15,0.1,-0.44,0.1,-0.87l0,-2.68c0,-0.75,-0.02,-1.24,-0.06,-1.47c-0.03,-0.16,-0.09,-0.27,-0.16,-0.33c-0.07,-0.06,-0.18,-0.09,-0.31,-0.09c-0.14,0,-0.31,0.03,-0.51,0.11l-0.1,-0.27l2.1,-0.85l0.33,0m3.91,-2.08l0,2.29l1.63,0l0,0.53l-1.63,0l0,4.52c0,0.45,0.06,0.75,0.19,0.91c0.12,0.15,0.29,0.23,0.49,0.23c0.16,0,0.33,-0.05,0.48,-0.15c0.15,-0.1,0.27,-0.25,0.36,-0.46l0.29,0c-0.17,0.49,-0.42,0.87,-0.75,1.12c-0.32,0.25,-0.66,0.37,-1,0.37c-0.23,0,-0.46,-0.06,-0.68,-0.19c-0.22,-0.12,-0.38,-0.31,-0.49,-0.55c-0.1,-0.24,-0.16,-0.61,-0.16,-1.11l0,-4.69l-1.1,0l0,-0.25c0.27,-0.11,0.56,-0.3,0.85,-0.56c0.29,-0.26,0.55,-0.58,0.78,-0.94c0.11,-0.19,0.27,-0.54,0.48,-1.05l0.23,0m1.87,2.29l3.25,0l0,0.28l-0.16,0c-0.22,0,-0.39,0.04,-0.51,0.14c-0.11,0.09,-0.17,0.22,-0.17,0.36c0,0.19,0.08,0.47,0.25,0.82l1.69,3.51l1.56,-3.85c0.08,-0.2,0.12,-0.41,0.12,-0.61c0,-0.09,-0.01,-0.16,-0.05,-0.2c-0.04,-0.05,-0.1,-0.1,-0.19,-0.13c-0.08,-0.03,-0.23,-0.04,-0.45,-0.04l0,-0.28l2.26,0l0,0.28c-0.18,0.02,-0.33,0.06,-0.43,0.12c-0.1,0.06,-0.21,0.17,-0.33,0.34c-0.04,0.07,-0.13,0.26,-0.25,0.58l-2.84,6.96c-0.27,0.67,-0.63,1.18,-1.07,1.53c-0.44,0.34,-0.87,0.51,-1.28,0.51c-0.29,0,-0.54,-0.08,-0.73,-0.25c-0.19,-0.17,-0.28,-0.37,-0.28,-0.59c0,-0.21,0.06,-0.38,0.2,-0.51c0.13,-0.12,0.33,-0.19,0.57,-0.19c0.16,0,0.39,0.05,0.68,0.16c0.2,0.07,0.33,0.11,0.38,0.11c0.15,0,0.31,-0.07,0.49,-0.23c0.18,-0.15,0.36,-0.46,0.54,-0.91l0.49,-1.21l-2.5,-5.26c-0.07,-0.15,-0.19,-0.35,-0.36,-0.58c-0.12,-0.17,-0.23,-0.29,-0.31,-0.35c-0.11,-0.08,-0.3,-0.15,-0.56,-0.21l0,-0.28m7.54,9.57l0,-0.33c0.52,-0.17,0.92,-0.44,1.21,-0.8c0.28,-0.36,0.43,-0.74,0.43,-1.15c0,-0.09,-0.02,-0.17,-0.06,-0.24c-0.03,-0.04,-0.07,-0.06,-0.1,-0.06c-0.05,0,-0.17,0.05,-0.36,0.15c-0.09,0.04,-0.18,0.06,-0.28,0.06c-0.24,0,-0.44,-0.07,-0.59,-0.22c-0.14,-0.14,-0.22,-0.35,-0.22,-0.6c0,-0.24,0.09,-0.46,0.28,-0.63c0.19,-0.17,0.42,-0.26,0.69,-0.26c0.33,0,0.63,0.14,0.89,0.43c0.26,0.29,0.39,0.67,0.39,1.16c0,0.52,-0.18,1,-0.54,1.45c-0.36,0.44,-0.93,0.8,-1.72,1.06m21.26,-12.92l0,0.28c-0.26,0,-0.48,0.04,-0.65,0.14c-0.16,0.09,-0.32,0.27,-0.47,0.54c-0.1,0.17,-0.26,0.6,-0.47,1.27l-2.87,8.32l-0.3,0l-2.35,-6.6l-2.33,6.6l-0.27,0l-3.06,-8.57c-0.22,-0.63,-0.37,-1.01,-0.43,-1.13c-0.1,-0.19,-0.23,-0.33,-0.41,-0.43c-0.17,-0.09,-0.41,-0.14,-0.71,-0.14l0,-0.28l3.82,0l0,0.28l-0.18,0c-0.26,0,-0.47,0.06,-0.61,0.18c-0.14,0.12,-0.21,0.26,-0.21,0.44c0,0.17,0.11,0.58,0.33,1.22l2.03,5.79l1.71,-4.92l-0.3,-0.86l-0.24,-0.69c-0.1,-0.25,-0.22,-0.47,-0.35,-0.67c-0.06,-0.09,-0.14,-0.17,-0.24,-0.24c-0.12,-0.09,-0.25,-0.15,-0.38,-0.19c-0.09,-0.03,-0.24,-0.04,-0.45,-0.04l0,-0.28l4.02,0l0,0.28l-0.27,0c-0.28,0,-0.49,0.06,-0.62,0.18c-0.13,0.12,-0.19,0.28,-0.19,0.49c0,0.25,0.11,0.71,0.34,1.35l1.98,5.61l1.96,-5.69c0.22,-0.62,0.33,-1.06,0.33,-1.31c0,-0.11,-0.03,-0.22,-0.11,-0.32c-0.07,-0.1,-0.16,-0.17,-0.27,-0.21c-0.19,-0.07,-0.44,-0.1,-0.75,-0.1l0,-0.28l3.08,0m4.57,-0.5l-3.74,11.04l-0.6,0l3.74,-11.04l0.6,0m2.48,5.13c0.5,-0.5,0.8,-0.79,0.89,-0.87c0.22,-0.19,0.47,-0.34,0.73,-0.44c0.26,-0.1,0.52,-0.16,0.78,-0.16c0.43,0,0.81,0.12,1.12,0.38c0.31,0.25,0.52,0.62,0.63,1.1c0.52,-0.6,0.96,-1,1.32,-1.19c0.36,-0.19,0.73,-0.28,1.11,-0.28c0.37,0,0.69,0.09,0.98,0.28c0.28,0.19,0.51,0.5,0.68,0.93c0.11,0.29,0.16,0.75,0.16,1.38l0,3c0,0.43,0.03,0.73,0.09,0.89c0.05,0.11,0.14,0.2,0.28,0.28c0.13,0.07,0.36,0.11,0.67,0.11l0,0.27l-3.44,0l0,-0.27l0.14,0c0.29,0,0.53,-0.05,0.7,-0.17c0.11,-0.08,0.2,-0.21,0.25,-0.38c0.02,-0.08,0.03,-0.33,0.03,-0.73l0,-3c0,-0.56,-0.06,-0.96,-0.2,-1.2c-0.19,-0.32,-0.51,-0.48,-0.95,-0.48c-0.26,0,-0.53,0.06,-0.81,0.2c-0.27,0.13,-0.6,0.38,-0.98,0.75l-0.01,0.08l0.01,0.32l0,3.32c0,0.47,0.02,0.77,0.08,0.89c0.05,0.11,0.15,0.21,0.3,0.29c0.14,0.07,0.39,0.11,0.75,0.11l0,0.27l-3.52,0l0,-0.27c0.38,0,0.65,-0.04,0.79,-0.13c0.14,-0.09,0.24,-0.22,0.3,-0.41c0.02,-0.08,0.03,-0.33,0.03,-0.75l0,-3c0,-0.56,-0.08,-0.97,-0.25,-1.22c-0.22,-0.32,-0.53,-0.48,-0.93,-0.48c-0.27,0,-0.54,0.07,-0.81,0.22c-0.42,0.22,-0.74,0.47,-0.97,0.75l0,3.74c0,0.45,0.03,0.75,0.09,0.89c0.06,0.13,0.15,0.23,0.28,0.3c0.12,0.06,0.37,0.1,0.75,0.1l0,0.27l-3.45,0l0,-0.27c0.31,0,0.54,-0.03,0.67,-0.1c0.12,-0.06,0.22,-0.17,0.28,-0.32c0.06,-0.14,0.09,-0.44,0.09,-0.87l0,-2.66c0,-0.76,-0.02,-1.26,-0.06,-1.48c-0.03,-0.16,-0.09,-0.28,-0.16,-0.34c-0.07,-0.06,-0.18,-0.09,-0.31,-0.09c-0.14,0,-0.31,0.03,-0.51,0.11l-0.11,-0.27l2.1,-0.85l0.32,0l0,1.48m18.85,4.91c-0.34,0.35,-0.67,0.61,-0.99,0.76c-0.32,0.15,-0.67,0.23,-1.05,0.23c-0.76,0,-1.42,-0.31,-1.99,-0.95c-0.56,-0.63,-0.85,-1.45,-0.85,-2.45c0,-1,0.31,-1.91,0.94,-2.74c0.62,-0.83,1.43,-1.24,2.42,-1.24c0.61,0,1.12,0.19,1.52,0.58l0,-1.28c0,-0.79,-0.01,-1.28,-0.05,-1.47c-0.03,-0.18,-0.09,-0.3,-0.17,-0.37c-0.08,-0.06,-0.18,-0.09,-0.3,-0.09c-0.13,0,-0.3,0.04,-0.52,0.12l-0.09,-0.26l2.07,-0.85l0.34,0l0,8.06c0,0.81,0.01,1.31,0.05,1.49c0.03,0.18,0.09,0.3,0.18,0.37c0.08,0.07,0.18,0.1,0.29,0.1c0.13,0,0.31,-0.04,0.54,-0.12l0.08,0.26l-2.07,0.86l-0.35,0l0,-0.99m0,-0.53l0,-3.59c-0.03,-0.34,-0.12,-0.66,-0.27,-0.94c-0.15,-0.28,-0.35,-0.49,-0.6,-0.64c-0.25,-0.14,-0.49,-0.21,-0.73,-0.21c-0.44,0,-0.84,0.2,-1.19,0.6c-0.46,0.52,-0.69,1.3,-0.69,2.31c0,1.02,0.22,1.81,0.67,2.35c0.44,0.54,0.94,0.81,1.49,0.81c0.46,0,0.9,-0.23,1.34,-0.69m4.04,-3.03c0,1.03,0.24,1.84,0.75,2.43c0.5,0.58,1.1,0.88,1.79,0.88c0.45,0,0.85,-0.12,1.19,-0.37c0.33,-0.25,0.62,-0.68,0.84,-1.29l0.23,0.15c-0.1,0.69,-0.41,1.32,-0.92,1.9c-0.51,0.57,-1.15,0.85,-1.92,0.85c-0.83,0,-1.55,-0.32,-2.15,-0.97c-0.59,-0.65,-0.89,-1.52,-0.89,-2.63c0,-1.19,0.3,-2.12,0.91,-2.79c0.61,-0.66,1.38,-1,2.3,-1c0.78,0,1.42,0.25,1.92,0.77c0.5,0.51,0.75,1.2,0.75,2.06l-4.82,0m0,-0.44l3.22,0c-0.02,-0.44,-0.07,-0.76,-0.16,-0.94c-0.12,-0.28,-0.31,-0.5,-0.56,-0.67c-0.25,-0.16,-0.51,-0.24,-0.78,-0.24c-0.42,0,-0.79,0.16,-1.13,0.49c-0.33,0.32,-0.52,0.78,-0.58,1.36m7.59,2.24c-0.42,-0.2,-0.75,-0.49,-0.98,-0.87c-0.22,-0.37,-0.34,-0.78,-0.34,-1.23c0,-0.69,0.26,-1.28,0.78,-1.78c0.52,-0.49,1.18,-0.74,1.99,-0.74c0.66,0,1.24,0.16,1.72,0.48l1.47,0c0.21,0,0.34,0,0.38,0.01c0.03,0.01,0.06,0.03,0.07,0.06c0.03,0.04,0.04,0.12,0.04,0.24c0,0.13,-0.01,0.22,-0.03,0.27c-0.01,0.02,-0.04,0.04,-0.08,0.06c-0.03,0.01,-0.16,0.02,-0.38,0.02l-0.9,0c0.28,0.36,0.42,0.83,0.42,1.4c0,0.65,-0.24,1.2,-0.74,1.66c-0.49,0.46,-1.16,0.69,-2,0.69c-0.34,0,-0.69,-0.05,-1.05,-0.15c-0.22,0.19,-0.37,0.36,-0.45,0.5c-0.07,0.14,-0.11,0.26,-0.11,0.36c0,0.08,0.04,0.17,0.12,0.25c0.08,0.08,0.24,0.13,0.49,0.17c0.14,0.02,0.49,0.03,1.06,0.05c1.04,0.02,1.72,0.06,2.03,0.1c0.47,0.06,0.84,0.24,1.13,0.52c0.28,0.28,0.42,0.63,0.42,1.05c0,0.57,-0.26,1.11,-0.8,1.61c-0.79,0.74,-1.82,1.11,-3.1,1.11c-0.98,0,-1.8,-0.22,-2.48,-0.66c-0.38,-0.25,-0.57,-0.51,-0.57,-0.79c0,-0.12,0.02,-0.24,0.08,-0.36c0.08,-0.18,0.26,-0.44,0.53,-0.78c0.03,-0.04,0.29,-0.31,0.77,-0.82c-0.26,-0.15,-0.45,-0.29,-0.55,-0.42c-0.1,-0.12,-0.16,-0.26,-0.16,-0.42c0,-0.17,0.07,-0.38,0.21,-0.62c0.14,-0.23,0.47,-0.57,1,-1.01m1.32,-4.27c-0.37,0,-0.69,0.14,-0.94,0.44c-0.25,0.29,-0.38,0.75,-0.38,1.37c0,0.8,0.17,1.42,0.51,1.86c0.26,0.33,0.59,0.5,1,0.5c0.38,0,0.7,-0.14,0.95,-0.43c0.24,-0.28,0.37,-0.74,0.37,-1.36c0,-0.8,-0.17,-1.43,-0.52,-1.89c-0.25,-0.33,-0.59,-0.5,-0.99,-0.5m-1.4,6.81c-0.23,0.25,-0.41,0.5,-0.54,0.72c-0.12,0.22,-0.18,0.42,-0.18,0.61c0,0.24,0.14,0.45,0.44,0.63c0.5,0.31,1.24,0.47,2.2,0.47c0.91,0,1.58,-0.16,2.02,-0.48c0.43,-0.32,0.65,-0.66,0.65,-1.03c0,-0.26,-0.12,-0.45,-0.38,-0.56c-0.26,-0.11,-0.78,-0.17,-1.56,-0.19c-1.14,-0.03,-2.02,-0.08,-2.63,-0.17m14.91,-10.56l0.23,3.51l-0.23,0c-0.31,-1.05,-0.76,-1.8,-1.34,-2.26c-0.58,-0.46,-1.28,-0.69,-2.1,-0.69c-0.68,0,-1.3,0.17,-1.85,0.52c-0.55,0.34,-0.98,0.9,-1.3,1.66c-0.31,0.76,-0.47,1.7,-0.47,2.84c0,0.93,0.14,1.74,0.44,2.42c0.29,0.68,0.75,1.21,1.35,1.57c0.6,0.36,1.28,0.54,2.06,0.54c0.67,0,1.26,-0.14,1.77,-0.43c0.51,-0.28,1.07,-0.85,1.69,-1.71l0.23,0.15c-0.51,0.91,-1.12,1.59,-1.81,2.01c-0.69,0.42,-1.51,0.63,-2.46,0.63c-1.71,0,-3.03,-0.63,-3.97,-1.9c-0.7,-0.94,-1.05,-2.05,-1.05,-3.33c0,-1.03,0.23,-1.97,0.69,-2.84c0.46,-0.86,1.09,-1.53,1.9,-2c0.81,-0.47,1.69,-0.71,2.65,-0.71c0.74,0,1.48,0.18,2.2,0.54c0.21,0.11,0.36,0.16,0.45,0.16c0.13,0,0.25,-0.04,0.35,-0.14c0.13,-0.13,0.22,-0.32,0.28,-0.57l0.26,0" fill="#000000" stroke="none" fill-opacity="1"/>
</g>
<path d="m37.5,366.71c0,-0.95,0.14,-1.77,0.43,-2.45c0.28,-0.68,0.66,-1.19,1.14,-1.53c0.36,-0.26,0.75,-0.39,1.14,-0.39c0.63,0,1.21,0.32,1.72,0.97c0.63,0.8,0.95,1.9,0.95,3.28c0,0.96,-0.13,1.79,-0.41,2.46c-0.27,0.67,-0.63,1.16,-1.06,1.47c-0.43,0.3,-0.85,0.45,-1.25,0.45c-0.79,0,-1.45,-0.46,-1.98,-1.4c-0.44,-0.79,-0.67,-1.74,-0.67,-2.86m1.2,0.15c0,1.14,0.14,2.08,0.42,2.81c0.23,0.61,0.58,0.91,1.04,0.91c0.22,0,0.45,-0.09,0.68,-0.29c0.23,-0.19,0.41,-0.53,0.54,-0.99c0.18,-0.7,0.28,-1.7,0.28,-2.98c0,-0.95,-0.09,-1.74,-0.29,-2.38c-0.14,-0.47,-0.33,-0.8,-0.57,-1c-0.16,-0.13,-0.37,-0.2,-0.6,-0.2c-0.27,0,-0.52,0.12,-0.74,0.37c-0.29,0.34,-0.49,0.87,-0.6,1.6c-0.1,0.73,-0.16,1.44,-0.16,2.15" fill="#000000" stroke="none" fill-opacity="1"/>
<path d="m36.21,310.91l-0.47,1.04l-2.51,0l-0.54,1.11c1.08,0.16,1.94,0.56,2.58,1.21c0.54,0.55,0.81,1.21,0.81,1.96c0,0.43,-0.08,0.84,-0.26,1.21c-0.17,0.37,-0.4,0.69,-0.67,0.95c-0.27,0.26,-0.57,0.47,-0.9,0.63c-0.47,0.22,-0.95,0.33,-1.45,0.33c-0.5,0,-0.86,-0.08,-1.09,-0.25c-0.22,-0.17,-0.34,-0.35,-0.34,-0.56c0,-0.11,0.04,-0.21,0.14,-0.3c0.09,-0.08,0.21,-0.13,0.35,-0.13c0.1,0,0.2,0.01,0.27,0.04c0.08,0.03,0.21,0.11,0.4,0.25c0.3,0.21,0.61,0.31,0.93,0.31c0.47,0,0.9,-0.18,1.26,-0.54c0.36,-0.36,0.54,-0.8,0.54,-1.32c0,-0.5,-0.16,-0.97,-0.48,-1.41c-0.32,-0.43,-0.77,-0.77,-1.34,-1.01c-0.44,-0.18,-1.05,-0.29,-1.82,-0.31l1.59,-3.24l2.99,0m1.28,4.22c0,-0.95,0.14,-1.77,0.43,-2.45c0.28,-0.68,0.66,-1.19,1.14,-1.53c0.36,-0.26,0.75,-0.39,1.14,-0.39c0.63,0,1.21,0.32,1.72,0.97c0.63,0.8,0.95,1.9,0.95,3.28c0,0.96,-0.13,1.79,-0.41,2.46c-0.27,0.67,-0.63,1.16,-1.06,1.47c-0.43,0.3,-0.85,0.45,-1.25,0.45c-0.79,0,-1.45,-0.46,-1.98,-1.4c-0.44,-0.79,-0.67,-1.74,-0.67,-2.86m1.2,0.15c0,1.14,0.14,2.08,0.42,2.81c0.23,0.61,0.58,0.91,1.04,0.91c0.22,0,0.45,-0.09,0.68,-0.29c0.23,-0.19,0.41,-0.53,0.54,-0.99c0.18,-0.7,0.28,-1.7,0.28,-2.98c0,-0.95,-0.09,-1.74,-0.29,-2.38c-0.14,-0.47,-0.33,-0.8,-0.57,-1c-0.16,-0.13,-0.37,-0.2,-0.6,-0.2c-0.27,0,-0.52,0.12,-0.74,0.37c-0.29,0.34,-0.49,0.87,-0.6,1.6c-0.1,0.73,-0.16,1.44,-0.16,2.15" fill="#000000" stroke="none" fill-opacity="1"/>
<path d="m25.92,260.16l2.03,-0.99l0.2,0l0,7.04c0,0.46,0.01,0.75,0.05,0.87c0.03,0.11,0.12,0.2,0.24,0.26c0.12,0.06,0.37,0.09,0.75,0.1l0,0.22l-3.13,0l0,-0.22c0.39,0,0.64,-0.04,0.76,-0.1c0.11,-0.05,0.19,-0.13,0.23,-0.23c0.04,-0.1,0.06,-0.4,0.06,-0.9l0,-4.5c0,-0.6,-0.02,-0.99,-0.06,-1.16c-0.02,-0.13,-0.08,-0.22,-0.15,-0.28c-0.07,-0.06,-0.16,-0.09,-0.27,-0.09c-0.15,0,-0.36,0.06,-0.63,0.19l-0.09,-0.19m5.27,3.4c0,-0.95,0.14,-1.77,0.43,-2.45c0.28,-0.68,0.66,-1.19,1.14,-1.53c0.36,-0.26,0.75,-0.39,1.14,-0.39c0.63,0,1.21,0.32,1.72,0.97c0.63,0.8,0.95,1.9,0.95,3.28c0,0.96,-0.13,1.79,-0.41,2.46c-0.27,0.67,-0.63,1.16,-1.06,1.47c-0.43,0.3,-0.85,0.45,-1.25,0.45c-0.79,0,-1.45,-0.46,-1.98,-1.4c-0.44,-0.79,-0.67,-1.74,-0.67,-2.86m1.2,0.15c0,1.14,0.14,2.08,0.42,2.81c0.23,0.61,0.58,0.91,1.04,0.91c0.22,0,0.45,-0.09,0.68,-0.29c0.23,-0.19,0.41,-0.53,0.54,-0.99c0.18,-0.7,0.28,-1.7,0.28,-2.98c0,-0.95,-0.09,-1.74,-0.29,-2.38c-0.14,-0.47,-0.33,-0.8,-0.57,-1c-0.16,-0.13,-0.37,-0.2,-0.6,-0.2c-0.27,0,-0.52,0.12,-0.74,0.37c-0.29,0.34,-0.49,0.87,-0.6,1.6c-0.1,0.73,-0.16,1.44,-0.16,2.15m5.09,-0.15c0,-0.95,0.14,-1.77,0.43,-2.45c0.28,-0.68,0.66,-1.19,1.14,-1.53c0.36,-0.26,0.75,-0.39,1.14,-0.39c0.63,0,1.21,0.32,1.72,0.97c0.63,0.8,0.95,1.9,0.95,3.28c0,0.96,-0.13,1.79,-0.41,2.46c-0.27,0.67,-0.63,1.16,-1.06,1.47c-0.43,0.3,-0.85,0.45,-1.25,0.45c-0.79,0,-1.45,-0.46,-1.98,-1.4c-0.44,-0.79,-0.67,-1.74,-0.67,-2.86m1.2,0.15c0,1.14,0.14,2.08,0.42,2.81c0.23,0.61,0.58,0.91,1.04,0.91c0.22,0,0.45,-0.09,0.68,-0.29c0.23,-0.19,0.41,-0.53,0.54,-0.99c0.18,-0.7,0.28,-1.7,0.28,-2.98c0,-0.95,-0.09,-1.74,-0.29,-2.38c-0.14,-0.47,-0.33,-0.8,-0.57,-1c-0.16,-0.13,-0.37,-0.2,-0.6,-0.2c-0.27,0,-0.52,0.12,-0.74,0.37c-0.29,0.34,-0.49,0.87,-0.6,1.6c-0.1,0.73,-0.16,1.44,-0.16,2.15" fill="#000000" stroke="none" fill-opacity="1"/>
<path d="m25.92,208.58l2.03,-0.99l0.2,0l0,7.04c0,0.46,0.01,0.75,0.05,0.87c0.03,0.11,0.12,0.2,0.24,0.26c0.12,0.06,0.37,0.09,0.75,0.1l0,0.22l-3.13,0l0,-0.22c0.39,0,0.64,-0.04,0.76,-0.1c0.11,-0.05,0.19,-0.13,0.23,-0.23c0.04,-0.1,0.06,-0.4,0.06,-0.9l0,-4.5c0,-0.6,-0.02,-0.99,-0.06,-1.16c-0.02,-0.13,-0.08,-0.22,-0.15,-0.28c-0.07,-0.06,-0.16,-0.09,-0.27,-0.09c-0.15,0,-0.36,0.06,-0.63,0.19l-0.09,-0.19m10.29,-0.81l-0.47,1.04l-2.51,0l-0.54,1.11c1.08,0.16,1.94,0.56,2.58,1.21c0.54,0.55,0.81,1.21,0.81,1.96c0,0.43,-0.08,0.84,-0.26,1.21c-0.17,0.37,-0.4,0.69,-0.67,0.95c-0.27,0.26,-0.57,0.47,-0.9,0.63c-0.47,0.22,-0.95,0.33,-1.45,0.33c-0.5,0,-0.86,-0.08,-1.09,-0.25c-0.22,-0.17,-0.34,-0.35,-0.34,-0.56c0,-0.11,0.04,-0.21,0.14,-0.3c0.09,-0.08,0.21,-0.13,0.35,-0.13c0.1,0,0.2,0.01,0.27,0.04c0.08,0.03,0.21,0.11,0.4,0.25c0.3,0.21,0.61,0.31,0.93,0.31c0.47,0,0.9,-0.18,1.26,-0.54c0.36,-0.36,0.54,-0.8,0.54,-1.32c0,-0.5,-0.16,-0.97,-0.48,-1.41c-0.32,-0.43,-0.77,-0.77,-1.34,-1.01c-0.44,-0.18,-1.05,-0.29,-1.82,-0.31l1.59,-3.24l2.99,0m1.28,4.22c0,-0.95,0.14,-1.77,0.43,-2.45c0.28,-0.68,0.66,-1.19,1.14,-1.53c0.36,-0.26,0.75,-0.39,1.14,-0.39c0.63,0,1.21,0.32,1.72,0.97c0.63,0.8,0.95,1.9,0.95,3.28c0,0.96,-0.13,1.79,-0.41,2.46c-0.27,0.67,-0.63,1.16,-1.06,1.47c-0.43,0.3,-0.85,0.45,-1.25,0.45c-0.79,0,-1.45,-0.46,-1.98,-1.4c-0.44,-0.79,-0.67,-1.74,-0.67,-2.86m1.2,0.15c0,1.14,0.14,2.08,0.42,2.81c0.23,0.61,0.58,0.91,1.04,0.91c0.22,0,0.45,-0.09,0.68,-0.29c0.23,-0.19,0.41,-0.53,0.54,-0.99c0.18,-0.7,0.28,-1.7,0.28,-2.98c0,-0.95,-0.09,-1.74,-0.29,-2.38c-0.14,-0.47,-0.33,-0.8,-0.57,-1c-0.16,-0.13,-0.37,-0.2,-0.6,-0.2c-0.27,0,-0.52,0.12,-0.74,0.37c-0.29,0.34,-0.49,0.87,-0.6,1.6c-0.1,0.73,-0.16,1.44,-0.16,2.15" fill="#000000" stroke="none" fill-opacity="1"/>
<path d="m30.22,162.93l-0.58,1.6l-4.92,0l0,-0.22c1.44,-1.32,2.46,-2.39,3.05,-3.23c0.59,-0.83,0.88,-1.6,0.88,-2.29c0,-0.52,-0.16,-0.96,-0.48,-1.3c-0.32,-0.34,-0.71,-0.51,-1.16,-0.51c-0.41,0,-0.77,0.12,-1.1,0.35c-0.32,0.23,-0.56,0.59,-0.72,1.05l-0.22,0c0.1,-0.75,0.36,-1.34,0.79,-1.74c0.42,-0.4,0.95,-0.6,1.59,-0.6c0.67,0,1.24,0.21,1.69,0.65c0.45,0.43,0.67,0.94,0.67,1.53c0,0.42,-0.09,0.84,-0.29,1.26c-0.3,0.66,-0.79,1.36,-1.47,2.11c-1.02,1.11,-1.65,1.78,-1.91,2.01l2.17,0c0.44,0,0.75,-0.01,0.93,-0.04c0.17,-0.03,0.33,-0.09,0.48,-0.2c0.14,-0.1,0.26,-0.24,0.37,-0.42l0.22,0m0.97,-2.51c0,-0.95,0.14,-1.77,0.43,-2.45c0.28,-0.68,0.66,-1.19,1.14,-1.53c0.36,-0.26,0.75,-0.39,1.14,-0.39c0.63,0,1.21,0.32,1.72,0.97c0.63,0.8,0.95,1.9,0.95,3.28c0,0.96,-0.13,1.79,-0.41,2.46c-0.27,0.67,-0.63,1.16,-1.06,1.47c-0.43,0.3,-0.85,0.45,-1.25,0.45c-0.79,0,-1.45,-0.46,-1.98,-1.4c-0.44,-0.79,-0.67,-1.74,-0.67,-2.86m1.2,0.15c0,1.14,0.14,2.08,0.42,2.81c0.23,0.61,0.58,0.91,1.04,0.91c0.22,0,0.45,-0.09,0.68,-0.29c0.23,-0.19,0.41,-0.53,0.54,-0.99c0.18,-0.7,0.28,-1.7,0.28,-2.98c0,-0.95,-0.09,-1.74,-0.29,-2.38c-0.14,-0.47,-0.33,-0.8,-0.57,-1c-0.16,-0.13,-0.37,-0.2,-0.6,-0.2c-0.27,0,-0.52,0.12,-0.74,0.37c-0.29,0.34,-0.49,0.87,-0.6,1.6c-0.1,0.73,-0.16,1.44,-0.16,2.15m5.09,-0.15c0,-0.95,0.14,-1.77,0.43,-2.45c0.28,-0.68,0.66,-1.19,1.14,-1.53c0.36,-0.26,0.75,-0.39,1.14,-0.39c0.63,0,1.21,0.32,1.72,0.97c0.63,0.8,0.95,1.9,0.95,3.28c0,0.96,-0.13,1.79,-0.41,2.46c-0.27,0.67,-0.63,1.16,-1.06,1.47c-0.43,0.3,-0.85,0.45,-1.25,0.45c-0.79,0,-1.45,-0.46,-1.98,-1.4c-0.44,-0.79,-0.67,-1.74,-0.67,-2.86m1.2,0.15c0,1.14,0.14,2.08,0.42,2.81c0.23,0.61,0.58,0.91,1.04,0.91c0.22,0,0.45,-0.09,0.68,-0.29c0.23,-0.19,0.41,-0.53,0.54,-0.99c0.18,-0.7,0.28,-1.7,0.28,-2.98c0,-0.95,-0.09,-1.74,-0.29,-2.38c-0.14,-0.47,-0.33,-0.8,-0.57,-1c-0.16,-0.13,-0.37,-0.2,-0.6,-0.2c-0.27,0,-0.52,0.12,-0.74,0.37c-0.29,0.34,-0.49,0.87,-0.6,1.6c-0.1,0.73,-0.16,1.44,-0.16,2.15" fill="#000000" stroke="none" fill-opacity="1"/>
<path d="m30.22,111.35l-0.58,1.6l-4.92,0l0,-0.22c1.44,-1.32,2.46,-2.39,3.05,-3.23c0.59,-0.83,0.88,-1.6,0.88,-2.29c0,-0.52,-0.16,-0.96,-0.48,-1.3c-0.32,-0.34,-0.71,-0.51,-1.16,-0.51c-0.41,0,-0.77,0.12,-1.1,0.35c-0.32,0.23,-0.56,0.59,-0.72,1.05l-0.22,0c0.1,-0.75,0.36,-1.34,0.79,-1.74c0.42,-0.4,0.95,-0.6,1.59,-0.6c0.67,0,1.24,0.21,1.69,0.65c0.45,0.43,0.67,0.94,0.67,1.53c0,0.42,-0.09,0.84,-0.29,1.26c-0.3,0.66,-0.79,1.36,-1.47,2.11c-1.02,1.11,-1.65,1.78,-1.91,2.01l2.17,0c0.44,0,0.75,-0.01,0.93,-0.04c0.17,-0.03,0.33,-0.09,0.48,-0.2c0.14,-0.1,0.26,-0.24,0.37,-0.42l0.22,0m5.99,-6.73l-0.47,1.04l-2.51,0l-0.54,1.11c1.08,0.16,1.94,0.56,2.58,1.21c0.54,0.55,0.81,1.21,0.81,1.96c0,0.43,-0.08,0.84,-0.26,1.21c-0.17,0.37,-0.4,0.69,-0.67,0.95c-0.27,0.26,-0.57,0.47,-0.9,0.63c-0.47,0.22,-0.95,0.33,-1.45,0.33c-0.5,0,-0.86,-0.08,-1.09,-0.25c-0.22,-0.17,-0.34,-0.35,-0.34,-0.56c0,-0.11,0.04,-0.21,0.14,-0.3c0.09,-0.08,0.21,-0.13,0.35,-0.13c0.1,0,0.2,0.01,0.27,0.04c0.08,0.03,0.21,0.11,0.4,0.25c0.3,0.21,0.61,0.31,0.93,0.31c0.47,0,0.9,-0.18,1.26,-0.54c0.36,-0.36,0.54,-0.8,0.54,-1.32c0,-0.5,-0.16,-0.97,-0.48,-1.41c-0.32,-0.43,-0.77,-0.77,-1.34,-1.01c-0.44,-0.18,-1.05,-0.29,-1.82,-0.31l1.59,-3.24l2.99,0m1.28,4.22c0,-0.95,0.14,-1.77,0.43,-2.45c0.28,-0.68,0.66,-1.19,1.14,-1.53c0.36,-0.26,0.75,-0.39,1.14,-0.39c0.63,0,1.21,0.32,1.72,0.97c0.63,0.8,0.95,1.9,0.95,3.28c0,0.96,-0.13,1.79,-0.41,2.46c-0.27,0.67,-0.63,1.16,-1.06,1.47c-0.43,0.3,-0.85,0.45,-1.25,0.45c-0.79,0,-1.45,-0.46,-1.98,-1.4c-0.44,-0.79,-0.67,-1.74,-0.67,-2.86m1.2,0.15c0,1.14,0.14,2.08,0.42,2.81c0.23,0.61,0.58,0.91,1.04,0.91c0.22,0,0.45,-0.09,0.68,-0.29c0.23,-0.19,0.41,-0.53,0.54,-0.99c0.18,-0.7,0.28,-1.7,0.28,-2.98c0,-0.95,-0.09,-1.74,-0.29,-2.38c-0.14,-0.47,-0.33,-0.8,-0.57,-1c-0.16,-0.13,-0.37,-0.2,-0.6,-0.2c-0.27,0,-0.52,0.12,-0.74,0.37c-0.29,0.34,-0.49,0.87,-0.6,1.6c-0.1,0.73,-0.16,1.44,-0.16,2.15" fill="#000000" stroke="none" fill-opacity="1"/>
<path d="m25.08,54.63c0.23,-0.56,0.53,-0.99,0.9,-1.3c0.36,-0.3,0.81,-0.45,1.35,-0.45c0.66,0,1.18,0.21,1.53,0.65c0.27,0.32,0.4,0.67,0.4,1.03c0,0.6,-0.38,1.23,-1.14,1.88c0.51,0.2,0.9,0.48,1.16,0.86c0.26,0.37,0.39,0.81,0.39,1.31c0,0.72,-0.22,1.34,-0.68,1.87c-0.59,0.68,-1.46,1.03,-2.6,1.03c-0.56,0,-0.94,-0.06,-1.14,-0.2c-0.2,-0.13,-0.3,-0.28,-0.3,-0.44c0,-0.11,0.04,-0.22,0.14,-0.31c0.09,-0.09,0.21,-0.13,0.34,-0.13c0.1,0,0.2,0.01,0.31,0.04c0.06,0.02,0.22,0.09,0.47,0.22c0.24,0.12,0.41,0.2,0.51,0.23c0.15,0.04,0.31,0.06,0.48,0.06c0.41,0,0.78,-0.16,1.09,-0.48c0.3,-0.32,0.46,-0.7,0.46,-1.15c0,-0.32,-0.07,-0.63,-0.21,-0.94c-0.1,-0.22,-0.22,-0.4,-0.35,-0.52c-0.17,-0.16,-0.41,-0.31,-0.72,-0.44c-0.3,-0.13,-0.62,-0.2,-0.94,-0.2l-0.19,0l0,-0.18c0.32,-0.04,0.64,-0.15,0.97,-0.35c0.32,-0.19,0.56,-0.42,0.71,-0.69c0.14,-0.27,0.22,-0.56,0.22,-0.89c0,-0.42,-0.13,-0.76,-0.39,-1.02c-0.26,-0.26,-0.59,-0.39,-0.98,-0.39c-0.63,0,-1.16,0.34,-1.59,1.02l-0.2,-0.09m6.11,2.63c0,-0.95,0.14,-1.77,0.43,-2.45c0.28,-0.68,0.66,-1.19,1.14,-1.53c0.36,-0.26,0.75,-0.39,1.14,-0.39c0.63,0,1.21,0.32,1.72,0.97c0.63,0.8,0.95,1.9,0.95,3.28c0,0.96,-0.13,1.79,-0.41,2.46c-0.27,0.67,-0.63,1.16,-1.06,1.47c-0.43,0.3,-0.85,0.45,-1.25,0.45c-0.79,0,-1.45,-0.46,-1.98,-1.4c-0.44,-0.79,-0.67,-1.74,-0.67,-2.86m1.2,0.15c0,1.14,0.14,2.08,0.42,2.81c0.23,0.61,0.58,0.91,1.04,0.91c0.22,0,0.45,-0.09,0.68,-0.29c0.23,-0.19,0.41,-0.53,0.54,-0.99c0.18,-0.7,0.28,-1.7,0.28,-2.98c0,-0.95,-0.09,-1.74,-0.29,-2.38c-0.14,-0.47,-0.33,-0.8,-0.57,-1c-0.16,-0.13,-0.37,-0.2,-0.6,-0.2c-0.27,0,-0.52,0.12,-0.74,0.37c-0.29,0.34,-0.49,0.87,-0.6,1.6c-0.1,0.73,-0.16,1.44,-0.16,2.15m5.09,-0.15c0,-0.95,0.14,-1.77,0.43,-2.45c0.28,-0.68,0.66,-1.19,1.14,-1.53c0.36,-0.26,0.75,-0.39,1.14,-0.39c0.63,0,1.21,0.32,1.72,0.97c0.63,0.8,0.95,1.9,0.95,3.28c0,0.96,-0.13,1.79,-0.41,2.46c-0.27,0.67,-0.63,1.16,-1.06,1.47c-0.43,0.3,-0.85,0.45,-1.25,0.45c-0.79,0,-1.45,-0.46,-1.98,-1.4c-0.44,-0.79,-0.67,-1.74,-0.67,-2.86m1.2,0.15c0,1.14,0.14,2.08,0.42,2.81c0.23,0.61,0.58,0.91,1.04,0.91c0.22,0,0.45,-0.09,0.68,-0.29c0.23,-0.19,0.41,-0.53,0.54,-0.99c0.18,-0.7,0.28,-1.7,0.28,-2.98c0,-0.95,-0.09,-1.74,-0.29,-2.38c-0.14,-0.47,-0.33,-0.8,-0.57,-1c-0.16,-0.13,-0.37,-0.2,-0.6,-0.2c-0.27,0,-0.52,0.12,-0.74,0.37c-0.29,0.34,-0.49,0.87,-0.6,1.6c-0.1,0.73,-0.16,1.44,-0.16,2.15" fill="#000000" stroke="none" fill-opacity="1"/>
<path d="m25.08,4.7c0.23,-0.56,0.53,-0.99,0.9,-1.3c0.36,-0.3,0.81,-0.45,1.35,-0.45c0.66,0,1.18,0.21,1.53,0.65c0.27,0.32,0.4,0.67,0.4,1.03c0,0.6,-0.38,1.23,-1.14,1.88c0.51,0.2,0.9,0.48,1.16,0.86c0.26,0.37,0.39,0.81,0.39,1.31c0,0.72,-0.22,1.34,-0.68,1.87c-0.59,0.68,-1.46,1.03,-2.6,1.03c-0.56,0,-0.94,-0.06,-1.14,-0.2c-0.2,-0.13,-0.3,-0.28,-0.3,-0.44c0,-0.11,0.04,-0.22,0.14,-0.31c0.09,-0.09,0.21,-0.13,0.34,-0.13c0.1,0,0.2,0.01,0.31,0.04c0.06,0.02,0.22,0.09,0.47,0.22c0.24,0.12,0.41,0.2,0.51,0.23c0.15,0.04,0.31,0.06,0.48,0.06c0.41,0,0.78,-0.16,1.09,-0.48c0.3,-0.32,0.46,-0.7,0.46,-1.15c0,-0.32,-0.07,-0.63,-0.21,-0.94c-0.1,-0.22,-0.22,-0.4,-0.35,-0.52c-0.17,-0.16,-0.41,-0.31,-0.72,-0.44c-0.3,-0.13,-0.62,-0.2,-0.94,-0.2l-0.19,0l0,-0.18c0.32,-0.04,0.64,-0.15,0.97,-0.35c0.32,-0.19,0.56,-0.42,0.71,-0.69c0.14,-0.27,0.22,-0.56,0.22,-0.89c0,-0.42,-0.13,-0.76,-0.39,-1.02c-0.26,-0.26,-0.59,-0.39,-0.98,-0.39c-0.63,0,-1.16,0.34,-1.59,1.02l-0.2,-0.09m11.12,-1.58l-0.47,1.04l-2.51,0l-0.54,1.11c1.08,0.16,1.94,0.56,2.58,1.21c0.54,0.55,0.81,1.21,0.81,1.96c0,0.43,-0.08,0.84,-0.26,1.21c-0.17,0.37,-0.4,0.69,-0.67,0.95c-0.27,0.26,-0.57,0.47,-0.9,0.63c-0.47,0.22,-0.95,0.33,-1.45,0.33c-0.5,0,-0.86,-0.08,-1.09,-0.25c-0.22,-0.17,-0.34,-0.35,-0.34,-0.56c0,-0.11,0.04,-0.21,0.14,-0.3c0.09,-0.08,0.21,-0.13,0.35,-0.13c0.1,0,0.2,0.01,0.27,0.04c0.08,0.03,0.21,0.11,0.4,0.25c0.3,0.21,0.61,0.31,0.93,0.31c0.47,0,0.9,-0.18,1.26,-0.54c0.36,-0.36,0.54,-0.8,0.54,-1.32c0,-0.5,-0.16,-0.97,-0.48,-1.41c-0.32,-0.43,-0.77,-0.77,-1.34,-1.01c-0.44,-0.18,-1.05,-0.29,-1.82,-0.31l1.59,-3.24l2.99,0m1.28,4.22c0,-0.95,0.14,-1.77,0.43,-2.45c0.28,-0.68,0.66,-1.19,1.14,-1.53c0.36,-0.26,0.75,-0.39,1.14,-0.39c0.63,0,1.21,0.32,1.72,0.97c0.63,0.8,0.95,1.9,0.95,3.28c0,0.96,-0.13,1.79,-0.41,2.46c-0.27,0.67,-0.63,1.16,-1.06,1.47c-0.43,0.3,-0.85,0.45,-1.25,0.45c-0.79,0,-1.45,-0.46,-1.98,-1.4c-0.44,-0.79,-0.67,-1.74,-0.67,-2.86m1.2,0.15c0,1.14,0.14,2.08,0.42,2.81c0.23,0.61,0.58,0.91,1.04,0.91c0.22,0,0.45,-0.09,0.68,-0.29c0.23,-0.19,0.41,-0.53,0.54,-0.99c0.18,-0.7,0.28,-1.7,0.28,-2.98c0,-0.95,-0.09,-1.74,-0.29,-2.38c-0.14,-0.47,-0.33,-0.8,-0.57,-1c-0.16,-0.13,-0.37,-0.2,-0.6,-0.2c-0.27,0,-0.52,0.12,-0.74,0.37c-0.29,0.34,-0.49,0.87,-0.6,1.6c-0.1,0.73,-0.16,1.44,-0.16,2.15" fill="#000000" stroke="none" fill-opacity="1"/>
</g>
<g fill="none" stroke-linecap="butt" stroke-width="0.48">
<path d="M46.85,366.53l361.02,0"/>
<path d="M46.85,366.53l0,-2.91M60.22,366.53l0,-2.91M73.59,366.53l0,-2.91M86.96,366.53l0,-2.91M100.33,366.53l0,-2.91M113.7,366.53l0,-2.91M127.07,366.53l0,-2.91M140.44,366.53l0,-2.91M153.82,366.53l0,-2.91M167.19,366.53l0,-2.91M180.56,366.53l0,-2.91M193.93,366.53l0,-2.91M207.3,366.53l0,-2.91M220.67,366.53l0,-2.91M234.04,366.53l0,-2.91M247.41,366.53l0,-2.91M260.79,366.53l0,-2.91M274.16,366.53l0,-2.91M287.53,366.53l0,-2.91M300.9,366.53l0,-2.91M314.27,366.53l0,-2.91M327.64,366.53l0,-2.91M341.01,366.53l0,-2.91M354.38,366.53l0,-2.91M367.76,366.53l0,-2.91M381.13,366.53l0,-2.91M394.5,366.53l0,-2.91M407.87,366.53l0,-2.91"/>
<path d="M46.85,366.53l0,-5.83M113.7,366.53l0,-5.83M180.56,366.53l0,-5.83M247.41,366.53l0,-5.83M314.27,366.53l0,-5.83M381.13,366.53l0,-5.83"/>
</g>
<g fill="none" stroke-width="0.1">
<path d="m176.83,392.8l0.11,2.42l-0.28,0c-0.05,-0.42,-0.13,-0.73,-0.22,-0.91c-0.15,-0.29,-0.36,-0.51,-0.62,-0.65c-0.26,-0.13,-0.6,-0.2,-1.03,-0.2l-1.45,0l0,7.89c0,0.63,0.06,1.03,0.2,1.18c0.19,0.21,0.49,0.31,0.89,0.31l0.35,0l0,0.28l-4.37,0l0,-0.28l0.36,0c0.43,0,0.74,-0.13,0.92,-0.39c0.11,-0.16,0.16,-0.53,0.16,-1.11l0,-7.89l-1.24,0c-0.48,0,-0.82,0.03,-1.02,0.1c-0.26,0.09,-0.49,0.28,-0.67,0.55c-0.18,0.27,-0.29,0.64,-0.33,1.11l-0.28,0l0.12,-2.42l8.43,0m1.03,5.97c0,1.03,0.24,1.84,0.75,2.43c0.5,0.58,1.1,0.88,1.79,0.88c0.45,0,0.85,-0.12,1.19,-0.37c0.33,-0.25,0.62,-0.68,0.84,-1.29l0.23,0.15c-0.1,0.69,-0.41,1.32,-0.92,1.9c-0.51,0.57,-1.15,0.85,-1.92,0.85c-0.83,0,-1.55,-0.32,-2.15,-0.97c-0.59,-0.65,-0.89,-1.52,-0.89,-2.63c0,-1.19,0.3,-2.12,0.91,-2.79c0.61,-0.66,1.38,-1,2.3,-1c0.78,0,1.42,0.25,1.92,0.77c0.5,0.51,0.75,1.2,0.75,2.06l-4.82,0m0,-0.44l3.22,0c-0.02,-0.44,-0.07,-0.76,-0.16,-0.94c-0.12,-0.28,-0.31,-0.5,-0.56,-0.67c-0.25,-0.16,-0.51,-0.24,-0.78,-0.24c-0.42,0,-0.79,0.16,-1.13,0.49c-0.33,0.32,-0.52,0.78,-0.58,1.36m7.79,-0.9c0.5,-0.5,0.8,-0.79,0.89,-0.87c0.22,-0.19,0.47,-0.34,0.73,-0.44c0.26,-0.1,0.52,-0.16,0.78,-0.16c0.43,0,0.81,0.12,1.12,0.38c0.31,0.25,0.52,0.62,0.63,1.1c0.52,-0.6,0.96,-1,1.32,-1.19c0.36,-0.19,0.73,-0.28,1.11,-0.28c0.37,0,0.69,0.09,0.98,0.28c0.28,0.19,0.51,0.5,0.68,0.93c0.11,0.29,0.16,0.75,0.16,1.38l0,3c0,0.43,0.03,0.73,0.09,0.89c0.05,0.11,0.14,0.2,0.28,0.28c0.13,0.07,0.36,0.11,0.67,0.11l0,0.27l-3.44,0l0,-0.27l0.14,0c0.29,0,0.53,-0.05,0.7,-0.17c0.11,-0.08,0.2,-0.21,0.25,-0.38c0.02,-0.08,0.03,-0.33,0.03,-0.73l0,-3c0,-0.56,-0.06,-0.96,-0.2,-1.2c-0.19,-0.32,-0.51,-0.48,-0.95,-0.48c-0.26,0,-0.53,0.06,-0.81,0.2c-0.27,0.13,-0.6,0.38,-0.98,0.75l-0.01,0.08l0.01,0.32l0,3.32c0,0.47,0.02,0.77,0.08,0.89c0.05,0.11,0.15,0.21,0.3,0.29c0.14,0.07,0.39,0.11,0.75,0.11l0,0.27l-3.52,0l0,-0.27c0.38,0,0.65,-0.04,0.79,-0.13c0.14,-0.09,0.24,-0.22,0.3,-0.41c0.02,-0.08,0.03,-0.33,0.03,-0.75l0,-3c0,-0.56,-0.08,-0.97,-0.25,-1.22c-0.22,-0.32,-0.53,-0.48,-0.93,-0.48c-0.27,0,-0.54,0.07,-0.81,0.22c-0.42,0.22,-0.74,0.47,-0.97,0.75l0,3.74c0,0.45,0.03,0.75,0.09,0.89c0.06,0.13,0.15,0.23,0.28,0.3c0.12,0.06,0.37,0.1,0.75,0.1l0,0.27l-3.45,0l0,-0.27c0.31,0,0.54,-0.03,0.67,-0.1c0.12,-0.06,0.22,-0.17,0.28,-0.32c0.06,-0.14,0.09,-0.44,0.09,-0.87l0,-2.66c0,-0.76,-0.02,-1.26,-0.06,-1.48c-0.03,-0.16,-0.09,-0.28,-0.16,-0.34c-0.07,-0.06,-0.18,-0.09,-0.31,-0.09c-0.14,0,-0.31,0.03,-0.51,0.11l-0.11,-0.27l2.1,-0.85l0.32,0l0,1.48m9.52,-0.58l2.14,-0.86l0.28,0l0,1.63c0.36,-0.61,0.72,-1.04,1.08,-1.29c0.36,-0.24,0.74,-0.36,1.14,-0.36c0.7,0,1.28,0.27,1.75,0.82c0.57,0.67,0.86,1.54,0.86,2.62c0,1.2,-0.34,2.19,-1.03,2.98c-0.56,0.64,-1.28,0.96,-2.14,0.96c-0.37,0,-0.7,-0.05,-0.97,-0.16c-0.2,-0.07,-0.43,-0.22,-0.68,-0.45l0,2.12c0,0.47,0.02,0.78,0.08,0.91c0.05,0.12,0.16,0.23,0.3,0.3c0.14,0.07,0.4,0.11,0.78,0.11l0,0.28l-3.65,0l0,-0.28l0.19,0c0.27,0,0.51,-0.04,0.71,-0.16c0.09,-0.05,0.17,-0.14,0.22,-0.27c0.05,-0.12,0.08,-0.44,0.08,-0.94l0,-6.59c0,-0.45,-0.02,-0.73,-0.06,-0.86c-0.04,-0.12,-0.1,-0.21,-0.19,-0.27c-0.08,-0.06,-0.2,-0.09,-0.36,-0.09c-0.12,0,-0.27,0.03,-0.46,0.1l-0.09,-0.24m2.43,1.21l0,2.6c0,0.56,0.02,0.93,0.06,1.11c0.07,0.29,0.24,0.55,0.52,0.77c0.27,0.22,0.62,0.33,1.04,0.33c0.5,0,0.91,-0.19,1.23,-0.59c0.41,-0.51,0.61,-1.24,0.61,-2.18c0,-1.06,-0.23,-1.88,-0.7,-2.46c-0.32,-0.39,-0.71,-0.59,-1.15,-0.59c-0.24,0,-0.48,0.06,-0.72,0.18c-0.18,0.09,-0.48,0.36,-0.9,0.82m7.03,0.72c0,1.03,0.24,1.84,0.75,2.43c0.5,0.58,1.1,0.88,1.79,0.88c0.45,0,0.85,-0.12,1.19,-0.37c0.33,-0.25,0.62,-0.68,0.84,-1.29l0.23,0.15c-0.1,0.69,-0.41,1.32,-0.92,1.9c-0.51,0.57,-1.15,0.85,-1.92,0.85c-0.83,0,-1.55,-0.32,-2.15,-0.97c-0.59,-0.65,-0.89,-1.52,-0.89,-2.63c0,-1.19,0.3,-2.12,0.91,-2.79c0.61,-0.66,1.38,-1,2.3,-1c0.78,0,1.42,0.25,1.92,0.77c0.5,0.51,0.75,1.2,0.75,2.06l-4.82,0m0,-0.44l3.22,0c-0.02,-0.44,-0.07,-0.76,-0.16,-0.94c-0.12,-0.28,-0.31,-0.5,-0.56,-0.67c-0.25,-0.16,-0.51,-0.24,-0.78,-0.24c-0.42,0,-0.79,0.16,-1.13,0.49c-0.33,0.32,-0.52,0.78,-0.58,1.36m7.76,-2.39l0,1.56c0.58,-1.04,1.18,-1.56,1.79,-1.56c0.27,0,0.51,0.08,0.69,0.25c0.18,0.17,0.27,0.36,0.27,0.59c0,0.19,-0.06,0.36,-0.19,0.5c-0.13,0.13,-0.28,0.2,-0.47,0.2c-0.17,0,-0.37,-0.08,-0.59,-0.26c-0.22,-0.17,-0.38,-0.26,-0.49,-0.26c-0.09,0,-0.19,0.05,-0.29,0.15c-0.22,0.2,-0.46,0.55,-0.7,1.02l0,3.34c0,0.38,0.04,0.67,0.14,0.87c0.06,0.13,0.18,0.25,0.35,0.34c0.16,0.09,0.4,0.13,0.72,0.13l0,0.27l-3.57,0l0,-0.27c0.35,0,0.61,-0.05,0.79,-0.16c0.12,-0.08,0.21,-0.21,0.26,-0.38c0.02,-0.08,0.03,-0.33,0.03,-0.73l0,-2.7c0,-0.81,-0.01,-1.29,-0.04,-1.45c-0.03,-0.15,-0.09,-0.26,-0.18,-0.33c-0.08,-0.07,-0.19,-0.1,-0.33,-0.1c-0.15,0,-0.33,0.03,-0.53,0.11l-0.07,-0.27l2.11,-0.85l0.31,0m7.11,6.17c-0.71,0.55,-1.16,0.87,-1.34,0.95c-0.27,0.12,-0.56,0.19,-0.87,0.19c-0.48,0,-0.87,-0.16,-1.19,-0.49c-0.31,-0.33,-0.46,-0.76,-0.46,-1.3c0,-0.34,0.07,-0.63,0.22,-0.88c0.2,-0.34,0.57,-0.67,1.08,-0.97c0.51,-0.3,1.37,-0.67,2.57,-1.11l0,-0.27c0,-0.69,-0.11,-1.17,-0.33,-1.43c-0.22,-0.25,-0.54,-0.38,-0.96,-0.38c-0.31,0,-0.57,0.08,-0.76,0.25c-0.19,0.17,-0.28,0.37,-0.28,0.59l0.01,0.44c0,0.23,-0.05,0.41,-0.17,0.54c-0.11,0.12,-0.27,0.19,-0.46,0.19c-0.18,0,-0.34,-0.06,-0.46,-0.19c-0.11,-0.13,-0.17,-0.31,-0.17,-0.54c0,-0.43,0.22,-0.83,0.67,-1.2c0.44,-0.36,1.07,-0.54,1.88,-0.54c0.61,0,1.12,0.1,1.52,0.31c0.29,0.15,0.52,0.4,0.66,0.73c0.09,0.21,0.13,0.66,0.13,1.34l0,2.36c0,0.66,0.01,1.07,0.03,1.22c0.02,0.14,0.06,0.25,0.12,0.3c0.05,0.05,0.12,0.07,0.2,0.07c0.08,0,0.15,-0.01,0.21,-0.05c0.1,-0.06,0.31,-0.25,0.61,-0.55l0,0.42c-0.56,0.76,-1.11,1.14,-1.63,1.14c-0.24,0,-0.44,-0.08,-0.59,-0.25c-0.14,-0.17,-0.22,-0.46,-0.22,-0.88m0,-0.49l0,-2.65c-0.76,0.3,-1.26,0.52,-1.48,0.64c-0.4,0.22,-0.68,0.45,-0.86,0.7c-0.17,0.24,-0.25,0.51,-0.25,0.79c0,0.36,0.1,0.66,0.32,0.91c0.21,0.24,0.46,0.36,0.75,0.36c0.38,0,0.89,-0.25,1.52,-0.76m4.97,-7.76l0,2.29l1.63,0l0,0.53l-1.63,0l0,4.52c0,0.45,0.06,0.75,0.19,0.91c0.12,0.15,0.29,0.23,0.49,0.23c0.16,0,0.33,-0.05,0.48,-0.15c0.15,-0.1,0.27,-0.25,0.36,-0.46l0.29,0c-0.17,0.49,-0.42,0.87,-0.75,1.12c-0.32,0.25,-0.66,0.37,-1,0.37c-0.23,0,-0.46,-0.06,-0.68,-0.19c-0.22,-0.12,-0.38,-0.31,-0.49,-0.55c-0.1,-0.24,-0.16,-0.61,-0.16,-1.11l0,-4.69l-1.1,0l0,-0.25c0.27,-0.11,0.56,-0.3,0.85,-0.56c0.29,-0.26,0.55,-0.58,0.78,-0.94c0.11,-0.19,0.27,-0.54,0.48,-1.05l0.23,0m8.39,2.29l0,4.22c0,0.8,0.01,1.3,0.05,1.48c0.03,0.18,0.09,0.3,0.18,0.37c0.08,0.07,0.18,0.1,0.29,0.1c0.15,0,0.33,-0.04,0.53,-0.12l0.1,0.26l-2.08,0.86l-0.34,0l0,-1.47c-0.59,0.65,-1.05,1.05,-1.37,1.22c-0.31,0.16,-0.64,0.25,-0.99,0.25c-0.39,0,-0.73,-0.11,-1.01,-0.33c-0.28,-0.22,-0.48,-0.51,-0.59,-0.87c-0.11,-0.35,-0.16,-0.85,-0.16,-1.5l0,-3.11c0,-0.33,-0.03,-0.55,-0.1,-0.68c-0.07,-0.12,-0.17,-0.22,-0.31,-0.29c-0.13,-0.06,-0.39,-0.1,-0.75,-0.09l0,-0.28l2.44,0l0,4.66c0,0.65,0.11,1.07,0.33,1.27c0.22,0.2,0.49,0.3,0.81,0.3c0.21,0,0.46,-0.06,0.74,-0.2c0.27,-0.13,0.6,-0.39,0.98,-0.78l0,-3.95c0,-0.39,-0.07,-0.66,-0.21,-0.8c-0.14,-0.13,-0.44,-0.21,-0.9,-0.22l0,-0.28l2.37,0m3.72,-0.2l0,1.56c0.58,-1.04,1.18,-1.56,1.79,-1.56c0.27,0,0.51,0.08,0.69,0.25c0.18,0.17,0.27,0.36,0.27,0.59c0,0.19,-0.06,0.36,-0.19,0.5c-0.13,0.13,-0.28,0.2,-0.47,0.2c-0.17,0,-0.37,-0.08,-0.59,-0.26c-0.22,-0.17,-0.38,-0.26,-0.49,-0.26c-0.09,0,-0.19,0.05,-0.29,0.15c-0.22,0.2,-0.46,0.55,-0.7,1.02l0,3.34c0,0.38,0.04,0.67,0.14,0.87c0.06,0.13,0.18,0.25,0.35,0.34c0.16,0.09,0.4,0.13,0.72,0.13l0,0.27l-3.57,0l0,-0.27c0.35,0,0.61,-0.05,0.79,-0.16c0.12,-0.08,0.21,-0.21,0.26,-0.38c0.02,-0.08,0.03,-0.33,0.03,-0.73l0,-2.7c0,-0.81,-0.01,-1.29,-0.04,-1.45c-0.03,-0.15,-0.09,-0.26,-0.18,-0.33c-0.08,-0.07,-0.19,-0.1,-0.33,-0.1c-0.15,0,-0.33,0.03,-0.53,0.11l-0.07,-0.27l2.11,-0.85l0.31,0m4.33,2.83c0,1.03,0.24,1.84,0.75,2.43c0.5,0.58,1.1,0.88,1.79,0.88c0.45,0,0.85,-0.12,1.19,-0.37c0.33,-0.25,0.62,-0.68,0.84,-1.29l0.23,0.15c-0.1,0.69,-0.41,1.32,-0.92,1.9c-0.51,0.57,-1.15,0.85,-1.92,0.85c-0.83,0,-1.55,-0.32,-2.15,-0.97c-0.59,-0.65,-0.89,-1.52,-0.89,-2.63c0,-1.19,0.3,-2.12,0.91,-2.79c0.61,-0.66,1.38,-1,2.3,-1c0.78,0,1.42,0.25,1.92,0.77c0.5,0.51,0.75,1.2,0.75,2.06l-4.82,0m0,-0.44l3.22,0c-0.02,-0.44,-0.07,-0.76,-0.16,-0.94c-0.12,-0.28,-0.31,-0.5,-0.56,-0.67c-0.25,-0.16,-0.51,-0.24,-0.78,-0.24c-0.42,0,-0.79,0.16,-1.13,0.49c-0.33,0.32,-0.52,0.78,-0.58,1.36m6.07,7.38l0,-0.33c0.52,-0.17,0.92,-0.44,1.21,-0.8c0.28,-0.36,0.43,-0.74,0.43,-1.15c0,-0.09,-0.02,-0.17,-0.06,-0.24c-0.03,-0.04,-0.07,-0.06,-0.1,-0.06c-0.05,0,-0.17,0.05,-0.36,0.15c-0.09,0.04,-0.18,0.06,-0.28,0.06c-0.24,0,-0.44,-0.07,-0.59,-0.22c-0.14,-0.14,-0.22,-0.35,-0.22,-0.6c0,-0.24,0.09,-0.46,0.28,-0.63c0.19,-0.17,0.42,-0.26,0.69,-0.26c0.33,0,0.63,0.14,0.89,0.43c0.26,0.29,0.39,0.67,0.39,1.16c0,0.52,-0.18,1,-0.54,1.45c-0.36,0.44,-0.93,0.8,-1.72,1.06m12.37,-3.38c-0.34,0.35,-0.67,0.61,-0.99,0.76c-0.32,0.15,-0.67,0.23,-1.05,0.23c-0.76,0,-1.42,-0.31,-1.99,-0.95c-0.56,-0.63,-0.85,-1.45,-0.85,-2.45c0,-1,0.31,-1.91,0.94,-2.74c0.62,-0.83,1.43,-1.24,2.42,-1.24c0.61,0,1.12,0.19,1.52,0.58l0,-1.28c0,-0.79,-0.01,-1.28,-0.05,-1.47c-0.03,-0.18,-0.09,-0.3,-0.17,-0.37c-0.08,-0.06,-0.18,-0.09,-0.3,-0.09c-0.13,0,-0.3,0.04,-0.52,0.12l-0.09,-0.26l2.07,-0.85l0.34,0l0,8.06c0,0.81,0.01,1.31,0.05,1.49c0.03,0.18,0.09,0.3,0.18,0.37c0.08,0.07,0.18,0.1,0.29,0.1c0.13,0,0.31,-0.04,0.54,-0.12l0.08,0.26l-2.07,0.86l-0.35,0l0,-0.99m0,-0.53l0,-3.59c-0.03,-0.34,-0.12,-0.66,-0.27,-0.94c-0.15,-0.28,-0.35,-0.49,-0.6,-0.64c-0.25,-0.14,-0.49,-0.21,-0.73,-0.21c-0.44,0,-0.84,0.2,-1.19,0.6c-0.46,0.52,-0.69,1.3,-0.69,2.31c0,1.02,0.22,1.81,0.67,2.35c0.44,0.54,0.94,0.81,1.49,0.81c0.46,0,0.9,-0.23,1.34,-0.69m4.04,-3.03c0,1.03,0.24,1.84,0.75,2.43c0.5,0.58,1.1,0.88,1.79,0.88c0.45,0,0.85,-0.12,1.19,-0.37c0.33,-0.25,0.62,-0.68,0.84,-1.29l0.23,0.15c-0.1,0.69,-0.41,1.32,-0.92,1.9c-0.51,0.57,-1.15,0.85,-1.92,0.85c-0.83,0,-1.55,-0.32,-2.15,-0.97c-0.59,-0.65,-0.89,-1.52,-0.89,-2.63c0,-1.19,0.3,-2.12,0.91,-2.79c0.61,-0.66,1.38,-1,2.3,-1c0.78,0,1.42,0.25,1.92,0.77c0.5,0.51,0.75,1.2,0.75,2.06l-4.82,0m0,-0.44l3.22,0c-0.02,-0.44,-0.07,-0.76,-0.16,-0.94c-0.12,-0.28,-0.31,-0.5,-0.56,-0.67c-0.25,-0.16,-0.51,-0.24,-0.78,-0.24c-0.42,0,-0.79,0.16,-1.13,0.49c-0.33,0.32,-0.52,0.78,-0.58,1.36m7.59,2.24c-0.42,-0.2,-0.75,-0.49,-0.98,-0.87c-0.22,-0.37,-0.34,-0.78,-0.34,-1.23c0,-0.69,0.26,-1.28,0.78,-1.78c0.52,-0.49,1.18,-0.74,1.99,-0.74c0.66,0,1.24,0.16,1.72,0.48l1.47,0c0.21,0,0.34,0,0.38,0.01c0.03,0.01,0.06,0.03,0.07,0.06c0.03,0.04,0.04,0.12,0.04,0.24c0,0.13,-0.01,0.22,-0.03,0.27c-0.01,0.02,-0.04,0.04,-0.08,0.06c-0.03,0.01,-0.16,0.02,-0.38,0.02l-0.9,0c0.28,0.36,0.42,0.83,0.42,1.4c0,0.65,-0.24,1.2,-0.74,1.66c-0.49,0.46,-1.16,0.69,-2,0.69c-0.34,0,-0.69,-0.05,-1.05,-0.15c-0.22,0.19,-0.37,0.36,-0.45,0.5c-0.07,0.14,-0.11,0.26,-0.11,0.36c0,0.08,0.04,0.17,0.12,0.25c0.08,0.08,0.24,0.13,0.49,0.17c0.14,0.02,0.49,0.03,1.06,0.05c1.04,0.02,1.72,0.06,2.03,0.1c0.47,0.06,0.84,0.24,1.13,0.52c0.28,0.28,0.42,0.63,0.42,1.05c0,0.57,-0.26,1.11,-0.8,1.61c-0.79,0.74,-1.82,1.11,-3.1,1.11c-0.98,0,-1.8,-0.22,-2.48,-0.66c-0.38,-0.25,-0.57,-0.51,-0.57,-0.79c0,-0.12,0.02,-0.24,0.08,-0.36c0.08,-0.18,0.26,-0.44,0.53,-0.78c0.03,-0.04,0.29,-0.31,0.77,-0.82c-0.26,-0.15,-0.45,-0.29,-0.55,-0.42c-0.1,-0.12,-0.16,-0.26,-0.16,-0.42c0,-0.17,0.07,-0.38,0.21,-0.62c0.14,-0.23,0.47,-0.57,1,-1.01m1.32,-4.27c-0.37,0,-0.69,0.14,-0.94,0.44c-0.25,0.29,-0.38,0.75,-0.38,1.37c0,0.8,0.17,1.42,0.51,1.86c0.26,0.33,0.59,0.5,1,0.5c0.38,0,0.7,-0.14,0.95,-0.43c0.24,-0.28,0.37,-0.74,0.37,-1.36c0,-0.8,-0.17,-1.43,-0.52,-1.89c-0.25,-0.33,-0.59,-0.5,-0.99,-0.5m-1.4,6.81c-0.23,0.25,-0.41,0.5,-0.54,0.72c-0.12,0.22,-0.18,0.42,-0.18,0.61c0,0.24,0.14,0.45,0.44,0.63c0.5,0.31,1.24,0.47,2.2,0.47c0.91,0,1.58,-0.16,2.02,-0.48c0.43,-0.32,0.65,-0.66,0.65,-1.03c0,-0.26,-0.12,-0.45,-0.38,-0.56c-0.26,-0.11,-0.78,-0.17,-1.56,-0.19c-1.14,-0.03,-2.02,-0.08,-2.63,-0.17m14.91,-10.56l0.23,3.51l-0.23,0c-0.31,-1.05,-0.76,-1.8,-1.34,-2.26c-0.58,-0.46,-1.28,-0.69,-2.1,-0.69c-0.68,0,-1.3,0.17,-1.85,0.52c-0.55,0.34,-0.98,0.9,-1.3,1.66c-0.31,0.76,-0.47,1.7,-0.47,2.84c0,0.93,0.14,1.74,0.44,2.42c0.29,0.68,0.75,1.21,1.35,1.57c0.6,0.36,1.28,0.54,2.06,0.54c0.67,0,1.26,-0.14,1.77,-0.43c0.51,-0.28,1.07,-0.85,1.69,-1.71l0.23,0.15c-0.51,0.91,-1.12,1.59,-1.81,2.01c-0.69,0.42,-1.51,0.63,-2.46,0.63c-1.71,0,-3.03,-0.63,-3.97,-1.9c-0.7,-0.94,-1.05,-2.05,-1.05,-3.33c0,-1.03,0.23,-1.97,0.69,-2.84c0.46,-0.86,1.09,-1.53,1.9,-2c0.81,-0.47,1.69,-0.71,2.65,-0.71c0.74,0,1.48,0.18,2.2,0.54c0.21,0.11,0.36,0.16,0.45,0.16c0.13,0,0.25,-0.04,0.35,-0.14c0.13,-0.13,0.22,-0.32,0.28,-0.57l0.26,0" fill="#000000" stroke="none" fill-opacity="1"/>
<path d="m44.15,377.21c0,-0.95,0.14,-1.77,0.43,-2.45c0.28,-0.68,0.66,-1.19,1.14,-1.53c0.36,-0.26,0.75,-0.39,1.14,-0.39c0.63,0,1.21,0.32,1.72,0.97c0.63,0.8,0.95,1.9,0.95,3.28c0,0.96,-0.13,1.79,-0.41,2.46c-0.27,0.67,-0.63,1.16,-1.06,1.47c-0.43,0.3,-0.85,0.45,-1.25,0.45c-0.79,0,-1.45,-0.46,-1.98,-1.4c-0.44,-0.79,-0.67,-1.74,-0.67,-2.86m1.2,0.15c0,1.14,0.14,2.08,0.42,2.81c0.23,0.61,0.58,0.91,1.04,0.91c0.22,0,0.45,-0.09,0.68,-0.29c0.23,-0.19,0.41,-0.53,0.54,-0.99c0.18,-0.7,0.28,-1.7,0.28,-2.98c0,-0.95,-0.09,-1.74,-0.29,-2.38c-0.14,-0.47,-0.33,-0.8,-0.57,-1c-0.16,-0.13,-0.37,-0.2,-0.6,-0.2c-0.27,0,-0.52,0.12,-0.74,0.37c-0.29,0.34,-0.49,0.87,-0.6,1.6c-0.1,0.73,-0.16,1.44,-0.16,2.15" fill="#000000" stroke="none" fill-opacity="1"/>
<path d="m110.03,379.72l-0.58,1.6l-4.92,0l0,-0.22c1.44,-1.32,2.46,-2.39,3.05,-3.23c0.59,-0.83,0.88,-1.6,0.88,-2.29c0,-0.52,-0.16,-0.96,-0.48,-1.3c-0.32,-0.34,-0.71,-0.51,-1.16,-0.51c-0.41,0,-0.77,0.12,-1.1,0.35c-0.32,0.23,-0.56,0.59,-0.72,1.05l-0.22,0c0.1,-0.75,0.36,-1.34,0.79,-1.74c0.42,-0.4,0.95,-0.6,1.59,-0.6c0.67,0,1.24,0.21,1.69,0.65c0.45,0.43,0.67,0.94,0.67,1.53c0,0.42,-0.09,0.84,-0.29,1.26c-0.3,0.66,-0.79,1.36,-1.47,2.11c-1.02,1.11,-1.65,1.78,-1.91,2.01l2.17,0c0.44,0,0.75,-0.01,0.93,-0.04c0.17,-0.03,0.33,-0.09,0.48,-0.2c0.14,-0.1,0.26,-0.24,0.37,-0.42l0.22,0m5.99,-6.73l-0.47,1.04l-2.51,0l-0.54,1.11c1.08,0.16,1.94,0.56,2.58,1.21c0.54,0.55,0.81,1.21,0.81,1.96c0,0.43,-0.08,0.84,-0.26,1.21c-0.17,0.37,-0.4,0.69,-0.67,0.95c-0.27,0.26,-0.57,0.47,-0.9,0.63c-0.47,0.22,-0.95,0.33,-1.45,0.33c-0.5,0,-0.86,-0.08,-1.09,-0.25c-0.22,-0.17,-0.34,-0.35,-0.34,-0.56c0,-0.11,0.04,-0.21,0.14,-0.3c0.09,-0.08,0.21,-0.13,0.35,-0.13c0.1,0,0.2,0.01,0.27,0.04c0.08,0.03,0.21,0.11,0.4,0.25c0.3,0.21,0.61,0.31,0.93,0.31c0.47,0,0.9,-0.18,1.26,-0.54c0.36,-0.36,0.54,-0.8,0.54,-1.32c0,-0.5,-0.16,-0.97,-0.48,-1.41c-0.32,-0.43,-0.77,-0.77,-1.34,-1.01c-0.44,-0.18,-1.05,-0.29,-1.82,-0.31l1.59,-3.24l2.99,0m1.28,4.22c0,-0.95,0.14,-1.77,0.43,-2.45c0.28,-0.68,0.66,-1.19,1.14,-1.53c0.36,-0.26,0.75,-0.39,1.14,-0.39c0.63,0,1.21,0.32,1.72,0.97c0.63,0.8,0.95,1.9,0.95,3.28c0,0.96,-0.13,1.79,-0.41,2.46c-0.27,0.67,-0.63,1.16,-1.06,1.47c-0.43,0.3,-0.85,0.45,-1.25,0.45c-0.79,0,-1.45,-0.46,-1.98,-1.4c-0.44,-0.79,-0.67,-1.74,-0.67,-2.86m1.2,0.15c0,1.14,0.14,2.08,0.42,2.81c0.23,0.61,0.58,0.91,1.04,0.91c0.22,0,0.45,-0.09,0.68,-0.29c0.23,-0.19,0.41,-0.53,0.54,-0.99c0.18,-0.7,0.28,-1.7,0.28,-2.98c0,-0.95,-0.09,-1.74,-0.29,-2.38c-0.14,-0.47,-0.33,-0.8,-0.57,-1c-0.16,-0.13,-0.37,-0.2,-0.6,-0.2c-0.27,0,-0.52,0.12,-0.74,0.37c-0.29,0.34,-0.49,0.87,-0.6,1.6c-0.1,0.73,-0.16,1.44,-0.16,2.15" fill="#000000" stroke="none" fill-opacity="1"/>
<path d="m176.58,372.99l-0.47,1.04l-2.51,0l-0.54,1.11c1.08,0.16,1.94,0.56,2.58,1.21c0.54,0.55,0.81,1.21,0.81,1.96c0,0.43,-0.08,0.84,-0.26,1.21c-0.17,0.37,-0.4,0.69,-0.67,0.95c-0.27,0.26,-0.57,0.47,-0.9,0.63c-0.47,0.22,-0.95,0.33,-1.45,0.33c-0.5,0,-0.86,-0.08,-1.09,-0.25c-0.22,-0.17,-0.34,-0.35,-0.34,-0.56c0,-0.11,0.04,-0.21,0.14,-0.3c0.09,-0.08,0.21,-0.13,0.35,-0.13c0.1,0,0.2,0.01,0.27,0.04c0.08,0.03,0.21,0.11,0.4,0.25c0.3,0.21,0.61,0.31,0.93,0.31c0.47,0,0.9,-0.18,1.26,-0.54c0.36,-0.36,0.54,-0.8,0.54,-1.32c0,-0.5,-0.16,-0.97,-0.48,-1.41c-0.32,-0.43,-0.77,-0.77,-1.34,-1.01c-0.44,-0.18,-1.05,-0.29,-1.82,-0.31l1.59,-3.24l2.99,0m1.28,4.22c0,-0.95,0.14,-1.77,0.43,-2.45c0.28,-0.68,0.66,-1.19,1.14,-1.53c0.36,-0.26,0.75,-0.39,1.14,-0.39c0.63,0,1.21,0.32,1.72,0.97c0.63,0.8,0.95,1.9,0.95,3.28c0,0.96,-0.13,1.79,-0.41,2.46c-0.27,0.67,-0.63,1.16,-1.06,1.47c-0.43,0.3,-0.85,0.45,-1.25,0.45c-0.79,0,-1.45,-0.46,-1.98,-1.4c-0.44,-0.79,-0.67,-1.74,-0.67,-2.86m1.2,0.15c0,1.14,0.14,2.08,0.42,2.81c0.23,0.61,0.58,0.91,1.04,0.91c0.22,0,0.45,-0.09,0.68,-0.29c0.23,-0.19,0.41,-0.53,0.54,-0.99c0.18,-0.7,0.28,-1.7,0.28,-2.98c0,-0.95,-0.09,-1.74,-0.29,-2.38c-0.14,-0.47,-0.33,-0.8,-0.57,-1c-0.16,-0.13,-0.37,-0.2,-0.6,-0.2c-0.27,0,-0.52,0.12,-0.74,0.37c-0.29,0.34,-0.49,0.87,-0.6,1.6c-0.1,0.73,-0.16,1.44,-0.16,2.15m5.09,-0.15c0,-0.95,0.14,-1.77,0.43,-2.45c0.28,-0.68,0.66,-1.19,1.14,-1.53c0.36,-0.26,0.75,-0.39,1.14,-0.39c0.63,0,1.21,0.32,1.72,0.97c0.63,0.8,0.95,1.9,0.95,3.28c0,0.96,-0.13,1.79,-0.41,2.46c-0.27,0.67,-0.63,1.16,-1.06,1.47c-0.43,0.3,-0.85,0.45,-1.25,0.45c-0.79,0,-1.45,-0.46,-1.98,-1.4c-0.44,-0.79,-0.67,-1.74,-0.67,-2.86m1.2,0.15c0,1.14,0.14,2.08,0.42,2.81c0.23,0.61,0.58,0.91,1.04,0.91c0.22,0,0.45,-0.09,0.68,-0.29c0.23,-0.19,0.41,-0.53,0.54,-0.99c0.18,-0.7,0.28,-1.7,0.28,-2.98c0,-0.95,-0.09,-1.74,-0.29,-2.38c-0.14,-0.47,-0.33,-0.8,-0.57,-1c-0.16,-0.13,-0.37,-0.2,-0.6,-0.2c-0.27,0,-0.52,0.12,-0.74,0.37c-0.29,0.34,-0.49,0.87,-0.6,1.6c-0.1,0.73,-0.16,1.44,-0.16,2.15" fill="#000000" stroke="none" fill-opacity="1"/>
<path d="m239.23,372.99l4.47,0l0,0.23l-2.78,8.28l-0.68,0l2.49,-7.51l-2.29,0c-0.46,0,-0.79,0.05,-0.99,0.16c-0.34,0.18,-0.62,0.47,-0.83,0.87l-0.17,-0.06l0.79,-1.97m10.5,0l-0.47,1.04l-2.51,0l-0.54,1.11c1.08,0.16,1.94,0.56,2.58,1.21c0.54,0.55,0.81,1.21,0.81,1.96c0,0.43,-0.08,0.84,-0.26,1.21c-0.17,0.37,-0.4,0.69,-0.67,0.95c-0.27,0.26,-0.57,0.47,-0.9,0.63c-0.47,0.22,-0.95,0.33,-1.45,0.33c-0.5,0,-0.86,-0.08,-1.09,-0.25c-0.22,-0.17,-0.34,-0.35,-0.34,-0.56c0,-0.11,0.04,-0.21,0.14,-0.3c0.09,-0.08,0.21,-0.13,0.35,-0.13c0.1,0,0.2,0.01,0.27,0.04c0.08,0.03,0.21,0.11,0.4,0.25c0.3,0.21,0.61,0.31,0.93,0.31c0.47,0,0.9,-0.18,1.26,-0.54c0.36,-0.36,0.54,-0.8,0.54,-1.32c0,-0.5,-0.16,-0.97,-0.48,-1.41c-0.32,-0.43,-0.77,-0.77,-1.34,-1.01c-0.44,-0.18,-1.05,-0.29,-1.82,-0.31l1.59,-3.24l2.99,0m1.28,4.22c0,-0.95,0.14,-1.77,0.43,-2.45c0.28,-0.68,0.66,-1.19,1.14,-1.53c0.36,-0.26,0.75,-0.39,1.14,-0.39c0.63,0,1.21,0.32,1.72,0.97c0.63,0.8,0.95,1.9,0.95,3.28c0,0.96,-0.13,1.79,-0.41,2.46c-0.27,0.67,-0.63,1.16,-1.06,1.47c-0.43,0.3,-0.85,0.45,-1.25,0.45c-0.79,0,-1.45,-0.46,-1.98,-1.4c-0.44,-0.79,-0.67,-1.74,-0.67,-2.86m1.2,0.15c0,1.14,0.14,2.08,0.42,2.81c0.23,0.61,0.58,0.91,1.04,0.91c0.22,0,0.45,-0.09,0.68,-0.29c0.23,-0.19,0.41,-0.53,0.54,-0.99c0.18,-0.7,0.28,-1.7,0.28,-2.98c0,-0.95,-0.09,-1.74,-0.29,-2.38c-0.14,-0.47,-0.33,-0.8,-0.57,-1c-0.16,-0.13,-0.37,-0.2,-0.6,-0.2c-0.27,0,-0.52,0.12,-0.74,0.37c-0.29,0.34,-0.49,0.87,-0.6,1.6c-0.1,0.73,-0.16,1.44,-0.16,2.15" fill="#000000" stroke="none" fill-opacity="1"/>
<path d="m303.15,373.81l2.03,-0.99l0.2,0l0,7.04c0,0.46,0.01,0.75,0.05,0.87c0.03,0.11,0.12,0.2,0.24,0.26c0.12,0.06,0.37,0.09,0.75,0.1l0,0.22l-3.13,0l0,-0.22c0.39,0,0.64,-0.04,0.76,-0.1c0.11,-0.05,0.19,-0.13,0.23,-0.23c0.04,-0.1,0.06,-0.4,0.06,-0.9l0,-4.5c0,-0.6,-0.02,-0.99,-0.06,-1.16c-0.02,-0.13,-0.08,-0.22,-0.15,-0.28c-0.07,-0.06,-0.16,-0.09,-0.27,-0.09c-0.15,0,-0.36,0.06,-0.63,0.19l-0.09,-0.19m5.27,3.4c0,-0.95,0.14,-1.77,0.43,-2.45c0.28,-0.68,0.66,-1.19,1.14,-1.53c0.36,-0.26,0.75,-0.39,1.14,-0.39c0.63,0,1.21,0.32,1.72,0.97c0.63,0.8,0.95,1.9,0.95,3.28c0,0.96,-0.13,1.79,-0.41,2.46c-0.27,0.67,-0.63,1.16,-1.06,1.47c-0.43,0.3,-0.85,0.45,-1.25,0.45c-0.79,0,-1.45,-0.46,-1.98,-1.4c-0.44,-0.79,-0.67,-1.74,-0.67,-2.86m1.2,0.15c0,1.14,0.14,2.08,0.42,2.81c0.23,0.61,0.58,0.91,1.04,0.91c0.22,0,0.45,-0.09,0.68,-0.29c0.23,-0.19,0.41,-0.53,0.54,-0.99c0.18,-0.7,0.28,-1.7,0.28,-2.98c0,-0.95,-0.09,-1.74,-0.29,-2.38c-0.14,-0.47,-0.33,-0.8,-0.57,-1c-0.16,-0.13,-0.37,-0.2,-0.6,-0.2c-0.27,0,-0.52,0.12,-0.74,0.37c-0.29,0.34,-0.49,0.87,-0.6,1.6c-0.1,0.73,-0.16,1.44,-0.16,2.15m5.09,-0.15c0,-0.95,0.14,-1.77,0.43,-2.45c0.28,-0.68,0.66,-1.19,1.14,-1.53c0.36,-0.26,0.75,-0.39,1.14,-0.39c0.63,0,1.21,0.32,1.72,0.97c0.63,0.8,0.95,1.9,0.95,3.28c0,0.96,-0.13,1.79,-0.41,2.46c-0.27,0.67,-0.63,1.16,-1.06,1.47c-0.43,0.3,-0.85,0.45,-1.25,0.45c-0.79,0,-1.45,-0.46,-1.98,-1.4c-0.44,-0.79,-0.67,-1.74,-0.67,-2.86m1.2,0.15c0,1.14,0.14,2.08,0.42,2.81c0.23,0.61,0.58,0.91,1.04,0.91c0.22,0,0.45,-0.09,0.68,-0.29c0.23,-0.19,0.41,-0.53,0.54,-0.99c0.18,-0.7,0.28,-1.7,0.28,-2.98c0,-0.95,-0.09,-1.74,-0.29,-2.38c-0.14,-0.47,-0.33,-0.8,-0.57,-1c-0.16,-0.13,-0.37,-0.2,-0.6,-0.2c-0.27,0,-0.52,0.12,-0.74,0.37c-0.29,0.34,-0.49,0.87,-0.6,1.6c-0.1,0.73,-0.16,1.44,-0.16,2.15m5.09,-0.15c0,-0.95,0.14,-1.77,0.43,-2.45c0.28,-0.68,0.66,-1.19,1.14,-1.53c0.36,-0.26,0.75,-0.39,1.14,-0.39c0.63,0,1.21,0.32,1.72,0.97c0.63,0.8,0.95,1.9,0.95,3.28c0,0.96,-0.13,1.79,-0.41,2.46c-0.27,0.67,-0.63,1.16,-1.06,1.47c-0.43,0.3,-0.85,0.45,-1.25,0.45c-0.79,0,-1.45,-0.46,-1.98,-1.4c-0.44,-0.79,-0.67,-1.74,-0.67,-2.86m1.2,0.15c0,1.14,0.14,2.08,0.42,2.81c0.23,0.61,0.58,0.91,1.04,0.91c0.22,0,0.45,-0.09,0.68,-0.29c0.23,-0.19,0.41,-0.53,0.54,-0.99c0.18,-0.7,0.28,-1.7,0.28,-2.98c0,-0.95,-0.09,-1.74,-0.29,-2.38c-0.14,-0.47,-0.33,-0.8,-0.57,-1c-0.16,-0.13,-0.37,-0.2,-0.6,-0.2c-0.27,0,-0.52,0.12,-0.74,0.37c-0.29,0.34,-0.49,0.87,-0.6,1.6c-0.1,0.73,-0.16,1.44,-0.16,2.15" fill="#000000" stroke="none" fill-opacity="1"/>
<path d="m370,373.81l2.03,-0.99l0.2,0l0,7.04c0,0.46,0.01,0.75,0.05,0.87c0.03,0.11,0.12,0.2,0.24,0.26c0.12,0.06,0.37,0.09,0.75,0.1l0,0.22l-3.13,0l0,-0.22c0.39,0,0.64,-0.04,0.76,-0.1c0.11,-0.05,0.19,-0.13,0.23,-0.23c0.04,-0.1,0.06,-0.4,0.06,-0.9l0,-4.5c0,-0.6,-0.02,-0.99,-0.06,-1.16c-0.02,-0.13,-0.08,-0.22,-0.15,-0.28c-0.07,-0.06,-0.16,-0.09,-0.27,-0.09c-0.15,0,-0.36,0.06,-0.63,0.19l-0.09,-0.19m10.6,5.91l-0.58,1.6l-4.92,0l0,-0.22c1.44,-1.32,2.46,-2.39,3.05,-3.23c0.59,-0.83,0.88,-1.6,0.88,-2.29c0,-0.52,-0.16,-0.96,-0.48,-1.3c-0.32,-0.34,-0.71,-0.51,-1.16,-0.51c-0.41,0,-0.77,0.12,-1.1,0.35c-0.32,0.23,-0.56,0.59,-0.72,1.05l-0.22,0c0.1,-0.75,0.36,-1.34,0.79,-1.74c0.42,-0.4,0.95,-0.6,1.59,-0.6c0.67,0,1.24,0.21,1.69,0.65c0.45,0.43,0.67,0.94,0.67,1.53c0,0.42,-0.09,0.84,-0.29,1.26c-0.3,0.66,-0.79,1.36,-1.47,2.11c-1.02,1.11,-1.65,1.78,-1.91,2.01l2.17,0c0.44,0,0.75,-0.01,0.93,-0.04c0.17,-0.03,0.33,-0.09,0.48,-0.2c0.14,-0.1,0.26,-0.24,0.37,-0.42l0.22,0m5.99,-6.73l-0.47,1.04l-2.51,0l-0.54,1.11c1.08,0.16,1.94,0.56,2.58,1.21c0.54,0.55,0.81,1.21,0.81,1.96c0,0.43,-0.08,0.84,-0.26,1.21c-0.17,0.37,-0.4,0.69,-0.67,0.95c-0.27,0.26,-0.57,0.47,-0.9,0.63c-0.47,0.22,-0.95,0.33,-1.45,0.33c-0.5,0,-0.86,-0.08,-1.09,-0.25c-0.22,-0.17,-0.34,-0.35,-0.34,-0.56c0,-0.11,0.04,-0.21,0.14,-0.3c0.09,-0.08,0.21,-0.13,0.35,-0.13c0.1,0,0.2,0.01,0.27,0.04c0.08,0.03,0.21,0.11,0.4,0.25c0.3,0.21,0.61,0.31,0.93,0.31c0.47,0,0.9,-0.18,1.26,-0.54c0.36,-0.36,0.54,-0.8,0.54,-1.32c0,-0.5,-0.16,-0.97,-0.48,-1.41c-0.32,-0.43,-0.77,-0.77,-1.34,-1.01c-0.44,-0.18,-1.05,-0.29,-1.82,-0.31l1.59,-3.24l2.99,0m1.28,4.22c0,-0.95,0.14,-1.77,0.43,-2.45c0.28,-0.68,0.66,-1.19,1.14,-1.53c0.36,-0.26,0.75,-0.39,1.14,-0.39c0.63,0,1.21,0.32,1.72,0.97c0.63,0.8,0.95,1.9,0.95,3.28c0,0.96,-0.13,1.79,-0.41,2.46c-0.27,0.67,-0.63,1.16,-1.06,1.47c-0.43,0.3,-0.85,0.45,-1.25,0.45c-0.79,0,-1.45,-0.46,-1.98,-1.4c-0.44,-0.79,-0.67,-1.74,-0.67,-2.86m1.2,0.15c0,1.14,0.14,2.08,0.42,2.81c0.23,0.61,0.58,0.91,1.04,0.91c0.22,0,0.45,-0.09,0.68,-0.29c0.23,-0.19,0.41,-0.53,0.54,-0.99c0.18,-0.7,0.28,-1.7,0.28,-2.98c0,-0.95,-0.09,-1.74,-0.29,-2.38c-0.14,-0.47,-0.33,-0.8,-0.57,-1c-0.16,-0.13,-0.37,-0.2,-0.6,-0.2c-0.27,0,-0.52,0.12,-0.74,0.37c-0.29,0.34,-0.49,0.87,-0.6,1.6c-0.1,0.73,-0.16,1.44,-0.16,2.15" fill="#000000" stroke="none" fill-opacity="1"/>
</g>
<g fill="none" stroke-linecap="butt" stroke-width="0.48">
<path d="M407.87,366.53l0,-361.02"/>
<path d="M407.87,366.53l-2.91,0M407.87,340.74l-2.91,0M407.87,314.96l-2.91,0M407.87,289.17l-2.91,0M407.87,263.38l-2.91,0M407.87,237.59l-2.91,0M407.87,211.81l-2.91,0M407.87,186.02l-2.91,0M407.87,160.23l-2.91,0M407.87,134.44l-2.91,0M407.87,108.66l-2.91,0M407.87,82.87l-2.91,0M407.87,57.08l-2.91,0M407.87,31.29l-2.91,0M407.87,5.51l-2.91,0"/>
<path d="M407.87,366.53l-5.83,0M407.87,314.96l-5.83,0M407.87,263.38l-5.83,0M407.87,211.81l-5.83,0M407.87,160.23l-5.83,0M407.87,108.66l-5.83,0M407.87,57.08l-5.83,0M407.87,5.51l-5.83,0"/>
<path d="M46.85,5.51l361.02,0"/>
<path d="M46.85,5.51l0,2.91M60.22,5.51l0,2.91M73.59,5.51l0,2.91M86.96,5.51l0,2.91M100.33,5.51l0,2.91M113.7,5.51l0,2.91M127.07,5.51l0,2.91M140.44,5.51l0,2.91M153.82,5.51l0,2.91M167.19,5.51l0,2.91M180.56,5.51l0,2.91M193.93,5.51l0,2.91M207.3,5.51l0,2.91M220.67,5.51l0,2.91M234.04,5.51l0,2.91M247.41,5.51l0,2.91M260.79,5.51l0,2.91M274.16,5.51l0,2.91M287.53,5.51l0,2.91M300.9,5.51l0,2.91M314.27,5.51l0,2.91M327.64,5.51l0,2.91M341.01,5.51l0,2.91M354.38,5.51l0,2.91M367.76,5.51l0,2.91M381.13,5.51l0,2.91M394.5,5.51l0,2.91M407.87,5.51l0,2.91"/>
<path d="M46.85,5.51l0,5.83M113.7,5.51l0,5.83M180.56,5.51l0,5.83M247.41,5.51l0,5.83M314.27,5.51l0,5.83M381.13,5.51l0,5.83"/>
</g>
</g>
</g>
</svg>
