<?xml version="1.0" encoding="utf-8"?>
<!-- Generator: Adobe Illustrator 25.2.0, SVG Export Plug-In . SVG Version: 6.00 Build 0)  -->
<svg version="1.1" id="Layer_1" xmlns="http://www.w3.org/2000/svg" xmlns:xlink="http://www.w3.org/1999/xlink" x="0px" y="0px"
	 viewBox="0 0 250 250" style="enable-background:new 0 0 250 250;" xml:space="preserve">
<style type="text/css">
	.st0{fill:#D24B20;}
	.st1{fill:#FFFFFF;}
</style>
<rect x="0.3" y="0.2" class="st0" width="250" height="250"/>
<g>
	<g>
		<circle class="st1" cx="124.8" cy="125.2" r="38.9"/>
	</g>
	<g>
		<path class="st1" d="M213,162.3l-34.3-17.2c-0.3-0.2-0.7-0.2-1-0.1c-0.3,0.1-0.6,0.4-0.7,0.7c-8.5,21.5-29,35.5-52.2,35.5
			c-30.9,0-56.1-25.2-56.1-56.1S93.9,69,124.8,69c23.2,0,43.6,13.9,52.2,35.4c0.1,0.3,0.4,0.6,0.7,0.7s0.7,0.1,1,0l34.3-17
			c0.6-0.3,0.9-1,0.6-1.7c-15.4-35.3-50.3-58.1-88.8-58.1c-53.4,0-96.9,43.5-96.9,96.9s43.5,96.9,96.9,96.9
			c38.5,0,73.4-22.8,88.8-58.2C213.9,163.3,213.6,162.6,213,162.3z"/>
	</g>
</g>
</svg>
