<?xml version="1.0" standalone="no"?>
<!DOCTYPE svg PUBLIC "-//W3C//DTD SVG 1.1//EN"
  "http://www.w3.org/Graphics/SVG/1.1/DTD/svg11.dtd">
<svg width="531.49px" height="318.89px" version="1.1"
    xmlns="http://www.w3.org/2000/svg"
    xmlns:xlink="http://www.w3.org/1999/xlink">
<desc>Veusz output document</desc>
<defs>
<clipPath id="c0">
<path d="m0,0l531.49,0l0,318.89l-531.49,0l0,-318.89"/>
</clipPath>
<clipPath id="c1">
<path d="m324.27,190.41l35.43,0l0,19.5l-35.43,0l0,-19.5"/>
</clipPath>
<clipPath id="c2">
<path d="m324.27,209.91l35.43,0l0,19.5l-35.43,0l0,-19.5"/>
</clipPath>
<clipPath id="c3">
<path d="m60.23,7.08l464.17,0l0,251.57l-464.17,0l0,-251.57"/>
</clipPath>
</defs>
<g stroke-linejoin="bevel" stroke-linecap="square" stroke="#000000" fill-rule="evenodd">
<g clip-path="url(#c0)">
<g fill="#ffffff" stroke-width="0.62">
<path d="m60.23,7.08l464.17,0l0,251.57l-464.17,0l0,-251.57"/>
</g>
<g fill="#ffffff" stroke="none" stroke-width="1">
<path d="m304.77,180.66l200.13,0l0,58.5l-200.13,0l0,-58.5" id="p0"/>
</g>
<g fill="none" stroke-width="0.62">
<use xlink:href="#p0"/>
</g>
</g>
<g clip-path="url(#c1)">
<g fill="none" stroke-width="0.62">
<path d="M341.99,200.16l0,0"/>
</g>
<g fill="none" stroke="#0000ff" stroke-width="1.87">
<path d="M324.27,200.16l35.43,0"/>
</g>
<g fill="#000000" stroke-linejoin="miter" stroke-width="0.62">
<g transform="translate(341.99,200.16)">
<path d="m1.25,0c0,0.69,-0.55,1.25,-1.25,1.25c-0.69,0,-1.25,-0.55,-1.25,-1.25c0,-0.69,0.55,-1.25,1.25,-1.25c0.69,0,1.25,0.55,1.25,1.25" id="p1"/>
</g>
</g>
</g>
<g clip-path="url(#c0)">
<g fill="none" stroke-width="1">
<path d="m383.17,195.05l0,4.58l2.54,0c0.66,0,1.1,-0.09,1.32,-0.29c0.29,-0.26,0.46,-0.72,0.49,-1.38l0.31,0l0,4.03l-0.31,0c-0.07,-0.56,-0.15,-0.92,-0.23,-1.08c-0.1,-0.19,-0.27,-0.35,-0.5,-0.47c-0.23,-0.11,-0.59,-0.17,-1.07,-0.17l-2.54,0l0,3.81c0,0.51,0.02,0.82,0.06,0.93c0.04,0.11,0.12,0.19,0.23,0.26c0.11,0.06,0.33,0.09,0.64,0.09l1.96,0c0.65,0,1.13,-0.04,1.42,-0.13c0.29,-0.09,0.58,-0.27,0.85,-0.53c0.35,-0.35,0.71,-0.88,1.08,-1.59l0.34,0l-0.99,2.9l-8.92,0l0,-0.31l0.41,0c0.27,0,0.53,-0.06,0.77,-0.19c0.18,-0.09,0.3,-0.22,0.37,-0.41c0.06,-0.18,0.09,-0.55,0.09,-1.11l0,-7.52c0,-0.73,-0.07,-1.18,-0.22,-1.35c-0.2,-0.22,-0.54,-0.34,-1.02,-0.34l-0.41,0l0,-0.31l8.92,0l0.12,2.53l-0.33,0c-0.11,-0.6,-0.25,-1.02,-0.39,-1.25c-0.14,-0.22,-0.36,-0.4,-0.64,-0.52c-0.22,-0.08,-0.62,-0.12,-1.2,-0.12l-3.17,0m10.94,3.74l0,5.14c0,0.72,0.07,1.19,0.23,1.38c0.21,0.25,0.49,0.37,0.84,0.37l0.7,0l0,0.3l-4.67,0l0,-0.3l0.35,0c0.22,0,0.43,-0.05,0.62,-0.17c0.18,-0.11,0.31,-0.26,0.38,-0.46c0.07,-0.19,0.1,-0.56,0.1,-1.12l0,-5.14l-1.52,0l0,-0.61l1.52,0l0,-0.51c0,-0.78,0.12,-1.44,0.37,-1.98c0.25,-0.54,0.63,-0.97,1.14,-1.31c0.51,-0.33,1.09,-0.49,1.73,-0.49c0.59,0,1.14,0.19,1.64,0.58c0.33,0.25,0.49,0.54,0.49,0.86c0,0.17,-0.07,0.33,-0.22,0.48c-0.14,0.15,-0.3,0.22,-0.47,0.22c-0.13,0,-0.26,-0.04,-0.41,-0.14c-0.14,-0.09,-0.32,-0.29,-0.53,-0.6c-0.21,-0.31,-0.4,-0.51,-0.58,-0.62c-0.17,-0.1,-0.37,-0.16,-0.58,-0.16c-0.26,0,-0.48,0.06,-0.66,0.2c-0.18,0.13,-0.31,0.35,-0.39,0.64c-0.07,0.29,-0.11,1.04,-0.11,2.26l0,0.56l2.01,0l0,0.61l-2.01,0m5.5,0l0,5.14c0,0.72,0.07,1.19,0.23,1.38c0.21,0.25,0.49,0.37,0.84,0.37l0.7,0l0,0.3l-4.67,0l0,-0.3l0.35,0c0.22,0,0.43,-0.05,0.62,-0.17c0.18,-0.11,0.31,-0.26,0.38,-0.46c0.07,-0.19,0.1,-0.56,0.1,-1.12l0,-5.14l-1.52,0l0,-0.61l1.52,0l0,-0.51c0,-0.78,0.12,-1.44,0.37,-1.98c0.25,-0.54,0.63,-0.97,1.14,-1.31c0.51,-0.33,1.09,-0.49,1.73,-0.49c0.59,0,1.14,0.19,1.64,0.58c0.33,0.25,0.49,0.54,0.49,0.86c0,0.17,-0.07,0.33,-0.22,0.48c-0.14,0.15,-0.3,0.22,-0.47,0.22c-0.13,0,-0.26,-0.04,-0.41,-0.14c-0.14,-0.09,-0.32,-0.29,-0.53,-0.6c-0.21,-0.31,-0.4,-0.51,-0.58,-0.62c-0.17,-0.1,-0.37,-0.16,-0.58,-0.16c-0.26,0,-0.48,0.06,-0.66,0.2c-0.18,0.13,-0.31,0.35,-0.39,0.64c-0.07,0.29,-0.11,1.04,-0.11,2.26l0,0.56l2.01,0l0,0.61l-2.01,0m4.05,2.33c0,1.16,0.27,2.07,0.84,2.73c0.56,0.66,1.23,0.99,2,0.99c0.51,0,0.95,-0.14,1.33,-0.42c0.37,-0.28,0.69,-0.76,0.95,-1.44l0.26,0.17c-0.11,0.78,-0.46,1.49,-1.04,2.13c-0.57,0.64,-1.29,0.96,-2.16,0.96c-0.93,0,-1.74,-0.36,-2.41,-1.09c-0.66,-0.73,-1,-1.71,-1,-2.95c0,-1.33,0.34,-2.38,1.02,-3.13c0.68,-0.74,1.54,-1.12,2.58,-1.12c0.87,0,1.59,0.28,2.16,0.86c0.56,0.57,0.84,1.35,0.84,2.31l-5.4,0m0,-0.49l3.62,0c-0.02,-0.5,-0.08,-0.85,-0.17,-1.05c-0.14,-0.31,-0.35,-0.56,-0.63,-0.75c-0.28,-0.18,-0.57,-0.27,-0.88,-0.27c-0.47,0,-0.89,0.18,-1.26,0.55c-0.37,0.36,-0.59,0.87,-0.65,1.53m13.13,2.4c-0.21,1.03,-0.62,1.82,-1.23,2.37c-0.61,0.55,-1.29,0.83,-2.04,0.83c-0.88,0,-1.66,-0.37,-2.32,-1.11c-0.66,-0.74,-0.99,-1.75,-0.99,-3.02c0,-1.23,0.36,-2.23,1.09,-2.99c0.73,-0.76,1.61,-1.15,2.63,-1.15c0.76,0,1.4,0.2,1.89,0.61c0.49,0.4,0.74,0.83,0.74,1.26c0,0.21,-0.06,0.39,-0.2,0.52c-0.13,0.13,-0.33,0.2,-0.58,0.2c-0.33,0,-0.58,-0.1,-0.76,-0.32c-0.09,-0.11,-0.16,-0.34,-0.19,-0.68c-0.03,-0.33,-0.14,-0.59,-0.34,-0.76c-0.19,-0.17,-0.47,-0.25,-0.82,-0.25c-0.56,0,-1.02,0.21,-1.37,0.63c-0.46,0.55,-0.69,1.29,-0.69,2.21c0,0.93,0.22,1.75,0.68,2.47c0.45,0.71,1.07,1.07,1.85,1.07c0.55,0,1.05,-0.19,1.5,-0.57c0.31,-0.26,0.61,-0.73,0.91,-1.42l0.24,0.11m3.42,-7.42l0,2.57l1.82,0l0,0.59l-1.82,0l0,5.07c0,0.5,0.07,0.84,0.21,1.02c0.14,0.17,0.33,0.26,0.55,0.26c0.18,0,0.37,-0.05,0.54,-0.17c0.17,-0.11,0.31,-0.28,0.41,-0.51l0.33,0c-0.19,0.55,-0.48,0.97,-0.84,1.26c-0.36,0.28,-0.74,0.42,-1.12,0.42c-0.26,0,-0.51,-0.07,-0.76,-0.21c-0.25,-0.14,-0.43,-0.35,-0.55,-0.62c-0.11,-0.27,-0.17,-0.68,-0.17,-1.25l0,-5.26l-1.23,0l0,-0.28c0.31,-0.12,0.63,-0.33,0.96,-0.63c0.32,-0.29,0.61,-0.65,0.87,-1.06c0.13,-0.21,0.31,-0.61,0.54,-1.18l0.26,0m4.61,-1.75c0.23,0,0.44,0.08,0.61,0.25c0.16,0.16,0.25,0.37,0.25,0.61c0,0.23,-0.08,0.44,-0.25,0.61c-0.16,0.17,-0.37,0.25,-0.61,0.25c-0.23,0,-0.44,-0.08,-0.61,-0.25c-0.17,-0.17,-0.25,-0.37,-0.25,-0.61c0,-0.23,0.08,-0.44,0.25,-0.61c0.16,-0.16,0.37,-0.25,0.61,-0.25m0.7,4.09l0,6.28c0,0.48,0.03,0.81,0.1,0.97c0.07,0.16,0.17,0.28,0.31,0.36c0.13,0.07,0.39,0.11,0.76,0.11l0,0.3l-3.8,0l0,-0.3c0.38,0,0.63,-0.03,0.76,-0.11c0.13,-0.07,0.23,-0.19,0.31,-0.36c0.07,-0.17,0.11,-0.49,0.11,-0.98l0,-3.01c0,-0.84,-0.02,-1.39,-0.07,-1.64c-0.03,-0.18,-0.1,-0.3,-0.18,-0.38c-0.08,-0.07,-0.2,-0.1,-0.35,-0.1c-0.15,0,-0.35,0.04,-0.58,0.12l-0.11,-0.3l2.35,-0.95l0.37,0m1.79,0.23l3.68,0l0,0.31l-0.23,0c-0.22,0,-0.39,0.05,-0.5,0.16c-0.11,0.1,-0.17,0.25,-0.17,0.43c0,0.19,0.05,0.43,0.17,0.7l1.82,4.32l1.82,-4.48c0.13,-0.31,0.19,-0.56,0.19,-0.72c0,-0.07,-0.02,-0.14,-0.06,-0.19c-0.06,-0.08,-0.14,-0.14,-0.23,-0.17c-0.09,-0.03,-0.29,-0.04,-0.58,-0.04l0,-0.31l2.55,0l0,0.31c-0.29,0.02,-0.5,0.08,-0.61,0.17c-0.19,0.17,-0.37,0.45,-0.53,0.85l-2.77,6.71l-0.35,0l-2.79,-6.6c-0.12,-0.3,-0.24,-0.52,-0.35,-0.66c-0.11,-0.13,-0.25,-0.24,-0.43,-0.33c-0.09,-0.05,-0.28,-0.09,-0.57,-0.14l0,-0.31m10.51,2.94c0,1.16,0.27,2.07,0.84,2.73c0.56,0.66,1.23,0.99,2,0.99c0.51,0,0.95,-0.14,1.33,-0.42c0.37,-0.28,0.69,-0.76,0.95,-1.44l0.26,0.17c-0.11,0.78,-0.46,1.49,-1.04,2.13c-0.57,0.64,-1.29,0.96,-2.16,0.96c-0.93,0,-1.74,-0.36,-2.41,-1.09c-0.66,-0.73,-1,-1.71,-1,-2.95c0,-1.33,0.34,-2.38,1.02,-3.13c0.68,-0.74,1.54,-1.12,2.58,-1.12c0.87,0,1.59,0.28,2.16,0.86c0.56,0.57,0.84,1.35,0.84,2.31l-5.4,0m0,-0.49l3.62,0c-0.02,-0.5,-0.08,-0.85,-0.17,-1.05c-0.14,-0.31,-0.35,-0.56,-0.63,-0.75c-0.28,-0.18,-0.57,-0.27,-0.88,-0.27c-0.47,0,-0.89,0.18,-1.26,0.55c-0.37,0.36,-0.59,0.87,-0.65,1.53m18.72,-0.53c0.8,0.17,1.4,0.44,1.8,0.82c0.55,0.52,0.82,1.16,0.82,1.92c0,0.57,-0.18,1.12,-0.54,1.65c-0.36,0.52,-0.86,0.91,-1.49,1.15c-0.63,0.24,-1.6,0.36,-2.9,0.36l-5.46,0l0,-0.31l0.43,0c0.48,0,0.83,-0.15,1.04,-0.46c0.13,-0.19,0.19,-0.62,0.19,-1.27l0,-7.48c0,-0.71,-0.08,-1.17,-0.24,-1.35c-0.22,-0.25,-0.55,-0.37,-0.99,-0.37l-0.43,0l0,-0.31l5,0c0.93,0,1.68,0.06,2.24,0.2c0.85,0.2,1.5,0.56,1.95,1.08c0.45,0.52,0.67,1.12,0.67,1.79c0,0.58,-0.17,1.1,-0.52,1.55c-0.35,0.45,-0.87,0.79,-1.56,1.02m-4.47,-0.46c0.21,0.03,0.45,0.06,0.72,0.08c0.27,0.01,0.56,0.02,0.89,0.02c0.83,0,1.45,-0.08,1.87,-0.26c0.41,-0.17,0.73,-0.45,0.96,-0.82c0.22,-0.37,0.33,-0.77,0.33,-1.21c0,-0.67,-0.27,-1.25,-0.82,-1.73c-0.55,-0.47,-1.35,-0.71,-2.41,-0.71c-0.56,0,-1.08,0.06,-1.53,0.18l0,4.45m0,5.53c0.66,0.15,1.31,0.23,1.95,0.23c1.03,0,1.81,-0.23,2.35,-0.69c0.54,-0.46,0.81,-1.03,0.81,-1.72c0,-0.45,-0.12,-0.88,-0.36,-1.29c-0.24,-0.41,-0.64,-0.74,-1.19,-0.98c-0.55,-0.23,-1.23,-0.35,-2.05,-0.35c-0.35,0,-0.65,0,-0.9,0.01c-0.25,0.01,-0.45,0.03,-0.6,0.05l0,4.75m13.82,4.26l0,0.31c-0.86,-0.43,-1.57,-0.93,-2.15,-1.52c-0.82,-0.82,-1.45,-1.8,-1.89,-2.92c-0.44,-1.12,-0.66,-2.28,-0.66,-3.49c0,-1.76,0.43,-3.37,1.3,-4.83c0.87,-1.45,2,-2.49,3.4,-3.12l0,0.35c-0.7,0.38,-1.27,0.91,-1.72,1.58c-0.45,0.67,-0.78,1.52,-1,2.55c-0.22,1.03,-0.33,2.1,-0.33,3.23c0,1.21,0.09,2.32,0.28,3.32c0.14,0.78,0.32,1.41,0.53,1.89c0.21,0.47,0.49,0.93,0.85,1.37c0.35,0.43,0.82,0.85,1.39,1.25m4.26,-9.63l5.38,0l0,-3.31c0,-0.59,-0.03,-0.98,-0.11,-1.17c-0.05,-0.14,-0.17,-0.26,-0.35,-0.36c-0.24,-0.13,-0.5,-0.2,-0.77,-0.2l-0.41,0l0,-0.31l4.95,0l0,0.31l-0.41,0c-0.27,0,-0.53,0.06,-0.77,0.19c-0.18,0.09,-0.3,0.22,-0.37,0.41c-0.06,0.18,-0.09,0.56,-0.09,1.13l0,7.47c0,0.58,0.03,0.97,0.11,1.16c0.05,0.14,0.17,0.26,0.35,0.36c0.25,0.13,0.51,0.2,0.78,0.2l0.41,0l0,0.31l-4.95,0l0,-0.31l0.41,0c0.47,0,0.81,-0.13,1.03,-0.41c0.14,-0.18,0.21,-0.62,0.21,-1.31l0,-3.52l-5.38,0l0,3.52c0,0.58,0.03,0.97,0.11,1.16c0.05,0.14,0.17,0.26,0.35,0.36c0.24,0.13,0.5,0.2,0.77,0.2l0.41,0l0,0.31l-4.96,0l0,-0.31l0.41,0c0.47,0,0.82,-0.13,1.04,-0.41c0.13,-0.18,0.2,-0.62,0.2,-1.31l0,-7.47c0,-0.59,-0.03,-0.98,-0.11,-1.17c-0.05,-0.14,-0.17,-0.26,-0.35,-0.36c-0.25,-0.13,-0.51,-0.2,-0.78,-0.2l-0.41,0l0,-0.31l4.96,0l0,0.31l-0.41,0c-0.27,0,-0.53,0.06,-0.77,0.19c-0.17,0.09,-0.29,0.22,-0.36,0.41c-0.06,0.18,-0.1,0.56,-0.1,1.13l0,3.31m9.68,-5.57l0,-0.35c0.86,0.42,1.58,0.93,2.16,1.51c0.81,0.83,1.44,1.8,1.88,2.92c0.44,1.11,0.66,2.28,0.66,3.49c0,1.76,-0.43,3.37,-1.3,4.83c-0.86,1.45,-2,2.49,-3.41,3.12l0,-0.31c0.7,-0.39,1.27,-0.92,1.73,-1.59c0.45,-0.66,0.78,-1.52,1,-2.55c0.21,-1.03,0.32,-2.11,0.32,-3.23c0,-1.21,-0.09,-2.32,-0.28,-3.32c-0.14,-0.78,-0.32,-1.41,-0.53,-1.88c-0.21,-0.47,-0.49,-0.92,-0.85,-1.36c-0.35,-0.43,-0.82,-0.85,-1.4,-1.25" fill="#000000" stroke="none" fill-opacity="1"/>
</g>
</g>
<g clip-path="url(#c2)">
<g fill="none" stroke-width="0.62">
<path d="M341.99,219.66l0,0"/>
</g>
<g fill="none" stroke="#ff0000" stroke-width="1.87">
<path d="M324.27,219.66l35.43,0"/>
</g>
<g fill="#000000" stroke-linejoin="miter" stroke-width="0.62">
<use xlink:href="#p1" x="341.99" y="219.66"/>
</g>
</g>
<g clip-path="url(#c0)">
<g fill="none" stroke-width="1">
<path d="m389.64,213.92l0.12,2.71l-0.32,0c-0.06,-0.47,-0.14,-0.82,-0.25,-1.02c-0.17,-0.33,-0.41,-0.57,-0.7,-0.73c-0.29,-0.15,-0.67,-0.23,-1.15,-0.23l-1.63,0l0,8.85c0,0.71,0.07,1.15,0.23,1.33c0.21,0.23,0.54,0.35,0.99,0.35l0.4,0l0,0.31l-4.91,0l0,-0.31l0.41,0c0.48,0,0.83,-0.14,1.04,-0.44c0.12,-0.18,0.18,-0.59,0.18,-1.24l0,-8.85l-1.39,0c-0.54,0,-0.92,0.03,-1.15,0.11c-0.29,0.1,-0.54,0.31,-0.76,0.62c-0.21,0.3,-0.33,0.72,-0.37,1.24l-0.32,0l0.13,-2.71l9.45,0m3.1,3.52l0,1.76c0.65,-1.17,1.32,-1.76,2.01,-1.76c0.31,0,0.57,0.09,0.77,0.28c0.2,0.19,0.3,0.41,0.3,0.66c0,0.22,-0.07,0.41,-0.22,0.56c-0.14,0.15,-0.32,0.23,-0.52,0.23c-0.19,0,-0.42,-0.09,-0.67,-0.29c-0.24,-0.19,-0.43,-0.29,-0.55,-0.29c-0.1,0,-0.21,0.05,-0.33,0.17c-0.25,0.23,-0.52,0.61,-0.79,1.15l0,3.75c0,0.43,0.05,0.76,0.16,0.98c0.07,0.15,0.2,0.28,0.39,0.38c0.18,0.1,0.45,0.15,0.81,0.15l0,0.3l-4,0l0,-0.3c0.39,0,0.69,-0.06,0.88,-0.18c0.14,-0.09,0.24,-0.23,0.29,-0.43c0.02,-0.09,0.04,-0.37,0.04,-0.82l0,-3.03c0,-0.91,-0.01,-1.45,-0.05,-1.62c-0.03,-0.17,-0.1,-0.3,-0.2,-0.38c-0.09,-0.07,-0.22,-0.11,-0.37,-0.11c-0.17,0,-0.37,0.04,-0.59,0.12l-0.08,-0.3l2.36,-0.95l0.35,0m7.94,6.92c-0.8,0.62,-1.3,0.97,-1.51,1.07c-0.3,0.14,-0.63,0.21,-0.98,0.21c-0.54,0,-0.98,-0.18,-1.33,-0.55c-0.35,-0.37,-0.52,-0.85,-0.52,-1.46c0,-0.38,0.08,-0.71,0.25,-0.99c0.23,-0.38,0.63,-0.75,1.21,-1.09c0.57,-0.34,1.53,-0.75,2.88,-1.24l0,-0.3c0,-0.78,-0.12,-1.31,-0.37,-1.6c-0.24,-0.29,-0.6,-0.43,-1.08,-0.43c-0.35,0,-0.64,0.09,-0.85,0.29c-0.21,0.19,-0.32,0.41,-0.32,0.66l0.01,0.49c0,0.26,-0.06,0.46,-0.2,0.6c-0.13,0.14,-0.3,0.21,-0.52,0.21c-0.21,0,-0.38,-0.07,-0.51,-0.22c-0.13,-0.14,-0.2,-0.35,-0.2,-0.6c0,-0.48,0.25,-0.93,0.75,-1.35c0.5,-0.41,1.2,-0.61,2.11,-0.61c0.69,0,1.26,0.11,1.7,0.35c0.33,0.17,0.58,0.45,0.74,0.82c0.1,0.24,0.15,0.74,0.15,1.5l0,2.65c0,0.74,0.01,1.2,0.04,1.37c0.02,0.16,0.07,0.28,0.14,0.33c0.06,0.05,0.14,0.08,0.22,0.08c0.09,0,0.17,-0.01,0.23,-0.05c0.11,-0.07,0.35,-0.28,0.69,-0.62l0,0.47c-0.63,0.85,-1.24,1.28,-1.82,1.28c-0.27,0,-0.5,-0.09,-0.66,-0.29c-0.16,-0.19,-0.25,-0.52,-0.25,-0.99m0,-0.55l0,-2.98c-0.86,0.34,-1.41,0.58,-1.66,0.72c-0.45,0.25,-0.77,0.51,-0.96,0.78c-0.19,0.27,-0.29,0.57,-0.29,0.89c0,0.41,0.12,0.75,0.36,1.02c0.24,0.27,0.52,0.4,0.84,0.4c0.43,0,1,-0.28,1.7,-0.85m5.64,-4.71c0.91,-1.1,1.79,-1.65,2.62,-1.65c0.42,0,0.79,0.1,1.1,0.32c0.3,0.21,0.55,0.56,0.73,1.05c0.12,0.34,0.18,0.86,0.18,1.57l0,3.34c0,0.49,0.03,0.83,0.11,1c0.06,0.14,0.16,0.25,0.3,0.33c0.13,0.07,0.39,0.11,0.77,0.11l0,0.3l-3.87,0l0,-0.3l0.16,0c0.36,0,0.61,-0.05,0.76,-0.16c0.14,-0.11,0.24,-0.27,0.3,-0.49c0.02,-0.08,0.03,-0.35,0.03,-0.8l0,-3.2c0,-0.71,-0.09,-1.22,-0.27,-1.55c-0.18,-0.32,-0.49,-0.48,-0.93,-0.48c-0.67,0,-1.35,0.37,-2.02,1.11l0,4.12c0,0.52,0.03,0.85,0.09,0.98c0.07,0.16,0.18,0.28,0.32,0.36c0.13,0.07,0.42,0.11,0.85,0.11l0,0.3l-3.87,0l0,-0.3l0.17,0c0.39,0,0.66,-0.1,0.8,-0.3c0.13,-0.2,0.2,-0.58,0.2,-1.15l0,-2.9c0,-0.93,-0.02,-1.51,-0.06,-1.71c-0.04,-0.2,-0.1,-0.34,-0.19,-0.41c-0.08,-0.07,-0.2,-0.11,-0.35,-0.11c-0.15,0,-0.35,0.04,-0.57,0.12l-0.12,-0.3l2.35,-0.95l0.36,0l0,1.65m11.57,-1.65l0,2.66l-0.28,0c-0.21,-0.83,-0.49,-1.4,-0.83,-1.7c-0.33,-0.3,-0.77,-0.45,-1.29,-0.45c-0.39,0,-0.72,0.1,-0.96,0.31c-0.24,0.21,-0.36,0.44,-0.36,0.7c0,0.31,0.09,0.59,0.27,0.82c0.17,0.23,0.53,0.48,1.07,0.74l1.24,0.6c1.15,0.56,1.73,1.3,1.73,2.23c0,0.71,-0.26,1.28,-0.8,1.72c-0.53,0.43,-1.14,0.65,-1.8,0.65c-0.47,0,-1.02,-0.08,-1.64,-0.25c-0.18,-0.05,-0.34,-0.08,-0.46,-0.08c-0.13,0,-0.23,0.07,-0.3,0.22l-0.28,0l0,-2.79l0.28,0c0.15,0.79,0.46,1.39,0.91,1.8c0.45,0.4,0.95,0.6,1.51,0.6c0.39,0,0.71,-0.11,0.96,-0.34c0.24,-0.23,0.37,-0.5,0.37,-0.83c0,-0.39,-0.13,-0.72,-0.41,-0.99c-0.27,-0.26,-0.82,-0.6,-1.65,-1.01c-0.82,-0.41,-1.36,-0.78,-1.62,-1.11c-0.25,-0.32,-0.38,-0.73,-0.38,-1.23c0,-0.64,0.22,-1.18,0.66,-1.61c0.44,-0.43,1.01,-0.64,1.71,-0.64c0.3,0,0.68,0.06,1.11,0.19c0.29,0.08,0.48,0.12,0.58,0.12c0.09,0,0.16,-0.01,0.21,-0.05c0.05,-0.03,0.11,-0.12,0.17,-0.26l0.28,0m3.73,-4.09c0.23,0,0.44,0.08,0.61,0.25c0.16,0.16,0.25,0.37,0.25,0.61c0,0.23,-0.08,0.44,-0.25,0.61c-0.16,0.17,-0.37,0.25,-0.61,0.25c-0.23,0,-0.44,-0.08,-0.61,-0.25c-0.17,-0.17,-0.25,-0.37,-0.25,-0.61c0,-0.23,0.08,-0.44,0.25,-0.61c0.16,-0.16,0.37,-0.25,0.61,-0.25m0.7,4.09l0,6.28c0,0.48,0.03,0.81,0.1,0.97c0.07,0.16,0.17,0.28,0.31,0.36c0.13,0.07,0.39,0.11,0.76,0.11l0,0.3l-3.8,0l0,-0.3c0.38,0,0.63,-0.03,0.76,-0.11c0.13,-0.07,0.23,-0.19,0.31,-0.36c0.07,-0.17,0.11,-0.49,0.11,-0.98l0,-3.01c0,-0.84,-0.02,-1.39,-0.07,-1.64c-0.03,-0.18,-0.1,-0.3,-0.18,-0.38c-0.08,-0.07,-0.2,-0.1,-0.35,-0.1c-0.15,0,-0.35,0.04,-0.58,0.12l-0.11,-0.3l2.35,-0.95l0.37,0m3.51,3.17c0,1.16,0.27,2.07,0.84,2.73c0.56,0.66,1.23,0.99,2,0.99c0.51,0,0.95,-0.14,1.33,-0.42c0.37,-0.28,0.69,-0.76,0.95,-1.44l0.26,0.17c-0.11,0.78,-0.46,1.49,-1.04,2.13c-0.57,0.64,-1.29,0.96,-2.16,0.96c-0.93,0,-1.74,-0.36,-2.41,-1.09c-0.66,-0.73,-1,-1.71,-1,-2.95c0,-1.33,0.34,-2.38,1.02,-3.13c0.68,-0.74,1.54,-1.12,2.58,-1.12c0.87,0,1.59,0.28,2.16,0.86c0.56,0.57,0.84,1.35,0.84,2.31l-5.4,0m0,-0.49l3.62,0c-0.02,-0.5,-0.08,-0.85,-0.17,-1.05c-0.14,-0.31,-0.35,-0.56,-0.63,-0.75c-0.28,-0.18,-0.57,-0.27,-0.88,-0.27c-0.47,0,-0.89,0.18,-1.26,0.55c-0.37,0.36,-0.59,0.87,-0.65,1.53m8.76,-1.02c0.91,-1.1,1.79,-1.65,2.62,-1.65c0.42,0,0.79,0.1,1.1,0.32c0.3,0.21,0.55,0.56,0.73,1.05c0.12,0.34,0.18,0.86,0.18,1.57l0,3.34c0,0.49,0.03,0.83,0.11,1c0.06,0.14,0.16,0.25,0.3,0.33c0.13,0.07,0.39,0.11,0.77,0.11l0,0.3l-3.87,0l0,-0.3l0.16,0c0.36,0,0.61,-0.05,0.76,-0.16c0.14,-0.11,0.24,-0.27,0.3,-0.49c0.02,-0.08,0.03,-0.35,0.03,-0.8l0,-3.2c0,-0.71,-0.09,-1.22,-0.27,-1.55c-0.18,-0.32,-0.49,-0.48,-0.93,-0.48c-0.67,0,-1.35,0.37,-2.02,1.11l0,4.12c0,0.52,0.03,0.85,0.09,0.98c0.07,0.16,0.18,0.28,0.32,0.36c0.13,0.07,0.42,0.11,0.85,0.11l0,0.3l-3.87,0l0,-0.3l0.17,0c0.39,0,0.66,-0.1,0.8,-0.3c0.13,-0.2,0.2,-0.58,0.2,-1.15l0,-2.9c0,-0.93,-0.02,-1.51,-0.06,-1.71c-0.04,-0.2,-0.1,-0.34,-0.19,-0.41c-0.08,-0.07,-0.2,-0.11,-0.35,-0.11c-0.15,0,-0.35,0.04,-0.57,0.12l-0.12,-0.3l2.35,-0.95l0.36,0l0,1.65m8.79,-3.99l0,2.57l1.82,0l0,0.59l-1.82,0l0,5.07c0,0.5,0.07,0.84,0.21,1.02c0.14,0.17,0.33,0.26,0.55,0.26c0.18,0,0.37,-0.05,0.54,-0.17c0.17,-0.11,0.31,-0.28,0.41,-0.51l0.33,0c-0.19,0.55,-0.48,0.97,-0.84,1.26c-0.36,0.28,-0.74,0.42,-1.12,0.42c-0.26,0,-0.51,-0.07,-0.76,-0.21c-0.25,-0.14,-0.43,-0.35,-0.55,-0.62c-0.11,-0.27,-0.17,-0.68,-0.17,-1.25l0,-5.26l-1.23,0l0,-0.28c0.31,-0.12,0.63,-0.33,0.96,-0.63c0.32,-0.29,0.61,-0.65,0.87,-1.06c0.13,-0.21,0.31,-0.61,0.54,-1.18l0.26,0" fill="#000000" stroke="none" fill-opacity="1"/>
</g>
</g>
<g clip-path="url(#c3)">
<g fill="none" stroke="#ff0000" stroke-width="1.87">
<polyline fill="none" points="60.23,132.87 71.84,176.97 83.44,192.93 95.04,196.74 106.65,198.08 118.25,199 129.86,199.73 141.46,200.29 153.07,200.67 164.67,200.9 176.27,200.97 187.88,200.89 199.48,200.67 211.09,200.28 222.69,199.74 234.3,199.02 245.9,198.12 257.5,196.83 269.11,193.28 280.71,179.34 292.32,135.98 303.92,90.45 315.53,73.26 327.13,69.22 338.74,67.82 350.34,66.91 361.94,66.17 373.55,65.6 385.15,65.21 396.76,64.98 408.36,64.9 419.97,64.98 431.57,65.2 443.17,65.59 454.78,66.13 466.38,66.85 477.99,67.75 489.59,69.07 501.2,72.73 512.8,86.98 524.4,132.87"/>
</g>
<g fill="#000000" stroke-linejoin="miter" stroke-width="0.62">
<use xlink:href="#p1" x="60.23" y="132.87"/>
<use xlink:href="#p1" x="71.84" y="176.97"/>
<use xlink:href="#p1" x="83.44" y="192.93"/>
<use xlink:href="#p1" x="95.04" y="196.74"/>
<use xlink:href="#p1" x="106.65" y="198.08"/>
<use xlink:href="#p1" x="118.25" y="199"/>
<use xlink:href="#p1" x="129.86" y="199.73"/>
<use xlink:href="#p1" x="141.46" y="200.29"/>
<use xlink:href="#p1" x="153.07" y="200.67"/>
<use xlink:href="#p1" x="164.67" y="200.9"/>
<use xlink:href="#p1" x="176.27" y="200.97"/>
<use xlink:href="#p1" x="187.88" y="200.89"/>
<use xlink:href="#p1" x="199.48" y="200.67"/>
<use xlink:href="#p1" x="211.09" y="200.28"/>
<use xlink:href="#p1" x="222.69" y="199.74"/>
<use xlink:href="#p1" x="234.3" y="199.02"/>
<use xlink:href="#p1" x="245.9" y="198.12"/>
<use xlink:href="#p1" x="257.5" y="196.83"/>
<use xlink:href="#p1" x="269.11" y="193.28"/>
<use xlink:href="#p1" x="280.71" y="179.34"/>
<use xlink:href="#p1" x="292.32" y="135.98"/>
<use xlink:href="#p1" x="303.92" y="90.45"/>
<use xlink:href="#p1" x="315.53" y="73.26"/>
<use xlink:href="#p1" x="327.13" y="69.22"/>
<use xlink:href="#p1" x="338.74" y="67.82"/>
<use xlink:href="#p1" x="350.34" y="66.91"/>
<use xlink:href="#p1" x="361.94" y="66.17"/>
<use xlink:href="#p1" x="373.55" y="65.6"/>
<use xlink:href="#p1" x="385.15" y="65.21"/>
<use xlink:href="#p1" x="396.76" y="64.98"/>
<use xlink:href="#p1" x="408.36" y="64.9"/>
<use xlink:href="#p1" x="419.97" y="64.98"/>
<use xlink:href="#p1" x="431.57" y="65.2"/>
<use xlink:href="#p1" x="443.17" y="65.59"/>
<use xlink:href="#p1" x="454.78" y="66.13"/>
<use xlink:href="#p1" x="466.38" y="66.85"/>
<use xlink:href="#p1" x="477.99" y="67.75"/>
<use xlink:href="#p1" x="489.59" y="69.07"/>
<use xlink:href="#p1" x="501.2" y="72.73"/>
<use xlink:href="#p1" x="512.8" y="86.98"/>
<use xlink:href="#p1" x="524.4" y="132.87"/>
</g>
<g fill="none" stroke="#0000ff" stroke-width="1.87">
<polyline fill="none" points="60.23,132.87 71.84,152.35 83.44,171.35 95.04,189.4 106.65,206.07 118.25,220.92 129.86,233.62 141.46,243.83 153.07,251.3 164.67,255.87 176.27,257.4 187.88,255.87 199.48,251.3 211.09,243.83 222.69,233.62 234.3,220.92 245.9,206.07 257.5,189.4 269.11,171.35 280.71,152.35 292.32,132.87 303.92,113.39 315.53,94.39 327.13,76.33 338.74,59.67 350.34,44.81 361.94,32.12 373.55,21.91 385.15,14.43 396.76,9.87 408.36,8.34 419.97,9.87 431.57,14.43 443.17,21.91 454.78,32.12 466.38,44.81 477.99,59.67 489.59,76.33 501.2,94.39 512.8,113.39 524.4,132.87"/>
</g>
<g fill="#000000" stroke-linejoin="miter" stroke-width="0.62">
<use xlink:href="#p1" x="60.23" y="132.87"/>
<use xlink:href="#p1" x="71.84" y="152.35"/>
<use xlink:href="#p1" x="83.44" y="171.35"/>
<use xlink:href="#p1" x="95.04" y="189.4"/>
<use xlink:href="#p1" x="106.65" y="206.07"/>
<use xlink:href="#p1" x="118.25" y="220.92"/>
<use xlink:href="#p1" x="129.86" y="233.62"/>
<use xlink:href="#p1" x="141.46" y="243.83"/>
<use xlink:href="#p1" x="153.07" y="251.3"/>
<use xlink:href="#p1" x="164.67" y="255.87"/>
<use xlink:href="#p1" x="176.27" y="257.4"/>
<use xlink:href="#p1" x="187.88" y="255.87"/>
<use xlink:href="#p1" x="199.48" y="251.3"/>
<use xlink:href="#p1" x="211.09" y="243.83"/>
<use xlink:href="#p1" x="222.69" y="233.62"/>
<use xlink:href="#p1" x="234.3" y="220.92"/>
<use xlink:href="#p1" x="245.9" y="206.07"/>
<use xlink:href="#p1" x="257.5" y="189.4"/>
<use xlink:href="#p1" x="269.11" y="171.35"/>
<use xlink:href="#p1" x="280.71" y="152.35"/>
<use xlink:href="#p1" x="292.32" y="132.87"/>
<use xlink:href="#p1" x="303.92" y="113.39"/>
<use xlink:href="#p1" x="315.53" y="94.39"/>
<use xlink:href="#p1" x="327.13" y="76.33"/>
<use xlink:href="#p1" x="338.74" y="59.67"/>
<use xlink:href="#p1" x="350.34" y="44.81"/>
<use xlink:href="#p1" x="361.94" y="32.12"/>
<use xlink:href="#p1" x="373.55" y="21.91"/>
<use xlink:href="#p1" x="385.15" y="14.43"/>
<use xlink:href="#p1" x="396.76" y="9.87"/>
<use xlink:href="#p1" x="408.36" y="8.34"/>
<use xlink:href="#p1" x="419.97" y="9.87"/>
<use xlink:href="#p1" x="431.57" y="14.43"/>
<use xlink:href="#p1" x="443.17" y="21.91"/>
<use xlink:href="#p1" x="454.78" y="32.12"/>
<use xlink:href="#p1" x="466.38" y="44.81"/>
<use xlink:href="#p1" x="477.99" y="59.67"/>
<use xlink:href="#p1" x="489.59" y="76.33"/>
<use xlink:href="#p1" x="501.2" y="94.39"/>
<use xlink:href="#p1" x="512.8" y="113.39"/>
<use xlink:href="#p1" x="524.4" y="132.87"/>
</g>
</g>
<g clip-path="url(#c0)">
<g fill="none" stroke-linecap="butt" stroke-width="0.62">
<path d="M60.23,258.66l0,-251.57"/>
<path d="M60.23,258.66l3.75,0M60.23,242.93l3.75,0M60.23,227.21l3.75,0M60.23,211.49l3.75,0M60.23,195.76l3.75,0M60.23,180.04l3.75,0M60.23,164.32l3.75,0M60.23,148.59l3.75,0M60.23,132.87l3.75,0M60.23,117.15l3.75,0M60.23,101.42l3.75,0M60.23,85.7l3.75,0M60.23,69.98l3.75,0M60.23,54.25l3.75,0M60.23,38.53l3.75,0M60.23,22.81l3.75,0M60.23,7.08l3.75,0"/>
<path d="M60.23,258.66l7.5,0M60.23,195.76l7.5,0M60.23,132.87l7.5,0M60.23,69.98l7.5,0M60.23,7.08l7.5,0"/>
</g>
<g fill="none" stroke-width="1">
<g transform="matrix(0 -1 1 0 24.23 148.92)">
<path d="m8.38,-5.91c0.8,0.17,1.4,0.44,1.8,0.82c0.55,0.52,0.82,1.16,0.82,1.92c0,0.57,-0.18,1.12,-0.54,1.65c-0.36,0.52,-0.86,0.91,-1.49,1.15c-0.63,0.24,-1.6,0.36,-2.9,0.36l-5.46,0l0,-0.31l0.43,0c0.48,0,0.83,-0.15,1.04,-0.46c0.13,-0.19,0.19,-0.62,0.19,-1.27l0,-7.48c0,-0.71,-0.08,-1.17,-0.24,-1.35c-0.22,-0.25,-0.55,-0.37,-0.99,-0.37l-0.43,0l0,-0.31l5,0c0.93,0,1.68,0.06,2.24,0.2c0.85,0.2,1.5,0.56,1.95,1.08c0.45,0.52,0.67,1.12,0.67,1.79c0,0.58,-0.17,1.1,-0.52,1.55c-0.35,0.45,-0.87,0.79,-1.56,1.02m-4.47,-0.46c0.21,0.03,0.45,0.06,0.72,0.08c0.27,0.01,0.56,0.02,0.89,0.02c0.83,0,1.45,-0.08,1.87,-0.26c0.41,-0.17,0.73,-0.45,0.96,-0.82c0.22,-0.37,0.33,-0.77,0.33,-1.21c0,-0.67,-0.27,-1.25,-0.82,-1.73c-0.55,-0.47,-1.35,-0.71,-2.41,-0.71c-0.56,0,-1.08,0.06,-1.53,0.18l0,4.45m0,5.53c0.66,0.15,1.31,0.23,1.95,0.23c1.03,0,1.81,-0.23,2.35,-0.69c0.54,-0.46,0.81,-1.03,0.81,-1.72c0,-0.45,-0.12,-0.88,-0.36,-1.29c-0.24,-0.41,-0.64,-0.74,-1.19,-0.98c-0.55,-0.23,-1.23,-0.35,-2.05,-0.35c-0.35,0,-0.65,0,-0.9,0.01c-0.25,0.01,-0.45,0.03,-0.6,0.05l0,4.75m9.32,3.75l0,-0.37c0.58,-0.19,1.04,-0.49,1.36,-0.9c0.32,-0.4,0.48,-0.83,0.48,-1.29c0,-0.1,-0.02,-0.19,-0.07,-0.27c-0.03,-0.05,-0.07,-0.07,-0.11,-0.07c-0.06,0,-0.19,0.05,-0.41,0.17c-0.1,0.05,-0.21,0.07,-0.32,0.07c-0.27,0,-0.5,-0.08,-0.66,-0.24c-0.16,-0.16,-0.24,-0.39,-0.24,-0.68c0,-0.27,0.1,-0.51,0.32,-0.71c0.21,-0.19,0.47,-0.29,0.78,-0.29c0.37,0,0.71,0.16,1,0.49c0.29,0.32,0.44,0.76,0.44,1.3c0,0.58,-0.2,1.13,-0.61,1.63c-0.4,0.5,-1.05,0.9,-1.93,1.19m17.99,-14.5l0.12,2.71l-0.32,0c-0.06,-0.47,-0.14,-0.82,-0.25,-1.02c-0.17,-0.33,-0.41,-0.57,-0.7,-0.73c-0.29,-0.15,-0.67,-0.23,-1.15,-0.23l-1.63,0l0,8.85c0,0.71,0.07,1.15,0.23,1.33c0.21,0.23,0.54,0.35,0.99,0.35l0.4,0l0,0.31l-4.91,0l0,-0.31l0.41,0c0.48,0,0.83,-0.14,1.04,-0.44c0.12,-0.18,0.18,-0.59,0.18,-1.24l0,-8.85l-1.39,0c-0.54,0,-0.92,0.03,-1.15,0.11c-0.29,0.1,-0.54,0.31,-0.76,0.62c-0.21,0.3,-0.33,0.72,-0.37,1.24l-0.32,0l0.13,-2.71l9.45,0" fill="#000000" stroke="none" fill-opacity="1"/>
</g>
<path d="m46.56,259.19l-9.21,0l0,-0.7l9.21,0l0,0.7m8.51,1.19l0,1.21l-1.55,0l0,3.05l-1.4,0l0,-3.05l-4.9,0l0,-1.09l5.37,-7.67l0.93,0l0,7.55l1.55,0m-2.96,0l0,-5.75l-4.06,5.75l4.06,0" fill="#000000" stroke="none" fill-opacity="1"/>
<path d="m46.56,196.29l-9.21,0l0,-0.7l9.21,0l0,0.7m8.39,3.23l-0.81,2.23l-6.83,0l0,-0.31c2.01,-1.83,3.42,-3.33,4.24,-4.49c0.82,-1.16,1.23,-2.22,1.23,-3.18c0,-0.73,-0.22,-1.33,-0.67,-1.81c-0.45,-0.47,-0.98,-0.7,-1.61,-0.7c-0.56,0,-1.08,0.16,-1.53,0.49c-0.45,0.33,-0.78,0.82,-1,1.46l-0.31,0c0.14,-1.05,0.5,-1.86,1.09,-2.42c0.58,-0.56,1.32,-0.84,2.2,-0.84c0.93,0,1.72,0.3,2.35,0.9c0.62,0.6,0.94,1.31,0.94,2.13c0,0.58,-0.13,1.17,-0.41,1.76c-0.42,0.92,-1.1,1.89,-2.05,2.93c-1.41,1.54,-2.3,2.48,-2.65,2.8l3.02,0c0.61,0,1.04,-0.02,1.29,-0.06c0.24,-0.04,0.47,-0.13,0.67,-0.27c0.19,-0.13,0.37,-0.33,0.52,-0.59l0.31,0" fill="#000000" stroke="none" fill-opacity="1"/>
<path d="m47.56,133.14c0,-1.32,0.19,-2.45,0.59,-3.41c0.39,-0.95,0.92,-1.66,1.58,-2.13c0.51,-0.37,1.04,-0.55,1.58,-0.55c0.88,0,1.68,0.45,2.39,1.35c0.88,1.12,1.32,2.64,1.32,4.56c0,1.34,-0.19,2.48,-0.58,3.42c-0.38,0.93,-0.88,1.62,-1.48,2.04c-0.6,0.42,-1.18,0.63,-1.73,0.63c-1.1,0,-2.02,-0.65,-2.76,-1.95c-0.62,-1.09,-0.93,-2.42,-0.93,-3.97m1.67,0.21c0,1.59,0.19,2.89,0.58,3.9c0.32,0.84,0.8,1.27,1.45,1.27c0.3,0,0.62,-0.13,0.95,-0.41c0.33,-0.27,0.58,-0.73,0.75,-1.38c0.26,-0.97,0.39,-2.36,0.39,-4.14c0,-1.32,-0.13,-2.42,-0.41,-3.3c-0.2,-0.65,-0.47,-1.11,-0.79,-1.39c-0.23,-0.18,-0.51,-0.28,-0.84,-0.28c-0.38,0,-0.73,0.17,-1.03,0.52c-0.41,0.47,-0.68,1.21,-0.83,2.23c-0.14,1.01,-0.22,2.01,-0.22,2.99" fill="#000000" stroke="none" fill-opacity="1"/>
<path d="m54.95,73.74l-0.81,2.23l-6.83,0l0,-0.31c2.01,-1.83,3.42,-3.33,4.24,-4.49c0.82,-1.16,1.23,-2.22,1.23,-3.18c0,-0.73,-0.22,-1.33,-0.67,-1.81c-0.45,-0.47,-0.98,-0.7,-1.61,-0.7c-0.56,0,-1.08,0.16,-1.53,0.49c-0.45,0.33,-0.78,0.82,-1,1.46l-0.31,0c0.14,-1.05,0.5,-1.86,1.09,-2.42c0.58,-0.56,1.32,-0.84,2.2,-0.84c0.93,0,1.72,0.3,2.35,0.9c0.62,0.6,0.94,1.31,0.94,2.13c0,0.58,-0.13,1.17,-0.41,1.76c-0.42,0.92,-1.1,1.89,-2.05,2.93c-1.41,1.54,-2.3,2.48,-2.65,2.8l3.02,0c0.61,0,1.04,-0.02,1.29,-0.06c0.24,-0.04,0.47,-0.13,0.67,-0.27c0.19,-0.13,0.37,-0.33,0.52,-0.59l0.31,0" fill="#000000" stroke="none" fill-opacity="1"/>
<path d="m55.07,11.62l0,1.21l-1.55,0l0,3.05l-1.4,0l0,-3.05l-4.9,0l0,-1.09l5.37,-7.67l0.93,0l0,7.55l1.55,0m-2.96,0l0,-5.75l-4.06,5.75l4.06,0" fill="#000000" stroke="none" fill-opacity="1"/>
</g>
<g fill="none" stroke-linecap="butt" stroke-width="0.62">
<path d="M60.23,258.66l464.17,0"/>
<path d="M60.23,258.66l0,-3.75M83.44,258.66l0,-3.75M106.65,258.66l0,-3.75M129.86,258.66l0,-3.75M153.07,258.66l0,-3.75M176.27,258.66l0,-3.75M199.48,258.66l0,-3.75M222.69,258.66l0,-3.75M245.9,258.66l0,-3.75M269.11,258.66l0,-3.75M292.32,258.66l0,-3.75M315.53,258.66l0,-3.75M338.74,258.66l0,-3.75M361.94,258.66l0,-3.75M385.15,258.66l0,-3.75M408.36,258.66l0,-3.75M431.57,258.66l0,-3.75M454.78,258.66l0,-3.75M477.99,258.66l0,-3.75M501.2,258.66l0,-3.75M524.4,258.66l0,-3.75"/>
<path d="M60.23,258.66l0,-7.5M176.27,258.66l0,-7.5M292.32,258.66l0,-7.5M408.36,258.66l0,-7.5M524.4,258.66l0,-7.5"/>
</g>
<g fill="none" stroke-width="1">
<path d="m284.89,292.96l0,2.57l1.82,0l0,0.59l-1.82,0l0,5.07c0,0.5,0.07,0.84,0.21,1.02c0.14,0.17,0.33,0.26,0.55,0.26c0.18,0,0.37,-0.05,0.54,-0.17c0.17,-0.11,0.31,-0.28,0.41,-0.51l0.33,0c-0.19,0.55,-0.48,0.97,-0.84,1.26c-0.36,0.28,-0.74,0.42,-1.12,0.42c-0.26,0,-0.51,-0.07,-0.76,-0.21c-0.25,-0.14,-0.43,-0.35,-0.55,-0.62c-0.11,-0.27,-0.17,-0.68,-0.17,-1.25l0,-5.26l-1.23,0l0,-0.28c0.31,-0.12,0.63,-0.33,0.96,-0.63c0.32,-0.29,0.61,-0.65,0.87,-1.06c0.13,-0.21,0.31,-0.61,0.54,-1.18l0.26,0m3.02,13.31l0,-0.37c0.58,-0.19,1.04,-0.49,1.36,-0.9c0.32,-0.4,0.48,-0.83,0.48,-1.29c0,-0.1,-0.02,-0.19,-0.07,-0.27c-0.03,-0.05,-0.07,-0.07,-0.11,-0.07c-0.06,0,-0.19,0.05,-0.41,0.17c-0.1,0.05,-0.21,0.07,-0.32,0.07c-0.27,0,-0.5,-0.08,-0.66,-0.24c-0.16,-0.16,-0.24,-0.39,-0.24,-0.68c0,-0.27,0.1,-0.51,0.32,-0.71c0.21,-0.19,0.47,-0.29,0.78,-0.29c0.37,0,0.71,0.16,1,0.49c0.29,0.32,0.44,0.76,0.44,1.3c0,0.58,-0.2,1.13,-0.61,1.63c-0.4,0.5,-1.05,0.9,-1.93,1.19m13.46,-10.97l0,2.66l-0.28,0c-0.21,-0.83,-0.49,-1.4,-0.83,-1.7c-0.33,-0.3,-0.77,-0.45,-1.29,-0.45c-0.39,0,-0.72,0.1,-0.96,0.31c-0.24,0.21,-0.36,0.44,-0.36,0.7c0,0.31,0.09,0.59,0.27,0.82c0.17,0.23,0.53,0.48,1.07,0.74l1.24,0.6c1.15,0.56,1.73,1.3,1.73,2.23c0,0.71,-0.26,1.28,-0.8,1.72c-0.53,0.43,-1.14,0.65,-1.8,0.65c-0.47,0,-1.02,-0.08,-1.64,-0.25c-0.18,-0.05,-0.34,-0.08,-0.46,-0.08c-0.13,0,-0.23,0.07,-0.3,0.22l-0.28,0l0,-2.79l0.28,0c0.15,0.79,0.46,1.39,0.91,1.8c0.45,0.4,0.95,0.6,1.51,0.6c0.39,0,0.71,-0.11,0.96,-0.34c0.24,-0.23,0.37,-0.5,0.37,-0.83c0,-0.39,-0.13,-0.72,-0.41,-0.99c-0.27,-0.26,-0.82,-0.6,-1.65,-1.01c-0.82,-0.41,-1.36,-0.78,-1.62,-1.11c-0.25,-0.32,-0.38,-0.73,-0.38,-1.23c0,-0.64,0.22,-1.18,0.66,-1.61c0.44,-0.43,1.01,-0.64,1.71,-0.64c0.3,0,0.68,0.06,1.11,0.19c0.29,0.08,0.48,0.12,0.58,0.12c0.09,0,0.16,-0.01,0.21,-0.05c0.05,-0.03,0.11,-0.12,0.17,-0.26l0.28,0" fill="#000000" stroke="none" fill-opacity="1"/>
<path d="m56.46,273.03c0,-1.32,0.19,-2.45,0.59,-3.41c0.39,-0.95,0.92,-1.66,1.58,-2.13c0.51,-0.37,1.04,-0.55,1.58,-0.55c0.88,0,1.68,0.45,2.39,1.35c0.88,1.12,1.32,2.64,1.32,4.56c0,1.34,-0.19,2.48,-0.58,3.42c-0.38,0.93,-0.88,1.62,-1.48,2.04c-0.6,0.42,-1.18,0.63,-1.73,0.63c-1.1,0,-2.02,-0.65,-2.76,-1.95c-0.62,-1.09,-0.93,-2.42,-0.93,-3.97m1.67,0.21c0,1.59,0.19,2.89,0.58,3.9c0.32,0.84,0.8,1.27,1.45,1.27c0.3,0,0.62,-0.13,0.95,-0.41c0.33,-0.27,0.58,-0.73,0.75,-1.38c0.26,-0.97,0.39,-2.36,0.39,-4.14c0,-1.32,-0.13,-2.42,-0.41,-3.3c-0.2,-0.65,-0.47,-1.11,-0.79,-1.39c-0.23,-0.18,-0.51,-0.28,-0.84,-0.28c-0.38,0,-0.73,0.17,-1.03,0.52c-0.41,0.47,-0.68,1.21,-0.83,2.23c-0.14,1.01,-0.22,2.01,-0.22,2.99" fill="#000000" stroke="none" fill-opacity="1"/>
<path d="m160.12,267.17l-0.66,1.45l-3.48,0l-0.76,1.55c1.5,0.22,2.7,0.78,3.58,1.68c0.75,0.77,1.13,1.68,1.13,2.73c0,0.6,-0.12,1.17,-0.37,1.69c-0.24,0.51,-0.55,0.95,-0.93,1.32c-0.37,0.36,-0.79,0.65,-1.25,0.88c-0.65,0.31,-1.32,0.47,-2.01,0.47c-0.69,0,-1.2,-0.11,-1.51,-0.35c-0.31,-0.23,-0.47,-0.49,-0.47,-0.78c0,-0.15,0.06,-0.3,0.19,-0.42c0.13,-0.12,0.29,-0.18,0.49,-0.18c0.14,0,0.27,0.02,0.38,0.06c0.11,0.04,0.3,0.16,0.56,0.35c0.42,0.29,0.86,0.44,1.29,0.44c0.66,0,1.25,-0.25,1.75,-0.75c0.5,-0.5,0.75,-1.11,0.75,-1.84c0,-0.7,-0.22,-1.35,-0.67,-1.96c-0.45,-0.6,-1.07,-1.07,-1.86,-1.4c-0.62,-0.25,-1.46,-0.4,-2.53,-0.44l2.22,-4.5l4.15,0m2.61,8.78l3.01,-3.01l-3,-3l0.49,-0.49l3,3l3,-3l0.47,0.48l-3,3l3.02,3.02l-0.48,0.49l-3.02,-3.02l-3.01,3.01l-0.48,-0.48m10.54,-7.64l2.81,-1.37l0.28,0l0,9.78c0,0.64,0.02,1.05,0.08,1.21c0.05,0.15,0.16,0.28,0.33,0.36c0.17,0.08,0.51,0.13,1.04,0.14l0,0.31l-4.35,0l0,-0.31c0.54,-0.01,0.9,-0.05,1.05,-0.14c0.15,-0.08,0.27,-0.19,0.33,-0.33c0.06,-0.13,0.09,-0.55,0.09,-1.25l0,-6.25c0,-0.84,-0.02,-1.38,-0.08,-1.62c-0.03,-0.18,-0.11,-0.31,-0.21,-0.4c-0.1,-0.08,-0.23,-0.12,-0.38,-0.12c-0.21,0,-0.5,0.08,-0.88,0.26l-0.12,-0.26m7.38,4.72c0,-1.32,0.19,-2.45,0.59,-3.41c0.39,-0.95,0.92,-1.66,1.58,-2.13c0.51,-0.37,1.04,-0.55,1.58,-0.55c0.88,0,1.68,0.45,2.39,1.35c0.88,1.12,1.32,2.64,1.32,4.56c0,1.34,-0.19,2.48,-0.58,3.42c-0.38,0.93,-0.88,1.62,-1.48,2.04c-0.6,0.42,-1.18,0.63,-1.73,0.63c-1.1,0,-2.02,-0.65,-2.76,-1.95c-0.62,-1.09,-0.93,-2.42,-0.93,-3.97m1.67,0.21c0,1.59,0.19,2.89,0.58,3.9c0.32,0.84,0.8,1.27,1.45,1.27c0.3,0,0.62,-0.13,0.95,-0.41c0.33,-0.27,0.58,-0.73,0.75,-1.38c0.26,-0.97,0.39,-2.36,0.39,-4.14c0,-1.32,-0.13,-2.42,-0.41,-3.3c-0.2,-0.65,-0.47,-1.11,-0.79,-1.39c-0.23,-0.18,-0.51,-0.28,-0.84,-0.28c-0.38,0,-0.73,0.17,-1.03,0.52c-0.41,0.47,-0.68,1.21,-0.83,2.23c-0.14,1.01,-0.22,2.01,-0.22,2.99" fill="#000000" stroke="none" fill-opacity="1"/>
<path d="m194.54,267.67l-5.52,0l0,-0.42l5.52,0l0,0.42m0.71,-2.34c0.19,-0.46,0.44,-0.82,0.75,-1.08c0.3,-0.25,0.67,-0.38,1.13,-0.38c0.55,0,0.98,0.18,1.28,0.54c0.22,0.27,0.33,0.55,0.33,0.86c0,0.5,-0.31,1.02,-0.95,1.56c0.42,0.16,0.75,0.4,0.96,0.71c0.21,0.31,0.32,0.67,0.32,1.09c0,0.6,-0.19,1.12,-0.57,1.56c-0.49,0.57,-1.22,0.86,-2.16,0.86c-0.46,0,-0.78,-0.05,-0.95,-0.17c-0.16,-0.11,-0.25,-0.24,-0.25,-0.37c0,-0.09,0.04,-0.18,0.12,-0.26c0.08,-0.07,0.17,-0.11,0.28,-0.11c0.08,0,0.17,0.01,0.26,0.04c0.05,0.01,0.18,0.07,0.39,0.18c0.2,0.1,0.34,0.17,0.42,0.19c0.12,0.03,0.26,0.05,0.4,0.05c0.34,0,0.65,-0.13,0.91,-0.4c0.25,-0.27,0.38,-0.58,0.38,-0.95c0,-0.27,-0.05,-0.53,-0.17,-0.78c-0.08,-0.19,-0.18,-0.33,-0.29,-0.43c-0.14,-0.13,-0.34,-0.26,-0.6,-0.37c-0.25,-0.11,-0.51,-0.16,-0.78,-0.16l-0.16,0l0,-0.15c0.27,-0.03,0.54,-0.13,0.81,-0.29c0.27,-0.16,0.46,-0.35,0.59,-0.57c0.12,-0.22,0.18,-0.47,0.18,-0.74c0,-0.35,-0.11,-0.63,-0.33,-0.85c-0.22,-0.21,-0.49,-0.32,-0.82,-0.32c-0.52,0,-0.97,0.28,-1.32,0.85l-0.16,-0.08" fill="#000000" stroke="none" fill-opacity="1"/>
<path d="m277.55,273.03c0,-1.32,0.19,-2.45,0.59,-3.41c0.39,-0.95,0.92,-1.66,1.58,-2.13c0.51,-0.37,1.04,-0.55,1.58,-0.55c0.88,0,1.68,0.45,2.39,1.35c0.88,1.12,1.32,2.64,1.32,4.56c0,1.34,-0.19,2.48,-0.58,3.42c-0.38,0.93,-0.88,1.62,-1.48,2.04c-0.6,0.42,-1.18,0.63,-1.73,0.63c-1.1,0,-2.02,-0.65,-2.76,-1.95c-0.62,-1.09,-0.93,-2.42,-0.93,-3.97m1.67,0.21c0,1.59,0.19,2.89,0.58,3.9c0.32,0.84,0.8,1.27,1.45,1.27c0.3,0,0.62,-0.13,0.95,-0.41c0.33,-0.27,0.58,-0.73,0.75,-1.38c0.26,-0.97,0.39,-2.36,0.39,-4.14c0,-1.32,-0.13,-2.42,-0.41,-3.3c-0.2,-0.65,-0.47,-1.11,-0.79,-1.39c-0.23,-0.18,-0.51,-0.28,-0.84,-0.28c-0.38,0,-0.73,0.17,-1.03,0.52c-0.41,0.47,-0.68,1.21,-0.83,2.23c-0.14,1.01,-0.22,2.01,-0.22,2.99m8.68,3.85c0.26,0,0.49,0.09,0.67,0.27c0.18,0.18,0.27,0.4,0.27,0.67c0,0.26,-0.09,0.48,-0.27,0.67c-0.18,0.18,-0.4,0.27,-0.67,0.27c-0.26,0,-0.48,-0.09,-0.67,-0.27c-0.18,-0.18,-0.27,-0.4,-0.27,-0.67c0,-0.26,0.09,-0.49,0.27,-0.67c0.18,-0.18,0.4,-0.27,0.67,-0.27m2.84,-4.06c0,-1.32,0.19,-2.45,0.59,-3.41c0.39,-0.95,0.92,-1.66,1.58,-2.13c0.51,-0.37,1.04,-0.55,1.58,-0.55c0.88,0,1.68,0.45,2.39,1.35c0.88,1.12,1.32,2.64,1.32,4.56c0,1.34,-0.19,2.48,-0.58,3.42c-0.38,0.93,-0.88,1.62,-1.48,2.04c-0.6,0.42,-1.18,0.63,-1.73,0.63c-1.1,0,-2.02,-0.65,-2.76,-1.95c-0.62,-1.09,-0.93,-2.42,-0.93,-3.97m1.67,0.21c0,1.59,0.19,2.89,0.58,3.9c0.32,0.84,0.8,1.27,1.45,1.27c0.3,0,0.62,-0.13,0.95,-0.41c0.33,-0.27,0.58,-0.73,0.75,-1.38c0.26,-0.97,0.39,-2.36,0.39,-4.14c0,-1.32,-0.13,-2.42,-0.41,-3.3c-0.2,-0.65,-0.47,-1.11,-0.79,-1.39c-0.23,-0.18,-0.51,-0.28,-0.84,-0.28c-0.38,0,-0.73,0.17,-1.03,0.52c-0.41,0.47,-0.68,1.21,-0.83,2.23c-0.14,1.01,-0.22,2.01,-0.22,2.99m8.54,-4.93l2.81,-1.37l0.28,0l0,9.78c0,0.64,0.02,1.05,0.08,1.21c0.05,0.15,0.16,0.28,0.33,0.36c0.17,0.08,0.51,0.13,1.04,0.14l0,0.31l-4.35,0l0,-0.31c0.54,-0.01,0.9,-0.05,1.05,-0.14c0.15,-0.08,0.27,-0.19,0.33,-0.33c0.06,-0.13,0.09,-0.55,0.09,-1.25l0,-6.25c0,-0.84,-0.02,-1.38,-0.08,-1.62c-0.03,-0.18,-0.11,-0.31,-0.21,-0.4c-0.1,-0.08,-0.23,-0.12,-0.38,-0.12c-0.21,0,-0.5,0.08,-0.88,0.26l-0.12,-0.26" fill="#000000" stroke="none" fill-opacity="1"/>
<path d="m389.19,273.03c0,-1.32,0.19,-2.45,0.59,-3.41c0.39,-0.95,0.92,-1.66,1.58,-2.13c0.51,-0.37,1.04,-0.55,1.58,-0.55c0.88,0,1.68,0.45,2.39,1.35c0.88,1.12,1.32,2.64,1.32,4.56c0,1.34,-0.19,2.48,-0.58,3.42c-0.38,0.93,-0.88,1.62,-1.48,2.04c-0.6,0.42,-1.18,0.63,-1.73,0.63c-1.1,0,-2.02,-0.65,-2.76,-1.95c-0.62,-1.09,-0.93,-2.42,-0.93,-3.97m1.67,0.21c0,1.59,0.19,2.89,0.58,3.9c0.32,0.84,0.8,1.27,1.45,1.27c0.3,0,0.62,-0.13,0.95,-0.41c0.33,-0.27,0.58,-0.73,0.75,-1.38c0.26,-0.97,0.39,-2.36,0.39,-4.14c0,-1.32,-0.13,-2.42,-0.41,-3.3c-0.2,-0.65,-0.47,-1.11,-0.79,-1.39c-0.23,-0.18,-0.51,-0.28,-0.84,-0.28c-0.38,0,-0.73,0.17,-1.03,0.52c-0.41,0.47,-0.68,1.21,-0.83,2.23c-0.14,1.01,-0.22,2.01,-0.22,2.99m8.68,3.85c0.26,0,0.49,0.09,0.67,0.27c0.18,0.18,0.27,0.4,0.27,0.67c0,0.26,-0.09,0.48,-0.27,0.67c-0.18,0.18,-0.4,0.27,-0.67,0.27c-0.26,0,-0.48,-0.09,-0.67,-0.27c-0.18,-0.18,-0.27,-0.4,-0.27,-0.67c0,-0.26,0.09,-0.49,0.27,-0.67c0.18,-0.18,0.4,-0.27,0.67,-0.27m2.84,-4.06c0,-1.32,0.19,-2.45,0.59,-3.41c0.39,-0.95,0.92,-1.66,1.58,-2.13c0.51,-0.37,1.04,-0.55,1.58,-0.55c0.88,0,1.68,0.45,2.39,1.35c0.88,1.12,1.32,2.64,1.32,4.56c0,1.34,-0.19,2.48,-0.58,3.42c-0.38,0.93,-0.88,1.62,-1.48,2.04c-0.6,0.42,-1.18,0.63,-1.73,0.63c-1.1,0,-2.02,-0.65,-2.76,-1.95c-0.62,-1.09,-0.93,-2.42,-0.93,-3.97m1.67,0.21c0,1.59,0.19,2.89,0.58,3.9c0.32,0.84,0.8,1.27,1.45,1.27c0.3,0,0.62,-0.13,0.95,-0.41c0.33,-0.27,0.58,-0.73,0.75,-1.38c0.26,-0.97,0.39,-2.36,0.39,-4.14c0,-1.32,-0.13,-2.42,-0.41,-3.3c-0.2,-0.65,-0.47,-1.11,-0.79,-1.39c-0.23,-0.18,-0.51,-0.28,-0.84,-0.28c-0.38,0,-0.73,0.17,-1.03,0.52c-0.41,0.47,-0.68,1.21,-0.83,2.23c-0.14,1.01,-0.22,2.01,-0.22,2.99m8.54,-4.93l2.81,-1.37l0.28,0l0,9.78c0,0.64,0.02,1.05,0.08,1.21c0.05,0.15,0.16,0.28,0.33,0.36c0.17,0.08,0.51,0.13,1.04,0.14l0,0.31l-4.35,0l0,-0.31c0.54,-0.01,0.9,-0.05,1.05,-0.14c0.15,-0.08,0.27,-0.19,0.33,-0.33c0.06,-0.13,0.09,-0.55,0.09,-1.25l0,-6.25c0,-0.84,-0.02,-1.38,-0.08,-1.62c-0.03,-0.18,-0.11,-0.31,-0.21,-0.4c-0.1,-0.08,-0.23,-0.12,-0.38,-0.12c-0.21,0,-0.5,0.08,-0.88,0.26l-0.12,-0.26m14.34,-1.13l-0.66,1.45l-3.48,0l-0.76,1.55c1.5,0.22,2.7,0.78,3.58,1.68c0.75,0.77,1.13,1.68,1.13,2.73c0,0.6,-0.12,1.17,-0.37,1.69c-0.24,0.51,-0.55,0.95,-0.93,1.32c-0.37,0.36,-0.79,0.65,-1.25,0.88c-0.65,0.31,-1.32,0.47,-2.01,0.47c-0.69,0,-1.2,-0.11,-1.51,-0.35c-0.31,-0.23,-0.47,-0.49,-0.47,-0.78c0,-0.15,0.06,-0.3,0.19,-0.42c0.13,-0.12,0.29,-0.18,0.49,-0.18c0.14,0,0.27,0.02,0.38,0.06c0.11,0.04,0.3,0.16,0.56,0.35c0.42,0.29,0.86,0.44,1.29,0.44c0.66,0,1.25,-0.25,1.75,-0.75c0.5,-0.5,0.75,-1.11,0.75,-1.84c0,-0.7,-0.22,-1.35,-0.67,-1.96c-0.45,-0.6,-1.07,-1.07,-1.86,-1.4c-0.62,-0.25,-1.46,-0.4,-2.53,-0.44l2.22,-4.5l4.15,0" fill="#000000" stroke="none" fill-opacity="1"/>
<path d="m501.32,273.03c0,-1.32,0.19,-2.45,0.59,-3.41c0.39,-0.95,0.92,-1.66,1.58,-2.13c0.51,-0.37,1.04,-0.55,1.58,-0.55c0.88,0,1.68,0.45,2.39,1.35c0.88,1.12,1.32,2.64,1.32,4.56c0,1.34,-0.19,2.48,-0.58,3.42c-0.38,0.93,-0.88,1.62,-1.48,2.04c-0.6,0.42,-1.18,0.63,-1.73,0.63c-1.1,0,-2.02,-0.65,-2.76,-1.95c-0.62,-1.09,-0.93,-2.42,-0.93,-3.97m1.67,0.21c0,1.59,0.19,2.89,0.58,3.9c0.32,0.84,0.8,1.27,1.45,1.27c0.3,0,0.62,-0.13,0.95,-0.41c0.33,-0.27,0.58,-0.73,0.75,-1.38c0.26,-0.97,0.39,-2.36,0.39,-4.14c0,-1.32,-0.13,-2.42,-0.41,-3.3c-0.2,-0.65,-0.47,-1.11,-0.79,-1.39c-0.23,-0.18,-0.51,-0.28,-0.84,-0.28c-0.38,0,-0.73,0.17,-1.03,0.52c-0.41,0.47,-0.68,1.21,-0.83,2.23c-0.14,1.01,-0.22,2.01,-0.22,2.99m8.68,3.85c0.26,0,0.49,0.09,0.67,0.27c0.18,0.18,0.27,0.4,0.27,0.67c0,0.26,-0.09,0.48,-0.27,0.67c-0.18,0.18,-0.4,0.27,-0.67,0.27c-0.26,0,-0.48,-0.09,-0.67,-0.27c-0.18,-0.18,-0.27,-0.4,-0.27,-0.67c0,-0.26,0.09,-0.49,0.27,-0.67c0.18,-0.18,0.4,-0.27,0.67,-0.27m2.84,-4.06c0,-1.32,0.19,-2.45,0.59,-3.41c0.39,-0.95,0.92,-1.66,1.58,-2.13c0.51,-0.37,1.04,-0.55,1.58,-0.55c0.88,0,1.68,0.45,2.39,1.35c0.88,1.12,1.32,2.64,1.32,4.56c0,1.34,-0.19,2.48,-0.58,3.42c-0.38,0.93,-0.88,1.62,-1.48,2.04c-0.6,0.42,-1.18,0.63,-1.73,0.63c-1.1,0,-2.02,-0.65,-2.76,-1.95c-0.62,-1.09,-0.93,-2.42,-0.93,-3.97m1.67,0.21c0,1.59,0.19,2.89,0.58,3.9c0.32,0.84,0.8,1.27,1.45,1.27c0.3,0,0.62,-0.13,0.95,-0.41c0.33,-0.27,0.58,-0.73,0.75,-1.38c0.26,-0.97,0.39,-2.36,0.39,-4.14c0,-1.32,-0.13,-2.42,-0.41,-3.3c-0.2,-0.65,-0.47,-1.11,-0.79,-1.39c-0.23,-0.18,-0.51,-0.28,-0.84,-0.28c-0.38,0,-0.73,0.17,-1.03,0.52c-0.41,0.47,-0.68,1.21,-0.83,2.23c-0.14,1.01,-0.22,2.01,-0.22,2.99m14.51,3.28l-0.81,2.23l-6.83,0l0,-0.31c2.01,-1.83,3.42,-3.33,4.24,-4.49c0.82,-1.16,1.23,-2.22,1.23,-3.18c0,-0.73,-0.22,-1.33,-0.67,-1.81c-0.45,-0.47,-0.98,-0.7,-1.61,-0.7c-0.56,0,-1.08,0.16,-1.53,0.49c-0.45,0.33,-0.78,0.82,-1,1.46l-0.31,0c0.14,-1.05,0.5,-1.86,1.09,-2.42c0.58,-0.56,1.32,-0.84,2.2,-0.84c0.93,0,1.72,0.3,2.35,0.9c0.62,0.6,0.94,1.31,0.94,2.13c0,0.58,-0.13,1.17,-0.41,1.76c-0.42,0.92,-1.1,1.89,-2.05,2.93c-1.41,1.54,-2.3,2.48,-2.65,2.8l3.02,0c0.61,0,1.04,-0.02,1.29,-0.06c0.24,-0.04,0.47,-0.13,0.67,-0.27c0.19,-0.13,0.37,-0.33,0.52,-0.59l0.31,0" fill="#000000" stroke="none" fill-opacity="1"/>
</g>
<g fill="none" stroke-linecap="butt" stroke-width="0.62">
<path d="M524.4,258.66l0,-251.57"/>
<path d="M524.4,258.66l-3.75,0M524.4,242.93l-3.75,0M524.4,227.21l-3.75,0M524.4,211.49l-3.75,0M524.4,195.76l-3.75,0M524.4,180.04l-3.75,0M524.4,164.32l-3.75,0M524.4,148.59l-3.75,0M524.4,132.87l-3.75,0M524.4,117.15l-3.75,0M524.4,101.42l-3.75,0M524.4,85.7l-3.75,0M524.4,69.98l-3.75,0M524.4,54.25l-3.75,0M524.4,38.53l-3.75,0M524.4,22.81l-3.75,0M524.4,7.08l-3.75,0"/>
<path d="M524.4,258.66l-7.5,0M524.4,195.76l-7.5,0M524.4,132.87l-7.5,0M524.4,69.98l-7.5,0M524.4,7.08l-7.5,0"/>
<path d="M60.23,7.08l464.17,0"/>
<path d="M60.23,7.08l0,3.75M83.44,7.08l0,3.75M106.65,7.08l0,3.75M129.86,7.08l0,3.75M153.07,7.08l0,3.75M176.27,7.08l0,3.75M199.48,7.08l0,3.75M222.69,7.08l0,3.75M245.9,7.08l0,3.75M269.11,7.08l0,3.75M292.32,7.08l0,3.75M315.53,7.08l0,3.75M338.74,7.08l0,3.75M361.94,7.08l0,3.75M385.15,7.08l0,3.75M408.36,7.08l0,3.75M431.57,7.08l0,3.75M454.78,7.08l0,3.75M477.99,7.08l0,3.75M501.2,7.08l0,3.75M524.4,7.08l0,3.75"/>
<path d="M60.23,7.08l0,7.5M176.27,7.08l0,7.5M292.32,7.08l0,7.5M408.36,7.08l0,7.5M524.4,7.08l0,7.5"/>
</g>
</g>
</g>
</svg>
