<?xml version="1.0" standalone="no"?>
<!DOCTYPE svg PUBLIC "-//W3C//DTD SVG 1.1//EN"
  "http://www.w3.org/Graphics/SVG/1.1/DTD/svg11.dtd">
<svg width="436.72px" height="263.9px" version="1.1"
    xmlns="http://www.w3.org/2000/svg"
    xmlns:xlink="http://www.w3.org/1999/xlink">
<desc>Veusz output document</desc>
<defs>
<clipPath id="c0">
<path d="m0,0l436.72,0l0,263.9l-436.72,0l0,-263.9"/>
</clipPath>
<clipPath id="c1">
<path d="m296.18,161.61l27.55,0l0,14.3l-27.55,0l0,-14.3"/>
</clipPath>
<clipPath id="c2">
<path d="m296.18,175.91l27.55,0l0,14.3l-27.55,0l0,-14.3"/>
</clipPath>
<clipPath id="c3">
<path d="m46.85,6.35l384.36,0l0,210.69l-384.36,0l0,-210.69"/>
</clipPath>
</defs>
<g stroke-linejoin="bevel" stroke-linecap="square" stroke="#000000" fill-rule="evenodd">
<g clip-path="url(#c0)">
<g fill="#ffffff" stroke-width="0.48">
<path d="m46.85,5.51l384.36,0l0,211.54l-384.36,0l0,-211.54"/>
</g>
<g fill="#ffffff" stroke="none" stroke-width="0.1">
<path d="m281.88,154.46l123.45,0l0,42.9l-123.45,0l0,-42.9" id="p0"/>
</g>
<g fill="none" stroke-width="0.48">
<use xlink:href="#p0"/>
</g>
</g>
<g clip-path="url(#c1)">
<g fill="none" stroke="#0000ff" stroke-width="0.48">
<path d="M309.96,168.76l0,0"/>
</g>
<g fill="none" stroke="#0000ff" stroke-width="1.94">
<path d="M296.18,168.76l27.55,0"/>
</g>
</g>
<g clip-path="url(#c0)">
<g fill="none" stroke-width="0.1">
<path d="m343.81,170.12l-3.23,0l-0.56,1.31c-0.13,0.32,-0.2,0.56,-0.2,0.72c0,0.12,0.06,0.23,0.18,0.33c0.12,0.09,0.38,0.15,0.78,0.18l0,0.22l-2.62,0l0,-0.22c0.34,-0.06,0.57,-0.14,0.67,-0.23c0.2,-0.19,0.44,-0.59,0.69,-1.19l2.93,-6.86l0.21,0l2.9,6.93c0.23,0.55,0.44,0.91,0.63,1.08c0.19,0.16,0.45,0.25,0.79,0.27l0,0.22l-3.29,0l0,-0.22c0.33,-0.01,0.55,-0.07,0.67,-0.16c0.11,-0.09,0.17,-0.2,0.17,-0.34c0,-0.18,-0.08,-0.46,-0.24,-0.85l-0.5,-1.19m-0.17,-0.45l-1.41,-3.37l-1.45,3.37l2.86,0m7.39,3.02l0,0.22l-3.57,0l0,-0.22l0.29,0c0.34,0,0.59,-0.1,0.75,-0.3c0.09,-0.13,0.14,-0.44,0.14,-0.94l0,-5.38c0,-0.42,-0.02,-0.7,-0.08,-0.83c-0.04,-0.1,-0.12,-0.19,-0.25,-0.26c-0.18,-0.09,-0.36,-0.14,-0.56,-0.14l-0.29,0l0,-0.22l3.57,0l0,0.22l-0.3,0c-0.34,0,-0.58,0.1,-0.74,0.3c-0.1,0.13,-0.15,0.44,-0.15,0.94l0,5.38c0,0.42,0.02,0.7,0.08,0.83c0.04,0.1,0.12,0.19,0.25,0.26c0.17,0.09,0.36,0.14,0.55,0.14l0.3,0m6.08,-8.3l0,2.88l-0.22,0c-0.07,-0.55,-0.2,-0.99,-0.39,-1.32c-0.19,-0.32,-0.46,-0.58,-0.81,-0.78c-0.35,-0.19,-0.71,-0.28,-1.09,-0.28c-0.42,0,-0.77,0.13,-1.05,0.39c-0.27,0.26,-0.41,0.55,-0.41,0.88c0,0.25,0.08,0.48,0.26,0.69c0.25,0.3,0.85,0.71,1.81,1.23c0.77,0.41,1.31,0.73,1.59,0.96c0.28,0.22,0.5,0.48,0.65,0.79c0.15,0.3,0.23,0.62,0.23,0.95c0,0.63,-0.24,1.17,-0.73,1.63c-0.49,0.45,-1.12,0.68,-1.89,0.68c-0.24,0,-0.46,-0.01,-0.68,-0.05c-0.12,-0.02,-0.39,-0.09,-0.79,-0.22c-0.39,-0.12,-0.65,-0.19,-0.75,-0.19c-0.1,0,-0.18,0.03,-0.24,0.09c-0.05,0.06,-0.1,0.18,-0.13,0.38l-0.22,0l0,-2.86l0.22,0c0.1,0.59,0.25,1.04,0.43,1.34c0.18,0.29,0.45,0.54,0.82,0.74c0.37,0.19,0.77,0.29,1.22,0.29c0.51,0,0.91,-0.13,1.21,-0.4c0.29,-0.27,0.44,-0.59,0.44,-0.95c0,-0.2,-0.05,-0.41,-0.16,-0.62c-0.11,-0.2,-0.28,-0.4,-0.52,-0.58c-0.16,-0.12,-0.59,-0.38,-1.31,-0.78c-0.71,-0.39,-1.22,-0.71,-1.52,-0.95c-0.3,-0.23,-0.53,-0.5,-0.68,-0.78c-0.15,-0.28,-0.23,-0.6,-0.23,-0.94c0,-0.59,0.22,-1.11,0.68,-1.54c0.45,-0.43,1.04,-0.64,1.75,-0.64c0.44,0,0.91,0.1,1.4,0.32c0.22,0.1,0.39,0.15,0.48,0.15c0.1,0,0.19,-0.03,0.26,-0.09c0.06,-0.06,0.12,-0.19,0.16,-0.38l0.22,0m5.11,8.3l0,0.22l-3.57,0l0,-0.22l0.29,0c0.34,0,0.59,-0.1,0.75,-0.3c0.09,-0.13,0.14,-0.44,0.14,-0.94l0,-5.38c0,-0.42,-0.02,-0.7,-0.08,-0.83c-0.04,-0.1,-0.12,-0.19,-0.25,-0.26c-0.18,-0.09,-0.36,-0.14,-0.56,-0.14l-0.29,0l0,-0.22l3.57,0l0,0.22l-0.3,0c-0.34,0,-0.58,0.1,-0.74,0.3c-0.1,0.13,-0.15,0.44,-0.15,0.94l0,5.38c0,0.42,0.02,0.7,0.08,0.83c0.04,0.1,0.12,0.19,0.25,0.26c0.17,0.09,0.36,0.14,0.55,0.14l0.3,0m4.98,-7.29l2.03,-0.99l0.2,0l0,7.04c0,0.46,0.01,0.75,0.05,0.87c0.03,0.11,0.12,0.2,0.24,0.26c0.12,0.06,0.37,0.09,0.75,0.1l0,0.22l-3.13,0l0,-0.22c0.39,0,0.64,-0.04,0.76,-0.1c0.11,-0.05,0.19,-0.13,0.23,-0.23c0.04,-0.1,0.06,-0.4,0.06,-0.9l0,-4.5c0,-0.6,-0.02,-0.99,-0.06,-1.16c-0.02,-0.13,-0.08,-0.22,-0.15,-0.28c-0.07,-0.06,-0.16,-0.09,-0.27,-0.09c-0.15,0,-0.36,0.06,-0.63,0.19l-0.09,-0.19m5.27,3.4c0,-0.95,0.14,-1.77,0.43,-2.45c0.28,-0.68,0.66,-1.19,1.14,-1.53c0.36,-0.26,0.75,-0.39,1.14,-0.39c0.63,0,1.21,0.32,1.72,0.97c0.63,0.8,0.95,1.9,0.95,3.28c0,0.96,-0.13,1.79,-0.41,2.46c-0.27,0.67,-0.63,1.16,-1.06,1.47c-0.43,0.3,-0.85,0.45,-1.25,0.45c-0.79,0,-1.45,-0.46,-1.98,-1.4c-0.44,-0.79,-0.67,-1.74,-0.67,-2.86m1.2,0.15c0,1.14,0.14,2.08,0.42,2.81c0.23,0.61,0.58,0.91,1.04,0.91c0.22,0,0.45,-0.09,0.68,-0.29c0.23,-0.19,0.41,-0.53,0.54,-0.99c0.18,-0.7,0.28,-1.7,0.28,-2.98c0,-0.95,-0.09,-1.74,-0.29,-2.38c-0.14,-0.47,-0.33,-0.8,-0.57,-1c-0.16,-0.13,-0.37,-0.2,-0.6,-0.2c-0.27,0,-0.52,0.12,-0.74,0.37c-0.29,0.34,-0.49,0.87,-0.6,1.6c-0.1,0.73,-0.16,1.44,-0.16,2.15m10.41,2.36l-0.58,1.6l-4.92,0l0,-0.22c1.44,-1.32,2.46,-2.39,3.05,-3.23c0.59,-0.83,0.88,-1.6,0.88,-2.29c0,-0.52,-0.16,-0.96,-0.48,-1.3c-0.32,-0.34,-0.71,-0.51,-1.16,-0.51c-0.41,0,-0.77,0.12,-1.1,0.35c-0.32,0.23,-0.56,0.59,-0.72,1.05l-0.22,0c0.1,-0.75,0.36,-1.34,0.79,-1.74c0.42,-0.4,0.95,-0.6,1.59,-0.6c0.67,0,1.24,0.21,1.69,0.65c0.45,0.43,0.67,0.94,0.67,1.53c0,0.42,-0.09,0.84,-0.29,1.26c-0.3,0.66,-0.79,1.36,-1.47,2.11c-1.02,1.11,-1.65,1.78,-1.91,2.01l2.17,0c0.44,0,0.75,-0.01,0.93,-0.04c0.17,-0.03,0.33,-0.09,0.48,-0.2c0.14,-0.1,0.26,-0.24,0.37,-0.42l0.22,0m0.97,-2.51c0,-0.95,0.14,-1.77,0.43,-2.45c0.28,-0.68,0.66,-1.19,1.14,-1.53c0.36,-0.26,0.75,-0.39,1.14,-0.39c0.63,0,1.21,0.32,1.72,0.97c0.63,0.8,0.95,1.9,0.95,3.28c0,0.96,-0.13,1.79,-0.41,2.46c-0.27,0.67,-0.63,1.16,-1.06,1.47c-0.43,0.3,-0.85,0.45,-1.25,0.45c-0.79,0,-1.45,-0.46,-1.98,-1.4c-0.44,-0.79,-0.67,-1.74,-0.67,-2.86m1.2,0.15c0,1.14,0.14,2.08,0.42,2.81c0.23,0.61,0.58,0.91,1.04,0.91c0.22,0,0.45,-0.09,0.68,-0.29c0.23,-0.19,0.41,-0.53,0.54,-0.99c0.18,-0.7,0.28,-1.7,0.28,-2.98c0,-0.95,-0.09,-1.74,-0.29,-2.38c-0.14,-0.47,-0.33,-0.8,-0.57,-1c-0.16,-0.13,-0.37,-0.2,-0.6,-0.2c-0.27,0,-0.52,0.12,-0.74,0.37c-0.29,0.34,-0.49,0.87,-0.6,1.6c-0.1,0.73,-0.16,1.44,-0.16,2.15" fill="#000000" stroke="none" fill-opacity="1"/>
</g>
</g>
<g clip-path="url(#c2)">
<g fill="none" stroke="#377eb8" stroke-width="0.48">
<path d="M309.96,183.06l0,0"/>
</g>
<g fill="none" stroke="#377eb8" stroke-width="1.94">
<path d="M296.18,183.06l27.55,0"/>
</g>
</g>
<g clip-path="url(#c0)">
<g fill="none" stroke-width="0.1">
<path d="m343.81,184.42l-3.23,0l-0.56,1.31c-0.13,0.32,-0.2,0.56,-0.2,0.72c0,0.12,0.06,0.23,0.18,0.33c0.12,0.09,0.38,0.15,0.78,0.18l0,0.22l-2.62,0l0,-0.22c0.34,-0.06,0.57,-0.14,0.67,-0.23c0.2,-0.19,0.44,-0.59,0.69,-1.19l2.93,-6.86l0.21,0l2.9,6.93c0.23,0.55,0.44,0.91,0.63,1.08c0.19,0.16,0.45,0.25,0.79,0.27l0,0.22l-3.29,0l0,-0.22c0.33,-0.01,0.55,-0.07,0.67,-0.16c0.11,-0.09,0.17,-0.2,0.17,-0.34c0,-0.18,-0.08,-0.46,-0.24,-0.85l-0.5,-1.19m-0.17,-0.45l-1.41,-3.37l-1.45,3.37l2.86,0m7.39,3.02l0,0.22l-3.57,0l0,-0.22l0.29,0c0.34,0,0.59,-0.1,0.75,-0.3c0.09,-0.13,0.14,-0.44,0.14,-0.94l0,-5.38c0,-0.42,-0.02,-0.7,-0.08,-0.83c-0.04,-0.1,-0.12,-0.19,-0.25,-0.26c-0.18,-0.09,-0.36,-0.14,-0.56,-0.14l-0.29,0l0,-0.22l3.57,0l0,0.22l-0.3,0c-0.34,0,-0.58,0.1,-0.74,0.3c-0.1,0.13,-0.15,0.44,-0.15,0.94l0,5.38c0,0.42,0.02,0.7,0.08,0.83c0.04,0.1,0.12,0.19,0.25,0.26c0.17,0.09,0.36,0.14,0.55,0.14l0.3,0m6.08,-8.3l0,2.88l-0.22,0c-0.07,-0.55,-0.2,-0.99,-0.39,-1.32c-0.19,-0.32,-0.46,-0.58,-0.81,-0.78c-0.35,-0.19,-0.71,-0.28,-1.09,-0.28c-0.42,0,-0.77,0.13,-1.05,0.39c-0.27,0.26,-0.41,0.55,-0.41,0.88c0,0.25,0.08,0.48,0.26,0.69c0.25,0.3,0.85,0.71,1.81,1.23c0.77,0.41,1.31,0.73,1.59,0.96c0.28,0.22,0.5,0.48,0.65,0.79c0.15,0.3,0.23,0.62,0.23,0.95c0,0.63,-0.24,1.17,-0.73,1.63c-0.49,0.45,-1.12,0.68,-1.89,0.68c-0.24,0,-0.46,-0.01,-0.68,-0.05c-0.12,-0.02,-0.39,-0.09,-0.79,-0.22c-0.39,-0.12,-0.65,-0.19,-0.75,-0.19c-0.1,0,-0.18,0.03,-0.24,0.09c-0.05,0.06,-0.1,0.18,-0.13,0.38l-0.22,0l0,-2.86l0.22,0c0.1,0.59,0.25,1.04,0.43,1.34c0.18,0.29,0.45,0.54,0.82,0.74c0.37,0.19,0.77,0.29,1.22,0.29c0.51,0,0.91,-0.13,1.21,-0.4c0.29,-0.27,0.44,-0.59,0.44,-0.95c0,-0.2,-0.05,-0.41,-0.16,-0.62c-0.11,-0.2,-0.28,-0.4,-0.52,-0.58c-0.16,-0.12,-0.59,-0.38,-1.31,-0.78c-0.71,-0.39,-1.22,-0.71,-1.52,-0.95c-0.3,-0.23,-0.53,-0.5,-0.68,-0.78c-0.15,-0.28,-0.23,-0.6,-0.23,-0.94c0,-0.59,0.22,-1.11,0.68,-1.54c0.45,-0.43,1.04,-0.64,1.75,-0.64c0.44,0,0.91,0.1,1.4,0.32c0.22,0.1,0.39,0.15,0.48,0.15c0.1,0,0.19,-0.03,0.26,-0.09c0.06,-0.06,0.12,-0.19,0.16,-0.38l0.22,0m5.11,8.3l0,0.22l-3.57,0l0,-0.22l0.29,0c0.34,0,0.59,-0.1,0.75,-0.3c0.09,-0.13,0.14,-0.44,0.14,-0.94l0,-5.38c0,-0.42,-0.02,-0.7,-0.08,-0.83c-0.04,-0.1,-0.12,-0.19,-0.25,-0.26c-0.18,-0.09,-0.36,-0.14,-0.56,-0.14l-0.29,0l0,-0.22l3.57,0l0,0.22l-0.3,0c-0.34,0,-0.58,0.1,-0.74,0.3c-0.1,0.13,-0.15,0.44,-0.15,0.94l0,5.38c0,0.42,0.02,0.7,0.08,0.83c0.04,0.1,0.12,0.19,0.25,0.26c0.17,0.09,0.36,0.14,0.55,0.14l0.3,0m4.98,-7.29l2.03,-0.99l0.2,0l0,7.04c0,0.46,0.01,0.75,0.05,0.87c0.03,0.11,0.12,0.2,0.24,0.26c0.12,0.06,0.37,0.09,0.75,0.1l0,0.22l-3.13,0l0,-0.22c0.39,0,0.64,-0.04,0.76,-0.1c0.11,-0.05,0.19,-0.13,0.23,-0.23c0.04,-0.1,0.06,-0.4,0.06,-0.9l0,-4.5c0,-0.6,-0.02,-0.99,-0.06,-1.16c-0.02,-0.13,-0.08,-0.22,-0.15,-0.28c-0.07,-0.06,-0.16,-0.09,-0.27,-0.09c-0.15,0,-0.36,0.06,-0.63,0.19l-0.09,-0.19m5.27,3.4c0,-0.95,0.14,-1.77,0.43,-2.45c0.28,-0.68,0.66,-1.19,1.14,-1.53c0.36,-0.26,0.75,-0.39,1.14,-0.39c0.63,0,1.21,0.32,1.72,0.97c0.63,0.8,0.95,1.9,0.95,3.28c0,0.96,-0.13,1.79,-0.41,2.46c-0.27,0.67,-0.63,1.16,-1.06,1.47c-0.43,0.3,-0.85,0.45,-1.25,0.45c-0.79,0,-1.45,-0.46,-1.98,-1.4c-0.44,-0.79,-0.67,-1.74,-0.67,-2.86m1.2,0.15c0,1.14,0.14,2.08,0.42,2.81c0.23,0.61,0.58,0.91,1.04,0.91c0.22,0,0.45,-0.09,0.68,-0.29c0.23,-0.19,0.41,-0.53,0.54,-0.99c0.18,-0.7,0.28,-1.7,0.28,-2.98c0,-0.95,-0.09,-1.74,-0.29,-2.38c-0.14,-0.47,-0.33,-0.8,-0.57,-1c-0.16,-0.13,-0.37,-0.2,-0.6,-0.2c-0.27,0,-0.52,0.12,-0.74,0.37c-0.29,0.34,-0.49,0.87,-0.6,1.6c-0.1,0.73,-0.16,1.44,-0.16,2.15m5.27,-2.78c0.23,-0.56,0.53,-0.99,0.9,-1.3c0.36,-0.3,0.81,-0.45,1.35,-0.45c0.66,0,1.18,0.21,1.53,0.65c0.27,0.32,0.4,0.67,0.4,1.03c0,0.6,-0.38,1.23,-1.14,1.88c0.51,0.2,0.9,0.48,1.16,0.86c0.26,0.37,0.39,0.81,0.39,1.31c0,0.72,-0.22,1.34,-0.68,1.87c-0.59,0.68,-1.46,1.03,-2.6,1.03c-0.56,0,-0.94,-0.06,-1.14,-0.2c-0.2,-0.13,-0.3,-0.28,-0.3,-0.44c0,-0.11,0.04,-0.22,0.14,-0.31c0.09,-0.09,0.21,-0.13,0.34,-0.13c0.1,0,0.2,0.01,0.31,0.04c0.06,0.02,0.22,0.09,0.47,0.22c0.24,0.12,0.41,0.2,0.51,0.23c0.15,0.04,0.31,0.06,0.48,0.06c0.41,0,0.78,-0.16,1.09,-0.48c0.3,-0.32,0.46,-0.7,0.46,-1.15c0,-0.32,-0.07,-0.63,-0.21,-0.94c-0.1,-0.22,-0.22,-0.4,-0.35,-0.52c-0.17,-0.16,-0.41,-0.31,-0.72,-0.44c-0.3,-0.13,-0.62,-0.2,-0.94,-0.2l-0.19,0l0,-0.18c0.32,-0.04,0.64,-0.15,0.97,-0.35c0.32,-0.19,0.56,-0.42,0.71,-0.69c0.14,-0.27,0.22,-0.56,0.22,-0.89c0,-0.42,-0.13,-0.76,-0.39,-1.02c-0.26,-0.26,-0.59,-0.39,-0.98,-0.39c-0.63,0,-1.16,0.34,-1.59,1.02l-0.2,-0.09m6.11,2.63c0,-0.95,0.14,-1.77,0.43,-2.45c0.28,-0.68,0.66,-1.19,1.14,-1.53c0.36,-0.26,0.75,-0.39,1.14,-0.39c0.63,0,1.21,0.32,1.72,0.97c0.63,0.8,0.95,1.9,0.95,3.28c0,0.96,-0.13,1.79,-0.41,2.46c-0.27,0.67,-0.63,1.16,-1.06,1.47c-0.43,0.3,-0.85,0.45,-1.25,0.45c-0.79,0,-1.45,-0.46,-1.98,-1.4c-0.44,-0.79,-0.67,-1.74,-0.67,-2.86m1.2,0.15c0,1.14,0.14,2.08,0.42,2.81c0.23,0.61,0.58,0.91,1.04,0.91c0.22,0,0.45,-0.09,0.68,-0.29c0.23,-0.19,0.41,-0.53,0.54,-0.99c0.18,-0.7,0.28,-1.7,0.28,-2.98c0,-0.95,-0.09,-1.74,-0.29,-2.38c-0.14,-0.47,-0.33,-0.8,-0.57,-1c-0.16,-0.13,-0.37,-0.2,-0.6,-0.2c-0.27,0,-0.52,0.12,-0.74,0.37c-0.29,0.34,-0.49,0.87,-0.6,1.6c-0.1,0.73,-0.16,1.44,-0.16,2.15" fill="#000000" stroke="none" fill-opacity="1"/>
</g>
</g>
<g clip-path="url(#c3)">
<g fill="none" stroke="#377eb8" stroke-width="1.94">
<path d="m48.42,217.05c0.17,-0.4,0.26,-0.86,0.52,-1.22c0.07,-0.1,0.49,0,0.37,-0.04c-0.15,-0.05,-0.76,-0.01,-0.8,-0.08c-0.06,-0.12,-0.01,-0.28,-0.01,-0.42c-0.01,-0.39,-0.02,-0.78,-0.02,-1.17c0.01,-1.68,0.1,-3.37,0.14,-5.05c0.08,-3.42,0.07,-4.16,0.2,-7.58c0.05,-1.4,0.14,-2.8,0.18,-4.21c0.07,-2.34,0.02,-4.81,0.15,-7.16c0.07,-1.4,0.23,-2.8,0.3,-4.21c0.12,-2.52,-0.14,-5.08,0.27,-7.58c0.2,-1.22,1.16,-2.19,1.55,-3.37c1.74,-5.29,2.93,-10.76,4.83,-16.01c4.65,-12.88,7.14,-26.98,14.79,-38.34c5.3,-7.87,13.98,-13.39,22.65,-17.27c43.1,-19.27,76.31,-20.15,123.45,-26.12c18.87,-2.38,37.72,-5.06,56.67,-6.74c45.29,-4,108.93,-5.85,152.84,-7.58"/>
</g>
<g fill="none" stroke="#0000ff" stroke-width="1.94">
<path d="m48.3,217.05c0.21,-1.4,0.32,-2.77,0.36,-4.21c0.1,-4.21,0.1,-8.42,0.17,-12.64c0.02,-1.4,0.06,-2.8,0.09,-4.21c0.04,-2.8,0.11,-5.61,0.14,-8.42c0.04,-4.21,0.05,-8.42,0.09,-12.64c0.03,-2.8,0.08,-5.61,0.12,-8.42c0.1,-2.8,0.26,-5.61,0.32,-8.42c0.12,-5.61,0.11,-11.23,0.22,-16.85c0.08,-4.08,0.44,-12.77,0.68,-16.85c0.16,-2.81,0.4,-5.61,0.56,-8.42c0.16,-2.8,0.09,-5.63,0.42,-8.42c0.18,-1.55,0.89,-3,1.13,-4.55c0.41,-2.67,0.39,-5.41,0.82,-8.09c0.36,-2.23,1.89,-6.37,2.73,-8.42c1.43,-3.52,2.21,-5.24,4.41,-8.42c1.01,-1.46,1.94,-3.03,3.27,-4.21c6.09,-5.37,10.33,-5.3,18.11,-9.27c3.91,-1.99,7.29,-4.99,11.32,-6.74c4.77,-2.07,9.9,-3.21,14.91,-4.63c16.27,-4.63,22.93,-6.02,40.46,-8.84c22.15,-3.57,45.38,-6.28,67.64,-8.42c37.25,-3.58,76.27,-6.29,113.49,-8.42c27.6,-1.58,55.27,-1.93,82.83,-4.21c6.54,-0.54,12.74,-3.37,19.25,-4.21c6.7,-0.85,13.5,-0.56,20.26,-0.84c19.02,-0.77,24.46,-0.96,43.71,-1.68"/>
</g>
</g>
<g clip-path="url(#c0)">
<g fill="none" stroke-linecap="butt" stroke-width="0.48">
<path d="M46.85,217.05l0,-210.69"/>
<path d="M46.85,217.05l2.91,0M46.85,208.62l2.91,0M46.85,200.19l2.91,0M46.85,191.77l2.91,0M46.85,183.34l2.91,0M46.85,174.91l2.91,0M46.85,166.48l2.91,0M46.85,158.05l2.91,0M46.85,149.63l2.91,0M46.85,141.2l2.91,0M46.85,132.77l2.91,0M46.85,124.34l2.91,0M46.85,115.92l2.91,0M46.85,107.49l2.91,0M46.85,99.06l2.91,0M46.85,90.63l2.91,0M46.85,82.2l2.91,0M46.85,73.78l2.91,0M46.85,65.35l2.91,0M46.85,56.92l2.91,0M46.85,48.49l2.91,0M46.85,40.06l2.91,0M46.85,31.64l2.91,0M46.85,23.21l2.91,0M46.85,14.78l2.91,0M46.85,6.35l2.91,0"/>
<path d="M46.85,217.05l5.83,0M46.85,174.91l5.83,0M46.85,132.77l5.83,0M46.85,90.63l5.83,0M46.85,48.49l5.83,0M46.85,6.35l5.83,0"/>
</g>
<g fill="none" stroke-width="0.1">
<g transform="matrix(0 -1 1 0 16.15 125.4)">
<path d="m7.2,-5.27c0.71,0.15,1.25,0.39,1.6,0.73c0.49,0.46,0.73,1.03,0.73,1.71c0,0.51,-0.16,1,-0.48,1.47c-0.32,0.46,-0.77,0.81,-1.33,1.02c-0.56,0.21,-1.43,0.32,-2.59,0.32l-4.87,0l0,-0.28l0.38,0c0.43,0,0.74,-0.13,0.92,-0.41c0.11,-0.17,0.17,-0.55,0.17,-1.13l0,-6.67c0,-0.63,-0.07,-1.04,-0.22,-1.21c-0.19,-0.22,-0.49,-0.33,-0.88,-0.33l-0.38,0l0,-0.28l4.46,0c0.83,0,1.5,0.06,2,0.18c0.76,0.18,1.34,0.5,1.74,0.97c0.4,0.46,0.6,0.99,0.6,1.6c0,0.51,-0.15,0.98,-0.47,1.39c-0.31,0.4,-0.77,0.71,-1.39,0.91m-3.99,-0.41c0.18,0.03,0.4,0.06,0.64,0.08c0.24,0.01,0.5,0.02,0.79,0.02c0.74,0,1.29,-0.08,1.67,-0.23c0.37,-0.16,0.65,-0.4,0.85,-0.73c0.19,-0.33,0.29,-0.69,0.29,-1.08c0,-0.6,-0.24,-1.11,-0.73,-1.54c-0.49,-0.42,-1.21,-0.63,-2.15,-0.63c-0.5,0,-0.96,0.05,-1.37,0.16l0,3.96m0,4.93c0.58,0.13,1.17,0.2,1.74,0.2c0.91,0,1.61,-0.2,2.1,-0.62c0.48,-0.41,0.72,-0.92,0.72,-1.53c0,-0.4,-0.1,-0.78,-0.32,-1.15c-0.21,-0.37,-0.57,-0.66,-1.06,-0.87c-0.49,-0.21,-1.1,-0.31,-1.82,-0.31c-0.31,0,-0.58,0,-0.8,0.01c-0.22,0.01,-0.4,0.02,-0.54,0.05l0,4.23m8.02,3.34l0,-0.33c0.52,-0.17,0.92,-0.44,1.21,-0.8c0.28,-0.36,0.43,-0.74,0.43,-1.15c0,-0.09,-0.02,-0.17,-0.06,-0.24c-0.03,-0.04,-0.07,-0.06,-0.1,-0.06c-0.05,0,-0.17,0.05,-0.36,0.15c-0.09,0.04,-0.18,0.06,-0.28,0.06c-0.24,0,-0.44,-0.07,-0.59,-0.22c-0.14,-0.14,-0.22,-0.35,-0.22,-0.6c0,-0.24,0.09,-0.46,0.28,-0.63c0.19,-0.17,0.42,-0.26,0.69,-0.26c0.33,0,0.63,0.14,0.89,0.43c0.26,0.29,0.39,0.67,0.39,1.16c0,0.52,-0.18,1,-0.54,1.45c-0.36,0.44,-0.93,0.8,-1.72,1.06m15.68,-12.92l0.11,2.42l-0.28,0c-0.05,-0.42,-0.13,-0.73,-0.22,-0.91c-0.15,-0.29,-0.36,-0.51,-0.62,-0.65c-0.26,-0.13,-0.6,-0.2,-1.03,-0.2l-1.45,0l0,7.89c0,0.63,0.06,1.03,0.2,1.18c0.19,0.21,0.49,0.31,0.89,0.31l0.35,0l0,0.28l-4.37,0l0,-0.28l0.36,0c0.43,0,0.74,-0.13,0.92,-0.39c0.11,-0.16,0.16,-0.53,0.16,-1.11l0,-7.89l-1.24,0c-0.48,0,-0.82,0.03,-1.02,0.1c-0.26,0.09,-0.49,0.28,-0.67,0.55c-0.18,0.27,-0.29,0.64,-0.33,1.11l-0.28,0l0.12,-2.42l8.43,0" fill="#000000" stroke="none" fill-opacity="1"/>
</g>
<path d="m37.5,217.23c0,-0.95,0.14,-1.77,0.43,-2.45c0.28,-0.68,0.66,-1.19,1.14,-1.53c0.36,-0.26,0.75,-0.39,1.14,-0.39c0.63,0,1.21,0.32,1.72,0.97c0.63,0.8,0.95,1.9,0.95,3.28c0,0.96,-0.13,1.79,-0.41,2.46c-0.27,0.67,-0.63,1.16,-1.06,1.47c-0.43,0.3,-0.85,0.45,-1.25,0.45c-0.79,0,-1.45,-0.46,-1.98,-1.4c-0.44,-0.79,-0.67,-1.74,-0.67,-2.86m1.2,0.15c0,1.14,0.14,2.08,0.42,2.81c0.23,0.61,0.58,0.91,1.04,0.91c0.22,0,0.45,-0.09,0.68,-0.29c0.23,-0.19,0.41,-0.53,0.54,-0.99c0.18,-0.7,0.28,-1.7,0.28,-2.98c0,-0.95,-0.09,-1.74,-0.29,-2.38c-0.14,-0.47,-0.33,-0.8,-0.57,-1c-0.16,-0.13,-0.37,-0.2,-0.6,-0.2c-0.27,0,-0.52,0.12,-0.74,0.37c-0.29,0.34,-0.49,0.87,-0.6,1.6c-0.1,0.73,-0.16,1.44,-0.16,2.15" fill="#000000" stroke="none" fill-opacity="1"/>
<path d="m28,175.09c0,-0.95,0.14,-1.77,0.43,-2.45c0.28,-0.68,0.66,-1.19,1.14,-1.53c0.36,-0.26,0.75,-0.39,1.14,-0.39c0.63,0,1.21,0.32,1.72,0.97c0.63,0.8,0.95,1.9,0.95,3.28c0,0.96,-0.13,1.79,-0.41,2.46c-0.27,0.67,-0.63,1.16,-1.06,1.47c-0.43,0.3,-0.85,0.45,-1.25,0.45c-0.79,0,-1.45,-0.46,-1.98,-1.4c-0.44,-0.79,-0.67,-1.74,-0.67,-2.86m1.2,0.15c0,1.14,0.14,2.08,0.42,2.81c0.23,0.61,0.58,0.91,1.04,0.91c0.22,0,0.45,-0.09,0.68,-0.29c0.23,-0.19,0.41,-0.53,0.54,-0.99c0.18,-0.7,0.28,-1.7,0.28,-2.98c0,-0.95,-0.09,-1.74,-0.29,-2.38c-0.14,-0.47,-0.33,-0.8,-0.57,-1c-0.16,-0.13,-0.37,-0.2,-0.6,-0.2c-0.27,0,-0.52,0.12,-0.74,0.37c-0.29,0.34,-0.49,0.87,-0.6,1.6c-0.1,0.73,-0.16,1.44,-0.16,2.15m6.21,2.77c0.19,0,0.35,0.06,0.48,0.2c0.13,0.13,0.19,0.29,0.19,0.48c0,0.18,-0.06,0.34,-0.2,0.48c-0.13,0.13,-0.29,0.2,-0.48,0.2c-0.18,0,-0.34,-0.06,-0.48,-0.2c-0.13,-0.13,-0.2,-0.29,-0.2,-0.48c0,-0.19,0.06,-0.35,0.2,-0.48c0.13,-0.13,0.29,-0.19,0.48,-0.19m7.09,-7.14l-0.47,1.04l-2.51,0l-0.54,1.11c1.08,0.16,1.94,0.56,2.58,1.21c0.54,0.55,0.81,1.21,0.81,1.96c0,0.43,-0.08,0.84,-0.26,1.21c-0.17,0.37,-0.4,0.69,-0.67,0.95c-0.27,0.26,-0.57,0.47,-0.9,0.63c-0.47,0.22,-0.95,0.33,-1.45,0.33c-0.5,0,-0.86,-0.08,-1.09,-0.25c-0.22,-0.17,-0.34,-0.35,-0.34,-0.56c0,-0.11,0.04,-0.21,0.14,-0.3c0.09,-0.08,0.21,-0.13,0.35,-0.13c0.1,0,0.2,0.01,0.27,0.04c0.08,0.03,0.21,0.11,0.4,0.25c0.3,0.21,0.61,0.31,0.93,0.31c0.47,0,0.9,-0.18,1.26,-0.54c0.36,-0.36,0.54,-0.8,0.54,-1.32c0,-0.5,-0.16,-0.97,-0.48,-1.41c-0.32,-0.43,-0.77,-0.77,-1.34,-1.01c-0.44,-0.18,-1.05,-0.29,-1.82,-0.31l1.59,-3.24l2.99,0" fill="#000000" stroke="none" fill-opacity="1"/>
<path d="m38.52,129.55l2.03,-0.99l0.2,0l0,7.04c0,0.46,0.01,0.75,0.05,0.87c0.03,0.11,0.12,0.2,0.24,0.26c0.12,0.06,0.37,0.09,0.75,0.1l0,0.22l-3.13,0l0,-0.22c0.39,0,0.64,-0.04,0.76,-0.1c0.11,-0.05,0.19,-0.13,0.23,-0.23c0.04,-0.1,0.06,-0.4,0.06,-0.9l0,-4.5c0,-0.6,-0.02,-0.99,-0.06,-1.16c-0.02,-0.13,-0.08,-0.22,-0.15,-0.28c-0.07,-0.06,-0.16,-0.09,-0.27,-0.09c-0.15,0,-0.36,0.06,-0.63,0.19l-0.09,-0.19" fill="#000000" stroke="none" fill-opacity="1"/>
<path d="m29.02,87.41l2.03,-0.99l0.2,0l0,7.04c0,0.46,0.01,0.75,0.05,0.87c0.03,0.11,0.12,0.2,0.24,0.26c0.12,0.06,0.37,0.09,0.75,0.1l0,0.22l-3.13,0l0,-0.22c0.39,0,0.64,-0.04,0.76,-0.1c0.11,-0.05,0.19,-0.13,0.23,-0.23c0.04,-0.1,0.06,-0.4,0.06,-0.9l0,-4.5c0,-0.6,-0.02,-0.99,-0.06,-1.16c-0.02,-0.13,-0.08,-0.22,-0.15,-0.28c-0.07,-0.06,-0.16,-0.09,-0.27,-0.09c-0.15,0,-0.36,0.06,-0.63,0.19l-0.09,-0.19m6.39,6.33c0.19,0,0.35,0.06,0.48,0.2c0.13,0.13,0.19,0.29,0.19,0.48c0,0.18,-0.06,0.34,-0.2,0.48c-0.13,0.13,-0.29,0.2,-0.48,0.2c-0.18,0,-0.34,-0.06,-0.48,-0.2c-0.13,-0.13,-0.2,-0.29,-0.2,-0.48c0,-0.19,0.06,-0.35,0.2,-0.48c0.13,-0.13,0.29,-0.19,0.48,-0.19m7.09,-7.14l-0.47,1.04l-2.51,0l-0.54,1.11c1.08,0.16,1.94,0.56,2.58,1.21c0.54,0.55,0.81,1.21,0.81,1.96c0,0.43,-0.08,0.84,-0.26,1.21c-0.17,0.37,-0.4,0.69,-0.67,0.95c-0.27,0.26,-0.57,0.47,-0.9,0.63c-0.47,0.22,-0.95,0.33,-1.45,0.33c-0.5,0,-0.86,-0.08,-1.09,-0.25c-0.22,-0.17,-0.34,-0.35,-0.34,-0.56c0,-0.11,0.04,-0.21,0.14,-0.3c0.09,-0.08,0.21,-0.13,0.35,-0.13c0.1,0,0.2,0.01,0.27,0.04c0.08,0.03,0.21,0.11,0.4,0.25c0.3,0.21,0.61,0.31,0.93,0.31c0.47,0,0.9,-0.18,1.26,-0.54c0.36,-0.36,0.54,-0.8,0.54,-1.32c0,-0.5,-0.16,-0.97,-0.48,-1.41c-0.32,-0.43,-0.77,-0.77,-1.34,-1.01c-0.44,-0.18,-1.05,-0.29,-1.82,-0.31l1.59,-3.24l2.99,0" fill="#000000" stroke="none" fill-opacity="1"/>
<path d="m42.82,51.19l-0.58,1.6l-4.92,0l0,-0.22c1.44,-1.32,2.46,-2.39,3.05,-3.23c0.59,-0.83,0.88,-1.6,0.88,-2.29c0,-0.52,-0.16,-0.96,-0.48,-1.3c-0.32,-0.34,-0.71,-0.51,-1.16,-0.51c-0.41,0,-0.77,0.12,-1.1,0.35c-0.32,0.23,-0.56,0.59,-0.72,1.05l-0.22,0c0.1,-0.75,0.36,-1.34,0.79,-1.74c0.42,-0.4,0.95,-0.6,1.59,-0.6c0.67,0,1.24,0.21,1.69,0.65c0.45,0.43,0.67,0.94,0.67,1.53c0,0.42,-0.09,0.84,-0.29,1.26c-0.3,0.66,-0.79,1.36,-1.47,2.11c-1.02,1.11,-1.65,1.78,-1.91,2.01l2.17,0c0.44,0,0.75,-0.01,0.93,-0.04c0.17,-0.03,0.33,-0.09,0.48,-0.2c0.14,-0.1,0.26,-0.24,0.37,-0.42l0.22,0" fill="#000000" stroke="none" fill-opacity="1"/>
<path d="m33.32,9.85l-0.58,1.6l-4.92,0l0,-0.22c1.44,-1.32,2.46,-2.39,3.05,-3.23c0.59,-0.83,0.88,-1.6,0.88,-2.29c0,-0.52,-0.16,-0.96,-0.48,-1.3c-0.32,-0.34,-0.71,-0.51,-1.16,-0.51c-0.41,0,-0.77,0.12,-1.1,0.35c-0.32,0.23,-0.56,0.59,-0.72,1.05l-0.22,0c0.1,-0.75,0.36,-1.34,0.79,-1.74c0.42,-0.4,0.95,-0.6,1.59,-0.6c0.67,0,1.24,0.21,1.69,0.65c0.45,0.43,0.67,0.94,0.67,1.53c0,0.42,-0.09,0.84,-0.29,1.26c-0.3,0.66,-0.79,1.36,-1.47,2.11c-1.02,1.11,-1.65,1.78,-1.91,2.01l2.17,0c0.44,0,0.75,-0.01,0.93,-0.04c0.17,-0.03,0.33,-0.09,0.48,-0.2c0.14,-0.1,0.26,-0.24,0.37,-0.42l0.22,0m2.09,0.41c0.19,0,0.35,0.06,0.48,0.2c0.13,0.13,0.19,0.29,0.19,0.48c0,0.18,-0.06,0.34,-0.2,0.48c-0.13,0.13,-0.29,0.2,-0.48,0.2c-0.18,0,-0.34,-0.06,-0.48,-0.2c-0.13,-0.13,-0.2,-0.29,-0.2,-0.48c0,-0.19,0.06,-0.35,0.2,-0.48c0.13,-0.13,0.29,-0.19,0.48,-0.19m7.09,-7.14l-0.47,1.04l-2.51,0l-0.54,1.11c1.08,0.16,1.94,0.56,2.58,1.21c0.54,0.55,0.81,1.21,0.81,1.96c0,0.43,-0.08,0.84,-0.26,1.21c-0.17,0.37,-0.4,0.69,-0.67,0.95c-0.27,0.26,-0.57,0.47,-0.9,0.63c-0.47,0.22,-0.95,0.33,-1.45,0.33c-0.5,0,-0.86,-0.08,-1.09,-0.25c-0.22,-0.17,-0.34,-0.35,-0.34,-0.56c0,-0.11,0.04,-0.21,0.14,-0.3c0.09,-0.08,0.21,-0.13,0.35,-0.13c0.1,0,0.2,0.01,0.27,0.04c0.08,0.03,0.21,0.11,0.4,0.25c0.3,0.21,0.61,0.31,0.93,0.31c0.47,0,0.9,-0.18,1.26,-0.54c0.36,-0.36,0.54,-0.8,0.54,-1.32c0,-0.5,-0.16,-0.97,-0.48,-1.41c-0.32,-0.43,-0.77,-0.77,-1.34,-1.01c-0.44,-0.18,-1.05,-0.29,-1.82,-0.31l1.59,-3.24l2.99,0" fill="#000000" stroke="none" fill-opacity="1"/>
</g>
<g fill="none" stroke-linecap="butt" stroke-width="0.48">
<path d="M46.85,217.05l384.36,0"/>
<path d="M48.27,217.05l0,-2.91M62.5,217.05l0,-2.91M76.74,217.05l0,-2.91M90.98,217.05l0,-2.91M105.21,217.05l0,-2.91M119.45,217.05l0,-2.91M133.68,217.05l0,-2.91M147.92,217.05l0,-2.91M162.16,217.05l0,-2.91M176.39,217.05l0,-2.91M190.63,217.05l0,-2.91M204.86,217.05l0,-2.91M219.1,217.05l0,-2.91M233.33,217.05l0,-2.91M247.57,217.05l0,-2.91M261.81,217.05l0,-2.91M276.04,217.05l0,-2.91M290.28,217.05l0,-2.91M304.51,217.05l0,-2.91M318.75,217.05l0,-2.91M332.98,217.05l0,-2.91M347.22,217.05l0,-2.91M361.46,217.05l0,-2.91M375.69,217.05l0,-2.91M389.93,217.05l0,-2.91M404.16,217.05l0,-2.91M418.4,217.05l0,-2.91"/>
<path d="M48.27,217.05l0,-5.83M119.45,217.05l0,-5.83M190.63,217.05l0,-5.83M261.81,217.05l0,-5.83M332.98,217.05l0,-5.83M404.16,217.05l0,-5.83"/>
</g>
<g fill="none" stroke-width="0.1">
<path d="m219.28,248.11l4.79,0l0,-2.95c0,-0.52,-0.03,-0.87,-0.09,-1.04c-0.05,-0.12,-0.15,-0.23,-0.31,-0.32c-0.21,-0.12,-0.44,-0.18,-0.69,-0.18l-0.36,0l0,-0.28l4.41,0l0,0.28l-0.36,0c-0.24,0,-0.47,0.05,-0.69,0.17c-0.16,0.08,-0.27,0.2,-0.33,0.36c-0.05,0.16,-0.08,0.5,-0.08,1l0,6.66c0,0.52,0.03,0.86,0.09,1.03c0.05,0.12,0.15,0.23,0.31,0.32c0.22,0.12,0.45,0.18,0.7,0.18l0.36,0l0,0.28l-4.41,0l0,-0.28l0.36,0c0.42,0,0.72,-0.12,0.92,-0.37c0.12,-0.16,0.19,-0.55,0.19,-1.17l0,-3.14l-4.79,0l0,3.14c0,0.52,0.03,0.86,0.09,1.03c0.05,0.12,0.15,0.23,0.31,0.32c0.21,0.12,0.44,0.18,0.69,0.18l0.37,0l0,0.28l-4.42,0l0,-0.28l0.36,0c0.42,0,0.73,-0.12,0.92,-0.37c0.12,-0.16,0.18,-0.55,0.18,-1.17l0,-6.66c0,-0.52,-0.03,-0.87,-0.09,-1.04c-0.05,-0.12,-0.15,-0.23,-0.31,-0.32c-0.22,-0.12,-0.45,-0.18,-0.7,-0.18l-0.36,0l0,-0.28l4.42,0l0,0.28l-0.37,0c-0.24,0,-0.47,0.05,-0.69,0.17c-0.15,0.08,-0.26,0.2,-0.32,0.36c-0.06,0.16,-0.09,0.5,-0.09,1l0,2.95m8.93,8.13l0,-0.33c0.52,-0.17,0.92,-0.44,1.21,-0.8c0.28,-0.36,0.43,-0.74,0.43,-1.15c0,-0.09,-0.02,-0.17,-0.06,-0.24c-0.03,-0.04,-0.07,-0.06,-0.1,-0.06c-0.05,0,-0.17,0.05,-0.36,0.15c-0.09,0.04,-0.18,0.06,-0.28,0.06c-0.24,0,-0.44,-0.07,-0.59,-0.22c-0.14,-0.14,-0.22,-0.35,-0.22,-0.6c0,-0.24,0.09,-0.46,0.28,-0.63c0.19,-0.17,0.42,-0.26,0.69,-0.26c0.33,0,0.63,0.14,0.89,0.43c0.26,0.29,0.39,0.67,0.39,1.16c0,0.52,-0.18,1,-0.54,1.45c-0.36,0.44,-0.93,0.8,-1.72,1.06m13.19,-6.05l-3.99,0l-0.7,1.63c-0.17,0.4,-0.25,0.7,-0.25,0.89c0,0.15,0.07,0.29,0.22,0.41c0.14,0.11,0.47,0.19,0.97,0.23l0,0.28l-3.25,0l0,-0.28c0.43,-0.07,0.71,-0.17,0.83,-0.29c0.25,-0.24,0.54,-0.73,0.86,-1.48l3.63,-8.5l0.26,0l3.59,8.59c0.28,0.69,0.55,1.13,0.78,1.34c0.23,0.2,0.56,0.32,0.98,0.34l0,0.28l-4.07,0l0,-0.28c0.41,-0.02,0.68,-0.08,0.83,-0.2c0.14,-0.11,0.21,-0.25,0.21,-0.42c0,-0.22,-0.1,-0.57,-0.3,-1.05l-0.62,-1.48m-0.21,-0.56l-1.75,-4.17l-1.79,4.17l3.54,0m8.74,-6.8l-3.74,11.04l-0.6,0l3.74,-11.04l0.6,0m2.48,5.13c0.5,-0.5,0.8,-0.79,0.89,-0.87c0.22,-0.19,0.47,-0.34,0.73,-0.44c0.26,-0.1,0.52,-0.16,0.78,-0.16c0.43,0,0.81,0.12,1.12,0.38c0.31,0.25,0.52,0.62,0.63,1.1c0.52,-0.6,0.96,-1,1.32,-1.19c0.36,-0.19,0.73,-0.28,1.11,-0.28c0.37,0,0.69,0.09,0.98,0.28c0.28,0.19,0.51,0.5,0.68,0.93c0.11,0.29,0.16,0.75,0.16,1.38l0,3c0,0.43,0.03,0.73,0.09,0.89c0.05,0.11,0.14,0.2,0.28,0.28c0.13,0.07,0.36,0.11,0.67,0.11l0,0.27l-3.44,0l0,-0.27l0.14,0c0.29,0,0.53,-0.05,0.7,-0.17c0.11,-0.08,0.2,-0.21,0.25,-0.38c0.02,-0.08,0.03,-0.33,0.03,-0.73l0,-3c0,-0.56,-0.06,-0.96,-0.2,-1.2c-0.19,-0.32,-0.51,-0.48,-0.95,-0.48c-0.26,0,-0.53,0.06,-0.81,0.2c-0.27,0.13,-0.6,0.38,-0.98,0.75l-0.01,0.08l0.01,0.32l0,3.32c0,0.47,0.02,0.77,0.08,0.89c0.05,0.11,0.15,0.21,0.3,0.29c0.14,0.07,0.39,0.11,0.75,0.11l0,0.27l-3.52,0l0,-0.27c0.38,0,0.65,-0.04,0.79,-0.13c0.14,-0.09,0.24,-0.22,0.3,-0.41c0.02,-0.08,0.03,-0.33,0.03,-0.75l0,-3c0,-0.56,-0.08,-0.97,-0.25,-1.22c-0.22,-0.32,-0.53,-0.48,-0.93,-0.48c-0.27,0,-0.54,0.07,-0.81,0.22c-0.42,0.22,-0.74,0.47,-0.97,0.75l0,3.74c0,0.45,0.03,0.75,0.09,0.89c0.06,0.13,0.15,0.23,0.28,0.3c0.12,0.06,0.37,0.1,0.75,0.1l0,0.27l-3.45,0l0,-0.27c0.31,0,0.54,-0.03,0.67,-0.1c0.12,-0.06,0.22,-0.17,0.28,-0.32c0.06,-0.14,0.09,-0.44,0.09,-0.87l0,-2.66c0,-0.76,-0.02,-1.26,-0.06,-1.48c-0.03,-0.16,-0.09,-0.28,-0.16,-0.34c-0.07,-0.06,-0.18,-0.09,-0.31,-0.09c-0.14,0,-0.31,0.03,-0.51,0.11l-0.11,-0.27l2.1,-0.85l0.32,0l0,1.48" fill="#000000" stroke="none" fill-opacity="1"/>
<path d="m45.57,227.73c0,-0.95,0.14,-1.77,0.43,-2.45c0.28,-0.68,0.66,-1.19,1.14,-1.53c0.36,-0.26,0.75,-0.39,1.14,-0.39c0.63,0,1.21,0.32,1.72,0.97c0.63,0.8,0.95,1.9,0.95,3.28c0,0.96,-0.13,1.79,-0.41,2.46c-0.27,0.67,-0.63,1.16,-1.06,1.47c-0.43,0.3,-0.85,0.45,-1.25,0.45c-0.79,0,-1.45,-0.46,-1.98,-1.4c-0.44,-0.79,-0.67,-1.74,-0.67,-2.86m1.2,0.15c0,1.14,0.14,2.08,0.42,2.81c0.23,0.61,0.58,0.91,1.04,0.91c0.22,0,0.45,-0.09,0.68,-0.29c0.23,-0.19,0.41,-0.53,0.54,-0.99c0.18,-0.7,0.28,-1.7,0.28,-2.98c0,-0.95,-0.09,-1.74,-0.29,-2.38c-0.14,-0.47,-0.33,-0.8,-0.57,-1c-0.16,-0.13,-0.37,-0.2,-0.6,-0.2c-0.27,0,-0.52,0.12,-0.74,0.37c-0.29,0.34,-0.49,0.87,-0.6,1.6c-0.1,0.73,-0.16,1.44,-0.16,2.15" fill="#000000" stroke="none" fill-opacity="1"/>
<path d="m105.57,230.24l-0.58,1.6l-4.92,0l0,-0.22c1.44,-1.32,2.46,-2.39,3.05,-3.23c0.59,-0.83,0.88,-1.6,0.88,-2.29c0,-0.52,-0.16,-0.96,-0.48,-1.3c-0.32,-0.34,-0.71,-0.51,-1.16,-0.51c-0.41,0,-0.77,0.12,-1.1,0.35c-0.32,0.23,-0.56,0.59,-0.72,1.05l-0.22,0c0.1,-0.75,0.36,-1.34,0.79,-1.74c0.42,-0.4,0.95,-0.6,1.59,-0.6c0.67,0,1.24,0.21,1.69,0.65c0.45,0.43,0.67,0.94,0.67,1.53c0,0.42,-0.09,0.84,-0.29,1.26c-0.3,0.66,-0.79,1.36,-1.47,2.11c-1.02,1.11,-1.65,1.78,-1.91,2.01l2.17,0c0.44,0,0.75,-0.01,0.93,-0.04c0.17,-0.03,0.33,-0.09,0.48,-0.2c0.14,-0.1,0.26,-0.24,0.37,-0.42l0.22,0m2.09,0.41c0.19,0,0.35,0.06,0.48,0.2c0.13,0.13,0.19,0.29,0.19,0.48c0,0.18,-0.06,0.34,-0.2,0.48c-0.13,0.13,-0.29,0.2,-0.48,0.2c-0.18,0,-0.34,-0.06,-0.48,-0.2c-0.13,-0.13,-0.2,-0.29,-0.2,-0.48c0,-0.19,0.06,-0.35,0.2,-0.48c0.13,-0.13,0.29,-0.19,0.48,-0.19m7.09,-7.14l-0.47,1.04l-2.51,0l-0.54,1.11c1.08,0.16,1.94,0.56,2.58,1.21c0.54,0.55,0.81,1.21,0.81,1.96c0,0.43,-0.08,0.84,-0.26,1.21c-0.17,0.37,-0.4,0.69,-0.67,0.95c-0.27,0.26,-0.57,0.47,-0.9,0.63c-0.47,0.22,-0.95,0.33,-1.45,0.33c-0.5,0,-0.86,-0.08,-1.09,-0.25c-0.22,-0.17,-0.34,-0.35,-0.34,-0.56c0,-0.11,0.04,-0.21,0.14,-0.3c0.09,-0.08,0.21,-0.13,0.35,-0.13c0.1,0,0.2,0.01,0.27,0.04c0.08,0.03,0.21,0.11,0.4,0.25c0.3,0.21,0.61,0.31,0.93,0.31c0.47,0,0.9,-0.18,1.26,-0.54c0.36,-0.36,0.54,-0.8,0.54,-1.32c0,-0.5,-0.16,-0.97,-0.48,-1.41c-0.32,-0.43,-0.77,-0.77,-1.34,-1.01c-0.44,-0.18,-1.05,-0.29,-1.82,-0.31l1.59,-3.24l2.99,0m1.84,6.32l2.17,-2.17l-2.16,-2.16l0.35,-0.35l2.16,2.16l2.16,-2.16l0.34,0.35l-2.16,2.16l2.17,2.17l-0.35,0.35l-2.17,-2.17l-2.17,2.17l-0.35,-0.35m7.56,-5.5l2.03,-0.99l0.2,0l0,7.04c0,0.46,0.01,0.75,0.05,0.87c0.03,0.11,0.12,0.2,0.24,0.26c0.12,0.06,0.37,0.09,0.75,0.1l0,0.22l-3.13,0l0,-0.22c0.39,0,0.64,-0.04,0.76,-0.1c0.11,-0.05,0.19,-0.13,0.23,-0.23c0.04,-0.1,0.06,-0.4,0.06,-0.9l0,-4.5c0,-0.6,-0.02,-0.99,-0.06,-1.16c-0.02,-0.13,-0.08,-0.22,-0.15,-0.28c-0.07,-0.06,-0.16,-0.09,-0.27,-0.09c-0.15,0,-0.36,0.06,-0.63,0.19l-0.09,-0.19m5.27,3.4c0,-0.95,0.14,-1.77,0.43,-2.45c0.28,-0.68,0.66,-1.19,1.14,-1.53c0.36,-0.26,0.75,-0.39,1.14,-0.39c0.63,0,1.21,0.32,1.72,0.97c0.63,0.8,0.95,1.9,0.95,3.28c0,0.96,-0.13,1.79,-0.41,2.46c-0.27,0.67,-0.63,1.16,-1.06,1.47c-0.43,0.3,-0.85,0.45,-1.25,0.45c-0.79,0,-1.45,-0.46,-1.98,-1.4c-0.44,-0.79,-0.67,-1.74,-0.67,-2.86m1.2,0.15c0,1.14,0.14,2.08,0.42,2.81c0.23,0.61,0.58,0.91,1.04,0.91c0.22,0,0.45,-0.09,0.68,-0.29c0.23,-0.19,0.41,-0.53,0.54,-0.99c0.18,-0.7,0.28,-1.7,0.28,-2.98c0,-0.95,-0.09,-1.74,-0.29,-2.38c-0.14,-0.47,-0.33,-0.8,-0.57,-1c-0.16,-0.13,-0.37,-0.2,-0.6,-0.2c-0.27,0,-0.52,0.12,-0.74,0.37c-0.29,0.34,-0.49,0.87,-0.6,1.6c-0.1,0.73,-0.16,1.44,-0.16,2.15" fill="#000000" stroke="none" fill-opacity="1"/>
<path d="m138.83,224.27l0,0.52l-0.67,0l0,1.32l-0.61,0l0,-1.32l-2.13,0l0,-0.47l2.33,-3.33l0.4,0l0,3.28l0.67,0m-1.28,0l0,-2.49l-1.76,2.49l1.76,0" fill="#000000" stroke="none" fill-opacity="1"/>
<path d="m181.2,223.51l-0.47,1.04l-2.51,0l-0.54,1.11c1.08,0.16,1.94,0.56,2.58,1.21c0.54,0.55,0.81,1.21,0.81,1.96c0,0.43,-0.08,0.84,-0.26,1.21c-0.17,0.37,-0.4,0.69,-0.67,0.95c-0.27,0.26,-0.57,0.47,-0.9,0.63c-0.47,0.22,-0.95,0.33,-1.45,0.33c-0.5,0,-0.86,-0.08,-1.09,-0.25c-0.22,-0.17,-0.34,-0.35,-0.34,-0.56c0,-0.11,0.04,-0.21,0.14,-0.3c0.09,-0.08,0.21,-0.13,0.35,-0.13c0.1,0,0.2,0.01,0.27,0.04c0.08,0.03,0.21,0.11,0.4,0.25c0.3,0.21,0.61,0.31,0.93,0.31c0.47,0,0.9,-0.18,1.26,-0.54c0.36,-0.36,0.54,-0.8,0.54,-1.32c0,-0.5,-0.16,-0.97,-0.48,-1.41c-0.32,-0.43,-0.77,-0.77,-1.34,-1.01c-0.44,-0.18,-1.05,-0.29,-1.82,-0.31l1.59,-3.24l2.99,0m1.84,6.32l2.17,-2.17l-2.16,-2.16l0.35,-0.35l2.16,2.16l2.16,-2.16l0.34,0.35l-2.16,2.16l2.17,2.17l-0.35,0.35l-2.17,-2.17l-2.17,2.17l-0.35,-0.35m7.56,-5.5l2.03,-0.99l0.2,0l0,7.04c0,0.46,0.01,0.75,0.05,0.87c0.03,0.11,0.12,0.2,0.24,0.26c0.12,0.06,0.37,0.09,0.75,0.1l0,0.22l-3.13,0l0,-0.22c0.39,0,0.64,-0.04,0.76,-0.1c0.11,-0.05,0.19,-0.13,0.23,-0.23c0.04,-0.1,0.06,-0.4,0.06,-0.9l0,-4.5c0,-0.6,-0.02,-0.99,-0.06,-1.16c-0.02,-0.13,-0.08,-0.22,-0.15,-0.28c-0.07,-0.06,-0.16,-0.09,-0.27,-0.09c-0.15,0,-0.36,0.06,-0.63,0.19l-0.09,-0.19m5.27,3.4c0,-0.95,0.14,-1.77,0.43,-2.45c0.28,-0.68,0.66,-1.19,1.14,-1.53c0.36,-0.26,0.75,-0.39,1.14,-0.39c0.63,0,1.21,0.32,1.72,0.97c0.63,0.8,0.95,1.9,0.95,3.28c0,0.96,-0.13,1.79,-0.41,2.46c-0.27,0.67,-0.63,1.16,-1.06,1.47c-0.43,0.3,-0.85,0.45,-1.25,0.45c-0.79,0,-1.45,-0.46,-1.98,-1.4c-0.44,-0.79,-0.67,-1.74,-0.67,-2.86m1.2,0.15c0,1.14,0.14,2.08,0.42,2.81c0.23,0.61,0.58,0.91,1.04,0.91c0.22,0,0.45,-0.09,0.68,-0.29c0.23,-0.19,0.41,-0.53,0.54,-0.99c0.18,-0.7,0.28,-1.7,0.28,-2.98c0,-0.95,-0.09,-1.74,-0.29,-2.38c-0.14,-0.47,-0.33,-0.8,-0.57,-1c-0.16,-0.13,-0.37,-0.2,-0.6,-0.2c-0.27,0,-0.52,0.12,-0.74,0.37c-0.29,0.34,-0.49,0.87,-0.6,1.6c-0.1,0.73,-0.16,1.44,-0.16,2.15" fill="#000000" stroke="none" fill-opacity="1"/>
<path d="m205.26,224.27l0,0.52l-0.67,0l0,1.32l-0.61,0l0,-1.32l-2.13,0l0,-0.47l2.33,-3.33l0.4,0l0,3.28l0.67,0m-1.28,0l0,-2.49l-1.76,2.49l1.76,0" fill="#000000" stroke="none" fill-opacity="1"/>
<path d="m243.42,223.51l4.47,0l0,0.23l-2.78,8.28l-0.68,0l2.49,-7.51l-2.29,0c-0.46,0,-0.79,0.05,-0.99,0.16c-0.34,0.18,-0.62,0.47,-0.83,0.87l-0.17,-0.06l0.79,-1.97m6.6,7.14c0.19,0,0.35,0.06,0.48,0.2c0.13,0.13,0.19,0.29,0.19,0.48c0,0.18,-0.06,0.34,-0.2,0.48c-0.13,0.13,-0.29,0.2,-0.48,0.2c-0.18,0,-0.34,-0.06,-0.48,-0.2c-0.13,-0.13,-0.2,-0.29,-0.2,-0.48c0,-0.19,0.06,-0.35,0.2,-0.48c0.13,-0.13,0.29,-0.19,0.48,-0.19m7.09,-7.14l-0.47,1.04l-2.51,0l-0.54,1.11c1.08,0.16,1.94,0.56,2.58,1.21c0.54,0.55,0.81,1.21,0.81,1.96c0,0.43,-0.08,0.84,-0.26,1.21c-0.17,0.37,-0.4,0.69,-0.67,0.95c-0.27,0.26,-0.57,0.47,-0.9,0.63c-0.47,0.22,-0.95,0.33,-1.45,0.33c-0.5,0,-0.86,-0.08,-1.09,-0.25c-0.22,-0.17,-0.34,-0.35,-0.34,-0.56c0,-0.11,0.04,-0.21,0.14,-0.3c0.09,-0.08,0.21,-0.13,0.35,-0.13c0.1,0,0.2,0.01,0.27,0.04c0.08,0.03,0.21,0.11,0.4,0.25c0.3,0.21,0.61,0.31,0.93,0.31c0.47,0,0.9,-0.18,1.26,-0.54c0.36,-0.36,0.54,-0.8,0.54,-1.32c0,-0.5,-0.16,-0.97,-0.48,-1.41c-0.32,-0.43,-0.77,-0.77,-1.34,-1.01c-0.44,-0.18,-1.05,-0.29,-1.82,-0.31l1.59,-3.24l2.99,0m1.84,6.32l2.17,-2.17l-2.16,-2.16l0.35,-0.35l2.16,2.16l2.16,-2.16l0.34,0.35l-2.16,2.16l2.17,2.17l-0.35,0.35l-2.17,-2.17l-2.17,2.17l-0.35,-0.35m7.56,-5.5l2.03,-0.99l0.2,0l0,7.04c0,0.46,0.01,0.75,0.05,0.87c0.03,0.11,0.12,0.2,0.24,0.26c0.12,0.06,0.37,0.09,0.75,0.1l0,0.22l-3.13,0l0,-0.22c0.39,0,0.64,-0.04,0.76,-0.1c0.11,-0.05,0.19,-0.13,0.23,-0.23c0.04,-0.1,0.06,-0.4,0.06,-0.9l0,-4.5c0,-0.6,-0.02,-0.99,-0.06,-1.16c-0.02,-0.13,-0.08,-0.22,-0.15,-0.28c-0.07,-0.06,-0.16,-0.09,-0.27,-0.09c-0.15,0,-0.36,0.06,-0.63,0.19l-0.09,-0.19m5.27,3.4c0,-0.95,0.14,-1.77,0.43,-2.45c0.28,-0.68,0.66,-1.19,1.14,-1.53c0.36,-0.26,0.75,-0.39,1.14,-0.39c0.63,0,1.21,0.32,1.72,0.97c0.63,0.8,0.95,1.9,0.95,3.28c0,0.96,-0.13,1.79,-0.41,2.46c-0.27,0.67,-0.63,1.16,-1.06,1.47c-0.43,0.3,-0.85,0.45,-1.25,0.45c-0.79,0,-1.45,-0.46,-1.98,-1.4c-0.44,-0.79,-0.67,-1.74,-0.67,-2.86m1.2,0.15c0,1.14,0.14,2.08,0.42,2.81c0.23,0.61,0.58,0.91,1.04,0.91c0.22,0,0.45,-0.09,0.68,-0.29c0.23,-0.19,0.41,-0.53,0.54,-0.99c0.18,-0.7,0.28,-1.7,0.28,-2.98c0,-0.95,-0.09,-1.74,-0.29,-2.38c-0.14,-0.47,-0.33,-0.8,-0.57,-1c-0.16,-0.13,-0.37,-0.2,-0.6,-0.2c-0.27,0,-0.52,0.12,-0.74,0.37c-0.29,0.34,-0.49,0.87,-0.6,1.6c-0.1,0.73,-0.16,1.44,-0.16,2.15" fill="#000000" stroke="none" fill-opacity="1"/>
<path d="m281.19,224.27l0,0.52l-0.67,0l0,1.32l-0.61,0l0,-1.32l-2.13,0l0,-0.47l2.33,-3.33l0.4,0l0,3.28l0.67,0m-1.28,0l0,-2.49l-1.76,2.49l1.76,0" fill="#000000" stroke="none" fill-opacity="1"/>
<path d="m326.26,224.33l2.03,-0.99l0.2,0l0,7.04c0,0.46,0.01,0.75,0.05,0.87c0.03,0.11,0.12,0.2,0.24,0.26c0.12,0.06,0.37,0.09,0.75,0.1l0,0.22l-3.13,0l0,-0.22c0.39,0,0.64,-0.04,0.76,-0.1c0.11,-0.05,0.19,-0.13,0.23,-0.23c0.04,-0.1,0.06,-0.4,0.06,-0.9l0,-4.5c0,-0.6,-0.02,-0.99,-0.06,-1.16c-0.02,-0.13,-0.08,-0.22,-0.15,-0.28c-0.07,-0.06,-0.16,-0.09,-0.27,-0.09c-0.15,0,-0.36,0.06,-0.63,0.19l-0.09,-0.19m5.27,3.4c0,-0.95,0.14,-1.77,0.43,-2.45c0.28,-0.68,0.66,-1.19,1.14,-1.53c0.36,-0.26,0.75,-0.39,1.14,-0.39c0.63,0,1.21,0.32,1.72,0.97c0.63,0.8,0.95,1.9,0.95,3.28c0,0.96,-0.13,1.79,-0.41,2.46c-0.27,0.67,-0.63,1.16,-1.06,1.47c-0.43,0.3,-0.85,0.45,-1.25,0.45c-0.79,0,-1.45,-0.46,-1.98,-1.4c-0.44,-0.79,-0.67,-1.74,-0.67,-2.86m1.2,0.15c0,1.14,0.14,2.08,0.42,2.81c0.23,0.61,0.58,0.91,1.04,0.91c0.22,0,0.45,-0.09,0.68,-0.29c0.23,-0.19,0.41,-0.53,0.54,-0.99c0.18,-0.7,0.28,-1.7,0.28,-2.98c0,-0.95,-0.09,-1.74,-0.29,-2.38c-0.14,-0.47,-0.33,-0.8,-0.57,-1c-0.16,-0.13,-0.37,-0.2,-0.6,-0.2c-0.27,0,-0.52,0.12,-0.74,0.37c-0.29,0.34,-0.49,0.87,-0.6,1.6c-0.1,0.73,-0.16,1.44,-0.16,2.15" fill="#000000" stroke="none" fill-opacity="1"/>
<path d="m340.68,221.1l-0.28,0.63l-1.51,0l-0.33,0.67c0.65,0.09,1.17,0.34,1.55,0.73c0.32,0.33,0.49,0.73,0.49,1.18c0,0.26,-0.05,0.5,-0.16,0.73c-0.1,0.22,-0.24,0.41,-0.4,0.57c-0.16,0.15,-0.34,0.28,-0.54,0.38c-0.28,0.13,-0.57,0.2,-0.87,0.2c-0.3,0,-0.52,-0.05,-0.65,-0.15c-0.13,-0.1,-0.2,-0.21,-0.2,-0.33c0,-0.06,0.02,-0.13,0.08,-0.18c0.05,-0.05,0.12,-0.07,0.21,-0.07c0.06,0,0.12,0,0.16,0.02c0.04,0.01,0.13,0.07,0.24,0.15c0.18,0.12,0.37,0.19,0.56,0.19c0.28,0,0.54,-0.1,0.76,-0.32c0.21,-0.21,0.32,-0.48,0.32,-0.79c0,-0.3,-0.09,-0.58,-0.29,-0.85c-0.19,-0.26,-0.46,-0.46,-0.8,-0.61c-0.26,-0.11,-0.63,-0.17,-1.1,-0.19l0.96,-1.95l1.8,0" fill="#000000" stroke="none" fill-opacity="1"/>
<path d="m382.84,224.33l2.03,-0.99l0.2,0l0,7.04c0,0.46,0.01,0.75,0.05,0.87c0.03,0.11,0.12,0.2,0.24,0.26c0.12,0.06,0.37,0.09,0.75,0.1l0,0.22l-3.13,0l0,-0.22c0.39,0,0.64,-0.04,0.76,-0.1c0.11,-0.05,0.19,-0.13,0.23,-0.23c0.04,-0.1,0.06,-0.4,0.06,-0.9l0,-4.5c0,-0.6,-0.02,-0.99,-0.06,-1.16c-0.02,-0.13,-0.08,-0.22,-0.15,-0.28c-0.07,-0.06,-0.16,-0.09,-0.27,-0.09c-0.15,0,-0.36,0.06,-0.63,0.19l-0.09,-0.19m6.39,6.33c0.19,0,0.35,0.06,0.48,0.2c0.13,0.13,0.19,0.29,0.19,0.48c0,0.18,-0.06,0.34,-0.2,0.48c-0.13,0.13,-0.29,0.2,-0.48,0.2c-0.18,0,-0.34,-0.06,-0.48,-0.2c-0.13,-0.13,-0.2,-0.29,-0.2,-0.48c0,-0.19,0.06,-0.35,0.2,-0.48c0.13,-0.13,0.29,-0.19,0.48,-0.19m7.4,-0.41l-0.58,1.6l-4.92,0l0,-0.22c1.44,-1.32,2.46,-2.39,3.05,-3.23c0.59,-0.83,0.88,-1.6,0.88,-2.29c0,-0.52,-0.16,-0.96,-0.48,-1.3c-0.32,-0.34,-0.71,-0.51,-1.16,-0.51c-0.41,0,-0.77,0.12,-1.1,0.35c-0.32,0.23,-0.56,0.59,-0.72,1.05l-0.22,0c0.1,-0.75,0.36,-1.34,0.79,-1.74c0.42,-0.4,0.95,-0.6,1.59,-0.6c0.67,0,1.24,0.21,1.69,0.65c0.45,0.43,0.67,0.94,0.67,1.53c0,0.42,-0.09,0.84,-0.29,1.26c-0.3,0.66,-0.79,1.36,-1.47,2.11c-1.02,1.11,-1.65,1.78,-1.91,2.01l2.17,0c0.44,0,0.75,-0.01,0.93,-0.04c0.17,-0.03,0.33,-0.09,0.48,-0.2c0.14,-0.1,0.26,-0.24,0.37,-0.42l0.22,0m5.99,-6.73l-0.47,1.04l-2.51,0l-0.54,1.11c1.08,0.16,1.94,0.56,2.58,1.21c0.54,0.55,0.81,1.21,0.81,1.96c0,0.43,-0.08,0.84,-0.26,1.21c-0.17,0.37,-0.4,0.69,-0.67,0.95c-0.27,0.26,-0.57,0.47,-0.9,0.63c-0.47,0.22,-0.95,0.33,-1.45,0.33c-0.5,0,-0.86,-0.08,-1.09,-0.25c-0.22,-0.17,-0.34,-0.35,-0.34,-0.56c0,-0.11,0.04,-0.21,0.14,-0.3c0.09,-0.08,0.21,-0.13,0.35,-0.13c0.1,0,0.2,0.01,0.27,0.04c0.08,0.03,0.21,0.11,0.4,0.25c0.3,0.21,0.61,0.31,0.93,0.31c0.47,0,0.9,-0.18,1.26,-0.54c0.36,-0.36,0.54,-0.8,0.54,-1.32c0,-0.5,-0.16,-0.97,-0.48,-1.41c-0.32,-0.43,-0.77,-0.77,-1.34,-1.01c-0.44,-0.18,-1.05,-0.29,-1.82,-0.31l1.59,-3.24l2.99,0m1.84,6.32l2.17,-2.17l-2.16,-2.16l0.35,-0.35l2.16,2.16l2.16,-2.16l0.34,0.35l-2.16,2.16l2.17,2.17l-0.35,0.35l-2.17,-2.17l-2.17,2.17l-0.35,-0.35m7.56,-5.5l2.03,-0.99l0.2,0l0,7.04c0,0.46,0.01,0.75,0.05,0.87c0.03,0.11,0.12,0.2,0.24,0.26c0.12,0.06,0.37,0.09,0.75,0.1l0,0.22l-3.13,0l0,-0.22c0.39,0,0.64,-0.04,0.76,-0.1c0.11,-0.05,0.19,-0.13,0.23,-0.23c0.04,-0.1,0.06,-0.4,0.06,-0.9l0,-4.5c0,-0.6,-0.02,-0.99,-0.06,-1.16c-0.02,-0.13,-0.08,-0.22,-0.15,-0.28c-0.07,-0.06,-0.16,-0.09,-0.27,-0.09c-0.15,0,-0.36,0.06,-0.63,0.19l-0.09,-0.19m5.27,3.4c0,-0.95,0.14,-1.77,0.43,-2.45c0.28,-0.68,0.66,-1.19,1.14,-1.53c0.36,-0.26,0.75,-0.39,1.14,-0.39c0.63,0,1.21,0.32,1.72,0.97c0.63,0.8,0.95,1.9,0.95,3.28c0,0.96,-0.13,1.79,-0.41,2.46c-0.27,0.67,-0.63,1.16,-1.06,1.47c-0.43,0.3,-0.85,0.45,-1.25,0.45c-0.79,0,-1.45,-0.46,-1.98,-1.4c-0.44,-0.79,-0.67,-1.74,-0.67,-2.86m1.2,0.15c0,1.14,0.14,2.08,0.42,2.81c0.23,0.61,0.58,0.91,1.04,0.91c0.22,0,0.45,-0.09,0.68,-0.29c0.23,-0.19,0.41,-0.53,0.54,-0.99c0.18,-0.7,0.28,-1.7,0.28,-2.98c0,-0.95,-0.09,-1.74,-0.29,-2.38c-0.14,-0.47,-0.33,-0.8,-0.57,-1c-0.16,-0.13,-0.37,-0.2,-0.6,-0.2c-0.27,0,-0.52,0.12,-0.74,0.37c-0.29,0.34,-0.49,0.87,-0.6,1.6c-0.1,0.73,-0.16,1.44,-0.16,2.15" fill="#000000" stroke="none" fill-opacity="1"/>
<path d="m426.46,221.1l-0.28,0.63l-1.51,0l-0.33,0.67c0.65,0.09,1.17,0.34,1.55,0.73c0.32,0.33,0.49,0.73,0.49,1.18c0,0.26,-0.05,0.5,-0.16,0.73c-0.1,0.22,-0.24,0.41,-0.4,0.57c-0.16,0.15,-0.34,0.28,-0.54,0.38c-0.28,0.13,-0.57,0.2,-0.87,0.2c-0.3,0,-0.52,-0.05,-0.65,-0.15c-0.13,-0.1,-0.2,-0.21,-0.2,-0.33c0,-0.06,0.02,-0.13,0.08,-0.18c0.05,-0.05,0.12,-0.07,0.21,-0.07c0.06,0,0.12,0,0.16,0.02c0.04,0.01,0.13,0.07,0.24,0.15c0.18,0.12,0.37,0.19,0.56,0.19c0.28,0,0.54,-0.1,0.76,-0.32c0.21,-0.21,0.32,-0.48,0.32,-0.79c0,-0.3,-0.09,-0.58,-0.29,-0.85c-0.19,-0.26,-0.46,-0.46,-0.8,-0.61c-0.26,-0.11,-0.63,-0.17,-1.1,-0.19l0.96,-1.95l1.8,0" fill="#000000" stroke="none" fill-opacity="1"/>
</g>
<g fill="none" stroke-linecap="butt" stroke-width="0.48">
<path d="M431.21,217.05l0,-210.69"/>
<path d="M431.21,217.05l-2.91,0M431.21,208.62l-2.91,0M431.21,200.19l-2.91,0M431.21,191.77l-2.91,0M431.21,183.34l-2.91,0M431.21,174.91l-2.91,0M431.21,166.48l-2.91,0M431.21,158.05l-2.91,0M431.21,149.63l-2.91,0M431.21,141.2l-2.91,0M431.21,132.77l-2.91,0M431.21,124.34l-2.91,0M431.21,115.92l-2.91,0M431.21,107.49l-2.91,0M431.21,99.06l-2.91,0M431.21,90.63l-2.91,0M431.21,82.2l-2.91,0M431.21,73.78l-2.91,0M431.21,65.35l-2.91,0M431.21,56.92l-2.91,0M431.21,48.49l-2.91,0M431.21,40.06l-2.91,0M431.21,31.64l-2.91,0M431.21,23.21l-2.91,0M431.21,14.78l-2.91,0M431.21,6.35l-2.91,0"/>
<path d="M431.21,217.05l-5.83,0M431.21,174.91l-5.83,0M431.21,132.77l-5.83,0M431.21,90.63l-5.83,0M431.21,48.49l-5.83,0M431.21,6.35l-5.83,0"/>
<path d="M46.85,5.51l384.36,0"/>
<path d="M48.27,5.51l0,2.91M62.5,5.51l0,2.91M76.74,5.51l0,2.91M90.98,5.51l0,2.91M105.21,5.51l0,2.91M119.45,5.51l0,2.91M133.68,5.51l0,2.91M147.92,5.51l0,2.91M162.16,5.51l0,2.91M176.39,5.51l0,2.91M190.63,5.51l0,2.91M204.86,5.51l0,2.91M219.1,5.51l0,2.91M233.33,5.51l0,2.91M247.57,5.51l0,2.91M261.81,5.51l0,2.91M276.04,5.51l0,2.91M290.28,5.51l0,2.91M304.51,5.51l0,2.91M318.75,5.51l0,2.91M332.98,5.51l0,2.91M347.22,5.51l0,2.91M361.46,5.51l0,2.91M375.69,5.51l0,2.91M389.93,5.51l0,2.91M404.16,5.51l0,2.91M418.4,5.51l0,2.91"/>
<path d="M48.27,5.51l0,5.83M119.45,5.51l0,5.83M190.63,5.51l0,5.83M261.81,5.51l0,5.83M332.98,5.51l0,5.83M404.16,5.51l0,5.83"/>
</g>
</g>
</g>
</svg>
