<?xml version="1.0" standalone="no"?>
<!DOCTYPE svg PUBLIC "-//W3C//DTD SVG 1.1//EN"
  "http://www.w3.org/Graphics/SVG/1.1/DTD/svg11.dtd">
<svg width="413.38px" height="413.38px" version="1.1"
    xmlns="http://www.w3.org/2000/svg"
    xmlns:xlink="http://www.w3.org/1999/xlink">
<desc>Veusz output document</desc>
<defs>
<clipPath id="c0">
<path d="m0,0l413.38,0l0,413.38l-413.38,0l0,-413.38"/>
</clipPath>
<clipPath id="c1">
<path d="m304.92,248.83l27.55,0l0,14.3l-27.55,0l0,-14.3"/>
</clipPath>
<clipPath id="c2">
<path d="m46.85,5.51l361.02,0l0,361.02l-361.02,0l0,-361.02"/>
</clipPath>
</defs>
<g stroke-linejoin="bevel" stroke-linecap="square" stroke="#000000" fill-rule="evenodd">
<g clip-path="url(#c0)">
<g fill="#ffffff" stroke-width="0.48">
<path d="m46.85,5.51l361.02,0l0,361.02l-361.02,0l0,-361.02"/>
</g>
<g fill="#ffffff" stroke="none" stroke-width="0.1">
<path d="m290.62,241.68l91.55,0l0,28.6l-91.55,0l0,-28.6" id="p0"/>
</g>
<g fill="none" stroke-width="0.48">
<use xlink:href="#p0"/>
</g>
</g>
<g clip-path="url(#c1)">
<g fill="none" stroke="#e41a1c" stroke-width="0.48">
<path d="M318.7,255.98l0,0"/>
</g>
<g fill="none" stroke="#e41a1c" stroke-width="1.94">
<path d="M304.92,255.98l27.55,0"/>
</g>
</g>
<g clip-path="url(#c0)">
<g fill="none" stroke-width="0.1">
<path d="m350.67,259.9l0,0.22l-3.57,0l0,-0.22l0.29,0c0.34,0,0.59,-0.1,0.75,-0.3c0.09,-0.13,0.14,-0.44,0.14,-0.94l0,-5.38c0,-0.42,-0.02,-0.7,-0.08,-0.83c-0.04,-0.1,-0.12,-0.19,-0.25,-0.26c-0.18,-0.09,-0.36,-0.14,-0.56,-0.14l-0.29,0l0,-0.22l3.57,0l0,0.22l-0.3,0c-0.34,0,-0.58,0.1,-0.74,0.3c-0.1,0.13,-0.15,0.44,-0.15,0.94l0,5.38c0,0.42,0.02,0.7,0.08,0.83c0.04,0.1,0.12,0.19,0.25,0.26c0.17,0.09,0.36,0.14,0.55,0.14l0.3,0m2.35,-5.57l0,1.26c0.47,-0.84,0.95,-1.26,1.45,-1.26c0.22,0,0.41,0.06,0.55,0.2c0.14,0.13,0.22,0.29,0.22,0.47c0,0.16,-0.05,0.29,-0.16,0.4c-0.1,0.11,-0.23,0.16,-0.38,0.16c-0.14,0,-0.3,-0.07,-0.48,-0.21c-0.17,-0.14,-0.31,-0.21,-0.39,-0.21c-0.07,0,-0.15,0.04,-0.23,0.12c-0.18,0.16,-0.37,0.44,-0.57,0.83l0,2.7c0,0.31,0.03,0.54,0.11,0.7c0.05,0.11,0.14,0.2,0.28,0.27c0.13,0.07,0.33,0.11,0.58,0.11l0,0.22l-2.88,0l0,-0.22c0.28,0,0.5,-0.04,0.63,-0.13c0.1,-0.06,0.17,-0.17,0.21,-0.31c0.02,-0.06,0.03,-0.26,0.03,-0.59l0,-2.18c0,-0.65,-0.01,-1.04,-0.04,-1.17c-0.02,-0.12,-0.07,-0.21,-0.14,-0.27c-0.07,-0.05,-0.16,-0.08,-0.26,-0.08c-0.12,0,-0.27,0.03,-0.43,0.09l-0.06,-0.22l1.7,-0.68l0.25,0m5.3,0c0.85,0,1.53,0.32,2.05,0.97c0.43,0.55,0.65,1.18,0.65,1.9c0,0.5,-0.12,1.01,-0.36,1.53c-0.24,0.51,-0.57,0.9,-0.99,1.16c-0.42,0.26,-0.89,0.39,-1.41,0.39c-0.84,0,-1.52,-0.33,-2.02,-1.01c-0.42,-0.57,-0.63,-1.21,-0.63,-1.91c0,-0.51,0.12,-1.03,0.38,-1.54c0.25,-0.51,0.59,-0.88,1.01,-1.13c0.41,-0.24,0.86,-0.36,1.32,-0.36m-0.19,0.39c-0.21,0,-0.43,0.06,-0.65,0.19c-0.21,0.12,-0.39,0.35,-0.53,0.67c-0.13,0.32,-0.2,0.74,-0.2,1.24c0,0.82,0.16,1.52,0.48,2.12c0.32,0.59,0.75,0.89,1.28,0.89c0.39,0,0.72,-0.16,0.98,-0.49c0.25,-0.32,0.38,-0.89,0.38,-1.69c0,-1,-0.21,-1.78,-0.64,-2.36c-0.29,-0.39,-0.66,-0.59,-1.11,-0.59m5.37,0.79c0.66,-0.79,1.28,-1.19,1.88,-1.19c0.3,0,0.57,0.07,0.79,0.23c0.22,0.15,0.39,0.4,0.52,0.75c0.09,0.24,0.13,0.62,0.13,1.13l0,2.4c0,0.35,0.02,0.59,0.08,0.72c0.04,0.1,0.11,0.18,0.21,0.23c0.1,0.05,0.28,0.08,0.55,0.08l0,0.22l-2.78,0l0,-0.22l0.11,0c0.26,0,0.44,-0.04,0.55,-0.12c0.1,-0.08,0.17,-0.19,0.21,-0.35c0.01,-0.06,0.02,-0.25,0.02,-0.57l0,-2.3c0,-0.51,-0.06,-0.88,-0.2,-1.11c-0.13,-0.23,-0.35,-0.34,-0.67,-0.34c-0.48,0,-0.97,0.26,-1.45,0.79l0,2.97c0,0.38,0.02,0.61,0.06,0.7c0.05,0.11,0.13,0.2,0.23,0.26c0.1,0.05,0.3,0.08,0.61,0.08l0,0.22l-2.78,0l0,-0.22l0.12,0c0.28,0,0.48,-0.07,0.58,-0.21c0.1,-0.14,0.15,-0.42,0.15,-0.83l0,-2.09c0,-0.67,-0.01,-1.08,-0.04,-1.23c-0.03,-0.14,-0.07,-0.24,-0.14,-0.3c-0.06,-0.05,-0.14,-0.08,-0.25,-0.08c-0.11,0,-0.25,0.03,-0.41,0.09l-0.09,-0.22l1.69,-0.68l0.26,0l0,1.19" fill="#000000" stroke="none" fill-opacity="1"/>
</g>
</g>
<g clip-path="url(#c2)">
<g fill="none" stroke="#e41a1c" stroke-width="1.94">
<path d="m54.64,12.59c19.25,68.25,30.15,139.43,57.76,204.76c11.63,27.53,35.2,48.98,57.76,68.59c28.39,24.67,78.81,41.43,115.52,46.68c19.25,0.54,38.5,1.09,57.76,1.63c19.25,0.25,38.5,0.5,57.76,0.76"/>
</g>
</g>
<g clip-path="url(#c0)">
<g fill="none" stroke-linecap="butt" stroke-width="0.48">
<path d="M46.85,366.53l0,-361.02"/>
<path d="M46.85,366.53l2.91,0M46.85,348.48l2.91,0M46.85,330.43l2.91,0M46.85,312.38l2.91,0M46.85,294.33l2.91,0M46.85,276.27l2.91,0M46.85,258.22l2.91,0M46.85,240.17l2.91,0M46.85,222.12l2.91,0M46.85,204.07l2.91,0M46.85,186.02l2.91,0M46.85,167.97l2.91,0M46.85,149.92l2.91,0M46.85,131.87l2.91,0M46.85,113.81l2.91,0M46.85,95.76l2.91,0M46.85,77.71l2.91,0M46.85,59.66l2.91,0M46.85,41.61l2.91,0M46.85,23.56l2.91,0M46.85,5.51l2.91,0"/>
<path d="M46.85,366.53l5.83,0M46.85,294.33l5.83,0M46.85,222.12l5.83,0M46.85,149.92l5.83,0M46.85,77.71l5.83,0M46.85,5.51l5.83,0"/>
</g>
<g fill="none" stroke-width="0.1">
<g transform="matrix(0 -1 1 0 14 272.57)">
<path d="m3.26,-9.76l0,4.08l2.26,0c0.58,0,0.98,-0.08,1.18,-0.26c0.26,-0.23,0.41,-0.64,0.44,-1.23l0.28,0l0,3.59l-0.28,0c-0.07,-0.5,-0.14,-0.82,-0.21,-0.96c-0.09,-0.17,-0.24,-0.31,-0.44,-0.41c-0.2,-0.1,-0.52,-0.15,-0.95,-0.15l-2.26,0l0,3.4c0,0.45,0.02,0.73,0.06,0.83c0.04,0.09,0.11,0.17,0.21,0.23c0.1,0.05,0.29,0.08,0.57,0.08l1.75,0c0.58,0,1,-0.04,1.27,-0.12c0.26,-0.08,0.51,-0.24,0.76,-0.47c0.31,-0.31,0.63,-0.78,0.96,-1.42l0.3,0l-0.89,2.58l-7.96,0l0,-0.28l0.36,0c0.24,0,0.47,-0.05,0.69,-0.17c0.16,-0.08,0.27,-0.2,0.33,-0.36c0.05,-0.16,0.08,-0.49,0.08,-0.99l0,-6.71c0,-0.65,-0.06,-1.05,-0.19,-1.21c-0.18,-0.2,-0.48,-0.3,-0.91,-0.3l-0.36,0l0,-0.28l7.96,0l0.11,2.26l-0.29,0c-0.1,-0.54,-0.22,-0.91,-0.35,-1.11c-0.12,-0.2,-0.32,-0.35,-0.57,-0.46c-0.2,-0.07,-0.56,-0.11,-1.07,-0.11l-2.83,0m9.12,-1.06l0,9.25c0,0.43,0.03,0.72,0.09,0.86c0.06,0.14,0.16,0.25,0.29,0.32c0.13,0.07,0.37,0.11,0.73,0.11l0,0.27l-3.42,0l0,-0.27c0.31,0,0.53,-0.03,0.65,-0.09c0.11,-0.06,0.2,-0.17,0.27,-0.32c0.06,-0.15,0.09,-0.44,0.09,-0.87l0,-6.33c0,-0.78,-0.01,-1.27,-0.05,-1.45c-0.03,-0.18,-0.09,-0.3,-0.17,-0.36c-0.07,-0.06,-0.17,-0.09,-0.3,-0.09c-0.13,0,-0.29,0.04,-0.5,0.12l-0.12,-0.26l2.07,-0.85l0.34,0m3.07,6.48c0,1.03,0.24,1.84,0.75,2.43c0.5,0.58,1.1,0.88,1.79,0.88c0.45,0,0.85,-0.12,1.19,-0.37c0.33,-0.25,0.62,-0.68,0.84,-1.29l0.23,0.15c-0.1,0.69,-0.41,1.32,-0.92,1.9c-0.51,0.57,-1.15,0.85,-1.92,0.85c-0.83,0,-1.55,-0.32,-2.15,-0.97c-0.59,-0.65,-0.89,-1.52,-0.89,-2.63c0,-1.19,0.3,-2.12,0.91,-2.79c0.61,-0.66,1.38,-1,2.3,-1c0.78,0,1.42,0.25,1.92,0.77c0.5,0.51,0.75,1.2,0.75,2.06l-4.82,0m0,-0.44l3.22,0c-0.02,-0.44,-0.07,-0.76,-0.16,-0.94c-0.12,-0.28,-0.31,-0.5,-0.56,-0.67c-0.25,-0.16,-0.51,-0.24,-0.78,-0.24c-0.42,0,-0.79,0.16,-1.13,0.49c-0.33,0.32,-0.52,0.78,-0.58,1.36m11.65,2.14c-0.18,0.91,-0.55,1.62,-1.1,2.12c-0.54,0.49,-1.15,0.74,-1.82,0.74c-0.79,0,-1.48,-0.33,-2.07,-0.99c-0.58,-0.66,-0.88,-1.56,-0.88,-2.69c0,-1.09,0.32,-1.98,0.97,-2.67c0.65,-0.68,1.43,-1.02,2.34,-1.02c0.68,0,1.24,0.18,1.69,0.54c0.44,0.36,0.66,0.74,0.66,1.13c0,0.19,-0.06,0.34,-0.18,0.46c-0.12,0.11,-0.29,0.17,-0.52,0.17c-0.29,0,-0.52,-0.09,-0.67,-0.28c-0.08,-0.1,-0.14,-0.3,-0.17,-0.6c-0.02,-0.29,-0.13,-0.52,-0.3,-0.68c-0.17,-0.15,-0.42,-0.22,-0.73,-0.22c-0.5,0,-0.91,0.18,-1.22,0.56c-0.41,0.49,-0.61,1.15,-0.61,1.97c0,0.83,0.2,1.56,0.61,2.2c0.4,0.63,0.96,0.95,1.65,0.95c0.49,0,0.94,-0.17,1.34,-0.51c0.27,-0.23,0.55,-0.65,0.81,-1.27l0.22,0.1m3,-6.61l0,2.29l1.63,0l0,0.53l-1.63,0l0,4.52c0,0.45,0.06,0.75,0.19,0.91c0.12,0.15,0.29,0.23,0.49,0.23c0.16,0,0.33,-0.05,0.48,-0.15c0.15,-0.1,0.27,-0.25,0.36,-0.46l0.29,0c-0.17,0.49,-0.42,0.87,-0.75,1.12c-0.32,0.25,-0.66,0.37,-1,0.37c-0.23,0,-0.46,-0.06,-0.68,-0.19c-0.22,-0.12,-0.38,-0.31,-0.49,-0.55c-0.1,-0.24,-0.16,-0.61,-0.16,-1.11l0,-4.69l-1.1,0l0,-0.25c0.27,-0.11,0.56,-0.3,0.85,-0.56c0.29,-0.26,0.55,-0.58,0.78,-0.94c0.11,-0.19,0.27,-0.54,0.48,-1.05l0.23,0m4.31,2.08l0,1.56c0.58,-1.04,1.18,-1.56,1.79,-1.56c0.27,0,0.51,0.08,0.69,0.25c0.18,0.17,0.27,0.36,0.27,0.59c0,0.19,-0.06,0.36,-0.19,0.5c-0.13,0.13,-0.28,0.2,-0.47,0.2c-0.17,0,-0.37,-0.08,-0.59,-0.26c-0.22,-0.17,-0.38,-0.26,-0.49,-0.26c-0.09,0,-0.19,0.05,-0.29,0.15c-0.22,0.2,-0.46,0.55,-0.7,1.02l0,3.34c0,0.38,0.04,0.67,0.14,0.87c0.06,0.13,0.18,0.25,0.35,0.34c0.16,0.09,0.4,0.13,0.72,0.13l0,0.27l-3.57,0l0,-0.27c0.35,0,0.61,-0.05,0.79,-0.16c0.12,-0.08,0.21,-0.21,0.26,-0.38c0.02,-0.08,0.03,-0.33,0.03,-0.73l0,-2.7c0,-0.81,-0.01,-1.29,-0.04,-1.45c-0.03,-0.15,-0.09,-0.26,-0.18,-0.33c-0.08,-0.07,-0.19,-0.1,-0.33,-0.1c-0.15,0,-0.33,0.03,-0.53,0.11l-0.07,-0.27l2.11,-0.85l0.31,0m4.93,-3.64c0.21,0,0.39,0.07,0.54,0.22c0.14,0.14,0.22,0.33,0.22,0.54c0,0.21,-0.07,0.39,-0.22,0.54c-0.14,0.15,-0.33,0.22,-0.54,0.22c-0.21,0,-0.39,-0.07,-0.54,-0.22c-0.15,-0.15,-0.22,-0.33,-0.22,-0.54c0,-0.21,0.07,-0.39,0.22,-0.54c0.14,-0.14,0.33,-0.22,0.55,-0.22m0.63,3.64l0,5.6c0,0.43,0.03,0.72,0.09,0.87c0.06,0.14,0.15,0.25,0.28,0.32c0.12,0.07,0.35,0.1,0.68,0.1l0,0.27l-3.38,0l0,-0.27c0.34,0,0.56,-0.03,0.68,-0.09c0.11,-0.06,0.2,-0.17,0.27,-0.32c0.06,-0.15,0.1,-0.44,0.1,-0.87l0,-2.68c0,-0.75,-0.02,-1.24,-0.06,-1.47c-0.03,-0.16,-0.09,-0.27,-0.16,-0.33c-0.07,-0.06,-0.18,-0.09,-0.31,-0.09c-0.14,0,-0.31,0.03,-0.51,0.11l-0.1,-0.27l2.1,-0.85l0.33,0m7.81,4.53c-0.18,0.91,-0.55,1.62,-1.1,2.12c-0.54,0.49,-1.15,0.74,-1.82,0.74c-0.79,0,-1.48,-0.33,-2.07,-0.99c-0.58,-0.66,-0.88,-1.56,-0.88,-2.69c0,-1.09,0.32,-1.98,0.97,-2.67c0.65,-0.68,1.43,-1.02,2.34,-1.02c0.68,0,1.24,0.18,1.69,0.54c0.44,0.36,0.66,0.74,0.66,1.13c0,0.19,-0.06,0.34,-0.18,0.46c-0.12,0.11,-0.29,0.17,-0.52,0.17c-0.29,0,-0.52,-0.09,-0.67,-0.28c-0.08,-0.1,-0.14,-0.3,-0.17,-0.6c-0.02,-0.29,-0.13,-0.52,-0.3,-0.68c-0.17,-0.15,-0.42,-0.22,-0.73,-0.22c-0.5,0,-0.91,0.18,-1.22,0.56c-0.41,0.49,-0.61,1.15,-0.61,1.97c0,0.83,0.2,1.56,0.61,2.2c0.4,0.63,0.96,0.95,1.65,0.95c0.49,0,0.94,-0.17,1.34,-0.51c0.27,-0.23,0.55,-0.65,0.81,-1.27l0.22,0.1m4.92,1.64c-0.71,0.55,-1.16,0.87,-1.34,0.95c-0.27,0.12,-0.56,0.19,-0.87,0.19c-0.48,0,-0.87,-0.16,-1.19,-0.49c-0.31,-0.33,-0.46,-0.76,-0.46,-1.3c0,-0.34,0.07,-0.63,0.22,-0.88c0.2,-0.34,0.57,-0.67,1.08,-0.97c0.51,-0.3,1.37,-0.67,2.57,-1.11l0,-0.27c0,-0.69,-0.11,-1.17,-0.33,-1.43c-0.22,-0.25,-0.54,-0.38,-0.96,-0.38c-0.31,0,-0.57,0.08,-0.76,0.25c-0.19,0.17,-0.28,0.37,-0.28,0.59l0.01,0.44c0,0.23,-0.05,0.41,-0.17,0.54c-0.11,0.12,-0.27,0.19,-0.46,0.19c-0.18,0,-0.34,-0.06,-0.46,-0.19c-0.11,-0.13,-0.17,-0.31,-0.17,-0.54c0,-0.43,0.22,-0.83,0.67,-1.2c0.44,-0.36,1.07,-0.54,1.88,-0.54c0.61,0,1.12,0.1,1.52,0.31c0.29,0.15,0.52,0.4,0.66,0.73c0.09,0.21,0.13,0.66,0.13,1.34l0,2.36c0,0.66,0.01,1.07,0.03,1.22c0.02,0.14,0.06,0.25,0.12,0.3c0.05,0.05,0.12,0.07,0.2,0.07c0.08,0,0.15,-0.01,0.21,-0.05c0.1,-0.06,0.31,-0.25,0.61,-0.55l0,0.42c-0.56,0.76,-1.11,1.14,-1.63,1.14c-0.24,0,-0.44,-0.08,-0.59,-0.25c-0.14,-0.17,-0.22,-0.46,-0.22,-0.88m0,-0.49l0,-2.65c-0.76,0.3,-1.26,0.52,-1.48,0.64c-0.4,0.22,-0.68,0.45,-0.86,0.7c-0.17,0.24,-0.25,0.51,-0.25,0.79c0,0.36,0.1,0.66,0.32,0.91c0.21,0.24,0.46,0.36,0.75,0.36c0.38,0,0.89,-0.25,1.52,-0.76m5.34,-9.33l0,9.25c0,0.43,0.03,0.72,0.09,0.86c0.06,0.14,0.16,0.25,0.29,0.32c0.13,0.07,0.37,0.11,0.73,0.11l0,0.27l-3.42,0l0,-0.27c0.31,0,0.53,-0.03,0.65,-0.09c0.11,-0.06,0.2,-0.17,0.27,-0.32c0.06,-0.15,0.09,-0.44,0.09,-0.87l0,-6.33c0,-0.78,-0.01,-1.27,-0.05,-1.45c-0.03,-0.18,-0.09,-0.3,-0.17,-0.36c-0.07,-0.06,-0.17,-0.09,-0.3,-0.09c-0.13,0,-0.29,0.04,-0.5,0.12l-0.12,-0.26l2.07,-0.85l0.34,0m11.72,8.18c-0.18,0.91,-0.55,1.62,-1.1,2.12c-0.54,0.49,-1.15,0.74,-1.82,0.74c-0.79,0,-1.48,-0.33,-2.07,-0.99c-0.58,-0.66,-0.88,-1.56,-0.88,-2.69c0,-1.09,0.32,-1.98,0.97,-2.67c0.65,-0.68,1.43,-1.02,2.34,-1.02c0.68,0,1.24,0.18,1.69,0.54c0.44,0.36,0.66,0.74,0.66,1.13c0,0.19,-0.06,0.34,-0.18,0.46c-0.12,0.11,-0.29,0.17,-0.52,0.17c-0.29,0,-0.52,-0.09,-0.67,-0.28c-0.08,-0.1,-0.14,-0.3,-0.17,-0.6c-0.02,-0.29,-0.13,-0.52,-0.3,-0.68c-0.17,-0.15,-0.42,-0.22,-0.73,-0.22c-0.5,0,-0.91,0.18,-1.22,0.56c-0.41,0.49,-0.61,1.15,-0.61,1.97c0,0.83,0.2,1.56,0.61,2.2c0.4,0.63,0.96,0.95,1.65,0.95c0.49,0,0.94,-0.17,1.34,-0.51c0.27,-0.23,0.55,-0.65,0.81,-1.27l0.22,0.1m4.38,-4.53c1.05,0,1.9,0.4,2.54,1.2c0.54,0.68,0.81,1.47,0.81,2.36c0,0.62,-0.14,1.25,-0.44,1.89c-0.29,0.63,-0.71,1.12,-1.23,1.44c-0.52,0.32,-1.11,0.48,-1.75,0.48c-1.05,0,-1.88,-0.41,-2.5,-1.25c-0.52,-0.7,-0.78,-1.49,-0.78,-2.37c0,-0.63,0.15,-1.27,0.47,-1.9c0.31,-0.63,0.73,-1.09,1.25,-1.4c0.51,-0.3,1.06,-0.45,1.64,-0.45m-0.23,0.49c-0.26,0,-0.53,0.08,-0.81,0.23c-0.27,0.16,-0.49,0.44,-0.65,0.84c-0.16,0.4,-0.25,0.91,-0.25,1.54c0,1.01,0.2,1.89,0.6,2.62c0.4,0.73,0.93,1.1,1.59,1.1c0.49,0,0.89,-0.2,1.21,-0.6c0.31,-0.4,0.47,-1.1,0.47,-2.09c0,-1.23,-0.26,-2.21,-0.79,-2.92c-0.36,-0.48,-0.82,-0.73,-1.37,-0.73m6.65,0.98c0.81,-0.98,1.59,-1.47,2.33,-1.47c0.38,0,0.7,0.09,0.98,0.28c0.27,0.19,0.49,0.5,0.65,0.94c0.11,0.3,0.16,0.77,0.16,1.4l0,2.97c0,0.44,0.03,0.74,0.1,0.89c0.05,0.12,0.14,0.22,0.27,0.29c0.12,0.07,0.35,0.1,0.68,0.1l0,0.27l-3.45,0l0,-0.27l0.14,0c0.32,0,0.55,-0.04,0.68,-0.14c0.12,-0.09,0.21,-0.24,0.27,-0.43c0.02,-0.07,0.03,-0.31,0.03,-0.71l0,-2.85c0,-0.63,-0.08,-1.09,-0.24,-1.38c-0.16,-0.28,-0.44,-0.43,-0.83,-0.43c-0.6,0,-1.2,0.33,-1.8,0.99l0,3.67c0,0.47,0.02,0.76,0.08,0.87c0.07,0.14,0.16,0.25,0.29,0.32c0.12,0.06,0.37,0.1,0.75,0.1l0,0.27l-3.45,0l0,-0.27l0.15,0c0.35,0,0.59,-0.09,0.71,-0.27c0.12,-0.18,0.18,-0.52,0.18,-1.03l0,-2.58c0,-0.83,-0.01,-1.34,-0.05,-1.53c-0.03,-0.18,-0.09,-0.3,-0.17,-0.37c-0.07,-0.06,-0.18,-0.09,-0.31,-0.09c-0.14,0,-0.31,0.03,-0.51,0.11l-0.11,-0.27l2.1,-0.85l0.32,0l0,1.47m10.69,4.92c-0.34,0.35,-0.67,0.61,-0.99,0.76c-0.32,0.15,-0.67,0.23,-1.05,0.23c-0.76,0,-1.42,-0.31,-1.99,-0.95c-0.56,-0.63,-0.85,-1.45,-0.85,-2.45c0,-1,0.31,-1.91,0.94,-2.74c0.62,-0.83,1.43,-1.24,2.42,-1.24c0.61,0,1.12,0.19,1.52,0.58l0,-1.28c0,-0.79,-0.01,-1.28,-0.05,-1.47c-0.03,-0.18,-0.09,-0.3,-0.17,-0.37c-0.08,-0.06,-0.18,-0.09,-0.3,-0.09c-0.13,0,-0.3,0.04,-0.52,0.12l-0.09,-0.26l2.07,-0.85l0.34,0l0,8.06c0,0.81,0.01,1.31,0.05,1.49c0.03,0.18,0.09,0.3,0.18,0.37c0.08,0.07,0.18,0.1,0.29,0.1c0.13,0,0.31,-0.04,0.54,-0.12l0.08,0.26l-2.07,0.86l-0.35,0l0,-0.99m0,-0.53l0,-3.59c-0.03,-0.34,-0.12,-0.66,-0.27,-0.94c-0.15,-0.28,-0.35,-0.49,-0.6,-0.64c-0.25,-0.14,-0.49,-0.21,-0.73,-0.21c-0.44,0,-0.84,0.2,-1.19,0.6c-0.46,0.52,-0.69,1.3,-0.69,2.31c0,1.02,0.22,1.81,0.67,2.35c0.44,0.54,0.94,0.81,1.49,0.81c0.46,0,0.9,-0.23,1.34,-0.69m8.98,-5.65l0,4.22c0,0.8,0.01,1.3,0.05,1.48c0.03,0.18,0.09,0.3,0.18,0.37c0.08,0.07,0.18,0.1,0.29,0.1c0.15,0,0.33,-0.04,0.53,-0.12l0.1,0.26l-2.08,0.86l-0.34,0l0,-1.47c-0.59,0.65,-1.05,1.05,-1.37,1.22c-0.31,0.16,-0.64,0.25,-0.99,0.25c-0.39,0,-0.73,-0.11,-1.01,-0.33c-0.28,-0.22,-0.48,-0.51,-0.59,-0.87c-0.11,-0.35,-0.16,-0.85,-0.16,-1.5l0,-3.11c0,-0.33,-0.03,-0.55,-0.1,-0.68c-0.07,-0.12,-0.17,-0.22,-0.31,-0.29c-0.13,-0.06,-0.39,-0.1,-0.75,-0.09l0,-0.28l2.44,0l0,4.66c0,0.65,0.11,1.07,0.33,1.27c0.22,0.2,0.49,0.3,0.81,0.3c0.21,0,0.46,-0.06,0.74,-0.2c0.27,-0.13,0.6,-0.39,0.98,-0.78l0,-3.95c0,-0.39,-0.07,-0.66,-0.21,-0.8c-0.14,-0.13,-0.44,-0.21,-0.9,-0.22l0,-0.28l2.37,0m7.6,4.32c-0.18,0.91,-0.55,1.62,-1.1,2.12c-0.54,0.49,-1.15,0.74,-1.82,0.74c-0.79,0,-1.48,-0.33,-2.07,-0.99c-0.58,-0.66,-0.88,-1.56,-0.88,-2.69c0,-1.09,0.32,-1.98,0.97,-2.67c0.65,-0.68,1.43,-1.02,2.34,-1.02c0.68,0,1.24,0.18,1.69,0.54c0.44,0.36,0.66,0.74,0.66,1.13c0,0.19,-0.06,0.34,-0.18,0.46c-0.12,0.11,-0.29,0.17,-0.52,0.17c-0.29,0,-0.52,-0.09,-0.67,-0.28c-0.08,-0.1,-0.14,-0.3,-0.17,-0.6c-0.02,-0.29,-0.13,-0.52,-0.3,-0.68c-0.17,-0.15,-0.42,-0.22,-0.73,-0.22c-0.5,0,-0.91,0.18,-1.22,0.56c-0.41,0.49,-0.61,1.15,-0.61,1.97c0,0.83,0.2,1.56,0.61,2.2c0.4,0.63,0.96,0.95,1.65,0.95c0.49,0,0.94,-0.17,1.34,-0.51c0.27,-0.23,0.55,-0.65,0.81,-1.27l0.22,0.1m3,-6.61l0,2.29l1.63,0l0,0.53l-1.63,0l0,4.52c0,0.45,0.06,0.75,0.19,0.91c0.12,0.15,0.29,0.23,0.49,0.23c0.16,0,0.33,-0.05,0.48,-0.15c0.15,-0.1,0.27,-0.25,0.36,-0.46l0.29,0c-0.17,0.49,-0.42,0.87,-0.75,1.12c-0.32,0.25,-0.66,0.37,-1,0.37c-0.23,0,-0.46,-0.06,-0.68,-0.19c-0.22,-0.12,-0.38,-0.31,-0.49,-0.55c-0.1,-0.24,-0.16,-0.61,-0.16,-1.11l0,-4.69l-1.1,0l0,-0.25c0.27,-0.11,0.56,-0.3,0.85,-0.56c0.29,-0.26,0.55,-0.58,0.78,-0.94c0.11,-0.19,0.27,-0.54,0.48,-1.05l0.23,0m4.04,-1.56c0.21,0,0.39,0.07,0.54,0.22c0.14,0.14,0.22,0.33,0.22,0.54c0,0.21,-0.07,0.39,-0.22,0.54c-0.14,0.15,-0.33,0.22,-0.54,0.22c-0.21,0,-0.39,-0.07,-0.54,-0.22c-0.15,-0.15,-0.22,-0.33,-0.22,-0.54c0,-0.21,0.07,-0.39,0.22,-0.54c0.14,-0.14,0.33,-0.22,0.55,-0.22m0.63,3.64l0,5.6c0,0.43,0.03,0.72,0.09,0.87c0.06,0.14,0.15,0.25,0.28,0.32c0.12,0.07,0.35,0.1,0.68,0.1l0,0.27l-3.38,0l0,-0.27c0.34,0,0.56,-0.03,0.68,-0.09c0.11,-0.06,0.2,-0.17,0.27,-0.32c0.06,-0.15,0.1,-0.44,0.1,-0.87l0,-2.68c0,-0.75,-0.02,-1.24,-0.06,-1.47c-0.03,-0.16,-0.09,-0.27,-0.16,-0.33c-0.07,-0.06,-0.18,-0.09,-0.31,-0.09c-0.14,0,-0.31,0.03,-0.51,0.11l-0.1,-0.27l2.1,-0.85l0.33,0m1.53,0.2l3.28,0l0,0.28l-0.21,0c-0.19,0,-0.34,0.04,-0.45,0.14c-0.1,0.09,-0.15,0.22,-0.15,0.38c0,0.17,0.05,0.38,0.16,0.63l1.62,3.85l1.63,-3.99c0.11,-0.28,0.17,-0.5,0.17,-0.64c0,-0.07,-0.02,-0.12,-0.06,-0.17c-0.05,-0.07,-0.12,-0.12,-0.21,-0.15c-0.08,-0.02,-0.26,-0.04,-0.52,-0.04l0,-0.28l2.27,0l0,0.28c-0.26,0.02,-0.44,0.07,-0.54,0.16c-0.17,0.15,-0.33,0.4,-0.47,0.76l-2.47,5.98l-0.31,0l-2.49,-5.88c-0.11,-0.27,-0.21,-0.47,-0.31,-0.59c-0.1,-0.11,-0.23,-0.21,-0.38,-0.3c-0.08,-0.04,-0.25,-0.08,-0.51,-0.12l0,-0.28m9.93,-3.85c0.21,0,0.39,0.07,0.54,0.22c0.14,0.14,0.22,0.33,0.22,0.54c0,0.21,-0.07,0.39,-0.22,0.54c-0.14,0.15,-0.33,0.22,-0.54,0.22c-0.21,0,-0.39,-0.07,-0.54,-0.22c-0.15,-0.15,-0.22,-0.33,-0.22,-0.54c0,-0.21,0.07,-0.39,0.22,-0.54c0.14,-0.14,0.33,-0.22,0.55,-0.22m0.63,3.64l0,5.6c0,0.43,0.03,0.72,0.09,0.87c0.06,0.14,0.15,0.25,0.28,0.32c0.12,0.07,0.35,0.1,0.68,0.1l0,0.27l-3.38,0l0,-0.27c0.34,0,0.56,-0.03,0.68,-0.09c0.11,-0.06,0.2,-0.17,0.27,-0.32c0.06,-0.15,0.1,-0.44,0.1,-0.87l0,-2.68c0,-0.75,-0.02,-1.24,-0.06,-1.47c-0.03,-0.16,-0.09,-0.27,-0.16,-0.33c-0.07,-0.06,-0.18,-0.09,-0.31,-0.09c-0.14,0,-0.31,0.03,-0.51,0.11l-0.1,-0.27l2.1,-0.85l0.33,0m3.91,-2.08l0,2.29l1.63,0l0,0.53l-1.63,0l0,4.52c0,0.45,0.06,0.75,0.19,0.91c0.12,0.15,0.29,0.23,0.49,0.23c0.16,0,0.33,-0.05,0.48,-0.15c0.15,-0.1,0.27,-0.25,0.36,-0.46l0.29,0c-0.17,0.49,-0.42,0.87,-0.75,1.12c-0.32,0.25,-0.66,0.37,-1,0.37c-0.23,0,-0.46,-0.06,-0.68,-0.19c-0.22,-0.12,-0.38,-0.31,-0.49,-0.55c-0.1,-0.24,-0.16,-0.61,-0.16,-1.11l0,-4.69l-1.1,0l0,-0.25c0.27,-0.11,0.56,-0.3,0.85,-0.56c0.29,-0.26,0.55,-0.58,0.78,-0.94c0.11,-0.19,0.27,-0.54,0.48,-1.05l0.23,0m1.87,2.29l3.25,0l0,0.28l-0.16,0c-0.22,0,-0.39,0.04,-0.51,0.14c-0.11,0.09,-0.17,0.22,-0.17,0.36c0,0.19,0.08,0.47,0.25,0.82l1.69,3.51l1.56,-3.85c0.08,-0.2,0.12,-0.41,0.12,-0.61c0,-0.09,-0.01,-0.16,-0.05,-0.2c-0.04,-0.05,-0.1,-0.1,-0.19,-0.13c-0.08,-0.03,-0.23,-0.04,-0.45,-0.04l0,-0.28l2.26,0l0,0.28c-0.18,0.02,-0.33,0.06,-0.43,0.12c-0.1,0.06,-0.21,0.17,-0.33,0.34c-0.04,0.07,-0.13,0.26,-0.25,0.58l-2.84,6.96c-0.27,0.67,-0.63,1.18,-1.07,1.53c-0.44,0.34,-0.87,0.51,-1.28,0.51c-0.29,0,-0.54,-0.08,-0.73,-0.25c-0.19,-0.17,-0.28,-0.37,-0.28,-0.59c0,-0.21,0.06,-0.38,0.2,-0.51c0.13,-0.12,0.33,-0.19,0.57,-0.19c0.16,0,0.39,0.05,0.68,0.16c0.2,0.07,0.33,0.11,0.38,0.11c0.15,0,0.31,-0.07,0.49,-0.23c0.18,-0.15,0.36,-0.46,0.54,-0.91l0.49,-1.21l-2.5,-5.26c-0.07,-0.15,-0.19,-0.35,-0.36,-0.58c-0.12,-0.17,-0.23,-0.29,-0.31,-0.35c-0.11,-0.08,-0.3,-0.15,-0.56,-0.21l0,-0.28m7.54,9.57l0,-0.33c0.52,-0.17,0.92,-0.44,1.21,-0.8c0.28,-0.36,0.43,-0.74,0.43,-1.15c0,-0.09,-0.02,-0.17,-0.06,-0.24c-0.03,-0.04,-0.07,-0.06,-0.1,-0.06c-0.05,0,-0.17,0.05,-0.36,0.15c-0.09,0.04,-0.18,0.06,-0.28,0.06c-0.24,0,-0.44,-0.07,-0.59,-0.22c-0.14,-0.14,-0.22,-0.35,-0.22,-0.6c0,-0.24,0.09,-0.46,0.28,-0.63c0.19,-0.17,0.42,-0.26,0.69,-0.26c0.33,0,0.63,0.14,0.89,0.43c0.26,0.29,0.39,0.67,0.39,1.16c0,0.52,-0.18,1,-0.54,1.45c-0.36,0.44,-0.93,0.8,-1.72,1.06m14.11,-13.16l0,3.57l-0.28,0c-0.09,-0.68,-0.25,-1.23,-0.49,-1.63c-0.23,-0.4,-0.57,-0.72,-1,-0.96c-0.43,-0.23,-0.88,-0.35,-1.35,-0.35c-0.52,0,-0.96,0.16,-1.31,0.48c-0.34,0.32,-0.51,0.68,-0.51,1.1c0,0.31,0.1,0.6,0.32,0.86c0.31,0.38,1.06,0.88,2.24,1.52c0.96,0.51,1.62,0.91,1.97,1.19c0.35,0.27,0.62,0.6,0.81,0.97c0.19,0.37,0.28,0.76,0.28,1.18c0,0.78,-0.3,1.45,-0.91,2.02c-0.6,0.56,-1.38,0.84,-2.34,0.84c-0.29,0,-0.58,-0.02,-0.84,-0.06c-0.15,-0.02,-0.48,-0.11,-0.97,-0.27c-0.49,-0.16,-0.8,-0.23,-0.94,-0.23c-0.12,0,-0.22,0.03,-0.3,0.11c-0.07,0.07,-0.12,0.23,-0.16,0.47l-0.28,0l0,-3.54l0.28,0c0.13,0.74,0.3,1.29,0.53,1.66c0.22,0.36,0.56,0.67,1.02,0.91c0.45,0.24,0.96,0.36,1.51,0.36c0.63,0,1.13,-0.16,1.5,-0.5c0.36,-0.33,0.55,-0.73,0.55,-1.18c0,-0.25,-0.06,-0.51,-0.2,-0.76c-0.13,-0.25,-0.35,-0.5,-0.65,-0.72c-0.19,-0.15,-0.73,-0.47,-1.62,-0.97c-0.88,-0.49,-1.51,-0.88,-1.88,-1.18c-0.37,-0.29,-0.65,-0.61,-0.84,-0.97c-0.19,-0.35,-0.28,-0.74,-0.28,-1.17c0,-0.74,0.28,-1.38,0.85,-1.91c0.56,-0.53,1.29,-0.8,2.17,-0.8c0.54,0,1.12,0.13,1.74,0.4c0.28,0.12,0.48,0.19,0.6,0.19c0.13,0,0.23,-0.03,0.32,-0.11c0.08,-0.07,0.15,-0.23,0.2,-0.47l0.28,0m5.91,-0.26l-3.74,11.04l-0.6,0l3.74,-11.04l0.6,0m2.48,5.13c0.5,-0.5,0.8,-0.79,0.89,-0.87c0.22,-0.19,0.47,-0.34,0.73,-0.44c0.26,-0.1,0.52,-0.16,0.78,-0.16c0.43,0,0.81,0.12,1.12,0.38c0.31,0.25,0.52,0.62,0.63,1.1c0.52,-0.6,0.96,-1,1.32,-1.19c0.36,-0.19,0.73,-0.28,1.11,-0.28c0.37,0,0.69,0.09,0.98,0.28c0.28,0.19,0.51,0.5,0.68,0.93c0.11,0.29,0.16,0.75,0.16,1.38l0,3c0,0.43,0.03,0.73,0.09,0.89c0.05,0.11,0.14,0.2,0.28,0.28c0.13,0.07,0.36,0.11,0.67,0.11l0,0.27l-3.44,0l0,-0.27l0.14,0c0.29,0,0.53,-0.05,0.7,-0.17c0.11,-0.08,0.2,-0.21,0.25,-0.38c0.02,-0.08,0.03,-0.33,0.03,-0.73l0,-3c0,-0.56,-0.06,-0.96,-0.2,-1.2c-0.19,-0.32,-0.51,-0.48,-0.95,-0.48c-0.26,0,-0.53,0.06,-0.81,0.2c-0.27,0.13,-0.6,0.38,-0.98,0.75l-0.01,0.08l0.01,0.32l0,3.32c0,0.47,0.02,0.77,0.08,0.89c0.05,0.11,0.15,0.21,0.3,0.29c0.14,0.07,0.39,0.11,0.75,0.11l0,0.27l-3.52,0l0,-0.27c0.38,0,0.65,-0.04,0.79,-0.13c0.14,-0.09,0.24,-0.22,0.3,-0.41c0.02,-0.08,0.03,-0.33,0.03,-0.75l0,-3c0,-0.56,-0.08,-0.97,-0.25,-1.22c-0.22,-0.32,-0.53,-0.48,-0.93,-0.48c-0.27,0,-0.54,0.07,-0.81,0.22c-0.42,0.22,-0.74,0.47,-0.97,0.75l0,3.74c0,0.45,0.03,0.75,0.09,0.89c0.06,0.13,0.15,0.23,0.28,0.3c0.12,0.06,0.37,0.1,0.75,0.1l0,0.27l-3.45,0l0,-0.27c0.31,0,0.54,-0.03,0.67,-0.1c0.12,-0.06,0.22,-0.17,0.28,-0.32c0.06,-0.14,0.09,-0.44,0.09,-0.87l0,-2.66c0,-0.76,-0.02,-1.26,-0.06,-1.48c-0.03,-0.16,-0.09,-0.28,-0.16,-0.34c-0.07,-0.06,-0.18,-0.09,-0.31,-0.09c-0.14,0,-0.31,0.03,-0.51,0.11l-0.11,-0.27l2.1,-0.85l0.32,0l0,1.48" fill="#000000" stroke="none" fill-opacity="1"/>
</g>
<path d="m37.5,366.71c0,-0.95,0.14,-1.77,0.43,-2.45c0.28,-0.68,0.66,-1.19,1.14,-1.53c0.36,-0.26,0.75,-0.39,1.14,-0.39c0.63,0,1.21,0.32,1.72,0.97c0.63,0.8,0.95,1.9,0.95,3.28c0,0.96,-0.13,1.79,-0.41,2.46c-0.27,0.67,-0.63,1.16,-1.06,1.47c-0.43,0.3,-0.85,0.45,-1.25,0.45c-0.79,0,-1.45,-0.46,-1.98,-1.4c-0.44,-0.79,-0.67,-1.74,-0.67,-2.86m1.2,0.15c0,1.14,0.14,2.08,0.42,2.81c0.23,0.61,0.58,0.91,1.04,0.91c0.22,0,0.45,-0.09,0.68,-0.29c0.23,-0.19,0.41,-0.53,0.54,-0.99c0.18,-0.7,0.28,-1.7,0.28,-2.98c0,-0.95,-0.09,-1.74,-0.29,-2.38c-0.14,-0.47,-0.33,-0.8,-0.57,-1c-0.16,-0.13,-0.37,-0.2,-0.6,-0.2c-0.27,0,-0.52,0.12,-0.74,0.37c-0.29,0.34,-0.49,0.87,-0.6,1.6c-0.1,0.73,-0.16,1.44,-0.16,2.15" fill="#000000" stroke="none" fill-opacity="1"/>
<path d="m19.32,297.02l-0.58,1.6l-4.92,0l0,-0.22c1.44,-1.32,2.46,-2.39,3.05,-3.23c0.59,-0.83,0.88,-1.6,0.88,-2.29c0,-0.52,-0.16,-0.96,-0.48,-1.3c-0.32,-0.34,-0.71,-0.51,-1.16,-0.51c-0.41,0,-0.77,0.12,-1.1,0.35c-0.32,0.23,-0.56,0.59,-0.72,1.05l-0.22,0c0.1,-0.75,0.36,-1.34,0.79,-1.74c0.42,-0.4,0.95,-0.6,1.59,-0.6c0.67,0,1.24,0.21,1.69,0.65c0.45,0.43,0.67,0.94,0.67,1.53c0,0.42,-0.09,0.84,-0.29,1.26c-0.3,0.66,-0.79,1.36,-1.47,2.11c-1.02,1.11,-1.65,1.78,-1.91,2.01l2.17,0c0.44,0,0.75,-0.01,0.93,-0.04c0.17,-0.03,0.33,-0.09,0.48,-0.2c0.14,-0.1,0.26,-0.24,0.37,-0.42l0.22,0m1.53,-0.41l2.17,-2.17l-2.16,-2.16l0.35,-0.35l2.16,2.16l2.16,-2.16l0.34,0.35l-2.16,2.16l2.17,2.17l-0.35,0.35l-2.17,-2.17l-2.17,2.17l-0.35,-0.35m7.56,-5.5l2.03,-0.99l0.2,0l0,7.04c0,0.46,0.01,0.75,0.05,0.87c0.03,0.11,0.12,0.2,0.24,0.26c0.12,0.06,0.37,0.09,0.75,0.1l0,0.22l-3.13,0l0,-0.22c0.39,0,0.64,-0.04,0.76,-0.1c0.11,-0.05,0.19,-0.13,0.23,-0.23c0.04,-0.1,0.06,-0.4,0.06,-0.9l0,-4.5c0,-0.6,-0.02,-0.99,-0.06,-1.16c-0.02,-0.13,-0.08,-0.22,-0.15,-0.28c-0.07,-0.06,-0.16,-0.09,-0.27,-0.09c-0.15,0,-0.36,0.06,-0.63,0.19l-0.09,-0.19m5.27,3.4c0,-0.95,0.14,-1.77,0.43,-2.45c0.28,-0.68,0.66,-1.19,1.14,-1.53c0.36,-0.26,0.75,-0.39,1.14,-0.39c0.63,0,1.21,0.32,1.72,0.97c0.63,0.8,0.95,1.9,0.95,3.28c0,0.96,-0.13,1.79,-0.41,2.46c-0.27,0.67,-0.63,1.16,-1.06,1.47c-0.43,0.3,-0.85,0.45,-1.25,0.45c-0.79,0,-1.45,-0.46,-1.98,-1.4c-0.44,-0.79,-0.67,-1.74,-0.67,-2.86m1.2,0.15c0,1.14,0.14,2.08,0.42,2.81c0.23,0.61,0.58,0.91,1.04,0.91c0.22,0,0.45,-0.09,0.68,-0.29c0.23,-0.19,0.41,-0.53,0.54,-0.99c0.18,-0.7,0.28,-1.7,0.28,-2.98c0,-0.95,-0.09,-1.74,-0.29,-2.38c-0.14,-0.47,-0.33,-0.8,-0.57,-1c-0.16,-0.13,-0.37,-0.2,-0.6,-0.2c-0.27,0,-0.52,0.12,-0.74,0.37c-0.29,0.34,-0.49,0.87,-0.6,1.6c-0.1,0.73,-0.16,1.44,-0.16,2.15" fill="#000000" stroke="none" fill-opacity="1"/>
<path d="m42.95,287.77l0,0.13c-0.32,0.03,-0.59,0.09,-0.79,0.19c-0.2,0.09,-0.41,0.24,-0.61,0.44c-0.2,0.2,-0.36,0.42,-0.5,0.66c-0.13,0.24,-0.24,0.53,-0.33,0.87c0.35,-0.24,0.71,-0.36,1.07,-0.36c0.34,0,0.64,0.13,0.89,0.41c0.25,0.27,0.37,0.63,0.37,1.06c0,0.42,-0.12,0.8,-0.38,1.15c-0.3,0.42,-0.71,0.63,-1.21,0.63c-0.34,0,-0.63,-0.11,-0.87,-0.34c-0.47,-0.44,-0.7,-1.01,-0.7,-1.72c0,-0.45,0.09,-0.87,0.27,-1.28c0.18,-0.4,0.43,-0.76,0.77,-1.07c0.33,-0.31,0.65,-0.52,0.96,-0.63c0.3,-0.1,0.59,-0.16,0.85,-0.16l0.21,0m-2.3,2.59c-0.04,0.33,-0.06,0.6,-0.06,0.8c0,0.23,0.04,0.49,0.13,0.77c0.08,0.27,0.21,0.49,0.39,0.66c0.12,0.11,0.27,0.17,0.46,0.17c0.21,0,0.4,-0.1,0.57,-0.3c0.16,-0.2,0.25,-0.49,0.25,-0.86c0,-0.42,-0.08,-0.78,-0.25,-1.09c-0.16,-0.3,-0.4,-0.46,-0.71,-0.46c-0.09,0,-0.19,0.01,-0.3,0.05c-0.1,0.03,-0.26,0.12,-0.47,0.25" fill="#000000" stroke="none" fill-opacity="1"/>
<path d="m15.96,77.81c-0.66,-0.54,-1.08,-0.97,-1.27,-1.3c-0.19,-0.32,-0.28,-0.66,-0.28,-1.02c0,-0.54,0.2,-1,0.62,-1.39c0.41,-0.39,0.97,-0.58,1.66,-0.58c0.67,0,1.21,0.18,1.62,0.54c0.41,0.36,0.61,0.78,0.61,1.24c0,0.31,-0.11,0.62,-0.33,0.95c-0.22,0.32,-0.68,0.7,-1.38,1.14c0.72,0.55,1.19,0.99,1.43,1.31c0.31,0.41,0.46,0.85,0.46,1.32c0,0.58,-0.22,1.08,-0.67,1.5c-0.44,0.41,-1.03,0.62,-1.75,0.62c-0.79,0,-1.4,-0.24,-1.85,-0.74c-0.35,-0.39,-0.52,-0.83,-0.52,-1.3c0,-0.36,0.12,-0.73,0.37,-1.09c0.24,-0.36,0.67,-0.76,1.28,-1.2m0.96,-0.65c0.49,-0.44,0.8,-0.79,0.93,-1.04c0.13,-0.25,0.19,-0.54,0.19,-0.87c0,-0.43,-0.12,-0.76,-0.36,-1.01c-0.24,-0.24,-0.57,-0.36,-0.99,-0.36c-0.41,0,-0.75,0.12,-1.02,0.36c-0.26,0.24,-0.39,0.52,-0.39,0.84c0,0.21,0.05,0.42,0.16,0.63c0.1,0.21,0.26,0.41,0.46,0.6l1,0.83m-0.67,0.89c-0.34,0.28,-0.59,0.59,-0.75,0.93c-0.16,0.33,-0.24,0.7,-0.24,1.09c0,0.52,0.14,0.95,0.43,1.27c0.28,0.31,0.65,0.47,1.1,0.47c0.44,0,0.79,-0.12,1.06,-0.37c0.26,-0.25,0.39,-0.55,0.39,-0.91c0,-0.29,-0.07,-0.55,-0.23,-0.79c-0.29,-0.43,-0.87,-1,-1.76,-1.7m4.6,1.95l2.17,-2.17l-2.16,-2.16l0.35,-0.35l2.16,2.16l2.16,-2.16l0.34,0.35l-2.16,2.16l2.17,2.17l-0.35,0.35l-2.17,-2.17l-2.17,2.17l-0.35,-0.35m7.56,-5.5l2.03,-0.99l0.2,0l0,7.04c0,0.46,0.01,0.75,0.05,0.87c0.03,0.11,0.12,0.2,0.24,0.26c0.12,0.06,0.37,0.09,0.75,0.1l0,0.22l-3.13,0l0,-0.22c0.39,0,0.64,-0.04,0.76,-0.1c0.11,-0.05,0.19,-0.13,0.23,-0.23c0.04,-0.1,0.06,-0.4,0.06,-0.9l0,-4.5c0,-0.6,-0.02,-0.99,-0.06,-1.16c-0.02,-0.13,-0.08,-0.22,-0.15,-0.28c-0.07,-0.06,-0.16,-0.09,-0.27,-0.09c-0.15,0,-0.36,0.06,-0.63,0.19l-0.09,-0.19m5.27,3.4c0,-0.95,0.14,-1.77,0.43,-2.45c0.28,-0.68,0.66,-1.19,1.14,-1.53c0.36,-0.26,0.75,-0.39,1.14,-0.39c0.63,0,1.21,0.32,1.72,0.97c0.63,0.8,0.95,1.9,0.95,3.28c0,0.96,-0.13,1.79,-0.41,2.46c-0.27,0.67,-0.63,1.16,-1.06,1.47c-0.43,0.3,-0.85,0.45,-1.25,0.45c-0.79,0,-1.45,-0.46,-1.98,-1.4c-0.44,-0.79,-0.67,-1.74,-0.67,-2.86m1.2,0.15c0,1.14,0.14,2.08,0.42,2.81c0.23,0.61,0.58,0.91,1.04,0.91c0.22,0,0.45,-0.09,0.68,-0.29c0.23,-0.19,0.41,-0.53,0.54,-0.99c0.18,-0.7,0.28,-1.7,0.28,-2.98c0,-0.95,-0.09,-1.74,-0.29,-2.38c-0.14,-0.47,-0.33,-0.8,-0.57,-1c-0.16,-0.13,-0.37,-0.2,-0.6,-0.2c-0.27,0,-0.52,0.12,-0.74,0.37c-0.29,0.34,-0.49,0.87,-0.6,1.6c-0.1,0.73,-0.16,1.44,-0.16,2.15" fill="#000000" stroke="none" fill-opacity="1"/>
<path d="m42.95,71.15l0,0.13c-0.32,0.03,-0.59,0.09,-0.79,0.19c-0.2,0.09,-0.41,0.24,-0.61,0.44c-0.2,0.2,-0.36,0.42,-0.5,0.66c-0.13,0.24,-0.24,0.53,-0.33,0.87c0.35,-0.24,0.71,-0.36,1.07,-0.36c0.34,0,0.64,0.13,0.89,0.41c0.25,0.27,0.37,0.63,0.37,1.06c0,0.42,-0.12,0.8,-0.38,1.15c-0.3,0.42,-0.71,0.63,-1.21,0.63c-0.34,0,-0.63,-0.11,-0.87,-0.34c-0.47,-0.44,-0.7,-1.01,-0.7,-1.72c0,-0.45,0.09,-0.87,0.27,-1.28c0.18,-0.4,0.43,-0.76,0.77,-1.07c0.33,-0.31,0.65,-0.52,0.96,-0.63c0.3,-0.1,0.59,-0.16,0.85,-0.16l0.21,0m-2.3,2.59c-0.04,0.33,-0.06,0.6,-0.06,0.8c0,0.23,0.04,0.49,0.13,0.77c0.08,0.27,0.21,0.49,0.39,0.66c0.12,0.11,0.27,0.17,0.46,0.17c0.21,0,0.4,-0.1,0.57,-0.3c0.16,-0.2,0.25,-0.49,0.25,-0.86c0,-0.42,-0.08,-0.78,-0.25,-1.09c-0.16,-0.3,-0.4,-0.46,-0.71,-0.46c-0.09,0,-0.19,0.01,-0.3,0.05c-0.1,0.03,-0.26,0.12,-0.47,0.25" fill="#000000" stroke="none" fill-opacity="1"/>
<path d="m28.42,3.93l2.03,-0.99l0.2,0l0,7.04c0,0.46,0.01,0.75,0.05,0.87c0.03,0.11,0.12,0.2,0.24,0.26c0.12,0.06,0.37,0.09,0.75,0.1l0,0.22l-3.13,0l0,-0.22c0.39,0,0.64,-0.04,0.76,-0.1c0.11,-0.05,0.19,-0.13,0.23,-0.23c0.04,-0.1,0.06,-0.4,0.06,-0.9l0,-4.5c0,-0.6,-0.02,-0.99,-0.06,-1.16c-0.02,-0.13,-0.08,-0.22,-0.15,-0.28c-0.07,-0.06,-0.16,-0.09,-0.27,-0.09c-0.15,0,-0.36,0.06,-0.63,0.19l-0.09,-0.19m5.27,3.4c0,-0.95,0.14,-1.77,0.43,-2.45c0.28,-0.68,0.66,-1.19,1.14,-1.53c0.36,-0.26,0.75,-0.39,1.14,-0.39c0.63,0,1.21,0.32,1.72,0.97c0.63,0.8,0.95,1.9,0.95,3.28c0,0.96,-0.13,1.79,-0.41,2.46c-0.27,0.67,-0.63,1.16,-1.06,1.47c-0.43,0.3,-0.85,0.45,-1.25,0.45c-0.79,0,-1.45,-0.46,-1.98,-1.4c-0.44,-0.79,-0.67,-1.74,-0.67,-2.86m1.2,0.15c0,1.14,0.14,2.08,0.42,2.81c0.23,0.61,0.58,0.91,1.04,0.91c0.22,0,0.45,-0.09,0.68,-0.29c0.23,-0.19,0.41,-0.53,0.54,-0.99c0.18,-0.7,0.28,-1.7,0.28,-2.98c0,-0.95,-0.09,-1.74,-0.29,-2.38c-0.14,-0.47,-0.33,-0.8,-0.57,-1c-0.16,-0.13,-0.37,-0.2,-0.6,-0.2c-0.27,0,-0.52,0.12,-0.74,0.37c-0.29,0.34,-0.49,0.87,-0.6,1.6c-0.1,0.73,-0.16,1.44,-0.16,2.15" fill="#000000" stroke="none" fill-opacity="1"/>
<path d="m40.31,0.7l2.69,0l0,0.14l-1.67,4.99l-0.41,0l1.5,-4.53l-1.38,0c-0.27,0,-0.47,0.03,-0.59,0.1c-0.2,0.11,-0.37,0.28,-0.5,0.52l-0.1,-0.04l0.48,-1.19" fill="#000000" stroke="none" fill-opacity="1"/>
</g>
<g fill="none" stroke-linecap="butt" stroke-width="0.48">
<path d="M46.85,366.53l361.02,0"/>
<path d="M46.85,366.53l0,-2.91M61.29,366.53l0,-2.91M75.73,366.53l0,-2.91M90.17,366.53l0,-2.91M104.61,366.53l0,-2.91M119.05,366.53l0,-2.91M133.49,366.53l0,-2.91M147.93,366.53l0,-2.91M162.37,366.53l0,-2.91M176.81,366.53l0,-2.91M191.25,366.53l0,-2.91M205.7,366.53l0,-2.91M220.14,366.53l0,-2.91M234.58,366.53l0,-2.91M249.02,366.53l0,-2.91M263.46,366.53l0,-2.91M277.9,366.53l0,-2.91M292.34,366.53l0,-2.91M306.78,366.53l0,-2.91M321.22,366.53l0,-2.91M335.66,366.53l0,-2.91M350.11,366.53l0,-2.91M364.55,366.53l0,-2.91M378.99,366.53l0,-2.91M393.43,366.53l0,-2.91M407.87,366.53l0,-2.91"/>
<path d="M46.85,366.53l0,-5.83M119.05,366.53l0,-5.83M191.25,366.53l0,-5.83M263.46,366.53l0,-5.83M335.66,366.53l0,-5.83M407.87,366.53l0,-5.83"/>
</g>
<g fill="none" stroke-width="0.1">
<path d="m176.83,392.8l0.11,2.42l-0.28,0c-0.05,-0.42,-0.13,-0.73,-0.22,-0.91c-0.15,-0.29,-0.36,-0.51,-0.62,-0.65c-0.26,-0.13,-0.6,-0.2,-1.03,-0.2l-1.45,0l0,7.89c0,0.63,0.06,1.03,0.2,1.18c0.19,0.21,0.49,0.31,0.89,0.31l0.35,0l0,0.28l-4.37,0l0,-0.28l0.36,0c0.43,0,0.74,-0.13,0.92,-0.39c0.11,-0.16,0.16,-0.53,0.16,-1.11l0,-7.89l-1.24,0c-0.48,0,-0.82,0.03,-1.02,0.1c-0.26,0.09,-0.49,0.28,-0.67,0.55c-0.18,0.27,-0.29,0.64,-0.33,1.11l-0.28,0l0.12,-2.42l8.43,0m1.03,5.97c0,1.03,0.24,1.84,0.75,2.43c0.5,0.58,1.1,0.88,1.79,0.88c0.45,0,0.85,-0.12,1.19,-0.37c0.33,-0.25,0.62,-0.68,0.84,-1.29l0.23,0.15c-0.1,0.69,-0.41,1.32,-0.92,1.9c-0.51,0.57,-1.15,0.85,-1.92,0.85c-0.83,0,-1.55,-0.32,-2.15,-0.97c-0.59,-0.65,-0.89,-1.52,-0.89,-2.63c0,-1.19,0.3,-2.12,0.91,-2.79c0.61,-0.66,1.38,-1,2.3,-1c0.78,0,1.42,0.25,1.92,0.77c0.5,0.51,0.75,1.2,0.75,2.06l-4.82,0m0,-0.44l3.22,0c-0.02,-0.44,-0.07,-0.76,-0.16,-0.94c-0.12,-0.28,-0.31,-0.5,-0.56,-0.67c-0.25,-0.16,-0.51,-0.24,-0.78,-0.24c-0.42,0,-0.79,0.16,-1.13,0.49c-0.33,0.32,-0.52,0.78,-0.58,1.36m7.79,-0.9c0.5,-0.5,0.8,-0.79,0.89,-0.87c0.22,-0.19,0.47,-0.34,0.73,-0.44c0.26,-0.1,0.52,-0.16,0.78,-0.16c0.43,0,0.81,0.12,1.12,0.38c0.31,0.25,0.52,0.62,0.63,1.1c0.52,-0.6,0.96,-1,1.32,-1.19c0.36,-0.19,0.73,-0.28,1.11,-0.28c0.37,0,0.69,0.09,0.98,0.28c0.28,0.19,0.51,0.5,0.68,0.93c0.11,0.29,0.16,0.75,0.16,1.38l0,3c0,0.43,0.03,0.73,0.09,0.89c0.05,0.11,0.14,0.2,0.28,0.28c0.13,0.07,0.36,0.11,0.67,0.11l0,0.27l-3.44,0l0,-0.27l0.14,0c0.29,0,0.53,-0.05,0.7,-0.17c0.11,-0.08,0.2,-0.21,0.25,-0.38c0.02,-0.08,0.03,-0.33,0.03,-0.73l0,-3c0,-0.56,-0.06,-0.96,-0.2,-1.2c-0.19,-0.32,-0.51,-0.48,-0.95,-0.48c-0.26,0,-0.53,0.06,-0.81,0.2c-0.27,0.13,-0.6,0.38,-0.98,0.75l-0.01,0.08l0.01,0.32l0,3.32c0,0.47,0.02,0.77,0.08,0.89c0.05,0.11,0.15,0.21,0.3,0.29c0.14,0.07,0.39,0.11,0.75,0.11l0,0.27l-3.52,0l0,-0.27c0.38,0,0.65,-0.04,0.79,-0.13c0.14,-0.09,0.24,-0.22,0.3,-0.41c0.02,-0.08,0.03,-0.33,0.03,-0.75l0,-3c0,-0.56,-0.08,-0.97,-0.25,-1.22c-0.22,-0.32,-0.53,-0.48,-0.93,-0.48c-0.27,0,-0.54,0.07,-0.81,0.22c-0.42,0.22,-0.74,0.47,-0.97,0.75l0,3.74c0,0.45,0.03,0.75,0.09,0.89c0.06,0.13,0.15,0.23,0.28,0.3c0.12,0.06,0.37,0.1,0.75,0.1l0,0.27l-3.45,0l0,-0.27c0.31,0,0.54,-0.03,0.67,-0.1c0.12,-0.06,0.22,-0.17,0.28,-0.32c0.06,-0.14,0.09,-0.44,0.09,-0.87l0,-2.66c0,-0.76,-0.02,-1.26,-0.06,-1.48c-0.03,-0.16,-0.09,-0.28,-0.16,-0.34c-0.07,-0.06,-0.18,-0.09,-0.31,-0.09c-0.14,0,-0.31,0.03,-0.51,0.11l-0.11,-0.27l2.1,-0.85l0.32,0l0,1.48m9.52,-0.58l2.14,-0.86l0.28,0l0,1.63c0.36,-0.61,0.72,-1.04,1.08,-1.29c0.36,-0.24,0.74,-0.36,1.14,-0.36c0.7,0,1.28,0.27,1.75,0.82c0.57,0.67,0.86,1.54,0.86,2.62c0,1.2,-0.34,2.19,-1.03,2.98c-0.56,0.64,-1.28,0.96,-2.14,0.96c-0.37,0,-0.7,-0.05,-0.97,-0.16c-0.2,-0.07,-0.43,-0.22,-0.68,-0.45l0,2.12c0,0.47,0.02,0.78,0.08,0.91c0.05,0.12,0.16,0.23,0.3,0.3c0.14,0.07,0.4,0.11,0.78,0.11l0,0.28l-3.65,0l0,-0.28l0.19,0c0.27,0,0.51,-0.04,0.71,-0.16c0.09,-0.05,0.17,-0.14,0.22,-0.27c0.05,-0.12,0.08,-0.44,0.08,-0.94l0,-6.59c0,-0.45,-0.02,-0.73,-0.06,-0.86c-0.04,-0.12,-0.1,-0.21,-0.19,-0.27c-0.08,-0.06,-0.2,-0.09,-0.36,-0.09c-0.12,0,-0.27,0.03,-0.46,0.1l-0.09,-0.24m2.43,1.21l0,2.6c0,0.56,0.02,0.93,0.06,1.11c0.07,0.29,0.24,0.55,0.52,0.77c0.27,0.22,0.62,0.33,1.04,0.33c0.5,0,0.91,-0.19,1.23,-0.59c0.41,-0.51,0.61,-1.24,0.61,-2.18c0,-1.06,-0.23,-1.88,-0.7,-2.46c-0.32,-0.39,-0.71,-0.59,-1.15,-0.59c-0.24,0,-0.48,0.06,-0.72,0.18c-0.18,0.09,-0.48,0.36,-0.9,0.82m7.03,0.72c0,1.03,0.24,1.84,0.75,2.43c0.5,0.58,1.1,0.88,1.79,0.88c0.45,0,0.85,-0.12,1.19,-0.37c0.33,-0.25,0.62,-0.68,0.84,-1.29l0.23,0.15c-0.1,0.69,-0.41,1.32,-0.92,1.9c-0.51,0.57,-1.15,0.85,-1.92,0.85c-0.83,0,-1.55,-0.32,-2.15,-0.97c-0.59,-0.65,-0.89,-1.52,-0.89,-2.63c0,-1.19,0.3,-2.12,0.91,-2.79c0.61,-0.66,1.38,-1,2.3,-1c0.78,0,1.42,0.25,1.92,0.77c0.5,0.51,0.75,1.2,0.75,2.06l-4.82,0m0,-0.44l3.22,0c-0.02,-0.44,-0.07,-0.76,-0.16,-0.94c-0.12,-0.28,-0.31,-0.5,-0.56,-0.67c-0.25,-0.16,-0.51,-0.24,-0.78,-0.24c-0.42,0,-0.79,0.16,-1.13,0.49c-0.33,0.32,-0.52,0.78,-0.58,1.36m7.76,-2.39l0,1.56c0.58,-1.04,1.18,-1.56,1.79,-1.56c0.27,0,0.51,0.08,0.69,0.25c0.18,0.17,0.27,0.36,0.27,0.59c0,0.19,-0.06,0.36,-0.19,0.5c-0.13,0.13,-0.28,0.2,-0.47,0.2c-0.17,0,-0.37,-0.08,-0.59,-0.26c-0.22,-0.17,-0.38,-0.26,-0.49,-0.26c-0.09,0,-0.19,0.05,-0.29,0.15c-0.22,0.2,-0.46,0.55,-0.7,1.02l0,3.34c0,0.38,0.04,0.67,0.14,0.87c0.06,0.13,0.18,0.25,0.35,0.34c0.16,0.09,0.4,0.13,0.72,0.13l0,0.27l-3.57,0l0,-0.27c0.35,0,0.61,-0.05,0.79,-0.16c0.12,-0.08,0.21,-0.21,0.26,-0.38c0.02,-0.08,0.03,-0.33,0.03,-0.73l0,-2.7c0,-0.81,-0.01,-1.29,-0.04,-1.45c-0.03,-0.15,-0.09,-0.26,-0.18,-0.33c-0.08,-0.07,-0.19,-0.1,-0.33,-0.1c-0.15,0,-0.33,0.03,-0.53,0.11l-0.07,-0.27l2.11,-0.85l0.31,0m7.11,6.17c-0.71,0.55,-1.16,0.87,-1.34,0.95c-0.27,0.12,-0.56,0.19,-0.87,0.19c-0.48,0,-0.87,-0.16,-1.19,-0.49c-0.31,-0.33,-0.46,-0.76,-0.46,-1.3c0,-0.34,0.07,-0.63,0.22,-0.88c0.2,-0.34,0.57,-0.67,1.08,-0.97c0.51,-0.3,1.37,-0.67,2.57,-1.11l0,-0.27c0,-0.69,-0.11,-1.17,-0.33,-1.43c-0.22,-0.25,-0.54,-0.38,-0.96,-0.38c-0.31,0,-0.57,0.08,-0.76,0.25c-0.19,0.17,-0.28,0.37,-0.28,0.59l0.01,0.44c0,0.23,-0.05,0.41,-0.17,0.54c-0.11,0.12,-0.27,0.19,-0.46,0.19c-0.18,0,-0.34,-0.06,-0.46,-0.19c-0.11,-0.13,-0.17,-0.31,-0.17,-0.54c0,-0.43,0.22,-0.83,0.67,-1.2c0.44,-0.36,1.07,-0.54,1.88,-0.54c0.61,0,1.12,0.1,1.52,0.31c0.29,0.15,0.52,0.4,0.66,0.73c0.09,0.21,0.13,0.66,0.13,1.34l0,2.36c0,0.66,0.01,1.07,0.03,1.22c0.02,0.14,0.06,0.25,0.12,0.3c0.05,0.05,0.12,0.07,0.2,0.07c0.08,0,0.15,-0.01,0.21,-0.05c0.1,-0.06,0.31,-0.25,0.61,-0.55l0,0.42c-0.56,0.76,-1.11,1.14,-1.63,1.14c-0.24,0,-0.44,-0.08,-0.59,-0.25c-0.14,-0.17,-0.22,-0.46,-0.22,-0.88m0,-0.49l0,-2.65c-0.76,0.3,-1.26,0.52,-1.48,0.64c-0.4,0.22,-0.68,0.45,-0.86,0.7c-0.17,0.24,-0.25,0.51,-0.25,0.79c0,0.36,0.1,0.66,0.32,0.91c0.21,0.24,0.46,0.36,0.75,0.36c0.38,0,0.89,-0.25,1.52,-0.76m4.97,-7.76l0,2.29l1.63,0l0,0.53l-1.63,0l0,4.52c0,0.45,0.06,0.75,0.19,0.91c0.12,0.15,0.29,0.23,0.49,0.23c0.16,0,0.33,-0.05,0.48,-0.15c0.15,-0.1,0.27,-0.25,0.36,-0.46l0.29,0c-0.17,0.49,-0.42,0.87,-0.75,1.12c-0.32,0.25,-0.66,0.37,-1,0.37c-0.23,0,-0.46,-0.06,-0.68,-0.19c-0.22,-0.12,-0.38,-0.31,-0.49,-0.55c-0.1,-0.24,-0.16,-0.61,-0.16,-1.11l0,-4.69l-1.1,0l0,-0.25c0.27,-0.11,0.56,-0.3,0.85,-0.56c0.29,-0.26,0.55,-0.58,0.78,-0.94c0.11,-0.19,0.27,-0.54,0.48,-1.05l0.23,0m8.39,2.29l0,4.22c0,0.8,0.01,1.3,0.05,1.48c0.03,0.18,0.09,0.3,0.18,0.37c0.08,0.07,0.18,0.1,0.29,0.1c0.15,0,0.33,-0.04,0.53,-0.12l0.1,0.26l-2.08,0.86l-0.34,0l0,-1.47c-0.59,0.65,-1.05,1.05,-1.37,1.22c-0.31,0.16,-0.64,0.25,-0.99,0.25c-0.39,0,-0.73,-0.11,-1.01,-0.33c-0.28,-0.22,-0.48,-0.51,-0.59,-0.87c-0.11,-0.35,-0.16,-0.85,-0.16,-1.5l0,-3.11c0,-0.33,-0.03,-0.55,-0.1,-0.68c-0.07,-0.12,-0.17,-0.22,-0.31,-0.29c-0.13,-0.06,-0.39,-0.1,-0.75,-0.09l0,-0.28l2.44,0l0,4.66c0,0.65,0.11,1.07,0.33,1.27c0.22,0.2,0.49,0.3,0.81,0.3c0.21,0,0.46,-0.06,0.74,-0.2c0.27,-0.13,0.6,-0.39,0.98,-0.78l0,-3.95c0,-0.39,-0.07,-0.66,-0.21,-0.8c-0.14,-0.13,-0.44,-0.21,-0.9,-0.22l0,-0.28l2.37,0m3.72,-0.2l0,1.56c0.58,-1.04,1.18,-1.56,1.79,-1.56c0.27,0,0.51,0.08,0.69,0.25c0.18,0.17,0.27,0.36,0.27,0.59c0,0.19,-0.06,0.36,-0.19,0.5c-0.13,0.13,-0.28,0.2,-0.47,0.2c-0.17,0,-0.37,-0.08,-0.59,-0.26c-0.22,-0.17,-0.38,-0.26,-0.49,-0.26c-0.09,0,-0.19,0.05,-0.29,0.15c-0.22,0.2,-0.46,0.55,-0.7,1.02l0,3.34c0,0.38,0.04,0.67,0.14,0.87c0.06,0.13,0.18,0.25,0.35,0.34c0.16,0.09,0.4,0.13,0.72,0.13l0,0.27l-3.57,0l0,-0.27c0.35,0,0.61,-0.05,0.79,-0.16c0.12,-0.08,0.21,-0.21,0.26,-0.38c0.02,-0.08,0.03,-0.33,0.03,-0.73l0,-2.7c0,-0.81,-0.01,-1.29,-0.04,-1.45c-0.03,-0.15,-0.09,-0.26,-0.18,-0.33c-0.08,-0.07,-0.19,-0.1,-0.33,-0.1c-0.15,0,-0.33,0.03,-0.53,0.11l-0.07,-0.27l2.11,-0.85l0.31,0m4.33,2.83c0,1.03,0.24,1.84,0.75,2.43c0.5,0.58,1.1,0.88,1.79,0.88c0.45,0,0.85,-0.12,1.19,-0.37c0.33,-0.25,0.62,-0.68,0.84,-1.29l0.23,0.15c-0.1,0.69,-0.41,1.32,-0.92,1.9c-0.51,0.57,-1.15,0.85,-1.92,0.85c-0.83,0,-1.55,-0.32,-2.15,-0.97c-0.59,-0.65,-0.89,-1.52,-0.89,-2.63c0,-1.19,0.3,-2.12,0.91,-2.79c0.61,-0.66,1.38,-1,2.3,-1c0.78,0,1.42,0.25,1.92,0.77c0.5,0.51,0.75,1.2,0.75,2.06l-4.82,0m0,-0.44l3.22,0c-0.02,-0.44,-0.07,-0.76,-0.16,-0.94c-0.12,-0.28,-0.31,-0.5,-0.56,-0.67c-0.25,-0.16,-0.51,-0.24,-0.78,-0.24c-0.42,0,-0.79,0.16,-1.13,0.49c-0.33,0.32,-0.52,0.78,-0.58,1.36m6.07,7.38l0,-0.33c0.52,-0.17,0.92,-0.44,1.21,-0.8c0.28,-0.36,0.43,-0.74,0.43,-1.15c0,-0.09,-0.02,-0.17,-0.06,-0.24c-0.03,-0.04,-0.07,-0.06,-0.1,-0.06c-0.05,0,-0.17,0.05,-0.36,0.15c-0.09,0.04,-0.18,0.06,-0.28,0.06c-0.24,0,-0.44,-0.07,-0.59,-0.22c-0.14,-0.14,-0.22,-0.35,-0.22,-0.6c0,-0.24,0.09,-0.46,0.28,-0.63c0.19,-0.17,0.42,-0.26,0.69,-0.26c0.33,0,0.63,0.14,0.89,0.43c0.26,0.29,0.39,0.67,0.39,1.16c0,0.52,-0.18,1,-0.54,1.45c-0.36,0.44,-0.93,0.8,-1.72,1.06m12.37,-3.38c-0.34,0.35,-0.67,0.61,-0.99,0.76c-0.32,0.15,-0.67,0.23,-1.05,0.23c-0.76,0,-1.42,-0.31,-1.99,-0.95c-0.56,-0.63,-0.85,-1.45,-0.85,-2.45c0,-1,0.31,-1.91,0.94,-2.74c0.62,-0.83,1.43,-1.24,2.42,-1.24c0.61,0,1.12,0.19,1.52,0.58l0,-1.28c0,-0.79,-0.01,-1.28,-0.05,-1.47c-0.03,-0.18,-0.09,-0.3,-0.17,-0.37c-0.08,-0.06,-0.18,-0.09,-0.3,-0.09c-0.13,0,-0.3,0.04,-0.52,0.12l-0.09,-0.26l2.07,-0.85l0.34,0l0,8.06c0,0.81,0.01,1.31,0.05,1.49c0.03,0.18,0.09,0.3,0.18,0.37c0.08,0.07,0.18,0.1,0.29,0.1c0.13,0,0.31,-0.04,0.54,-0.12l0.08,0.26l-2.07,0.86l-0.35,0l0,-0.99m0,-0.53l0,-3.59c-0.03,-0.34,-0.12,-0.66,-0.27,-0.94c-0.15,-0.28,-0.35,-0.49,-0.6,-0.64c-0.25,-0.14,-0.49,-0.21,-0.73,-0.21c-0.44,0,-0.84,0.2,-1.19,0.6c-0.46,0.52,-0.69,1.3,-0.69,2.31c0,1.02,0.22,1.81,0.67,2.35c0.44,0.54,0.94,0.81,1.49,0.81c0.46,0,0.9,-0.23,1.34,-0.69m4.04,-3.03c0,1.03,0.24,1.84,0.75,2.43c0.5,0.58,1.1,0.88,1.79,0.88c0.45,0,0.85,-0.12,1.19,-0.37c0.33,-0.25,0.62,-0.68,0.84,-1.29l0.23,0.15c-0.1,0.69,-0.41,1.32,-0.92,1.9c-0.51,0.57,-1.15,0.85,-1.92,0.85c-0.83,0,-1.55,-0.32,-2.15,-0.97c-0.59,-0.65,-0.89,-1.52,-0.89,-2.63c0,-1.19,0.3,-2.12,0.91,-2.79c0.61,-0.66,1.38,-1,2.3,-1c0.78,0,1.42,0.25,1.92,0.77c0.5,0.51,0.75,1.2,0.75,2.06l-4.82,0m0,-0.44l3.22,0c-0.02,-0.44,-0.07,-0.76,-0.16,-0.94c-0.12,-0.28,-0.31,-0.5,-0.56,-0.67c-0.25,-0.16,-0.51,-0.24,-0.78,-0.24c-0.42,0,-0.79,0.16,-1.13,0.49c-0.33,0.32,-0.52,0.78,-0.58,1.36m7.59,2.24c-0.42,-0.2,-0.75,-0.49,-0.98,-0.87c-0.22,-0.37,-0.34,-0.78,-0.34,-1.23c0,-0.69,0.26,-1.28,0.78,-1.78c0.52,-0.49,1.18,-0.74,1.99,-0.74c0.66,0,1.24,0.16,1.72,0.48l1.47,0c0.21,0,0.34,0,0.38,0.01c0.03,0.01,0.06,0.03,0.07,0.06c0.03,0.04,0.04,0.12,0.04,0.24c0,0.13,-0.01,0.22,-0.03,0.27c-0.01,0.02,-0.04,0.04,-0.08,0.06c-0.03,0.01,-0.16,0.02,-0.38,0.02l-0.9,0c0.28,0.36,0.42,0.83,0.42,1.4c0,0.65,-0.24,1.2,-0.74,1.66c-0.49,0.46,-1.16,0.69,-2,0.69c-0.34,0,-0.69,-0.05,-1.05,-0.15c-0.22,0.19,-0.37,0.36,-0.45,0.5c-0.07,0.14,-0.11,0.26,-0.11,0.36c0,0.08,0.04,0.17,0.12,0.25c0.08,0.08,0.24,0.13,0.49,0.17c0.14,0.02,0.49,0.03,1.06,0.05c1.04,0.02,1.72,0.06,2.03,0.1c0.47,0.06,0.84,0.24,1.13,0.52c0.28,0.28,0.42,0.63,0.42,1.05c0,0.57,-0.26,1.11,-0.8,1.61c-0.79,0.74,-1.82,1.11,-3.1,1.11c-0.98,0,-1.8,-0.22,-2.48,-0.66c-0.38,-0.25,-0.57,-0.51,-0.57,-0.79c0,-0.12,0.02,-0.24,0.08,-0.36c0.08,-0.18,0.26,-0.44,0.53,-0.78c0.03,-0.04,0.29,-0.31,0.77,-0.82c-0.26,-0.15,-0.45,-0.29,-0.55,-0.42c-0.1,-0.12,-0.16,-0.26,-0.16,-0.42c0,-0.17,0.07,-0.38,0.21,-0.62c0.14,-0.23,0.47,-0.57,1,-1.01m1.32,-4.27c-0.37,0,-0.69,0.14,-0.94,0.44c-0.25,0.29,-0.38,0.75,-0.38,1.37c0,0.8,0.17,1.42,0.51,1.86c0.26,0.33,0.59,0.5,1,0.5c0.38,0,0.7,-0.14,0.95,-0.43c0.24,-0.28,0.37,-0.74,0.37,-1.36c0,-0.8,-0.17,-1.43,-0.52,-1.89c-0.25,-0.33,-0.59,-0.5,-0.99,-0.5m-1.4,6.81c-0.23,0.25,-0.41,0.5,-0.54,0.72c-0.12,0.22,-0.18,0.42,-0.18,0.61c0,0.24,0.14,0.45,0.44,0.63c0.5,0.31,1.24,0.47,2.2,0.47c0.91,0,1.58,-0.16,2.02,-0.48c0.43,-0.32,0.65,-0.66,0.65,-1.03c0,-0.26,-0.12,-0.45,-0.38,-0.56c-0.26,-0.11,-0.78,-0.17,-1.56,-0.19c-1.14,-0.03,-2.02,-0.08,-2.63,-0.17m14.91,-10.56l0.23,3.51l-0.23,0c-0.31,-1.05,-0.76,-1.8,-1.34,-2.26c-0.58,-0.46,-1.28,-0.69,-2.1,-0.69c-0.68,0,-1.3,0.17,-1.85,0.52c-0.55,0.34,-0.98,0.9,-1.3,1.66c-0.31,0.76,-0.47,1.7,-0.47,2.84c0,0.93,0.14,1.74,0.44,2.42c0.29,0.68,0.75,1.21,1.35,1.57c0.6,0.36,1.28,0.54,2.06,0.54c0.67,0,1.26,-0.14,1.77,-0.43c0.51,-0.28,1.07,-0.85,1.69,-1.71l0.23,0.15c-0.51,0.91,-1.12,1.59,-1.81,2.01c-0.69,0.42,-1.51,0.63,-2.46,0.63c-1.71,0,-3.03,-0.63,-3.97,-1.9c-0.7,-0.94,-1.05,-2.05,-1.05,-3.33c0,-1.03,0.23,-1.97,0.69,-2.84c0.46,-0.86,1.09,-1.53,1.9,-2c0.81,-0.47,1.69,-0.71,2.65,-0.71c0.74,0,1.48,0.18,2.2,0.54c0.21,0.11,0.36,0.16,0.45,0.16c0.13,0,0.25,-0.04,0.35,-0.14c0.13,-0.13,0.22,-0.32,0.28,-0.57l0.26,0" fill="#000000" stroke="none" fill-opacity="1"/>
<path d="m44.15,377.21c0,-0.95,0.14,-1.77,0.43,-2.45c0.28,-0.68,0.66,-1.19,1.14,-1.53c0.36,-0.26,0.75,-0.39,1.14,-0.39c0.63,0,1.21,0.32,1.72,0.97c0.63,0.8,0.95,1.9,0.95,3.28c0,0.96,-0.13,1.79,-0.41,2.46c-0.27,0.67,-0.63,1.16,-1.06,1.47c-0.43,0.3,-0.85,0.45,-1.25,0.45c-0.79,0,-1.45,-0.46,-1.98,-1.4c-0.44,-0.79,-0.67,-1.74,-0.67,-2.86m1.2,0.15c0,1.14,0.14,2.08,0.42,2.81c0.23,0.61,0.58,0.91,1.04,0.91c0.22,0,0.45,-0.09,0.68,-0.29c0.23,-0.19,0.41,-0.53,0.54,-0.99c0.18,-0.7,0.28,-1.7,0.28,-2.98c0,-0.95,-0.09,-1.74,-0.29,-2.38c-0.14,-0.47,-0.33,-0.8,-0.57,-1c-0.16,-0.13,-0.37,-0.2,-0.6,-0.2c-0.27,0,-0.52,0.12,-0.74,0.37c-0.29,0.34,-0.49,0.87,-0.6,1.6c-0.1,0.73,-0.16,1.44,-0.16,2.15" fill="#000000" stroke="none" fill-opacity="1"/>
<path d="m115.38,379.72l-0.58,1.6l-4.92,0l0,-0.22c1.44,-1.32,2.46,-2.39,3.05,-3.23c0.59,-0.83,0.88,-1.6,0.88,-2.29c0,-0.52,-0.16,-0.96,-0.48,-1.3c-0.32,-0.34,-0.71,-0.51,-1.16,-0.51c-0.41,0,-0.77,0.12,-1.1,0.35c-0.32,0.23,-0.56,0.59,-0.72,1.05l-0.22,0c0.1,-0.75,0.36,-1.34,0.79,-1.74c0.42,-0.4,0.95,-0.6,1.59,-0.6c0.67,0,1.24,0.21,1.69,0.65c0.45,0.43,0.67,0.94,0.67,1.53c0,0.42,-0.09,0.84,-0.29,1.26c-0.3,0.66,-0.79,1.36,-1.47,2.11c-1.02,1.11,-1.65,1.78,-1.91,2.01l2.17,0c0.44,0,0.75,-0.01,0.93,-0.04c0.17,-0.03,0.33,-0.09,0.48,-0.2c0.14,-0.1,0.26,-0.24,0.37,-0.42l0.22,0m5.99,-6.73l-0.47,1.04l-2.51,0l-0.54,1.11c1.08,0.16,1.94,0.56,2.58,1.21c0.54,0.55,0.81,1.21,0.81,1.96c0,0.43,-0.08,0.84,-0.26,1.21c-0.17,0.37,-0.4,0.69,-0.67,0.95c-0.27,0.26,-0.57,0.47,-0.9,0.63c-0.47,0.22,-0.95,0.33,-1.45,0.33c-0.5,0,-0.86,-0.08,-1.09,-0.25c-0.22,-0.17,-0.34,-0.35,-0.34,-0.56c0,-0.11,0.04,-0.21,0.14,-0.3c0.09,-0.08,0.21,-0.13,0.35,-0.13c0.1,0,0.2,0.01,0.27,0.04c0.08,0.03,0.21,0.11,0.4,0.25c0.3,0.21,0.61,0.31,0.93,0.31c0.47,0,0.9,-0.18,1.26,-0.54c0.36,-0.36,0.54,-0.8,0.54,-1.32c0,-0.5,-0.16,-0.97,-0.48,-1.41c-0.32,-0.43,-0.77,-0.77,-1.34,-1.01c-0.44,-0.18,-1.05,-0.29,-1.82,-0.31l1.59,-3.24l2.99,0m1.28,4.22c0,-0.95,0.14,-1.77,0.43,-2.45c0.28,-0.68,0.66,-1.19,1.14,-1.53c0.36,-0.26,0.75,-0.39,1.14,-0.39c0.63,0,1.21,0.32,1.72,0.97c0.63,0.8,0.95,1.9,0.95,3.28c0,0.96,-0.13,1.79,-0.41,2.46c-0.27,0.67,-0.63,1.16,-1.06,1.47c-0.43,0.3,-0.85,0.45,-1.25,0.45c-0.79,0,-1.45,-0.46,-1.98,-1.4c-0.44,-0.79,-0.67,-1.74,-0.67,-2.86m1.2,0.15c0,1.14,0.14,2.08,0.42,2.81c0.23,0.61,0.58,0.91,1.04,0.91c0.22,0,0.45,-0.09,0.68,-0.29c0.23,-0.19,0.41,-0.53,0.54,-0.99c0.18,-0.7,0.28,-1.7,0.28,-2.98c0,-0.95,-0.09,-1.74,-0.29,-2.38c-0.14,-0.47,-0.33,-0.8,-0.57,-1c-0.16,-0.13,-0.37,-0.2,-0.6,-0.2c-0.27,0,-0.52,0.12,-0.74,0.37c-0.29,0.34,-0.49,0.87,-0.6,1.6c-0.1,0.73,-0.16,1.44,-0.16,2.15" fill="#000000" stroke="none" fill-opacity="1"/>
<path d="m187.27,372.99l-0.47,1.04l-2.51,0l-0.54,1.11c1.08,0.16,1.94,0.56,2.58,1.21c0.54,0.55,0.81,1.21,0.81,1.96c0,0.43,-0.08,0.84,-0.26,1.21c-0.17,0.37,-0.4,0.69,-0.67,0.95c-0.27,0.26,-0.57,0.47,-0.9,0.63c-0.47,0.22,-0.95,0.33,-1.45,0.33c-0.5,0,-0.86,-0.08,-1.09,-0.25c-0.22,-0.17,-0.34,-0.35,-0.34,-0.56c0,-0.11,0.04,-0.21,0.14,-0.3c0.09,-0.08,0.21,-0.13,0.35,-0.13c0.1,0,0.2,0.01,0.27,0.04c0.08,0.03,0.21,0.11,0.4,0.25c0.3,0.21,0.61,0.31,0.93,0.31c0.47,0,0.9,-0.18,1.26,-0.54c0.36,-0.36,0.54,-0.8,0.54,-1.32c0,-0.5,-0.16,-0.97,-0.48,-1.41c-0.32,-0.43,-0.77,-0.77,-1.34,-1.01c-0.44,-0.18,-1.05,-0.29,-1.82,-0.31l1.59,-3.24l2.99,0m1.28,4.22c0,-0.95,0.14,-1.77,0.43,-2.45c0.28,-0.68,0.66,-1.19,1.14,-1.53c0.36,-0.26,0.75,-0.39,1.14,-0.39c0.63,0,1.21,0.32,1.72,0.97c0.63,0.8,0.95,1.9,0.95,3.28c0,0.96,-0.13,1.79,-0.41,2.46c-0.27,0.67,-0.63,1.16,-1.06,1.47c-0.43,0.3,-0.85,0.45,-1.25,0.45c-0.79,0,-1.45,-0.46,-1.98,-1.4c-0.44,-0.79,-0.67,-1.74,-0.67,-2.86m1.2,0.15c0,1.14,0.14,2.08,0.42,2.81c0.23,0.61,0.58,0.91,1.04,0.91c0.22,0,0.45,-0.09,0.68,-0.29c0.23,-0.19,0.41,-0.53,0.54,-0.99c0.18,-0.7,0.28,-1.7,0.28,-2.98c0,-0.95,-0.09,-1.74,-0.29,-2.38c-0.14,-0.47,-0.33,-0.8,-0.57,-1c-0.16,-0.13,-0.37,-0.2,-0.6,-0.2c-0.27,0,-0.52,0.12,-0.74,0.37c-0.29,0.34,-0.49,0.87,-0.6,1.6c-0.1,0.73,-0.16,1.44,-0.16,2.15m5.09,-0.15c0,-0.95,0.14,-1.77,0.43,-2.45c0.28,-0.68,0.66,-1.19,1.14,-1.53c0.36,-0.26,0.75,-0.39,1.14,-0.39c0.63,0,1.21,0.32,1.72,0.97c0.63,0.8,0.95,1.9,0.95,3.28c0,0.96,-0.13,1.79,-0.41,2.46c-0.27,0.67,-0.63,1.16,-1.06,1.47c-0.43,0.3,-0.85,0.45,-1.25,0.45c-0.79,0,-1.45,-0.46,-1.98,-1.4c-0.44,-0.79,-0.67,-1.74,-0.67,-2.86m1.2,0.15c0,1.14,0.14,2.08,0.42,2.81c0.23,0.61,0.58,0.91,1.04,0.91c0.22,0,0.45,-0.09,0.68,-0.29c0.23,-0.19,0.41,-0.53,0.54,-0.99c0.18,-0.7,0.28,-1.7,0.28,-2.98c0,-0.95,-0.09,-1.74,-0.29,-2.38c-0.14,-0.47,-0.33,-0.8,-0.57,-1c-0.16,-0.13,-0.37,-0.2,-0.6,-0.2c-0.27,0,-0.52,0.12,-0.74,0.37c-0.29,0.34,-0.49,0.87,-0.6,1.6c-0.1,0.73,-0.16,1.44,-0.16,2.15" fill="#000000" stroke="none" fill-opacity="1"/>
<path d="m255.28,372.99l4.47,0l0,0.23l-2.78,8.28l-0.68,0l2.49,-7.51l-2.29,0c-0.46,0,-0.79,0.05,-0.99,0.16c-0.34,0.18,-0.62,0.47,-0.83,0.87l-0.17,-0.06l0.79,-1.97m10.5,0l-0.47,1.04l-2.51,0l-0.54,1.11c1.08,0.16,1.94,0.56,2.58,1.21c0.54,0.55,0.81,1.21,0.81,1.96c0,0.43,-0.08,0.84,-0.26,1.21c-0.17,0.37,-0.4,0.69,-0.67,0.95c-0.27,0.26,-0.57,0.47,-0.9,0.63c-0.47,0.22,-0.95,0.33,-1.45,0.33c-0.5,0,-0.86,-0.08,-1.09,-0.25c-0.22,-0.17,-0.34,-0.35,-0.34,-0.56c0,-0.11,0.04,-0.21,0.14,-0.3c0.09,-0.08,0.21,-0.13,0.35,-0.13c0.1,0,0.2,0.01,0.27,0.04c0.08,0.03,0.21,0.11,0.4,0.25c0.3,0.21,0.61,0.31,0.93,0.31c0.47,0,0.9,-0.18,1.26,-0.54c0.36,-0.36,0.54,-0.8,0.54,-1.32c0,-0.5,-0.16,-0.97,-0.48,-1.41c-0.32,-0.43,-0.77,-0.77,-1.34,-1.01c-0.44,-0.18,-1.05,-0.29,-1.82,-0.31l1.59,-3.24l2.99,0m1.28,4.22c0,-0.95,0.14,-1.77,0.43,-2.45c0.28,-0.68,0.66,-1.19,1.14,-1.53c0.36,-0.26,0.75,-0.39,1.14,-0.39c0.63,0,1.21,0.32,1.72,0.97c0.63,0.8,0.95,1.9,0.95,3.28c0,0.96,-0.13,1.79,-0.41,2.46c-0.27,0.67,-0.63,1.16,-1.06,1.47c-0.43,0.3,-0.85,0.45,-1.25,0.45c-0.79,0,-1.45,-0.46,-1.98,-1.4c-0.44,-0.79,-0.67,-1.74,-0.67,-2.86m1.2,0.15c0,1.14,0.14,2.08,0.42,2.81c0.23,0.61,0.58,0.91,1.04,0.91c0.22,0,0.45,-0.09,0.68,-0.29c0.23,-0.19,0.41,-0.53,0.54,-0.99c0.18,-0.7,0.28,-1.7,0.28,-2.98c0,-0.95,-0.09,-1.74,-0.29,-2.38c-0.14,-0.47,-0.33,-0.8,-0.57,-1c-0.16,-0.13,-0.37,-0.2,-0.6,-0.2c-0.27,0,-0.52,0.12,-0.74,0.37c-0.29,0.34,-0.49,0.87,-0.6,1.6c-0.1,0.73,-0.16,1.44,-0.16,2.15" fill="#000000" stroke="none" fill-opacity="1"/>
<path d="m324.54,373.81l2.03,-0.99l0.2,0l0,7.04c0,0.46,0.01,0.75,0.05,0.87c0.03,0.11,0.12,0.2,0.24,0.26c0.12,0.06,0.37,0.09,0.75,0.1l0,0.22l-3.13,0l0,-0.22c0.39,0,0.64,-0.04,0.76,-0.1c0.11,-0.05,0.19,-0.13,0.23,-0.23c0.04,-0.1,0.06,-0.4,0.06,-0.9l0,-4.5c0,-0.6,-0.02,-0.99,-0.06,-1.16c-0.02,-0.13,-0.08,-0.22,-0.15,-0.28c-0.07,-0.06,-0.16,-0.09,-0.27,-0.09c-0.15,0,-0.36,0.06,-0.63,0.19l-0.09,-0.19m5.27,3.4c0,-0.95,0.14,-1.77,0.43,-2.45c0.28,-0.68,0.66,-1.19,1.14,-1.53c0.36,-0.26,0.75,-0.39,1.14,-0.39c0.63,0,1.21,0.32,1.72,0.97c0.63,0.8,0.95,1.9,0.95,3.28c0,0.96,-0.13,1.79,-0.41,2.46c-0.27,0.67,-0.63,1.16,-1.06,1.47c-0.43,0.3,-0.85,0.45,-1.25,0.45c-0.79,0,-1.45,-0.46,-1.98,-1.4c-0.44,-0.79,-0.67,-1.74,-0.67,-2.86m1.2,0.15c0,1.14,0.14,2.08,0.42,2.81c0.23,0.61,0.58,0.91,1.04,0.91c0.22,0,0.45,-0.09,0.68,-0.29c0.23,-0.19,0.41,-0.53,0.54,-0.99c0.18,-0.7,0.28,-1.7,0.28,-2.98c0,-0.95,-0.09,-1.74,-0.29,-2.38c-0.14,-0.47,-0.33,-0.8,-0.57,-1c-0.16,-0.13,-0.37,-0.2,-0.6,-0.2c-0.27,0,-0.52,0.12,-0.74,0.37c-0.29,0.34,-0.49,0.87,-0.6,1.6c-0.1,0.73,-0.16,1.44,-0.16,2.15m5.09,-0.15c0,-0.95,0.14,-1.77,0.43,-2.45c0.28,-0.68,0.66,-1.19,1.14,-1.53c0.36,-0.26,0.75,-0.39,1.14,-0.39c0.63,0,1.21,0.32,1.72,0.97c0.63,0.8,0.95,1.9,0.95,3.28c0,0.96,-0.13,1.79,-0.41,2.46c-0.27,0.67,-0.63,1.16,-1.06,1.47c-0.43,0.3,-0.85,0.45,-1.25,0.45c-0.79,0,-1.45,-0.46,-1.98,-1.4c-0.44,-0.79,-0.67,-1.74,-0.67,-2.86m1.2,0.15c0,1.14,0.14,2.08,0.42,2.81c0.23,0.61,0.58,0.91,1.04,0.91c0.22,0,0.45,-0.09,0.68,-0.29c0.23,-0.19,0.41,-0.53,0.54,-0.99c0.18,-0.7,0.28,-1.7,0.28,-2.98c0,-0.95,-0.09,-1.74,-0.29,-2.38c-0.14,-0.47,-0.33,-0.8,-0.57,-1c-0.16,-0.13,-0.37,-0.2,-0.6,-0.2c-0.27,0,-0.52,0.12,-0.74,0.37c-0.29,0.34,-0.49,0.87,-0.6,1.6c-0.1,0.73,-0.16,1.44,-0.16,2.15m5.09,-0.15c0,-0.95,0.14,-1.77,0.43,-2.45c0.28,-0.68,0.66,-1.19,1.14,-1.53c0.36,-0.26,0.75,-0.39,1.14,-0.39c0.63,0,1.21,0.32,1.72,0.97c0.63,0.8,0.95,1.9,0.95,3.28c0,0.96,-0.13,1.79,-0.41,2.46c-0.27,0.67,-0.63,1.16,-1.06,1.47c-0.43,0.3,-0.85,0.45,-1.25,0.45c-0.79,0,-1.45,-0.46,-1.98,-1.4c-0.44,-0.79,-0.67,-1.74,-0.67,-2.86m1.2,0.15c0,1.14,0.14,2.08,0.42,2.81c0.23,0.61,0.58,0.91,1.04,0.91c0.22,0,0.45,-0.09,0.68,-0.29c0.23,-0.19,0.41,-0.53,0.54,-0.99c0.18,-0.7,0.28,-1.7,0.28,-2.98c0,-0.95,-0.09,-1.74,-0.29,-2.38c-0.14,-0.47,-0.33,-0.8,-0.57,-1c-0.16,-0.13,-0.37,-0.2,-0.6,-0.2c-0.27,0,-0.52,0.12,-0.74,0.37c-0.29,0.34,-0.49,0.87,-0.6,1.6c-0.1,0.73,-0.16,1.44,-0.16,2.15" fill="#000000" stroke="none" fill-opacity="1"/>
<path d="m389.66,373.81l2.03,-0.99l0.2,0l0,7.04c0,0.46,0.01,0.75,0.05,0.87c0.03,0.11,0.12,0.2,0.24,0.26c0.12,0.06,0.37,0.09,0.75,0.1l0,0.22l-3.13,0l0,-0.22c0.39,0,0.64,-0.04,0.76,-0.1c0.11,-0.05,0.19,-0.13,0.23,-0.23c0.04,-0.1,0.06,-0.4,0.06,-0.9l0,-4.5c0,-0.6,-0.02,-0.99,-0.06,-1.16c-0.02,-0.13,-0.08,-0.22,-0.15,-0.28c-0.07,-0.06,-0.16,-0.09,-0.27,-0.09c-0.15,0,-0.36,0.06,-0.63,0.19l-0.09,-0.19m10.6,5.91l-0.58,1.6l-4.92,0l0,-0.22c1.44,-1.32,2.46,-2.39,3.05,-3.23c0.59,-0.83,0.88,-1.6,0.88,-2.29c0,-0.52,-0.16,-0.96,-0.48,-1.3c-0.32,-0.34,-0.71,-0.51,-1.16,-0.51c-0.41,0,-0.77,0.12,-1.1,0.35c-0.32,0.23,-0.56,0.59,-0.72,1.05l-0.22,0c0.1,-0.75,0.36,-1.34,0.79,-1.74c0.42,-0.4,0.95,-0.6,1.59,-0.6c0.67,0,1.24,0.21,1.69,0.65c0.45,0.43,0.67,0.94,0.67,1.53c0,0.42,-0.09,0.84,-0.29,1.26c-0.3,0.66,-0.79,1.36,-1.47,2.11c-1.02,1.11,-1.65,1.78,-1.91,2.01l2.17,0c0.44,0,0.75,-0.01,0.93,-0.04c0.17,-0.03,0.33,-0.09,0.48,-0.2c0.14,-0.1,0.26,-0.24,0.37,-0.42l0.22,0m5.99,-6.73l-0.47,1.04l-2.51,0l-0.54,1.11c1.08,0.16,1.94,0.56,2.58,1.21c0.54,0.55,0.81,1.21,0.81,1.96c0,0.43,-0.08,0.84,-0.26,1.21c-0.17,0.37,-0.4,0.69,-0.67,0.95c-0.27,0.26,-0.57,0.47,-0.9,0.63c-0.47,0.22,-0.95,0.33,-1.45,0.33c-0.5,0,-0.86,-0.08,-1.09,-0.25c-0.22,-0.17,-0.34,-0.35,-0.34,-0.56c0,-0.11,0.04,-0.21,0.14,-0.3c0.09,-0.08,0.21,-0.13,0.35,-0.13c0.1,0,0.2,0.01,0.27,0.04c0.08,0.03,0.21,0.11,0.4,0.25c0.3,0.21,0.61,0.31,0.93,0.31c0.47,0,0.9,-0.18,1.26,-0.54c0.36,-0.36,0.54,-0.8,0.54,-1.32c0,-0.5,-0.16,-0.97,-0.48,-1.41c-0.32,-0.43,-0.77,-0.77,-1.34,-1.01c-0.44,-0.18,-1.05,-0.29,-1.82,-0.31l1.59,-3.24l2.99,0m1.28,4.22c0,-0.95,0.14,-1.77,0.43,-2.45c0.28,-0.68,0.66,-1.19,1.14,-1.53c0.36,-0.26,0.75,-0.39,1.14,-0.39c0.63,0,1.21,0.32,1.72,0.97c0.63,0.8,0.95,1.9,0.95,3.28c0,0.96,-0.13,1.79,-0.41,2.46c-0.27,0.67,-0.63,1.16,-1.06,1.47c-0.43,0.3,-0.85,0.45,-1.25,0.45c-0.79,0,-1.45,-0.46,-1.98,-1.4c-0.44,-0.79,-0.67,-1.74,-0.67,-2.86m1.2,0.15c0,1.14,0.14,2.08,0.42,2.81c0.23,0.61,0.58,0.91,1.04,0.91c0.22,0,0.45,-0.09,0.68,-0.29c0.23,-0.19,0.41,-0.53,0.54,-0.99c0.18,-0.7,0.28,-1.7,0.28,-2.98c0,-0.95,-0.09,-1.74,-0.29,-2.38c-0.14,-0.47,-0.33,-0.8,-0.57,-1c-0.16,-0.13,-0.37,-0.2,-0.6,-0.2c-0.27,0,-0.52,0.12,-0.74,0.37c-0.29,0.34,-0.49,0.87,-0.6,1.6c-0.1,0.73,-0.16,1.44,-0.16,2.15" fill="#000000" stroke="none" fill-opacity="1"/>
</g>
<g fill="none" stroke-linecap="butt" stroke-width="0.48">
<path d="M407.87,366.53l0,-361.02"/>
<path d="M407.87,366.53l-2.91,0M407.87,348.48l-2.91,0M407.87,330.43l-2.91,0M407.87,312.38l-2.91,0M407.87,294.33l-2.91,0M407.87,276.27l-2.91,0M407.87,258.22l-2.91,0M407.87,240.17l-2.91,0M407.87,222.12l-2.91,0M407.87,204.07l-2.91,0M407.87,186.02l-2.91,0M407.87,167.97l-2.91,0M407.87,149.92l-2.91,0M407.87,131.87l-2.91,0M407.87,113.81l-2.91,0M407.87,95.76l-2.91,0M407.87,77.71l-2.91,0M407.87,59.66l-2.91,0M407.87,41.61l-2.91,0M407.87,23.56l-2.91,0M407.87,5.51l-2.91,0"/>
<path d="M407.87,366.53l-5.83,0M407.87,294.33l-5.83,0M407.87,222.12l-5.83,0M407.87,149.92l-5.83,0M407.87,77.71l-5.83,0M407.87,5.51l-5.83,0"/>
<path d="M46.85,5.51l361.02,0"/>
<path d="M46.85,5.51l0,2.91M61.29,5.51l0,2.91M75.73,5.51l0,2.91M90.17,5.51l0,2.91M104.61,5.51l0,2.91M119.05,5.51l0,2.91M133.49,5.51l0,2.91M147.93,5.51l0,2.91M162.37,5.51l0,2.91M176.81,5.51l0,2.91M191.25,5.51l0,2.91M205.7,5.51l0,2.91M220.14,5.51l0,2.91M234.58,5.51l0,2.91M249.02,5.51l0,2.91M263.46,5.51l0,2.91M277.9,5.51l0,2.91M292.34,5.51l0,2.91M306.78,5.51l0,2.91M321.22,5.51l0,2.91M335.66,5.51l0,2.91M350.11,5.51l0,2.91M364.55,5.51l0,2.91M378.99,5.51l0,2.91M393.43,5.51l0,2.91M407.87,5.51l0,2.91"/>
<path d="M46.85,5.51l0,5.83M119.05,5.51l0,5.83M191.25,5.51l0,5.83M263.46,5.51l0,5.83M335.66,5.51l0,5.83M407.87,5.51l0,5.83"/>
</g>
</g>
</g>
</svg>
