<?xml version="1.0" standalone="no"?>
<!DOCTYPE svg PUBLIC "-//W3C//DTD SVG 1.1//EN"
  "http://www.w3.org/Graphics/SVG/1.1/DTD/svg11.dtd">
<svg width="531.49px" height="531.49px" version="1.1"
    xmlns="http://www.w3.org/2000/svg"
    xmlns:xlink="http://www.w3.org/1999/xlink">
<desc>Veusz output document</desc>
<defs>
<clipPath id="c0">
<path d="m0,0l531.49,0l0,531.49l-531.49,0l0,-531.49"/>
</clipPath>
<clipPath id="c1">
<path d="m60.23,7.08l464.17,0l0,464.17l-464.17,0l0,-464.17"/>
</clipPath>
</defs>
<g stroke-linejoin="bevel" stroke-linecap="square" stroke="#000000" fill-rule="evenodd">
<g clip-path="url(#c0)">
<g fill="#ffffff" stroke-width="0.62">
<path d="m60.23,7.08l464.17,0l0,464.17l-464.17,0l0,-464.17"/>
</g>
<g fill="#ffffff" stroke="none" stroke-width="1">
<path d="m74.69,296.96l139.23,0l0,117l-139.23,0l0,-117" id="p0"/>
</g>
<g fill="none" stroke-width="0.62">
<use xlink:href="#p0"/>
</g>
<g fill="none" stroke="#0000ff" stroke-dasharray="1.87,3.75" stroke-width="1.87">
<path d="M94.19,316.46l35.43,0"/>
</g>
<g fill="none" stroke-width="1">
<g stroke="none" fill="#000000" fill-opacity="1" font-family="Times New Roman" font-size="17.5">
<text x="149.12" y="322.31" textLength="8.9">β</text>
<text x="158.02" y="322.31" textLength="36.3" xml:space="preserve"> = 25</text>
</g>
</g>
<g fill="none" stroke="#000091" stroke-dasharray="1.87,3.75" stroke-width="1.87">
<path d="M94.19,335.96l35.43,0"/>
</g>
<g fill="none" stroke-width="1">
<g stroke="none" fill="#000000" fill-opacity="1" font-family="Times New Roman" font-size="17.5">
<text x="149.12" y="341.81" textLength="8.9">β</text>
<text x="158.02" y="341.81" textLength="36.3" xml:space="preserve"> = 10</text>
</g>
</g>
<g fill="none" stroke-width="3.75">
<path d="M94.19,355.46l35.43,0"/>
</g>
<g fill="none" stroke-width="1">
<g stroke="none" fill="#000000" fill-opacity="1" font-family="Times New Roman" font-size="17.5">
<text x="149.12" y="361.31" textLength="8.9">β</text>
<text x="158.02" y="361.31" textLength="27.5" xml:space="preserve"> = 5</text>
</g>
</g>
<g fill="none" stroke="#9c0000" stroke-dasharray="1.87,3.75" stroke-width="1.87">
<path d="M94.19,374.96l35.43,0"/>
</g>
<g fill="none" stroke-width="1">
<g stroke="none" fill="#000000" fill-opacity="1" font-family="Times New Roman" font-size="17.5">
<text x="149.12" y="380.81" textLength="8.9">β</text>
<text x="158.02" y="380.81" textLength="27.5" xml:space="preserve"> = 3</text>
</g>
</g>
<g fill="none" stroke="#ff0000" stroke-dasharray="1.87,3.75" stroke-width="1.87">
<path d="M94.19,394.46l35.43,0"/>
</g>
<g fill="none" stroke-width="1">
<g stroke="none" fill="#000000" fill-opacity="1" font-family="Times New Roman" font-size="17.5">
<text x="149.12" y="400.31" textLength="8.9">β</text>
<text x="158.02" y="400.31" textLength="27.5" xml:space="preserve"> = 2</text>
</g>
</g>
<g fill="none" stroke="#ff0000" stroke-width="1">
<g stroke="none" fill="#ff0000" fill-opacity="1" font-family="Times New Roman" font-size="22.5">
<text x="160.49" y="255.88" textLength="113.2" xml:space="preserve">Decrease of </text>
<text x="273.69" y="255.88" textLength="11.4">β</text>
</g>
</g>
<g fill="none" stroke="#0000ff" stroke-width="1">
<g stroke="none" fill="#0000ff" fill-opacity="1" font-family="Times New Roman" font-size="22.5">
<text x="391.65" y="108.27" textLength="105.8" xml:space="preserve">Increase of </text>
<text x="497.45" y="108.27" textLength="11.4">β</text>
</g>
</g>
</g>
<g clip-path="url(#c1)">
<g fill="none" stroke="#ff0000" stroke-dasharray="1.87,3.75" stroke-width="1.87">
<polyline fill="none" points="60.23,105.07 69.7,105.29 79.18,105.95 88.65,107.05 98.12,108.59 107.6,110.56 117.07,112.98 126.54,115.84 136.01,119.13 145.49,122.86 154.96,127.04 164.43,131.65 173.91,136.7 183.38,142.19 192.85,148.12 202.33,154.49 211.8,161.3 221.27,168.54 230.74,176.23 240.22,184.36 249.69,192.92 259.16,201.92 268.64,211.37 278.11,221.25 287.58,231.57 297.05,242.33 306.53,253.53 316,265.17 325.47,277.25 334.95,289.77 344.42,302.73 353.89,316.13 363.36,329.96 372.84,344.24 382.31,358.95 391.78,374.1 401.26,389.7 410.73,405.73 420.2,422.2 429.68,439.11 439.15,456.46 448.62,466.1 458.09,466.1 467.57,466.1 477.04,466.1 486.51,466.1 495.99,466.1 505.46,466.1 514.93,466.1 524.4,466.1"/>
</g>
</g>
<g clip-path="url(#c0)">
<g fill="#ff0000" stroke="#ff0000" stroke-width="1.25">
<g transform="matrix(-0.809 0.5877 -0.5877 -0.809 330.38 178.83)">
<path d="M0,0l88,0"/>
</g>
</g>
<g fill="#ff0000" stroke="#ff0000" stroke-linejoin="miter" stroke-width="1.25">
<g transform="matrix(-0.809 0.5877 -0.5877 -0.809 259.18 230.56)">
<path d="m0,0l-11.25,6.25l0,-12.5l11.25,6.25" id="p1"/>
</g>
</g>
</g>
<g clip-path="url(#c1)">
<g fill="none" stroke="#9c0000" stroke-dasharray="1.87,3.75" stroke-width="1.87">
<polyline fill="none" points="60.23,105.07 69.7,105.08 79.18,105.12 88.65,105.22 98.12,105.42 107.6,105.75 117.07,106.24 126.54,106.92 136.01,107.83 145.49,108.99 154.96,110.45 164.43,112.23 173.91,114.37 183.38,116.89 192.85,119.83 202.33,123.23 211.8,127.1 221.27,131.5 230.74,136.44 240.22,141.96 249.69,148.1 259.16,154.88 268.64,162.34 278.11,170.51 287.58,179.42 297.05,189.11 306.53,199.6 316,210.94 325.47,223.14 334.95,236.25 344.42,250.29 353.89,265.3 363.36,281.31 372.84,298.36 382.31,316.47 391.78,335.67 401.26,356.01 410.73,377.5 420.2,400.2 429.68,424.11 439.15,449.29 448.62,466.1 458.09,466.1 467.57,466.1 477.04,466.1 486.51,466.1 495.99,466.1 505.46,466.1 514.93,466.1 524.4,466.1"/>
</g>
<g fill="none" stroke-width="3.75">
<polyline fill="none" points="60.23,105.07 69.7,105.07 79.18,105.07 88.65,105.07 98.12,105.08 107.6,105.08 117.07,105.1 126.54,105.13 136.01,105.18 145.49,105.26 154.96,105.4 164.43,105.59 173.91,105.88 183.38,106.27 192.85,106.81 202.33,107.52 211.8,108.46 221.27,109.65 230.74,111.17 240.22,113.06 249.69,115.4 259.16,118.25 268.64,121.7 278.11,125.84 287.58,130.76 297.05,136.57 306.53,143.4 316,151.36 325.47,160.59 334.95,171.24 344.42,183.46 353.89,197.42 363.36,213.31 372.84,231.31 382.31,251.63 391.78,274.49 401.26,300.12 410.73,328.76 420.2,360.66 429.68,396.11 439.15,435.38 448.62,466.1 458.09,466.1 467.57,466.1 477.04,466.1 486.51,466.1 495.99,466.1 505.46,466.1 514.93,466.1 524.4,466.1"/>
</g>
<g fill="none" stroke="#000091" stroke-dasharray="1.87,3.75" stroke-width="1.87">
<polyline fill="none" points="60.23,105.07 69.7,105.07 79.18,105.07 88.65,105.07 98.12,105.07 107.6,105.07 117.07,105.07 126.54,105.07 136.01,105.07 145.49,105.07 154.96,105.07 164.43,105.07 173.91,105.08 183.38,105.08 192.85,105.08 202.33,105.09 211.8,105.11 221.27,105.13 230.74,105.18 240.22,105.25 249.69,105.36 259.16,105.55 268.64,105.83 278.11,106.25 287.58,106.88 297.05,107.78 306.53,109.09 316,110.92 325.47,113.49 334.95,117.03 344.42,121.85 353.89,128.36 363.36,137.07 372.84,148.59 382.31,163.73 391.78,183.46 401.26,208.96 410.73,241.71 420.2,283.47 429.68,336.38 439.15,403.03 448.62,466.1 458.09,466.1 467.57,466.1 477.04,466.1 486.51,466.1 495.99,466.1 505.46,466.1 514.93,466.1 524.4,466.1"/>
</g>
<g fill="none" stroke="#0000ff" stroke-dasharray="1.87,3.75" stroke-width="1.87">
<polyline fill="none" points="60.23,105.07 64.92,105.07 69.61,105.07 74.3,105.07 78.99,105.07 83.67,105.07 88.36,105.07 93.05,105.07 97.74,105.07 102.43,105.07 107.12,105.07 111.81,105.07 116.49,105.07 121.18,105.07 125.87,105.07 130.56,105.07 135.25,105.07 139.94,105.07 144.63,105.07 149.32,105.07 154,105.07 158.69,105.07 163.38,105.07 168.07,105.07 172.76,105.07 177.45,105.07 182.14,105.07 186.82,105.07 191.51,105.07 196.2,105.07 200.89,105.07 205.58,105.07 210.27,105.07 214.96,105.07 219.64,105.07 224.33,105.07 229.02,105.07 233.71,105.07 238.4,105.07 243.09,105.07 247.78,105.07 252.46,105.07 257.15,105.07 261.84,105.07 266.53,105.07 271.22,105.07 275.91,105.07 280.6,105.07 285.28,105.07 289.97,105.07 294.66,105.08 299.35,105.08 304.04,105.08 308.73,105.08 313.42,105.08 318.11,105.09 322.79,105.1 327.48,105.11 332.17,105.13 336.86,105.16 341.55,105.2 346.24,105.27 350.93,105.36 355.61,105.51 360.3,105.71 364.99,106.02 369.68,106.46 374.37,107.09 379.06,107.99 383.75,109.28 388.43,111.1 393.12,113.66 397.81,117.25 402.5,122.27 407.19,129.24 411.88,138.87 416.57,152.14 421.25,170.33 425.94,195.17 430.63,228.96 435.32,274.74 440.01,336.53 444.7,419.63 449.39,466.1 454.08,466.1 458.76,466.1 463.45,466.1 468.14,466.1 472.83,466.1 477.52,466.1 482.21,466.1 486.9,466.1 491.58,466.1 496.27,466.1 500.96,466.1 505.65,466.1 510.34,466.1 515.03,466.1 519.72,466.1 524.4,466.1"/>
</g>
</g>
<g clip-path="url(#c0)">
<g fill="#0000ff" stroke="#0000ff" stroke-width="1.25">
<g transform="matrix(0.829 -0.5591 0.5591 0.829 341.52 170.01)">
<path d="M0,0l86.8,0"/>
</g>
</g>
<g fill="#0000ff" stroke="#0000ff" stroke-linejoin="miter" stroke-width="1.25">
<g transform="matrix(0.829 -0.5591 0.5591 0.829 413.48 121.47)">
<use xlink:href="#p1"/>
</g>
</g>
<g fill="none" stroke-linecap="butt" stroke-width="0.62">
<path d="M60.23,471.25l0,-464.17"/>
<path d="M60.23,471.25l3.75,0M60.23,445.47l3.75,0M60.23,419.68l3.75,0M60.23,393.89l3.75,0M60.23,368.11l3.75,0M60.23,342.32l3.75,0M60.23,316.53l3.75,0M60.23,290.74l3.75,0M60.23,264.96l3.75,0M60.23,239.17l3.75,0M60.23,213.38l3.75,0M60.23,187.59l3.75,0M60.23,161.81l3.75,0M60.23,136.02l3.75,0M60.23,110.23l3.75,0M60.23,84.44l3.75,0M60.23,58.66l3.75,0M60.23,32.87l3.75,0M60.23,7.08l3.75,0"/>
<path d="M60.23,471.25l7.5,0M60.23,368.11l7.5,0M60.23,264.96l7.5,0M60.23,161.81l7.5,0M60.23,58.66l7.5,0"/>
</g>
<g fill="none" stroke-width="1">
<g transform="matrix(0 -1 1 0 20.2 245.22)">
<g stroke="none" fill="#000000" fill-opacity="1" font-family="Times New Roman" font-size="22.5">
<text x="0" y="0" textLength="12.1">μ</text>
</g>
</g>
<g stroke="none" fill="#000000" fill-opacity="1" font-family="Times New Roman" font-size="22.5">
<text x="42.93" y="478.95" textLength="11.3">0</text>
<text x="31.63" y="375.81" textLength="22.6">20</text>
<text x="31.63" y="272.66" textLength="22.6">40</text>
<text x="31.63" y="169.51" textLength="22.6">60</text>
<text x="31.63" y="66.36" textLength="22.6">80</text>
</g>
</g>
<g fill="none" stroke-linecap="butt" stroke-width="0.62">
<path d="M60.23,471.25l464.17,0"/>
<path d="M60.23,471.25l0,-3.75M86.02,471.25l0,-3.75M111.81,471.25l0,-3.75M137.59,471.25l0,-3.75M163.38,471.25l0,-3.75M189.17,471.25l0,-3.75M214.96,471.25l0,-3.75M240.74,471.25l0,-3.75M266.53,471.25l0,-3.75M292.32,471.25l0,-3.75M318.11,471.25l0,-3.75M343.89,471.25l0,-3.75M369.68,471.25l0,-3.75M395.47,471.25l0,-3.75M421.25,471.25l0,-3.75M447.04,471.25l0,-3.75M472.83,471.25l0,-3.75M498.62,471.25l0,-3.75M524.4,471.25l0,-3.75"/>
<path d="M60.23,471.25l0,-7.5M163.38,471.25l0,-7.5M266.53,471.25l0,-7.5M369.68,471.25l0,-7.5M472.83,471.25l0,-7.5"/>
</g>
<g fill="none" stroke-width="1">
<g stroke="none" fill="#000000" fill-opacity="1" font-family="Times New Roman" font-size="22.5">
<text x="212.72" y="526.49" textLength="159.2">Temperature T, C</text>
<text x="54.58" y="497.45" textLength="11.3">0</text>
<text x="146.43" y="497.45" textLength="33.9">200</text>
<text x="249.58" y="497.45" textLength="33.9">400</text>
<text x="352.73" y="497.45" textLength="33.9">600</text>
<text x="455.88" y="497.45" textLength="33.9">800</text>
</g>
</g>
<g fill="none" stroke-linecap="butt" stroke-width="0.62">
<path d="M524.4,471.25l0,-464.17"/>
<path d="M524.4,471.25l-3.75,0M524.4,445.47l-3.75,0M524.4,419.68l-3.75,0M524.4,393.89l-3.75,0M524.4,368.11l-3.75,0M524.4,342.32l-3.75,0M524.4,316.53l-3.75,0M524.4,290.74l-3.75,0M524.4,264.96l-3.75,0M524.4,239.17l-3.75,0M524.4,213.38l-3.75,0M524.4,187.59l-3.75,0M524.4,161.81l-3.75,0M524.4,136.02l-3.75,0M524.4,110.23l-3.75,0M524.4,84.44l-3.75,0M524.4,58.66l-3.75,0M524.4,32.87l-3.75,0M524.4,7.08l-3.75,0"/>
<path d="M524.4,471.25l-7.5,0M524.4,368.11l-7.5,0M524.4,264.96l-7.5,0M524.4,161.81l-7.5,0M524.4,58.66l-7.5,0"/>
<path d="M60.23,7.08l464.17,0"/>
<path d="M60.23,7.08l0,3.75M86.02,7.08l0,3.75M111.81,7.08l0,3.75M137.59,7.08l0,3.75M163.38,7.08l0,3.75M189.17,7.08l0,3.75M214.96,7.08l0,3.75M240.74,7.08l0,3.75M266.53,7.08l0,3.75M292.32,7.08l0,3.75M318.11,7.08l0,3.75M343.89,7.08l0,3.75M369.68,7.08l0,3.75M395.47,7.08l0,3.75M421.25,7.08l0,3.75M447.04,7.08l0,3.75M472.83,7.08l0,3.75M498.62,7.08l0,3.75M524.4,7.08l0,3.75"/>
<path d="M60.23,7.08l0,7.5M163.38,7.08l0,7.5M266.53,7.08l0,7.5M369.68,7.08l0,7.5M472.83,7.08l0,7.5"/>
</g>
</g>
</g>
</svg>
